<svg xmlns="http://www.w3.org/2000/svg" id="Calque_2" data-name="Calque 2" viewBox="0 0 586 810"><defs><style>.cls-108,.cls-114,.cls-117,.cls-125,.cls-129,.cls-132,.cls-134,.cls-14,.cls-142,.cls-145,.cls-148,.cls-154,.cls-161,.cls-163,.cls-178,.cls-187,.cls-200,.cls-21,.cls-29,.cls-30,.cls-31,.cls-47,.cls-49,.cls-59,.cls-6,.cls-66,.cls-69,.cls-74,.cls-75,.cls-8,.cls-81,.cls-85,.cls-87,.cls-9,.cls-94{stroke-width:0}.cls-6{fill:#d9e397}.cls-8{fill:#fefefe}.cls-9{fill:#f5ddd8}.cls-14{fill:#adcd34}.cls-21{fill:#c6d468}.cls-29{fill:#d7e9f5}.cls-30{fill:#8cb939}.cls-31{fill:#d3de83}.cls-47{fill:#a71d0d}.cls-49{fill:#5e716e}.cls-59{fill:#073a24}.cls-66{fill:#697017}.cls-69{fill:#656a41}.cls-74{fill:#6c3133}.cls-75{fill:#bacf15}.cls-81{fill:#eef2fb}.cls-85{fill:#edf1d3}.cls-87{fill:#569736}.cls-94{fill:#c17246}.cls-108{fill:#e6e9b6}.cls-114{fill:#d7e191}.cls-117{fill:#becf22}.cls-125{fill:#c1d024}.cls-129{fill:#bdd10d}.cls-132{fill:#d5b592}.cls-134{fill:#5f2f36}.cls-142{fill:#704840}.cls-145{fill:#e9f0c0}.cls-148{fill:#6e3f45}.cls-154{fill:#6a2631}.cls-161{fill:#a7cd40}.cls-163{fill:#662e0c}.cls-178{fill:#6a6e71}.cls-187{fill:#0b4945}.cls-200{fill:#bfd121}</style></defs><g id="Calque_1-2" data-name="Calque 1"><path d="M585.91 405c0 133.47-.02 266.94.09 400.41 0 3.75-.84 4.59-4.59 4.59-192.27-.11-384.54-.11-576.82 0-3.75 0-4.59-.84-4.59-4.59Q.15 405 0 4.59C0 .84.84 0 4.59 0c192.27.11 384.54.11 576.82 0 3.75 0 4.6.84 4.59 4.59-.11 133.47-.09 266.94-.09 400.41" class="cls-8"/><path d="M570.91 757.92c-2.86 7.55-5.21 15.06-5.32 23.41-.08 6.09-5.67 9.56-10.65 12.23-1.84.99-3.74 1.75-5.43 3.13-2.57 2.1-5.83 2.84-8.93 2.07-6.58-1.62-12.64.15-18.95 1.56-5.43 1.22-11.18 1.41-16.7-.42-7.06-1.18-14.17-.44-21.25-.44-7.58 0-15.18-.71-22.74.44-1.33.67-2.67 1.33-4 2-6.66.78-13.33.78-19.99 0h-3c-1.89-1-3.92-.49-5.88-.49-73.05-.03-146.1-.02-219.15-.05-1.96 0-3.99.49-5.89-.46-2.23-2.83-5.52-1.87-8.37-2.21-8.19-.97-16.49-2.61-24.13 2.39-.79.51-1.88.76-2.84.77-10.45.16-20.85-.73-31.27-1.37-10.06-.61-20.35-4.04-30.48.21-1.29.54-2.96.2-4.46.2-14.32.01-28.65-.2-42.97.09-7.51.15-14.87-.07-21.71-3.38-6.17-2.99-14-2.91-18.71-8.07-3.94-4.33-8.77-8.58-9.07-15.52-2.01-47.09-.23-94.2-1.11-141.29-.15-8.27-1.36-16.61-.66-24.85.64-7.47.77-14.91.83-22.37.04-4.98-1.44-9.83-1.05-14.87.44-5.61.03-11.22.82-16.89.67-4.83.41-9.86-.44-14.87-.81-4.83-1-9.92.47-14.84 1.5-5.03 1.12-10.02.39-15.23-.91-6.53.43-13.28-1.19-19.83-.72-1.05-.47-2.25-.48-3.39-.01-26.07-.01-52.14 0-78.2 0-1.14-.24-2.34.48-3.39.84-8 .84-16 0-23.99v-3q-1.2-10.5 0-21c1-1.89.49-3.92.49-5.88.03-64.56.03-129.13.03-193.69 0-1.33-.17-2.69.06-3.99.39-2.22 1.39-3.48 3.71-1.71 1.47 2.05 1.28 4.43 1.28 6.75.03 64.31.34 128.63-.25 192.93-.12 13.31.58 26.62.12 39.88-1.03 29.64-.81 59.28-.81 88.93 0 11.98 2.11 23.97.86 35.92-1.66 15.79 1.25 31.58-.74 47.36-.74 5.9-.05 11.95.48 17.95.74 8.29.86 16.65-.19 24.94-1.31 10.35.52 20.62.53 30.92.06 36.32.13 72.64-.05 108.96-.04 9.18.78 18.29 1.19 27.44.31 6.73 9.01 16.26 16.1 17.23 4.6.63 8.65 2.46 12.7 4.27 3.32 1.48 6.57 2.12 10.12 2.1 10.83-.06 21.66.06 32.49-.05 8.12-.08 16.17 0 24.33-1.51 9.83-1.82 19.89.64 29.85 1.12 6.64.32 13.21 1.59 19.91 1.46 4.52-.09 8.96 0 12.96-2.69 1.52-1.02 3.46-1.2 5.32-1.07 83.83 5.61 167.77 1.41 251.65 2.74 6.82.11 13.58 1.35 20.44 1 2.85-.15 5.63-.29 8.22-1.7 2.43-1.32 5.13-1.32 7.8-1.32 11.5-.01 22.99 0 34.49 0 2.85 0 5.61.4 8.37 1.19 4.24 1.21 8.58 1.22 12.82-.02 4.36-1.27 8.87-2.15 13.3-1.97 6.77.28 12.72-1.55 18.54-4.67 4.76-2.55 7.79-6.1 8.07-11.7.31-6 .84-11.94 3.84-17.4 1.39-2.54 1.24-5.5 1.18-8.33-.27-13.15.5-26.3-.81-39.45-.95-9.62 1.68-19.27.79-28.93-1.92-20.78.14-41.57-.27-62.37-.77-38.6.61-77.22.32-115.84-.38-50.28.08-100.57.02-150.85-.09-82.62-.05-165.24 0-247.87 0-3.12-.55-6.36 1.19-9.28 2.17-1.8 3.34-.83 3.78 1.49.28 1.46.08 2.99.08 4.49 0 66.1 0 132.2.03 198.3 0 1.96-.51 4 .49 5.88v5c-.84 8-.84 16 0 23.99v5c-.97 1.72-.49 3.59-.49 5.38-.03 41.73-.02 83.47-.05 125.2 0 1.79.46 3.66-.46 5.39a38.8 38.8 0 0 0 0 14c.78 1.22.47 2.59.47 3.89.02 30.07.02 60.13 0 90.2 0 1.3.31 2.67-.47 3.89q-1.26 7.5 0 15v2q1.2 6 0 12v5c.81 10 .81 20 0 29.99a38.8 38.8 0 0 0 0 14q1.215 16.995 0 33.99a38.8 38.8 0 0 0 0 14c1.08 8.89.36 17.81.42 26.71.04 5.42.67 10.88-.42 16.28Z" style="stroke-width:0;fill:#fdfefe"/><path d="M11.09 151.06c-1.51-.75-2.66-.49-2.88 1.34-.18 1.48-.11 2.99-.11 4.49 0 64.31 0 128.63-.04 192.94 0 2.06.84 4.36-.96 6.18V55.63c0-2.48.19-4.96-.72-7.41-.44-1.19-.73-2.94-.17-3.91 5.69-10.01 4.64-23.23 15.06-31.05 3.07-2.3 6.2-3.54 9.87-4.22 32.03-5.94 64.36-1.59 96.51-3 10.66-.47 21.21 1.34 31.86 1.1 12.95-.3 25.87-1.23 38.85-1.21 10.65.02 21.42.1 31.79 1.63 7.14 1.05 13.18-1.71 19.83-1.57 14.49.3 28.99.32 43.48.05 31.96-.59 63.89 2.1 95.82.86 19.3-.75 38.57-.56 57.85-.81 8.8-.12 17.53 1.69 26.36 1 14.6-1.15 29.23-.73 43.85-1.13 7.82-.22 14.71 3.81 22.43 3.66 3.08-.06 6.17 1.17 9.29 1.39 10.52.77 17.62 9.01 17.86 19.76.1 4.61.82 8.85 4.81 11.87 1.74 1.32 1.54 3.43 1.01 5.08-1.05 3.29-.79 6.59-.79 9.9-.02 83.13-.01 166.26-.01 249.4-1.8-1.82-.96-4.12-.96-6.18-.05-66.31-.02-132.62-.16-198.94 0-1.65 2.29-5.79-2.87-4.83-1.87-1.88-1.54-4.32-1.54-6.6-.02-12.99-.15-25.98.07-38.97.05-2.73-.31-5.24-1.54-7.72-2.17-4.34-3.47-8.88-3.8-13.84-.54-8.15-4.82-12.15-12.99-13.92-22.15-4.79-44.47-5.32-66.98-3.61-8.78.67-17.6.16-26.43-.5-11.78-.87-23.63-.17-35.45-.28-19.47-.19-38.92 1.85-58.39.98-35.94-1.62-71.9-.72-107.85-.98-4.51-.03-9-.04-13.22 1.92-1.22.56-2.58.74-3.92.5-18.64-3.35-37.48-2.49-56.25-2.29-9.3.1-18.61 1.38-27.92.81-33.27-2.03-66.58-.35-99.86-.98-7.07-.13-13.8 1.99-20.75 2.64-4.16.39-7.09 3.61-9.43 6.9-6.45 9.07-9.19 19.29-9.12 30.37.21 31.47.09 62.95.05 94.42 0 1.82-.02 3.7-1.51 5.11ZM203.03 800.91c74.92 0 149.83 0 224.75.04 2.06 0 4.36-.84 6.18.96H317.05c-36.11 0-72.22.01-108.33-.03-1.9 0-4.03.76-5.68-.96ZM570.91 476.98c0-43.43-.01-86.86.03-130.29 0-1.9-.76-4.03.96-5.68 0 43.43.01 86.86-.03 130.29 0 1.9.76 4.03-.97 5.68ZM570.91 588.96v-97.98c1.53 1.3.98 3.08.98 4.67.03 29.55.03 59.1 0 88.64 0 1.59.55 3.37-.98 4.67M7.09 404v84.98c-1.53-1.3-.98-3.07-.98-4.66-.03-25.22-.03-50.44 0-75.65 0-1.59-.55-3.36.98-4.66ZM460.95 799.91c.82-1.08 2-1 3.16-1h37.67c1.16 0 2.34-.08 3.16 1zM570.91 757.92v-42.99c1.08.82 1 2 1 3.16v36.68c0 1.16.08 2.34-1 3.16ZM570.91 700.93v-33.99c1.39 1.12.98 2.7.99 4.14.03 8.57.03 17.14 0 25.72 0 1.43.41 3.01-.99 4.14ZM570.91 652.94v-29.99c2.08 3.87.98 8.05.89 12.03-.14 5.98 1.34 12.08-.89 17.96M7.09 380.01c1.66 8 1.66 16 0 23.99zM571.91 336.02c-1.66-8-1.66-16 0-23.99zM7.09 356.01v21q-2.43-10.5 0-21M436.95 801.91h19.99c-6.66 1.65-13.33 1.65-19.99 0M570.91 603.95q-2.445-7.5 0-15zM570.91 714.93c-1.61-4.67-1.61-9.33 0-14zM570.91 666.94c-1.61-4.67-1.61-9.33 0-14zM570.91 490.98c-1.61-4.67-1.61-9.33 0-14zM570.91 617.95v-12q2.385 6 0 12" class="cls-8"/><path d="M11.09 151.06c0-32.49.58-65-.38-97.46-.25-8.61 2.58-16.05 4.01-23.93 1.84-10.15 11.95-16.43 22.39-17.68 35.01-4.2 70.12-1.08 105.17-1.63 8.54-.13 17.31 1.35 25.84.54 12.81-1.22 25.59-.67 38.37-.72 9.89-.04 19.86-.2 29.51 2.71.73.22 1.85.23 2.4-.18 4.72-3.51 10.17-2.59 15.43-2.59 27.16-.04 54.32-.49 81.46.15 16.79.39 33.59 1.39 50.35.68 20.29-.87 40.57-.7 60.85-.87 9.64-.09 19.21 1.85 28.86 1.01 14.6-1.27 29.27-1.58 43.84-.76 9.4.53 18.82 2.07 28.17 4.01 4.99 1.03 8.4 2.34 11.98 6.03 2.91 3 3.38 6.34 3.31 9.34-.13 4.79 1.26 9.05 3.45 12.72 2.16 3.61 1.87 6.98 1.85 10.67-.08 14.66-.03 29.32-.03 43.99 0 68.48-.17 136.95.14 205.43.06 12.03.37 24.16.24 36.13-.21 18.95-.11 37.92-.34 56.87-.26 21.66-.24 43.32.03 64.97.11 8.34-1.56 16.58-1.03 24.86 1.97 30.94.58 61.9.85 92.84.1 11.24-1.02 22.42-.21 33.75.64 8.81.21 17.81.41 26.71.17 7.68-1.68 15.24-1.05 22.86.65 7.79.77 15.57 1.03 23.37.27 8.01-1.64 15.93-1 23.86 1.22 14.95.75 29.91.91 44.86.04 3.57-.83 6.65-2.73 9.83-2.29 3.83-2.19 8.53-2.26 12.98-.12 7.81-4.7 10.97-11.12 14.94-8.8 5.44-18.26 1.65-26.74 4.76-4.73 1.73-9.57 2.72-14.05 1.63-15.3-3.75-30.74-.83-46.06-1.8-2.81-.18-5.63-.35-7.86 2.12-1.23 1.36-3.14.88-4.77.84-81.41-2.13-162.84-.45-244.26-.98-9.52-3.77-19.73-.62-29.41-2.87-2-.46-4.22-.34-5.8.87-7.46 5.75-15.95 2.55-23.92 2.54-3.27 0-6.9-.67-10.31-1-9.72-.94-19.79-2.7-29.25-1.18-20.72 3.32-41.41.54-62.07 1.6-3.83.2-6.73-2.81-10.13-4.09-2.26-.85-4.37-1.56-6.77-1.91-5.66-.82-9.95-3.9-13.1-8.62-.18-.26-.09-.76-.3-.94-8.69-7.07-5.39-17.3-5.59-25.83-.83-34.8-.26-69.63-.4-104.45-.04-9.29.37-18.56-.75-27.88-.94-7.86.05-15.88.66-23.85.76-9.93.05-19.91-.84-29.85-.58-6.49 1.32-12.97.83-19.35-1.22-16.08.88-32.12.07-48.15-1.53-30.28-.83-60.56-.79-90.84 0-8.1 1.16-16.22.85-24.36-.23-6.13-1.09-12.26-.91-18.36 2.09-72.76.37-145.53.93-218.3Z" class="cls-81"/><path d="M203.05 615.91c2.84 11.74 19.28 19.42 31.8 8.39 2.74-2.42 4.53-5.74 4.25-9.69-.24-3.33.94-4.84 4.55-4.75 8.32.19 16.65.12 24.97 0 3.22-.05 4.39 1.24 4.38 4.46-.13 32.81.05 65.62-.36 98.43-.13 9.98-.45 19.97-.35 29.95.04 4.51-1.52 6.27-6.06 6.22a15965 15965 0 0 0-95.39-.72c-3.29-.02-4.49-1.46-4.61-4.44-.36-9.31 1.24-18.58.21-27.93-.38-3.48 2.92-2.83 5.17-2.83 19.98.02 39.97.07 59.95.08 7.35 0 7.39-.03 7.44-7.52.09-13.99.16-27.98.17-41.97 0-5.55-.82-6.09-6.23-4.56-25.34 7.15-51.81-6.79-61.19-31.58-3.43-9.08-4.7-18.17-4.65-27.73.18-34.64-.19-69.29.35-103.93.29-18.57 5.77-35.54 21.51-47.26 13.35-9.93 28.23-13.01 44.62-9.04 16.42 3.97 27.57 14.26 34.91 28.83 2.96 5.87 4.21 12.69 4.35 19.27.42 19.31.21 38.63.32 57.95.02 3.32-1.54 4.31-4.63 4.25-7.99-.15-15.99-.29-23.98-.08-4.31.12-5.41-1.72-5.34-5.68.29-16.8.44-33.6.47-50.41 0-4.28-.1-8.58-1.58-12.78-1.95-5.56-6.61-8.05-11.13-10.81-11.03-4.56-23.81 4.25-24.1 14.74-.17 6.12-.76 12.27-.79 18.39-.14 35.14-.08 70.29-.06 105.44 0 2.47-.32 5.01 1.01 7.31Z" style="stroke-width:0;fill:#148bdd"/><path d="M368 389.89c-.5.03-.99.07-1.49.1-2.59-.74-4.95-2.15-7.91-1.57-2.58.51-4.62 1.35-5.56 3.97-2.41 1.45-4.76 3.09-7.82 2.46-1.62-.55-3.57-.48-4.47-2.37.06-.5.33-.9.62-1.31.88-1.24 3.48-1.66 2.56-3.65-.79-1.72-3.02-1.89-4.82-2.08-2.36-.25-4.55.72-6.8 1.3-.46.16-.93.26-1.41.35-4.89.77-9.9-.58-14.73.9-.38.28-.78.52-1.19.74-2.52 1.28-3.78 2.61-.06 3.95 1.05.38 2.26.29 3.15 1.14-1.01 2.22.35 3.35 1.99 4.36.22 2.07-.83 3.42-2.5 4.41-9.54 1.4-18.64 4.76-28.1 6.51-2.54.37-5.24.02-7.51 1.64-3.32.8-6.89-.61-10.09 1.18-1.62.03-3.23.07-4.85.1-5.25 1.66-10.77 1.12-16.14 1.74-2.41.28-4.94.17-7.39.55-5-6.59-12.56-6.56-19.21.07-3.6 1.96-7.51 0-11.19.92-3.49-4.12-8.21-4.06-13.03-4.04-2.51.01-3.08 2.08-4.47 3.31-5.76 1.88-10.96-1.25-16.29-2.3-2.63-.52-5.42-.91-8.08-1.59-2.37-1.85-5.49-1.03-8.04-2.25-3.7-2.53-8.11-3.03-12.24-4.34l-1.9-.81c-1.48-.14-2.97-.21-4.34-.86-4.26-3.5-9.85-4.03-14.57-6.48h-.02c-2.03-1.88-4.6-2.78-7.03-3.94l-.07.04c-2.37-1.87-5.25-2.76-7.9-4.09v.02c-3.88-2.36-7.73-4.76-11.13-7.8-.28-.09-.56-.16-.85-.22-4.26-3.02-7.91-6.76-11.98-10.01h-.01c-7.4-6.19-12.07-14.6-17.97-22.01h-.01c-3.51-5.03-6.23-10.5-9.07-15.92h-.03c-3.67-4.64-5.59-10.24-7.09-15.72-4.3-15.59-9.05-31-9.66-47.54-.78-21.07 1.41-42.07.34-63.1-.04-.87.16-1.66 1.33-1.56 2.95 4.76 1.44 10.02 1.36 15.01-.2 11.45-.43 22.88.12 34.33.25 5.23-.13 10.48-.16 13.98-.52-4.96.82-11.58.04-18.41-.94-8.2-.26-16.59-.2-24.89.01-1.91-.41-4.57 2.47-4.54 3.09.03 3.73 2.73 3.2 5.09-.63 2.78.43 4.83 1.7 6.98.63 1.27.75 2.59.37 3.94-2.93 3.35-1.38 7.42-1.79 10.81.6-2.64-1.11-5.96 1.2-8.75.42-.26.87-.43 1.34-.53.73-.09 1.43 0 2.09.31 2.37 1.75-.59 4.22.83 6.09.31.32.62.62.97.89 3.07.75 6.19.06 9.27.36 3.18.31 4.9 1.67 3.97 5.13-2.81 4.12-6.55 7.44-9.63 11.38-7.28 9.34-7.57 19.52-5.27 30.3.69 3.24 1.28 6.55 2.78 9.56 2.85 5.06 6.24 9.62 11.53 12.43.71.61 1.21 1.38 1.79 2.09 4.39 3.33 8.91 6.39 14.46 7.49 12.62 6.7 25.2 13.47 37.51 20.71 10.45 6.14 21.28 11.54 31.93 17.3 3.53 1.91 6.6 4.49 10.21 6.23 5.62 3.49 10.85 7.67 17.26 9.77 3.16 1.75 6.91 2.67 8.71 6.29.9 1.39 1.81 2.49 3.71 2.93 3.91.9 4.08 2.25 1.24 5.64 2.49-2.68 5.56-4.68 8.23-7.09 3.51-3.18 7.71-3.68 12-4.06 1.75-.15 4.01-.17 4.21 2.36.17 2.09-1.27 3.35-3.26 3.81-5.26 1.22-9.7 4.08-14.18 6.9-.83.52-1.52 1.17-1.91 2.32 5.88-7.15 15.97-6.32 22.52-12.8-1.11-.98-3.04-2.26-1.32-4.44 1.44-1.82 4-3.51 5.55-2.36 4.17 3.09 8.94 1.78 12.96 2.75-1.15-.35-2.71-.42-4.28-.46-1.9-.06-3.35-.79-3.07-2.98.24-1.94 1.79-3.2 3.5-2.79 5.48 1.32 10.51-.33 15.59-1.82 2.44-.72 3.94 2.21 7.08 1.63-2.66-2.37-6.94-3-5.62-7.4 1.87-2.16 4.32-2.88 7.06-2.92 3.59.35 6.52-1.74 9.76-2.67 2.03-.59 4-1.36 6.15-1.33 7.02.05 13.08-3.45 19.6-5.26 2.48-1.48 5.04-2.71 8.02-2.69 3.94.45 7.03-1.73 10.28-3.39.46-.2.94-.33 1.43-.43 4.77.16 9.18-1.17 13.39-3.3 1.98-.95 4.42-.82 6.06-2.6 2.43-1.84 5.23-2.41 8.2-2.32 6.67-.02 12.2-3.87 18.39-5.52 1.88-.5 3.41-2.16 5.59-1.78 2.94 1.22 3.51-.87 4.43-2.93 2.25-5.03 5.99-7.19 10.05-5.27 2.77 1.31 5.49 3.23 7.06 6.19-1.82 2.45-3.43 5.12-6.73 5.96-1.77.46-1.16 1.58-.53 2.63-.37 5.73-5.24 9.12-7.28 13.98-1.31 2.59-.06 4.54 1.62 6.37 1.38 1.54 3.28 2.27 5 3.29 2.28 1.54 4.25 3.34 5.28 5.98.42 4.85.81 9.7-1.19 14.36-1.98 1.11-3.59.09-4.69-1.28-2.16-2.7-5.19-4.36-7.58-6.75-1.77-2.24-3.63-4.34-6.91-4.01-1.23.2-2.42.18-3.5-.53-.79-.8-.89-1.76-.64-2.8.18-.46.48-.84.87-1.15 2.52-1.14 4.41-2.11.47-4.25-4.14-2.25-8.05-2.55-12.12-.14-1.9.42-3.84.25-5.75.48-3.01 1.09-3.58 2.28-.37 4.07 2.47 1.38 5.07 1.03 7.66 1.18 2.25.12 4.73-.24 5.86 2.52.58 1.71.83 3.55 2.01 5.02 2.44 4.17 7.01 6.85 8.25 11.85-1.4 3.18-4.91 2.28-7.21 3.74Z" class="cls-200"/><path d="M539.16 171.95c-6.42 4.36-9.82 10.54-10.6 18.14-1.13 10.85-1.66 21.79-3.25 32.57-.95 6.43-3.77 12.47-8.31 17.43-.89-3.8 2.14-6.58 2.66-10.15-2.87 8.82-9.52 13.84-16.88 18.54-10.17 6.48-20.63 12.47-30.96 18.68-4.96 2.98-10.59 4.84-16.75 5.37-7.39.64-14.88-.87-22.17 1.13-3.49-.82-6.93-1.84-10.34-2.93-7.1-2.79-14.7-3.8-21.93-6.24-5.64-1.9-10.93-4.84-16.92-5.76-1.65-.25-2.71-1.84-3.83-3.06-5.2-2.74-7.45-6.65-5.42-12.6.83-2.44-.95-5.44 1.01-7.68 2.25-2.59 4.97.08 7.52-.25 3.91-.51 7.47-2.91 11.59-2.08 3.33.1 6.54-.24 9.77-1.41 4.05-1.48 5.7-.03 4.91 4.2-.54 2.91.2 5.22 1.92 7.4 1.25 3.26 2.77 6.31 6.07 8.02 3.07 1.55 6.29 2.8 9.29 4.47 1.81 1.01 3.39 1 4.92-.41 2.24-1.3 4.25-2.97 6.57-4.14.95-.29 1.92-.37 2.9-.4.97-.03 1.94-.02 2.91-.06 2.55.06 3.85-1.55 4.7-3.64 1.34-3.29 3.74-5.28 7.13-6.16 2.48-3.87 6.73-6.94 5.5-12.47-.29-1.32.2-2.57 1.14-3.59 2.45-2 5-3.85 7.62-5.63 3.53-1.84 6.66-4.67 11.01-4.46 1.94.03 3.85-.11 5.71-.71 1.5-.24 2.86-.56 3.23-2.42.3-1.5 1.14-2.71 2.64-3.33 6.43-.86 9.57-6 13.37-10.27 2.12-5.88 2.5-11.98 2.01-18.1-.57-7.17.96-14.19 1.04-21.3.02-1.92.94-3.11 2.65-3.79 1.56-.61 2.96-1.48 4.18-2.64 1.56-2.13 4.06-3.19 5.86-5.05 2.25-1.14 4.55-.87 6.86-.25 1.24.47 2.55.53 3.85.72 7.24 1.07 13.83 10.48 12.38 17.65-.64 3.14-3.34 4.75-5.54 6.68Z" class="cls-163"/><path d="M75.09 156.04c4.12 2.22 8.29 4.33 12.34 6.71 6.19 3.65 12.94 6.34 19.45 9.44 9.28 4.23 18 9.57 27.18 13.99 1.32.64 2.82.9 3.99 1.85l-.04.06c2.15 1.87 4.49 3.34 7.49 3.39 6.44 1.02 8.3 2.95 7.98 9.08-1.78 34.45-.48 68.92-.84 103.38-.12 11.29-1.99 22.57-.12 33.87.32 1.94.12 4.01-1 5.8-4.67 1.65-4.55-2.09-4.5-4.56.09-4.31.56-8.62.55-12.95-.03-30.12.04-60.24-.05-90.36-.03-11.31 1.16-22.57.87-33.88-.04 7.76-1.01 15.47-.93 23.24.1 9.18-1.77 10.23-10.66 9.24-12.68-1.41-25.21.04-37.26 4.45-4.99 1.83-9.95 3.74-14.84 5.82-.56.05-1.09-.07-1.59-.33.91-4.63 3.98-6.72 11.22-7.04-3.89-.46-8.04 1.18-8.87-3.42-.45-2.54 1.2-4.36 4.17-4.21.7 4.45 3.4 3.67 6.61 2.62-1.76-1.61-4.28-.41-5.46-2.4 2.4-2.92 4.62-5.99 6.99-8.95 4.21-5.26 6.19-11.29 5.42-17.11-.51 2.1.19 5.35-.79 8.38-.53 1.66-.55 3.93-3.38 3.14-1.43-1.65-.67-3.41-.2-5.12.52-1.91.88-3.82.91-5.81.07-4.86-.21-5.13-5.18-4.86q-.2-2.9 3.49-5.3c-2.15.43-3.23 2.24-4.74 3.47-1.09.89-2.38 1.51-3.62.7-1.64-1.08-.8-2.66-.28-4 .75-1.91 2.71-2.89 3.81-4.46 1.62-2.31 5.18-4.24 2.48-7.96.15-4.38-.56-8.46-4.18-11.47-4.64-5.96-7.95-6.9-12.69-3.6-1.05 1.07-2.29 1.93-3.31 3.02-4.43 4.73-7.68 9.72-3.8 16.38.04.74-.13 1.41-.69 1.94-4.41-1.44-4.81-5.24-5.51-8.89.01 5.26 2.86 9.62 6.52 12.58 5.09 4.12 4.81 8.94 4.15 14.29-.43 3.53-2.38 3.7-4.79 1.99-2.85-2.01-5.62-4.07-8.93-5.33-1.65-.63-2.86-.75-3.3 1.34-1.93 2.01-2.04 4.37-1.39 6.92.4 1.56 1.39 3.06.57 4.76-5.07 1.1-3.77-3.08-4.57-5.42-.21 2.66 1.61 5.77-1.44 8.02-2.4-.23-2.29-2.08-2.24-3.71.13-4.42.45-8.76 1.14-13.19 1.32-8.56 1.3-17.36-.05-27.02-1.17 2.96-.28 5.55-2.04 7.32-3-.48-1.82-2.99-2-4.59-.8-7.18-2.75-14.12-4.14-21.17l-.03-.02c-1.32-4.05-2.61-8.09-4.22-12.04-1.53-3.75-.01-5.06 4.42-4.16l.05.03c10.49 5.61 21.59 10.02 31.85 16.09Z" class="cls-117"/><path d="M477.87 158.11c.81.1 2.13.26 1.64 1.25-2.88 5.8 1.37 8.36 5.03 10.87 2.53 1.73 5.03 3.17 5.76 6.44.68 3.04 3.75 3.5 5.72 5.16 1.21 1.02 3.76 2.07 2.02 4.26-1.37 1.72-3.26 1-4.88-.24-1.84-1.4-3.76-2.72-5.67-4.03-.81-.55-2.14-1.61-2.48-1.36-5.49 3.87-6.72-2.01-9.1-4.24-2.61-2.43-4.76-3.64-8.27-2.11-4.08 1.78-7.85-.54-11.17-2.26-10.11-5.25-20.15-10.68-30.11-16.17-9.62-5.3-19.78-9.39-29.4-14.66-10.41-5.7-20.42-12.36-31.87-16.12-3.02-.99-4.21-3.64-1.25-5.51 5.6-3.55 1.38-4.06-1.23-5.31-.58-.28-1.09-.68-1.64-1.02 4.73-2.38 7.68 1.33 11.15 3.25-1.73 2.75.15 4.21 2.1 5.5 4.7 3.1 9.86 5.33 15.61 8.55-1.28-2.39-3.82-2.1-4.13-4.04.78-1.65 2.07-2.9 3.25-4.25 2.05-.33 3.89.64 5.85.9.92.13 2.26.39 2.56-.81.39-1.56-1.02-2.08-2.15-2.01-3.41.22-5.73-1.2-7.21-4.18 4.56-1.55 7.86 1.34 11.44 3.25 1.28.68 2.81 1.88 2.41-1.11 4.56 2.69 10.38 1.58 14.79 4.93 1.15.88 1.72 1.9 2.29 3.07-3.56 1.17-6.12-1.94-10.62-2.3 7.33 3.73 13.4 7.34 19.72 10.52 14.64 7.37 29.7 13.91 43.91 22.14 1.77 1.03 3.51 2.71 5.92 1.62Z" style="stroke-width:0;fill:#d6e9f6"/><path d="m446.02 377.96-.25.14-.27-.09c-7.49-4.4-14.44-2.88-21.08 1.93-3.35.4-6.76-.44-10.08.52-1.9-1.87-.29-3.65.26-5.35 2.11-6.59 1.32-7.76-5.36-7.56-2.29-.74-4.21-2.18-6.31-3.26-.26-.43-.37-.89-.31-1.39 2.05-1.98 1.18-5.71 4.24-7.09 1.09.67 1.02 2.01 1.64 3.01 4.26-5.67 4.13-9.37.05-14.5-1.83-2.3-4.7-4.16-4.34-7.75 3.46-1.91 6.35-1.96 8.93 1.76 1.88 2.71 4.81 3.79 8.19 4.8 5.26 1.57 10.56 3.38 15.7 5.44 2 .8 3.91 2.16 5.53-.51.41-.31.87-.4 1.38-.3 8.66 4.79 17.69 8.84 26.57 13.21 1.69.83 3.02 1.93 4.39 3.09 1.32 1.54 3.72.41 5 2.03 4.19 1.83 7.93 4.63 12.4 5.91 1.33 1.26 4.17 1.76 2.92 4.4-1.14 2.39-3.32 1.02-5.24.9-10.08-.64-20.18-.31-30.26-.21-4.55.04-9.23-1.07-13.68.89Z" class="cls-125"/><path d="M186.98 127.94c4.06-5.84 10.42-7.92 16.72-9.8 5.17-1.54 9.92-4.32 15.33-5.12.61-.09 1.19-.87 1.73-.81 9.26.95 17.88-3.31 27.07-3.21 8.55.1 17.11-.5 25.67-.53 4.57-.02 8.15 3.24 12.48 4.4 7.22 1.94 13.93 5.43 21.16 7.66 5.45 1.68 11.82 3.35 16.05 6.75 3.78 3.03 8.76 3.11 11.81 6.74-.58.66-1.35 1.1-2.17 1.01-10.74-1.23-21.29 1.58-31.98 1.46-3.18-.04-6.17.97-9.07 2.2-18.01 4.05-35.24 10.07-49.76 21.88-14.2 11.55-23.75 26.3-28.2 44.19-.16.65-.3 1.3-.32 1.97-.08 2.98-1.22 6.48.52 8.78 2.16 2.85 5.15-.29 7.72-.7 12.15-1.96 24.08-5.11 36.18-7.23 8.48-1.49 16.61-4.96 25.39-4.79 1.13.14 2.2.41 2.9 1.42-.2 2.37-2.05 2.77-3.86 3.17-10.36 2.29-20.86 3.99-31.14 6.48-10.33 2.51-20.9 3.85-31.12 6.78-1.78.51-3.62 1.11-5.38.73-4.88-1.04-5.51 1.46-5.3 5.46.24 4.64.27 9.31-.07 13.95-.12 1.6.63 4.31-2.66 4.06-1.39-1.89-.98-4.1-1.03-6.2-.24-9.2.29-18.4.04-27.59 3.21-25.24 15.95-44.78 36.35-59.37 15.4-11.01 32.89-17.04 51.48-20.36 7.54-1.34 14.93-3.32 22.79-2.83-8.79-3.61-17.67-6.85-26.44-10.37-2.16-.87-4.36-1.6-6.45-2.65-8.16-4.08-16.84-4.44-25.7-3.48-6.6.72-13.23.91-19.85 1.62-14.71 1.59-28.73 5.19-42.09 11.5-3.37-.43-5.15 4.13-8.8 2.82Z" class="cls-9"/><path d="M145.07 123.05c-1.15-.09-2.42.11-3.42-.31-3.17-1.33-2.95 1.99-4.08 3.11-1.3 1.3.61 2.09 1.66 2.82 2.22 1.52 6.47 3 0 4.66-1.46.37-.79 1.72.09 2.21 1.69.93 3.25 2.55 5.39 2.1 3.48-.74 2.38 2.87 3.91 4.05.92.71.24 2.22-.91 2.88-1.96 1.13-2.94-.61-4.25-1.51-3.2-2.19-3.91-1.87-4.78 1.81-.33 1.41-1.41 1.26-2.3.73-1.83-1.09-3.57-2.33-5.34-3.51 2.32-2.52.03-3.42-1.62-4.4-7.59-4.5-15.61-8.16-23.37-12.33-8.63-4.64-17.29-9.23-25.6-14.44-1.47-.92-3.49-1.44-3.46-3.78 1.27.13 2.84-.17 3.76.47 3.51 2.46 4.53.34 5.32-2.54 1.48-1.42 3.08-1.06 4.58-.16 10.66 6.39 21.96 11.6 32.79 17.68 1.33.74 2.29 1.92 3.66 2.56-6.4-5.79-14.6-8.44-22.01-12.45-7.27-3.93-14.27-8.39-21.85-11.77-.77-.34-1.46-.82-1.16-1.87 3.98.1 6.73-2.01 8.98-5 2.08-1.66 3.79-.22 5.46.74 9.95 5.7 20.32 10.63 30.31 16.22 5.04 2.82 10.11 5.65 15.07 8.63 1.29.78 3.28 1.2 3.15 3.4Z" style="stroke-width:0;fill:#daedf8"/><path d="M380.77 254.59c6.27 4.62 13.78 6.26 20.96 8.67 7.03 2.37 14.14 4.53 21.21 6.78.53.56 1.76.84.78 1.99-2.58-.74-4.8-3.28-8.2-1.39 5.87 4.82 13.34 5.82 19.8 8.95 3.74 1.81 6.76 5.34 11.47 5.02.36-.02.88.52 1.13.92 3.45 5.35 6.99 10.59 12.77 13.82.84.47 1.36 1.52.59 2.58-.65.9-1.66 1.24-2.65.99-1.76-.45-3.6-.86-5.17-1.72-5.87-3.24-12.03-6.07-17.19-10.45-1.9-1.61-3.68-2.25-5.83-.92-3.04 1.87-5.76 1.27-8.14-1.05-1.27-1.24-2.86-1.59-4.34-2.3-1.92-.92-4.42-1.94-.35-3.53.87-.34 1.47-.92 1.05-1.88-.53-1.24-1.62-1.04-2.52-.56-5.75 3.1-10.17 1.77-13.4-3.85-.52-.91-1.33-1.57-2.4-1.54-4.7.11-8.31-1.59-10.72-5.8-.82-1.43-2.58-1.29-4.1-1.27-2.12.03-4.27.23-6.64-1.38.84 14.75-1.57 28.99-.84 43.32-3.32-.99-2.44-3.86-2.57-6.11-.73-13.12 1.47-26.18.99-39.31-.12-3.26-.61-6.67 1.19-9.75.96-1.16 2-1.37 3.13-.23Z" class="cls-29"/><path d="M376.16 556.12c-4.58 10.6-9.03 21.25-13.76 31.79-5.61 12.49-11.63 24.8-17.12 37.34-2.92 6.68-5.01 13.83-5.14 21.14-.32 17.82.09 35.66-.28 53.48-.19 9.08 4.37 14.13 12.07 17.35 4.97 2.08 15.18-.22 19.14-5.3 2.69-3.45 3.84-8 3.84-12.62-.03-18.5.12-36.99-.09-55.49-.05-4.52 1.22-6.32 5.93-6.12 7.98.35 15.99.32 23.99.18 3.81-.07 5.45 1.22 5.42 5.17-.17 20.33.68 40.71-.55 60.97-1.07 17.67-10.98 30.86-26.07 40.15-12.55 7.74-26.54 8.46-39.89 5.27-16.91-4.04-28.93-15.35-35.71-31.81-2.48-6.02-3.12-12.16-3.09-18.53.09-17.33.17-34.66.04-51.99-.06-8.53.39-16.94 3.18-25.08.59-.35 1.07-.24 1.45.32.79 1.36.98 2.88.69 4.36-4.45 22.92-2.44 46.11-2.71 69.19-.13 10.97 2.07 21.42 8.85 30.61 11.18 15.15 25.9 22.48 44.75 20.83 19.38-1.69 33.28-11.45 41.59-29.08 2.83-6 3.71-12.43 3.8-18.95.14-10.16.13-20.31 0-30.47-.09-7 1.45-13.9 1.07-20.93-.32-5.9-.68-6.41-6.74-6.53-5.98-.12-11.98.34-17.95-.58-3.65-.56-5.5 1.33-5.16 4.85 1.77 18.47-1.93 36.94-.17 55.34 1.42 14.84-17.14 23.92-28.55 18.34-6.47-3.17-11.28-7.28-11.85-15.24-1.06-14.97-.28-29.94-.43-44.91-.1-10.22.47-20.21 3.55-30.05 1.16-3.7 2.75-7.14 4.41-10.57 8.98-18.59 17.06-37.58 25.37-56.47 1.35-3.06 1.9-6.87 5.73-8.29.78.67.81 1.47.37 2.33Z" style="stroke-width:0;fill:#80bbe3"/><path d="M376.16 556.12c-.07-.73-.15-1.46-.22-2.19-1.35-2.54.49-4.5 1.39-6.5 9.67-21.57 19.07-43.26 29.18-64.64 2.19-4.63 3.28-9.32 3.1-14.46-.23-6.82-.2-13.66 0-20.49.12-4.15-1.57-5.74-5.61-5.47-2.82.19-5.66-.03-8.49.04-26.81.74-53.58-1.47-80.39-1.02-6.89.11-6.8.05-6.75 6.99.05 6.33.44 12.67-.31 18.97-.4 3.4.61 4.62 4.28 4.8 17.32.83 34.63.18 51.95.42 1.83.02 3.66-.02 5.49.13 3.39.27 4.59 2.25 4.32 5.42-.12 1.35-.54 2.61-1.1 3.82-13.69 29.62-26.8 59.52-40.31 89.22-6.89 15.15-13.88 30.26-19.92 45.78-.79 2.03-1.37 4.16-3.68 5.05-.33 0-.66 0-.99.04 1.05-6.25 3.63-11.97 6.23-17.66 7.31-15.97 14.38-32.04 21.25-48.2 5.6-13.17 11.96-26.01 17.92-39.02 5.16-11.28 10.23-22.61 15.32-33.92.2-.45.25-.97.39-1.45.53-1.82 3.92-3.21 2.2-4.95-1.68-1.71-4.85-1.75-7.5-1.57-16.6 1.1-33.2 1.18-49.8-.09-2.87-.22-6.5 2.65-8.51-1.48-1.35-2.77-.51-5.91-.55-8.88-.09-7.16.1-14.33-.09-21.49-.1-3.72.98-5.45 5.06-5.43 27.15.15 54.31.01 81.46.27 5.86.06 11.68.68 17.58.2 2.64-.21 3.82 2.58 3.85 4.93.13 11.16.67 22.38-.27 33.46-.4 4.8-4.01 9.32-6.14 13.98-6.4 14.02-13.29 27.82-18.87 42.23-2.78 7.18-6.89 13.86-9.34 21.25-.34 1.02-1.06 1.67-2.12 1.92Z" style="stroke-width:0;fill:#b0dbf3"/><path d="M442.93 348.32c.25 3.21-.64 4.23-3.98 2.76-7.04-3.08-14.11-6.22-21.87-7.07-2.72-.3-4.26-3.4-4.65-4.35-1.98-4.93-5.49-2.48-8.45-2.64-4.62-.87-8.46-3.85-9-7-1.69-2.5-4.54-3.81-6.75-5.6-3.27-2.65-8.42.95-9.15 6.15-.71 5.11-2.48 4.29-5.11 1.42-1.08-5.34 0-10.75-.54-16.13-.25-2.52 1.75-3 3.73-2.08 1.32.61 2.54 1.5 3.83 2.23.29.04.58.08.88.13 4.31 2.74 9.25 4.38 13.22 7.71a85 85 0 0 1 16.84 8.25c6.52 2.98 12.76 6.5 18.91 10.16.62.33 1.19.73 1.74 1.15 2.45 1.67 4.94 3.24 8.02 3.47.96.2 1.93.38 2.35 1.45Z" class="cls-75"/><path d="M410.85 244.13c-2.93-2.55-5.1-5.28-2.41-9.31.48-.72.6-1.6-.15-2.25-.85-.74-1.97-.68-2.81-.17-3.36 2.04-7.02 1.72-10.67 1.59-.02-1.47 1.07-1.32 2.03-1.43 7.68-.9 8.52-1.83 8.64-9.4.01-.97-.15-1.97.34-2.89 2.66-8.27 4.99-16.7 11.26-23.23 1.12-1.16 1.87-2.75 3.68-3.07 3.3-1.71 5.24-5.35 9.03-6.37.43-.83.96-1.53 1.98-1.63 3.46-.32 6.41-2.3 9.77-2.99 1.72-.36 3.77-1.74 4.6.72.76 2.26-1.3 3.02-3.13 3.5-3.96-.24-6.89 2.28-10.18 3.85-3.42 1.88-7.04 3.47-9.6 6.6-5.3 4.18-3.8 9.14-1.69 14.2.8 1.91 2.55 3.53 1.78 5.92-2.35 1.33-3.34-.66-4.13-2.04-1.73-3.04-2.26-.4-3.2.5-1.53.19-1.8-1.16-2.5-2.05-1.25 5.53 2.76 8.06 6.17 10.9 1 .83 2.5.86 3.43 1.88.1 2.84-4.28 1.36-4.12 4.27-3.63-.48-6.25-2.47-7.86-5.05-1.64 7.49 5.02 7.4 9.59 9.42-.67 3.55-.66 3.53 3.32 4.79 1.72.55 3.57.97 4.19 3.05-.02.5-.24.87-.67 1.13-4.32.04-8.47-1.04-12.42-2.55-2.31-.88-2.95.12-3.73 1.7-.19.14-.38.28-.57.41Z" style="stroke-width:0;fill:#592d34"/><path d="M107.05 98.07c2.6-.7 2.38-1.66.53-3.25-2.92-2.51-6.3-4.7-9.78-5.59-3.95-1.01-5.93-4.47-9.48-5.73-1.32-.46-2.75-1.87-1.84-3.55.87-1.61 2.34-.13 3.55-.09 4.09.14 7.04 3.25 9.77 5.2 7 5.01 15.04 7.92 22.18 12.59 7.31 4.78 15.67 7.97 23.65 11.67 1.97.92 2.6 2.46 3.07 4.2.58 2.17-.66 3.13-2.36 1.94-2.6-1.81-5.94-1.88-8.36-4.21-1.39-1.34-3.91-2.73-4.97.87-1.28 1.01-2.64.54-3.71-.17-6.51-4.28-13.7-7.35-20.36-11.34-.92-.55-2.2-1.01-1.88-2.55Z" style="stroke-width:0;fill:#d5eaf2"/><path d="M380.98 316c-.16.03-.36.12-.49.06-7.48-3.6-5.49 2.01-5.43 5.63.05 3.48.06 6.95-1.1 10.29-5.59 3.58-12.43 4.11-18.15 7.4-1.79 1.03-3.9.59-5.88.51-.27-1.39.51-2.26 1.5-3.02 3.98-2.63 8.86-2.66 13.1-4.59 5.87-2.66 7.45-4.2 6.86-10.58-1.91-20.74 1.21-41.44.15-62.16-.13-2.58-.57-5.37 1.44-7.6 2.63-.95 3.86 1.84 5.99 2.23-.35.75-1.03 1.51-1 2.24.76 17.15-1.5 34.24-.88 51.38.03.74.62 1.46.95 2.18-.15 2.56 1.82 4.08 2.95 6.02Z" style="stroke-width:0;fill:#cedd82"/><path d="M107.05 98.07c8.65 4.69 17.3 9.38 25.95 14.06 5.37 1.98 9.76 5.76 14.97 8.12 3.08 1.4 6.55 1.88 9.33 3.98 1.65 1.25 3.63 2.63 2.38 4.74-1.22 2.06-3.3 1.11-5.18.12-3.33-1.75-5.3-5.58-9.43-6.05-5.11-4.18-11.38-6.43-17.03-9.67-8.51-4.88-17.03-9.95-26.21-13.71-3.69-1.51-6.45-5.1-10.77-5.61-6.35-3.71-12.69-7.44-19.05-11.13-.91-.53-1.84-1.1-1.51-2.25.38-1.31 1.58-1.7 2.81-1.5 3.08.51 5.44 2.45 7.65 4.4 2.52 2.22 5.19 4.01 8.36 5.17 6.31 2.32 11.33 7.12 17.71 9.32Z" style="stroke-width:0;fill:#b5cddb"/><path d="m286.01 204.14-3.02-.11c.02-2.54 2.08-2.76 3.8-3.11 19.23-3.96 38.48-7.83 57.68-11.92 9.11-1.94 18.25-3.73 27.35-5.71 4.42-.96 5.17-2.37 4.16-6.74-3.16-13.69-12.22-23.17-23.03-30.99-10.65-7.7-22.68-10.6-35.96-8.41-7.5 1.23-15.33-.53-22.8 1.94-1.09.36-2.32-.05-3.18-1.02 2.02-2.4 5.03-2.5 7.68-2.78 9.32-.96 18.68-1.64 28.04-2.17 2.74-.15 5.52.57 8.29.89 13.7 3.4 24.67 10.94 33.67 21.7 6.93 8.28 11.42 17.34 10.37 28.47-1.23 2.04-3.03 3.15-5.4 3.32-7.78 1.62-15.44 3.94-23.24 5.25-11.43 1.92-22.71 4.48-34.04 6.78-5.66 1.15-11.44 1.7-17 3.33-3.96.5-7.86 1.41-11.85 1.72-.55.02-1.05-.14-1.51-.46Z" style="stroke-width:0;fill:#e59b9a"/><path d="M432.96 272.84c3.56-1.51 7.32-.99 10.96-1.35 6.6-.65 13.16-.06 20.05-2.63 11.54-4.31 20.91-11.95 31.68-17.3 7.31-3.63 14.34-8.58 19.77-15 1.88-2.23 2.45-5.57 3.62-8.4.39-.95.91-2.04 2.09-1.56 1.1.45.94 1.75.58 2.63-1.5 3.65-3.12 7.25-4.7 10.86-2.54 2.48-4.51 5.59-7.99 6.98-2.38 1.64-4.76 3.28-7.14 4.91-5.14 2.01-9.24 5.79-13.61 8.89-7.81 5.55-16.67 8.75-24.96 13.17-2.69 1.44-5.52.79-8.29 1.02-5.8.5-11.59.48-17.39-.01-1.85-.16-3.69-.21-4.65-2.21Z" style="stroke-width:0;fill:#501d13"/><path d="M203.05 615.91c-2.16-1.62-2.11-3.99-2.11-6.33.05-35.94.06-71.87.2-107.81.02-6.11.51-12.22.91-18.33.68-10.39 13.61-18.12 23.73-14.88.51.16.8.96 1.2 1.47-7.06-.53-13.86-.51-19.18 5.45-4.52 5.07-4.54 11.28-4.58 17.31-.22 36.06-.2 72.12-.26 108.18 0 4.98.05 9.96.08 14.94Z" style="stroke-width:0;fill:#60b3ec"/><path d="M43.02 156.14c3.66 6.25 3.69 13.41 5.04 20.23.37 1.89-.42 3.99.99 5.71.21.22.42.44.64.65 1.26 6.88 1.23 13.75.02 20.63-.21.22-.42.44-.64.65-1.2 1.04-.82 2.44-.85 3.74-.38 15.97-.2 31.94-.78 47.92-.5 13.88 1.39 27.7 5.17 41.3 2.2 7.91 4.38 15.85 6.77 23.7 1.18 3.86 3.96 7.2 4.66 11.34-1.18.03-2.26.05-2.84-1.39-3.64-9.1-6.02-18.62-9.21-27.85-4.57-13.21-4.17-27.04-6.6-40.48-1-5.51.45-10.92.84-16.36 1.54-21.12.74-42.26.69-63.39-.02-8.91-4.29-17.35-3.92-26.42Z" style="stroke-width:0;fill:#dbe399"/><path d="M373.82 186.23c2.07.15 3.53-1.24 5.23-2.04-.04 14.91-.08 29.83-.11 44.74-.01 5.17 1.24 6.53 6.13 4.84 3.87-1.34 7.65-1.63 11.59-1.85 6.62-.37 7.87-1.71 8.34-8.45.08-1.11-.29-2.36.84-3.21.05 1.48.2 2.96.14 4.44-.28 6.49-1.28 7.53-7.89 8.41-1.12.15-2.35-.1-3.26.87-5.73-.57-11.1 3.25-17.05 1.24-1.85-.63-2.16 1.52-2.22 3.04-.12 2.8-.14 5.6-.3 8.39-.19 3.42.08 6.4 4.62 6.47.63 0 1.06.71.91 1.48q-.9-.225-1.8-.42c-1.94.11-3.37-.93-4.73-2.11-1.96-1.57-1.78-3.82-1.79-5.94-.06-19.49 1.37-38.96.98-58.47-.01-.51.22-.96.38-1.43Z" style="stroke-width:0;fill:#ced982"/><path d="M477.87 158.11c-.77 3.36-2.72 1.47-4.12.77-4.55-2.25-9.27-4.28-13.45-7.1-5.86-3.96-12.59-5.98-18.74-9.26-10.26-5.47-20.77-10.48-31.11-15.81-1.55-.8-2.77-2.25-4.93-4.05 5.77-1.29 9.25 2.52 13.41 3.47 8.75 5.77 18.61 9.45 27.64 14.69 9.26 5.37 18.9 9.97 28.55 14.57 1.1.52 1.84 1.79 2.75 2.72" style="stroke-width:0;fill:#9cbfcf"/><path d="M76.99 107.13c11.75 7.49 23.82 14.39 36.46 20.31 6.82 3.2 13.25 7.22 19.85 10.88.73.41 1.54.93 1.33 1.89-.44 1.93-2.11 1.78-3.58 1.89-7.22-4.22-14.24-8.75-21.72-12.56-13.55-6.9-26.86-14.25-40.27-21.42-.97-.74-1.98-1.69-1.05-2.86 1.12-1.42 2.68-.8 4.09-.22 1.49 1.04 2.79 2.52 4.9 2.1Z" style="stroke-width:0;fill:#96bace"/><path d="M408.9 366.83c2.3-.57 5.02-2.4 6.85-.19 1.92 2.32 1.48 5.45.32 8.32-.72 1.78-1.17 3.67-1.74 5.5-2.18 2.44-3.47 5.62-6.26 7.57-1.1-.39-1.92-1.09-2.38-2.17.48-2.12 2.17-3.77 2.37-6.01.52-1.88 2.15-3.37 1.87-6.18-2.83 2.05-4.14 4.92-6.17 7.09-3.4 2.71-4.39 7.72-8.9 9.37-.51-.54-.69-1.2-.68-1.92 2.09-3.79-1.65-3.67-3.32-4.95-.23-.43-.24-.86 0-1.29 1.12-4.92.99-9.93 1.08-14.92-1.68-2.42-1.2-3.93 1.86-4.23 1.79-.18 3.6-.25 5.09 1.06-1.22 4.61-2.21 9.26-2.11 14.44 4.8-3.5 5.9-10.21 12.13-11.48Z" style="stroke-width:0;fill:#373c12"/><path d="M527.89 753.89c1.61-2.09 3.23-4.18 4.83-6.27.73-.95 1.33-2.02.79-3.21-.62-1.37-1.91-.96-3.05-.87-1.31.1-2.67.35-3.94.13-1.89-.33-2.78-1.87-2.8-3.63-.02-1.89 1.43-2.48 3.08-2.46 3.65.03 7.31 0 10.95.21 3.23.18 4 1.68 2.19 4.55-2.35 3.73-4.42 7.63-6.78 11.35-2.78 4.39-3.17 9.29-3.38 14.25-.08 1.83.61 3.64 2.57 3.58 1.9-.05 1.74-2.03 1.8-3.52.07-1.72-.85-3.8 1.53-4.73 1.49-.58 2.97-.42 4.21.63 1.82 1.54.7 3.45.36 5.11-.68 3.36-2.66 5.64-6.24 6.22-3.65.59-6.97.31-9.11-3.29-3.41-6.09-2.34-12.47 3-18.05Z" style="stroke-width:0;fill:#212427"/><path d="M516.69 152c-.31.56-.48 1.42-.96 1.65-9.18 4.45-6.41 13.19-6.86 20.38-.53 8.45 1.31 17.09-2.87 25.12-.47.41-.88.36-1.26-.13 2.09-5.88 2.54-11.96 2.22-18.14-.31-5.8-.72-11.6.87-17.33.74-2.67.16-5.13-1.8-7.38-3.48-3.98-6.73-8.17-10.04-12.3-1.33-1.66-3.18-2.19-5.08-2.88-2.04-.74-4-2.18-3.41-4.78.49-2.17 1.84-4.05 4.38-4.12 2.66-.07 3.53 1.64 4.04 4.09.9 4.32 5.25 6.21 7.47 9.67.97 1.51 2.43 2.7 3.67 4.04 2.2 2.18 4.34 4.62 7.83 2.19l.06-.04c.57-.54 1.14-.59 1.73-.04Z" style="stroke-width:0;fill:#a76948"/><path d="M82.08 99.06c9.76 5.26 19.27 11.06 29.36 15.58 6.1 2.74 11.4 6.71 17.43 9.39 1.15.51 2.49.69 1.78 2.17-.59 1.22-2.1 1.13-3.09.46-6.8-4.63-14.21-8.17-21.47-11.91-6.58-3.39-12.59-8.05-20.03-9.69-4.13-2.33-8.22-4.73-12.42-6.93-1.04-.55-2.14-.95-2.81-1.92-.72-1.05-2.01-2.29-1.09-3.5.92-1.22 2.53-.75 3.55.22 2.63 2.5 6.89 2.63 8.8 6.13Z" style="stroke-width:0;fill:#c9dae5"/><path d="M441.85 186.12c1.52-.2 3.94.08 3.43-2.15-.4-1.76-2.42-.42-3.78-.28-3.34.36-6.05 3.37-9.72 2.27 8.63-4.7 17.89-6.78 27.63-5.86 8.78.83 17.17 3.04 23.63 9.73-2.35 1.89-3.96-.09-5.63-1.18-2.9-1.9-5.66-4.02-9.83-4.1 2.46.75 5.41.09 5.53 3.52-5.98-.88-8.95 5.08-14.04 6.2-1.21-1.2-.59-2.37.22-3.37 1.01-1.24.36-1.99-.54-2.78-1.12-3.94-4.4-2.64-6.98-2.76-2.36-.11-4.1 1.05-4.73 3.48-.51 1.97-1 3.95-3.72 3.68-1.31-1.25-3.17-.91-4.67-1.63-.89-2.91 1.8-3.42 3.21-4.79Z" class="cls-148"/><path d="M510.93 757.92c1.01-.42 2.41.49 3.15-.9l-.07.03c4.38-.96 6.29.74 5.69 5.23-.15 1.14 0 2.32-.17 3.46-1.39 9.67-2.73 10.6-12.65 9.19-2.3-.33-3.75-1.37-3.81-3.76-.06-2.61 1.66-3.38 3.92-3.39 1.82-.01 3.67.18 5.46-.06 1.46-.2 2.29-1.5 2.17-2.92-.12-1.4-1.22-1.5-2.58-1.55-5.03-.17-8.47-3.44-9.49-8.21-.93-4.35-.37-8.64.34-12.85.71-4.22 4.26-6.34 8.03-7.12 3.7-.76 6.81.81 8.12 4.79-.37.31-.8.45-1.28.38-.21-.09-.42-.18-.64-.27-3.28-3.03-6.55-3.49-9.83 0-4.32 6.39-3.16 16.01 2.41 19.94.92-.35.68-1.42 1.23-1.99" class="cls-178"/><path d="M66 69.03c2.11-5.31 1.04-10.84.76-16.24-.13-2.57-2.07-4.22-4.74-1.54-2.5 2.52-3.85 1.43-3.96-1.6-.14-3.99-.05-7.99.14-11.97.13-2.78 2.36-3.15 4.38-2.71 3.47.75 7.92-2.3 10.35 2.26.84 1.59-.13 3.29-2.07 3.87-.78.23-1.66.11-2.47.27-2.29.47-6.05-1.89-6.41 2.4-.39 4.64 3.5 2 5.47 2.46 2.7.64 5.03 2.36 5.49 4.6 1.17 5.76 2.29 11.72-.8 17.37-.67-.48-1-1.17-1.19-1.94-.94-5.28 1.14-10.93-2.09-16.42.87 5.61.55 10.78.43 15.93-.03 1.46-.2 3.03-1.92 3.7-.52.03-.97-.12-1.37-.45Z" style="stroke-width:0;fill:#494d51"/><path d="M446.02 377.96c.35-2.59 2.39-1.85 3.87-1.83 14.22.2 28.46-.81 42.67.6.85.08 1.7.22 2.07-.78s-.2-1.6-1.09-1.84c-1.2-.32-2.1-.95-2.65-2.06.99-.93 2-.84 3.02-.06 3.14 1.07 6.06 2.57 8.72 4.55.82.61 1.46 1.42 1.01 2.54-.39.97-1.37.92-2.14.88-3.92-.24-7.9.71-11.72-1.26-2.38-1.23-5.23-.68-7.87-.69-11.97-.04-23.93-.03-35.9-.03Z" style="fill:#c9d963;stroke-width:0"/><path d="M44.09 53.11c2.15-3.68 2.94-7.71 2.92-11.92 0-1.83-.89-3.66-2.65-3.72-2.14-.07-1.48 2.11-1.51 3.44-.03 1.52 0 3-1.06 4.23-1.03 1.18-2.23 2.08-3.9 1.67-1.59-.39-1.76-1.78-1.96-3.13-.82-5.38 3.06-10.55 8.34-11.09 4.14-.43 9.59 4.9 9.71 9.52.17 6.7-3.08 11.74-7.83 16.04-.92-3.38 1.93-5.36 2.99-8.01 1.41-3.52 3.66-6.97.58-10.89.25 6.62-1.07 12.76-4.74 18.28-.14.22.84.24 1.17.61-.21 2.89-4.59 4.22-2.92 7.81-2.35.43-2.51-2.3-4.15-2.88.85-3.74 4.37-6.14 5.03-9.98Z" style="stroke-width:0;fill:#676b71"/><path d="M432.96 272.84c12.81 2.07 25.4 2.89 37.71-3.03 9.76-4.69 18.82-10.37 27.52-16.72 1.13-.83 2.26-1.36 3.68-1.11-11.02 8.93-22.99 16.3-36.03 21.89-2.82 3.12-6.81.64-9.97 2.09l-.47-.06-.46.11c-5.64 1.73-11.29 1.45-16.94.04-5.34.72-9.36-3.22-14.28-4.02-.26-.66-.52-1.33-.78-1.99l10.02 2.79Z" style="stroke-width:0;fill:#a47e80"/><path d="M186.98 127.94c3.06-.5 4.55-4.35 8.1-3.8.24 3.04-2.34 3.7-4.2 4.87-13.97 8.77-25.24 20.18-33.86 34.24-1.66 2.71-2.52 5.75-3.9 8.57-1.42 3.44-1.74 7.21-3.17 10.65-.97 1.82-.12 4.3-2.07 5.76-2.26-.93-1.21-2.65-.99-4.17 1.77-12.82 7.41-23.79 15.5-33.76 7.09-8.73 15.33-16.08 24.58-22.37Z" style="stroke-width:0;fill:#dd8d90"/><path d="M388.96 122.09c.11 2.17-.44 3.83-3 3.99-4.77.14-12.38-4.75-14-8.99-3.75-1.11-6.64-4.54-10.98-4.02-1.48-1.02-3.7-2.07-2.49-4.12 1.08-1.82 3.49-1.18 4.89-.08 3.53 2.78 8.11 3.19 11.66 6.6 3.51 3.38 9.2 4.5 13.93 6.61Z" style="stroke-width:0;fill:#d1e0e8"/><path d="M472.91 188c-1.22-2.53-3.56-1.84-5.64-1.98-1.05-.07-2.74.48-2.75-1.16-.01-1.7 1.69-1.87 3-1.71 3.83.47 7.33 1.85 10.32 4.33 1.54 1.27 3.02 2.57 5.2 2.37 1.89.82 3.2 2.2 4.01 4.09 2.67 4.75 6.59 9.01 5.9 15.07-1.3.66-2.07 1.69-1.99 3.17.17 3.09-1.93 2.93-3.99 2.88.14-3 2.9-5.66 1.14-8.9-2.16-6.08-6.35-10.6-11.2-14.62-1.37-1.13-3.15-1.81-4-3.53Z" style="stroke-width:0;fill:#612a2f"/><path d="M213.06 415.01c3.39-2.17 7.23.52 10.68-.99 6.6 1.05 13.19.37 19.77-.17.71-1.26 1.7-2.11 3.22-1.78 6.77 1.49 13.52-.74 20.28-.07-.49.92-1.18 1.68-2.25 1.76-14.39 1.17-28.62 5.08-43.24 2.48-3.63-.65-7.23.42-10.85.69-2.39.18-4.95.68-7.24-.72 2.95-2.42 6.28-1.87 9.62-1.22Z" style="stroke-width:0;fill:#d2dd91"/><path d="M317.58 401.83c.83-1.23 1.66-2.46 2.5-3.69.18-.21.36-.42.54-.64 6.19-2.36 12.46-1.11 18.72-.37 1.17.45 1.74 1.35 1.94 2.54-.61 2.78-2.87 2.91-5.01 2.94-5.41.08-10.83.03-16.24.03-.6-.9-1.98.51-2.44-.81Z" style="stroke-width:0;fill:#328166"/><path d="M516.69 152c-.58.01-1.16.02-1.73.04 10.08-10.56 10.55-24.43 12.88-37.63.38-2.18-.84-4.91 2.03-6.06 2.06-.82 4.32-.85 5.92 1.14 1.88 2.32 1.69 4.93.5 7.45-.55 1.16-1.49 2.14-2.26 3.2-.9-.63-1.05-1.57-1.08-2.56-.22-1.99 2.17-4.76-1.67-5.65-1.48 3.44.4 7.34-1.53 10.69-.81 7.8-4.25 14.91-5.85 22.49-.25 1.19-1.11 2-1.95 2.81-1.75 1.36-3.51 2.72-5.26 4.08" class="cls-132"/><path d="M39.07 63.07c3.85-2.59 1.85 3.25 4.15 2.88 2.47-.02 4.94-.11 7.41-.05 1.76.04 2.69 1.04 2.69 2.86 0 1.85-1.03 2.79-2.74 2.82-3.96.07-7.92.03-11.88-.03-2.21-.03-2.72-1.39-2.49-3.36.25-2.13 1.99-3.37 2.86-5.13Z" style="stroke-width:0;fill:#0d1014"/><path d="M401.85 118.13c.71 1.19 3.47 1.27 2.55 3.06-.98 1.89-3.06.73-4.33-.11-3.73-2.44-7.65-4.33-12.07-5.09-1.04-2.12-3.45-1.82-5.08-2.89-.52-.41-1.1-.75-1.58-1.21-1-.96-3.3-1.26-2.63-3.1.74-2.05 2.69-1.23 4.27-.82 6.29 3.39 12.59 6.78 18.88 10.17Z" style="stroke-width:0;fill:#94b7cd"/><path d="M424.41 379.94c.18-5.22 5.19-3.58 7.8-5.17 4.04-2.46 9.94-.53 13.28 3.24-1.04 1.13-2.26 2.06-3.84 1.93-5.75-.5-11.49.94-17.24 0" style="stroke-width:0;fill:#1c6a53"/><path d="M213.06 415.01c-3.02 1.91-6.47.43-9.63 1.22-1.29-.11-2.58-.21-3.88-.32-1.22-1.09-3.74.51-4.23-2.06.06-.8-.2-1.94.23-2.34 3.38-3.1 7.48-1.42 11.2-1.13 2.63.2 6.27.31 6.3 4.63Z" style="stroke-width:0;fill:#146e69"/><path d="M539.16 171.95c5.55-4.22 5.45-9.6 3.07-15.37-2.63-6.38-7.81-8.64-14.33-8.61-2.7-1.53-2.28-4.08-2.09-6.52.48-6.07 2.26-11.77 4.92-17.22.5-.39.99-.37 1.46.06.37 5.4-2.97 9.96-3.31 15.31-.3 4.7.3 7.65 5.66 7.83 1.11.04 2.21.48 3.32.74l-.07-.03c3.86 3.7 6.52 8.03 7.52 13.4.95 5.09-.82 8.32-6.14 10.42Z" class="cls-94"/><path d="M60.75 74.43c-6.25.76-11.03.67-15.89 1.7-3.77.8-8.75.13-12.52-2.58-1.38-.99-1.65-2.41-.17-4.58 1.5 4.63 5.1 4.19 8.56 4.14 2.83-.04 5.71-.31 8.49.07 3.65.5 6.32.11 6.31-4.94 1.56 2.39 2.31 4.55 5.23 6.19Z" class="cls-8"/><path d="m66 69.03 1.13.21c2.58.4 2.2-3.68 4.84-3.2l.18 2.17c-5.38 6.54-12.68 5.64-15.57-1.91-.69-1.8-1-3.56.54-5.09.93-.92 2.15-.9 3.28-.54 2.1.67 1.98 2.49 1.82 4.14-.29 2.89.6 4.55 3.8 4.22Z" style="stroke-width:0;fill:#25272b"/><path d="M138.06 188.04c-4.97.38-8.48-3.17-12.6-4.92-6.1-2.6-11.83-6.09-17.68-9.27-.46-.25-.61-1.09-.9-1.65 2.16-.25 3.93.2 5.97 1.38 6.88 3.95 14.09 7.31 21.07 11.09 1.51.82 3.37 1.51 4.13 3.37Z" style="stroke-width:0;fill:#e2ebb2"/><path d="M506.83 738.71c5.76-3.87 6.96-3.73 11.04 1.26-1.89 1.1-2.17 2.47-.72 4.25.9-1.39-.1-2.97.74-4.24.39-.04.77-.09 1.16-.13.43.88 1.15 1.73 1.23 2.64.2 2.4 1.02 5.45-2.78 5.74-3.43.26-3.37-2.43-3.39-4.85 0-.83-.1-1.66-.15-2.49-2.59-3.13-4.29-1.37-4.39 1.37-.18 4.87-.77 9.8.37 14.66.33.33.66.67 1 1 .11 1.3 2.28 2.66-.1 3.89-3.51-2.58-4.63-6.1-4.38-10.34.25-4.25-.24-8.52.38-12.76Z" style="stroke-width:0;fill:#3b3f42"/><path d="M195.32 413.85c1.41.69 2.83 1.38 4.24 2.06-7.94.69-15.56-.43-23-3.39-1.9-.75-4.24-.41-6.38-.51-1.95-.1-4.09.34-5.13-2.04 2-1.44 4.01-1.21 6.02 0 5.84.24 11.43 1.51 16.96 3.45 2.21.77 4.84.33 7.28.44Z" style="stroke-width:0;fill:#e4ebc6"/><path d="M474.88 364.04c-10.43-5.24-21.48-9.24-31.21-15.86.4-.59.91-.69 1.51-.3 6.97 1.95 12.83 6.31 19.5 8.95 2.4.95 4.35 2.85 7.05 3.39 1.84.37 3.33 1.54 3.16 3.82Z" style="stroke-width:0;fill:#dee8a2"/><path d="M75.09 156.04c-.98-.04-2.23.29-2.91-.18-8.88-6.2-19.53-9.03-28.5-15.03-.24-.16-.3-.57-.44-.87 4.22-.59 7.04 2.51 10.34 4.13 6.6 3.24 13.66 5.55 19.77 9.8.88.61 1.62 1.06 1.74 2.16Z" style="stroke-width:0;fill:#dde8a3"/><path d="M43.18 139.92c-4.37-.38-4.9 1.7-3.09 5.01 1.92 3.51 3.6 7.02 2.89 11.19-3.01-1.83-2.63-5.32-3.87-8.01-1.02-2.22-1.35-4.75-2.38-6.96-.75-1.59-2.42-2.86-1.09-4.82 1.07-1.57 2.47-.85 3.98-.61 2.58.41 3.84 1.55 3.56 4.2" style="stroke-width:0;fill:#d6e0a3"/><path d="M530.07 190.35c2.03-8.43 6.24-14.75 13.74-18.67.46-.24.62-1.19 1.37-.59.74.59.89 2.01.35 2.18-8.51 2.58-7.9 12.91-14.56 16.99-.13.08-.33.04-.9.09" class="cls-8"/><path d="M352.88 391.84c-.79-2.46-.6-4.04 2.66-4.13 3.89-.11 8.22-2.93 10.97 2.29-1.68 2.7-5.25 1.52-7.27 3.54-2.11-.6-4.88 1.25-6.36-1.69Z" style="stroke-width:0;fill:#186f57"/><path d="M390.01 395c-3 .35-4.95-1.75-7.22-3.1-.17-.4-.15-.78.08-1.15 1.11-.75.35-2.35 1.39-3.14 2.04-.54 4.12 1.41 6.14-.13 1.14-.04 2.42.63 2.06 1.55-1.45 3.73 1.51 5.97 2.6 8.84.3.42.42.88.39 1.4 0 1 .1 2-.03 2.98-.22 1.73.92 4.74-2.34 4.2-2.4-.4-2.78-2.81-2.19-5.18.54-2.17 1.61-4.5-.89-6.27Z" style="stroke-width:0;fill:#3c4144"/><path d="M317.58 401.83c.82.27 1.64.54 2.45.81-4.9 1.04-9.48 3.48-14.62 3.41-1.83-.03-3 1.17-4.43 1.91-2.93 2.8-6.96.01-10.05 1.99-.31 0-.61.03-.92.07-.59.54-1.23.61-1.94.25-.77-1.19.11-1.67.93-2.19 9.48-2.28 18.86-5.05 28.58-6.25" style="stroke-width:0;fill:#d8dd80"/><path d="M382.97 107.97q-4.11.56-2.54 2.34c.83.93 1.66 1.87 2.49 2.8-4.76-1.58-8.54-4.95-13-7.09-1.25-.6-2.45-1.6-1.1-3.07 1.01-1.09 2.34-2.06 3.88-.67 2.98 2.7 6.69 4.08 10.27 5.7Z" style="stroke-width:0;fill:#bed1da"/><path d="M73.15 347.94c3.37 2.32 5.98 5.35 7.89 8.92 2.64 4.94 7.52 8.12 10.08 13.09-6.02-2.17-8.84-7.73-12.45-12.27-2.27-2.86-4.84-5.84-5.51-9.73Z" class="cls-114"/><path d="M395.07 398.05c-.36 0-.71.01-1.07.02-.18-1.53.91-2.9-.44-4.7-1.15-1.52-1.69-4.29 1.4-5.41.04.68.07 1.37.11 2.05 2.05 1.94 3.61.32 5.23-.74 1.9-1.25 3.45-3.15 5.96-3.3 1.23.13 1.7.94 1.81 2.06-3.11 4.51-8.05 6.73-12.28 9.83-.11.56-.36.6-.72.19" style="stroke-width:0;fill:#1c1c25"/><path d="M492.94 208.99c-.26-5.69-4.44-9.85-5.9-15.07 3.18 2.53 5.19 5.87 5.93 9.77.77 4.1 2.28 3.71 4.77 1.39 2.26-2.11 4.67-4.06 7.01-6.08.42.04.84.09 1.25.13-2.58 2.71-5.22 5.37-7.72 8.16-1.5 1.67-3.34 1.84-5.35 1.7Z" class="cls-142"/><path d="M352.88 391.84c1.84 1.65 4.26 1.1 6.37 1.69-4.35.86-8.67 1.81-13.03 2.54-2.35.39-3.41 2.27-4.95 3.61l-1.7-1.82c-.71-.71-1.28-1.43-.39-2.4 1.71-1.26 3.41-2.56 5.73-1.58 3.08.97 5.16-1.95 7.97-2.03Z" style="stroke-width:0;fill:#e0e59b"/><path d="M431 342.84c-6.53-3.29-13.43-5.91-19.09-10.75 6.24-.29 10.13 4.77 15.38 6.75.91.34 1.78.8 2.67 1.21.95.71 2.05 1.36 1.04 2.8Z" style="stroke-width:0;fill:#dbe598"/><path d="M72.09 105.03c-1.91.15-4.82-.71-3.05 3.08-2.04-.93-4.2-1.67-6.09-2.84-1.18-.73-3.44-1.24-2.12-3.64 1.06-1.93 2.61-1.97 4.16-.95 2.32 1.52 5.19 2.15 7.1 4.35" style="stroke-width:0;fill:#b7d2e6"/><path d="M382.82 391q.165.45-.03.9c-4.82-1.51-9.77-2.02-14.79-2.01 1.46-2.81 5.17-1.78 6.94-4.06 1.97-.47 3.32 1.07 5 1.54 1.36.9 2.64 1.86 2.89 3.64Z" class="cls-108"/><path d="M64.08 332.02c4.46 4.48 6.91 10.11 9.07 15.91-4.52-4.45-8.69-9.1-9.07-15.91" class="cls-114"/><path d="M431 342.84c-.35-.93-.69-1.87-1.04-2.8 5.05 2.65 10.95 3.68 15.22 7.84-.5.1-1 .2-1.51.3-.25.02-.5.07-.75.13-.93-.13-1.87-.26-2.8-.4-2.71-1.35-5.38-2.81-8.17-4-.32-.36-.64-.72-.95-1.08Z" style="stroke-width:0;fill:#dce8a9"/><path d="M528.74 121.96c.71-2.86 1.54-5.65.33-8.67-.53-1.33-.41-3.1 1.92-3.06.34 2.49 1.11 4.81 2.8 6.74.08 1.05.15 2.11.23 3.16-.43 1.46-.09 3.27-1.84 4.15-.15-.13-.31-.25-.47-.36-.88-.83-2.09-1.15-2.98-1.97Z" class="cls-94"/><path d="M146.9 184.08c.3 1.34-.3 2.86.82 4.04.92.42 1.13 1.24 1.18 2.15-.49 3.12-2.76 2.2-4.69 2.08-2.91-.18-5.54-.78-6.19-4.25.32-.02.73-.18.95-.03 4.94 3.21 6.95.64 7.94-3.98Z" style="stroke-width:0;fill:#e2e898"/><path d="m288.03 409.81 1.98.21c-.85 1.82-2.45 2-4.19 1.98-4.65-.05-9.3-.06-13.95-.08 2.89-3.09 6.74-1.3 10.1-1.97 2-1.05 4.01-1.36 6.06-.14" class="cls-85"/><path d="M437.99 276.07c5.65-.01 11.29-.03 16.94-.04-.09.32-.07.79-.28.93-2.95 1.99-13.86 1.39-16.66-.88Z" class="cls-29"/><path d="M537.85 148.17c-.14-1.31-2.35-2.25-1.36-3.41 1.53-1.79 2.45.64 3.59 1.2 4.85 2.4 4.82 2.45 4.6 7.22-2.55-1.41-3.43-5.04-6.9-5.05l.07.03Z" class="cls-8"/><path d="M130.12 395.94c5.48.81 10.91 1.73 15.06 5.91-2.85 2.24-4.52.17-6.24-1.7-3.4-.44-6.57-1.37-8.82-4.21" class="cls-31"/><path d="M395.07 398.05c.21-.19.45-.25.72-.19.06 2.3.16 4.6.16 6.9 0 1.39-.42 2.69-1.97 3.04-1.86.41-2.57-.97-3.28-2.33-.88-1.71-1.04-3.47-.31-5.24.75-1.84.41-3.53-.39-5.23 3.2 1.18 1.4 3.83 1.57 5.81.17 1.99-1.08 5.02 1.89 5.04 2.48.01 1.56-3.03 1.66-4.85.06-.98-.04-1.96-.07-2.95Z" class="cls-108"/><path d="M532.22 745.06c-2.98 7.62-6.53 1.53-9.75.97 3.09-1.8 6.33-.84 9.75-.97" class="cls-8"/><path d="M91.13 369.95c.32.02.74-.09.96.07 4 2.95 8.1 5.79 11.02 9.94-5.38-1.68-9-5.46-11.98-10.01" style="stroke-width:0;fill:#dae58c"/><path d="m493.92 371.99-3.02.06c-4.07-1.25-8.13-2.53-11.01-5.98 5.25.62 9.48 3.66 14.04 5.92Z" style="stroke-width:0;fill:#d6dd96"/><path d="M395.07 323.84c-4.42-2.55-10.02-3.06-13.22-7.71 5.37.91 9.96 3.17 13.22 7.71" style="stroke-width:0;fill:#d9e697"/><path d="M138.94 400.15c2.11.47 3.82 2.37 6.24 1.7 1.49-.07 2.73.53 3.85 1.43-2.45 1.62-5.46.99-8.22 2.01-2.75 1.02-1.13-3.31-1.88-5.14Z" style="stroke-width:0;fill:#e6f3c8"/><path d="M290.93 409.95c2.91-2.88 6.62-1.74 10.05-1.99-.77 4.01-2.63 5.5-6.31 2.72-1.14-.86-2.49-.53-3.74-.73" class="cls-85"/><path d="M527.89 753.89c-.77 1.8-1.31 3.75-2.36 5.36-2.7 4.16-2.66 8.34-.64 12.69-4.77-3.98-2.82-8.51-1.04-13.02-.53-2.62.8-4.15 3.04-5.13.34.03.67.07 1.01.1Z" style="stroke-width:0;fill:#94989b"/><path d="M150.94 404.1c4.69-.64 8.78.67 12.32 3.76-.4.6-.89.69-1.48.28-4.05-.18-7.67-1.5-10.84-4.04" style="stroke-width:0;fill:#cfdf75"/><path d="M44.1 53.09c-3.08-.56-4.87-4.03-9.42-3.03 5.98-3.64 8.89-2.35 9.42 3.04zM526.88 753.79c-1.01 1.71-2.02 3.42-3.04 5.13-.61.21-1.26.67-1.83.59-1-.14-1.29-1.21-.94-1.9 1.05-2.05 2.75-3.7 3.77-5.84.25-.52 1.91.67 2.03 2.01Z" class="cls-8"/><path d="M103.96 380.18c4.32 1.72 8.06 4.28 11.13 7.8-4.9-.9-8.58-3.54-11.13-7.8" style="stroke-width:0;fill:#dce4a2"/><path d="M509.93 756.92c-2.25-5.21-.98-10.62-.85-15.95.03-1.33 1.14-2.48 2.61-2.59 1.64-.12 2.34.92 2.25 2.51-3.3-1.95-4.14.03-4.18 2.77-.06 4.42.09 8.84.16 13.26Z" class="cls-178"/><path d="M517.25 776.87c-3.13.56-6.35 3.94-9.92-.24 3.54-1.2 6.71-.7 9.92.24M531.25 140.47c1.45.54 2.37 1.65 2.81 3.11.47 1.6-.78 1.4-1.7 1.45-1.6.07-2.46-.68-2.39-2.32.04-.94-.17-2.04 1.28-2.24" class="cls-8"/><path d="m161.78 408.13 1.48-.27c2.56.88 5.99-1.48 7.82 2.1h-6.02c-1.43-.02-2.46-.74-3.28-1.84Z" style="stroke-width:0;fill:#cdde80"/><path d="M509 247.07c2.62-2.38 4.55-5.55 7.99-6.98-1.3 3.89-4.12 6.04-7.99 6.98" class="cls-163"/><path d="M511.92 749.22c-1.2-2.22-1.28-4.44-.26-7.22 1.94 2.66 1.38 4.93.26 7.22" class="cls-8"/><path d="M123.07 392c3.21-.25 5.74.73 7.03 3.93-2.92-.28-5.34-1.45-7.03-3.93" class="cls-31"/><path d="M531.17 779.23c-3.53 1.14-4.95.02-5.72-2.89 2.62-.61 3.64 1.28 5.72 2.89" class="cls-8"/><path d="M115.1 387.95c3.35-.03 6.21.91 7.9 4.09-3.11-.44-5.87-1.56-7.9-4.09" style="stroke-width:0;fill:#d7e09d"/><path d="M429.8 187.59c-3.08 2.03-5.13 5.51-9.03 6.37 2.5-2.85 4.92-5.81 9.03-6.37" class="cls-148"/><path d="M514.9 152.07c-3.44 3.24-4.34 2.99-7.83-2.19 2.5 1.13 4.81 2.93 7.83 2.19" class="cls-132"/><path d="M44.56 39.42c1.95 1.89 1.77 3.43.53 5.69-1.33-2.06-1.09-3.61-.53-5.69" class="cls-8"/><path d="M455.86 275.97c3.16-1.49 6.91-.16 9.97-2.09-2.6 4.14-6.64 1.41-9.97 2.09" class="cls-29"/><path d="M514.08 757.02c-1.21-.31-2.74-.37-2.62-2.13.08-1.02 1.16-1.01 1.9-.84 2.27.5.7 1.93.65 3z" class="cls-8"/><path d="M373.82 186.23c1.33 1.34 1.17 3.03 1.1 4.7-.44 10.29.13 20.58-.7 30.9-.81 10.01-.05 20.15.02 30.23-1.9 1.28-1.32 3.29-1.3 5 .18 17.89-.29 35.78-.79 53.66-.13 4.77.65 9.56.64 14.33 0 3.38-1.11 5.75-4.98 7.44-5.49 2.41-11.41 3.16-16.83 5.54-4.37 1.22-8.97 1.72-13 4.03-.39.27-.81.49-1.25.67-2.42.65-5.03.7-7.19 2.2-2.11 2.2-5.23 1.74-7.72 2.94h-.42l-.41.11c-2.91 1.19-5.95 2.01-8.95 2.95-7.37.18-13.76 3.92-20.69 5.69-2.58 1.31-5.28 2.21-8.19 2.36-5.78.41-11.01 2.64-16.25 4.86-2.6-.13-4.66 1.29-6.81 2.43-.54.56-1.24.81-1.97.99-2.4.41-4.38 2.3-6.98 2.01-4.59-.4-8.61 1.46-12.64 3.26-.48.24-.97.41-1.49.53-7.32.57-13.93 3.54-20.73 5.97-3.51 1.25-7.25 3.74-11.03.36-.94-6.93-1.37-13.91-.42-20.83 1.28-9.29.76-18.53.03-27.81-.4-5.13-.72-10.31.39-15.42.47-2.15.35-4.31.36-6.47.02-19.82 0-39.64.01-59.46 0-1.62.09-3.22 1.44-4.4 1.98-4.11.66-8.47.89-12.71.24-4.46.05-8.93.05-14.18 6.92 4.72 12.75-.05 18.87-.61 9.84-.89 19.33-3.89 29-5.8 9.45-1.86 18.93-3.77 28.34-5.97.69-.16 1.2-1.05 1.8-1.6.3-.11.61-.15.93-.14 3.98-.86 8.19-.34 12.02-2.06 5.01-2.89 10.86-2.07 16.25-3.67 8.52-2.53 17.43-3.99 26.18-5.48 10.9-1.86 21.46-5.21 32.43-6.56Z" style="stroke-width:0;fill:#eff3fb"/><path d="M83.12 244.14c14.48-8.03 30.07-11.74 46.55-11.83 3.47-.02 6.96.39 10.39.93 4.77.76 6.09-.07 5.94-4.94-.28-9.27.62-18.49 1.03-27.73.06-1.37-1.12-4.02 1.46-3.86 1.96.12 1.55 2.65 1.49 4.24-1.51 38.34-.88 76.7-1.14 115.04-.05 7.63.63 15.28-.59 22.9-.34 2.15 0 4.38 2.67 5.21.23.06.45.11.68.16 7.18 4.39 13.55 9.92 20.45 14.71 2.03 1.4 3.94 2.98 6.08 4.22 1.17.7 2.35 1.39 3.31 2.38 1.52 2.03 3.74 3.03 5.95 4.05.61.42 1.12.93 1.56 1.53 1.43 2.55 3.57 5.32-1.76 5.81-6.07-1.7-10.64-6.18-16.22-8.81-3.26-.12-5.13-2.8-7.7-4.19-18.03-9.76-36.05-19.52-54.03-29.37-6.15-3.37-12.16-6.99-18.24-10.5-5.33-2.07-10.07-5.24-14.98-8.08l-1.09-1.87c-5.56-3.65-9.4-8.8-12.54-14.55-1.45-4.92-2.39-9.96-3.07-15.02-1.39-10.38 2.86-18.93 9-26.89 2.64-3.43 6.33-5.83 8.68-9.47 1.65-1.92 3.38-3.74 6.1-4.06Z" style="stroke-width:0;fill:#167d56"/><path d="m257.88 366.51 2.21-.24c1.53 1.47 1.5 4.48 5.07 3.96 2.36-.34 1.97 2.24 1.6 3.78-.35 1.5-1.78 2.52-2.94 1.12-4.22-5.06-8.67-.61-12.95-.45-2.2.08-4.17 1.58-6.51-.25-1.37-1.07-3.53-.57-4.03 1.43-.58 2.35 1.5 1.94 2.92 2.17 2.24.36 4.46.85 7.61 1.47-5.29 1.15-9.78-.26-14.08 1.05-.66.2-1.4.02-1.56-.8-.88-4.46-3.39-1.45-5.17-1.03-.83.2-1.75 1.13-1.57 2.28.17 1.1 1.21.89 2 1.01.78.11 1.82-.11 2.03.96.24 1.17-.8 2.29-1.5 2.27-4.56-.12-6.22 5.52-11.06 5.16-4.78-.35-7.49 3.85-10.97 6.28-1.74 1.22-3.42 1.91-5.93.38 6.4-4.74 12.31-9.61 20.16-11.11 1.58-.3 2.44-1.4 2.3-2.77-.17-1.63-1.78-1.12-2.84-1.16-8.05-.32-13.22 5.01-18.74 9.64-.86.72-1.12 2.17-2.51 2.23-1.08.05-2.57.62-2.95-.95-.25-1.04.73-1.82 1.65-2.23 1.03-.46 2.98.56 2.79-1.74-.24-2.84-2.24-.78-3.36-1.18-1.76-.63-3.16-1.74-3.43-3.79.64-1.05 2.23-.49 3.02-2.02-2.29-1.63-4.35-3.66-6.52-5.57-1.36-1.2-3.2-2.34-2.43-4.72 5.29 1.05 9.35 4.15 13.08 7.8 1.14 3.06 3.58 1.87 5.45 1.37 4.53-1.2 9.09-2.41 13.46-4.1 5.17-1.99 10.49-3.35 15.81-4.77 4.19-.94 8.11-2.97 12.48-3.17 2.7 0 5.13-.87 7.39-2.31Z" class="cls-117"/><path d="M49.04 182.09c.02-2.48.03-4.97.06-7.45.02-1.24.26-2.35 1.82-2.44 1.5-.08 2.11.82 2.09 2.15-.19 10.33 1.74 20.65-1.44 31.02-1.12 3.66-2.88 8.94 1.54 12.63 3.76.05 5.39 2.49 6.37 5.67-.26 1.55-1.24 2.91-1.19 4.54-.07 1.15-.1 2.32-.7 3.36-.17.16-.34.32-.52.47-2.42-1.97-4.88-3.85-2.41-7.48.88-1.29-.05-2.55-.82-3.65-.42-.6-1.06-.83-1.74-.51-1.37.66-1 1.98-1 3.08-.03 8.66-1.29 17.57.35 25.91 1.72 8.77-.8 16.94-.59 25.37 0 .19-.44.39-1.79 1.53v-72.26.01c.86-7.33.88-14.65-.02-21.98v.02Z" class="cls-129"/><path d="M394.97 330.02c3 2.33 6 4.67 9 7 3.08 3.63 6.67 6.78 8.46 11.5 1.82 4.82-1.39 8.15-2.68 12.06-.15.46-1.04.95-1.59.95-1.08 0-1.11-1-1.14-1.82-.05-1.15-.04-2.31-.06-3.46 2.61-7.01-.92-11.62-6.09-15.59-.34-.31-.65-.65-.95-1-4.55-4.11-5.48-4.23-10.57-1.38-.47.14-.91.09-1.33-.16-1.94-.23-4.59-1.81-2.09-2.83 3.37-1.38 5.62-4.29 9.03-5.26Z" style="stroke-width:0;fill:#ccdf37"/><path d="M332.01 386.03c2.61-1.59 5.47-2.49 8.42-1.61 2.04.61 5.26.42 5.33 3.47.06 2.69-2.56 3.45-4.79 4.14-.97 1.1-2.31 1.29-3.64 1.31-5.28.11-10.61-.55-15.71 1.66-1.18.51-2.64.19-3.69-.88-.98-.02-1.95-.11-2.92-.05-2.46.15-3.77-1.26-3.85-3.42-.09-2.38 1.81-2.76 3.77-2.67.93 5.27 4.05 2.78 7.29 2.14-2.57-1.69-5.47 0-7.25-2.17.4-2.41 2.32-1.87 3.84-1.89 4.39-.06 8.79-.03 13.19-.03 1.83 3.97 5.01 2.54 8.68 2.36-3.13-1.98-6.42-.1-8.67-2.36" class="cls-30"/><path d="M243.52 413.86c-5.39 3.18-16.02 3.27-19.77.17 2.18-4.54 13.61-8.1 17.8-5.55 2.09 1.28 1.29 3.6 1.97 5.38" style="stroke-width:0;fill:#136f5f"/><path d="M83.12 244.14c-1.21 1.94-3.49 2.49-5.07 3.95-.87.79-1.12 2.62-2.97 1.81.28-2.6-.5-4.09-3.51-3.86-2.79.21-5.64-.16-8.4.21-2.22.3-2.07-.84-2.06-2.22.5-.6 1.16-.85 1.9-.94 2.78.12 5.5.85 8.32.71 2.75-.13 3.47-1.35 2.62-3.8-.17-1.15-.16-2.31-.19-3.47-.05-.66-.08-1.33-.23-1.97-2.52-2.64-6.07-.32-8.82-1.81-.42-.24-.7-.59-.87-1.04.6-1.78 2.2-1.89 3.57-1.76 1.95.18 2.34-1.12 2.93-2.38 1.68-.96 3.51-.91 5.3-.65 3.4.5 5.57 2.17 4.78 5.98-.55 2.65-.34 4.92 2.22 6.42 1 .9.65 1.78-.19 2.49-1.4 1.18-.19 1.51.57 2l.08.33Z" class="cls-14"/><path d="M388.02 338.11c.34-.05.67-.09 1.01-.14 3.49-.87 2.33 1.68 2.43 3.29.03.65-.17 1.36.05 1.94 1.61 4.3 1.09 7.26-4.35 7.52-1 .05-1.63 1.01-2.12 1.89-.85 1.86-.46 3.23 1.56 3.92.62.21 1.3.25 1.93.46 2.34.77 3.89 2.33 3.09 4.82-1.09 3.4-3.17.59-4.83.45-2.01-.54-3.88-1.3-4.96-3.27-.99-2.17-2.72-4.12-1.94-6.79 1.59-5.34 5.87-9.13 8.11-14.1Z" style="stroke-width:0;fill:#292c15"/><path d="M165.25 393.21c-3.59-.44-7.2-.77-10.76-1.37-1.88-.31-3.55-1.39-3.26-3.63.27-2.12 2.11-2.13 3.81-2.31 5.07-.53 9.75 1.36 14.6 2.2 1.57.27 2.08 1.61 2.04 2.97-.04 1.41-1.24 1.84-2.46 1.91-1.31.08-2.64.02-3.96.02 0 .07-.01.14-.02.2Z" style="stroke-width:0;fill:#36834d"/><path d="m351.14 360.07 6.78-.03c3.77-.88 7.48-1.84 11.2.46 1.16.72 2.29 1.19 2.51 2.66.32 2.12-1.51 2.16-2.73 2.78v-.03c-5.35 2.63-10.96 1.17-16.34.5-3.26-.41-3.53-2.89-1.42-6.34" style="stroke-width:0;fill:#33794c"/><path d="M75.07 249.9c.99-.6 1.98-1.21 2.97-1.81.09 1.59-1.12 2.18-2.12 3.08-12.13 10.88-18.97 23.67-14.5 40.52.72 2.71 1.13 5.5 1.69 8.26.52.7.61 1.39-.07 2.06-5.27-10.38-7.6-29.82.87-39.61 3.66-4.22 6.46-9.19 11.16-12.49Z" style="stroke-width:0;fill:#6ca44c"/><path d="M317.94 394.12c7.52-2.41 15.25-2.58 23.04-2.09.87 1.57 3.02.39 3.94 1.85-2.3-.26-3.43 2.61-5.8 2.16-2.04 1.54-4.45 1.16-6.63.83-4.3-.65-8.38 0-12.45 1.22l.04.06c-.48-.04-.96-.07-1.44-.14-1.19-.17-2.86.54-3.35-1.1-.64-2.16 2.06-1.55 2.65-2.78Z" style="stroke-width:0;fill:#d1de26"/><path d="M64.12 232.11c2.57-.01 5.14-.04 7.7-.03 1.44 0 3.02-.16 3.29 1.89-3.03 2.57-6.84-.31-10.38 1.6 3.71-.11 7.11-1.61 10.3.44l-.06 4.1c-1.98 1.67-4.45 1.81-6.84 2.2-1.73.29-3.61.17-4.96 1.64-.69.02-1.38.04-2.07.07l-.02-.02c-1.19-1.31-.31-2.44.57-3.23 1.55-1.38-.14-1.69-.59-2.42-.69-.11-1.37-.23-2.06-.34-.79-4.14 1.81-5.33 5.13-5.91Z" style="stroke-width:0;fill:#73a53f"/><path d="M140.38 375.99c1.99.11 4 .07 5.95.39 1.53.25 2.88 1.1 2.67 3.01-.17 1.5-1.13 2.4-2.65 2.5-3.96.26-7.93.67-11.89.58-1.62-.04-4.03-.33-4.15-2.76-.13-2.62 2.18-3.19 4.09-3.5 1.94-.31 3.98-.07 5.97-.07v-.15Z" style="stroke-width:0;fill:#5f9938"/><path d="M390.84 381.97c.04.35.09.7.13 1.05-.26 1.23-1.04 1.98-2.21 2.38-1.2.09-2.24-.37-3.24-.96-2.99-2.09-5.32-4.97-8.35-7.03-1.17-1.09-2.53-1.98-3.6-3.16-1.18-1.3-1.9-2.73.31-3.84 2.42-.1 4.24 1.19 6.04 2.55 4.21 2.31 6.59 6.85 10.93 9.01Z" style="stroke-width:0;fill:#62690d"/><path d="M220.73 402.76c-1.67-1.3-6.36.96-6.39-2.73-.04-4.33 4.05-2.45 6.63-2.26 2.63.19 5.36-.38 7.87.8.91.43 1.8 1.19 1.72 2.25-.1 1.35-1.39 1.16-2.34 1.26-2.31.23-4.63.42-7.49.68" style="stroke-width:0;fill:#3e7e45"/><path d="M118.25 363.82c1.99 0 3.99-.08 5.98.03 1.04.06 2.63-.15 2.43 1.64-.13 1.2-.9 2.26-2.26 2.29-4.48.1-8.97.12-13.45.1-1.35 0-2.24-.91-2.24-2.2 0-1.61 1.47-1.59 2.57-1.69 2.32-.2 4.65-.25 6.97-.36z" style="stroke-width:0;fill:#167351"/><path d="M235.45 396.17c-2.61-.48-7.09.79-6.77-3.39.29-3.89 4.6-2.52 7.39-2.57.95-.02 1.96.29 2.84.68 1.3.59 3.02 1.05 2.81 2.94-.24 2.15-2 2.3-3.71 2.34-.82.01-1.64 0-2.55 0Z" style="stroke-width:0;fill:#337a38"/><path d="M189.84 372.12c2.61 2.44 4.98 5.21 7.9 7.19 1.76 1.19 4.39 1.47 3.16 4.28-1.06 2.42-3.19-.17-4.77.4-1.4-3.77-5.9-3.38-8.11-6.06-.59-.48-1.47-.78-1.16-1.83 5.82-.2.74-3.14 1.18-4.69 1.17-1.22 1.42-.09 1.8.71" style="stroke-width:0;fill:#417c46"/><path d="M294.47 393.74c2.52.91 7.15-1.56 7.09 2.96-.05 3.49-4.27 3.51-7.21 3.31-2.65-.18-7.02 1.63-7.14-2.86-.13-5.1 4.64-2.49 7.26-3.41" style="stroke-width:0;fill:#4b8b41"/><path d="M118.19 359.88c-3.49.09-7.03.11-7.52-3.11-.37-2.42 2.81-2.67 5.02-2.58 2.97.13 6.83.68 7.22 3.52.52 3.76-3.61 1.1-4.71 2.16Z" style="stroke-width:0;fill:#137774"/><path d="M362.93 377.9c.89.69.9 1.43.12 2.21-2.22 1.47-5.15 1-7.3 2.66q-.825.195-1.68.21c-2.46.04-4.92.08-7.38 0-1.58-.05-3.64.29-3.97-1.88-.28-1.83 1.69-2.13 2.88-2.89.55-.35 1.11-.69 1.73-.92 5.21-.12 10.45-1.1 15.59.62Z" style="stroke-width:0;fill:#126f62"/><path d="M386.8 362.27c1.27-.86 3.87 2.21 4.17-1.29.22-2.58-1.79-2.73-3.68-2.79-4.57-.14-5.16-2.48-3.41-6.13 1.49 1.9 2.77 4.01 5.67 4.01 1.14 0 2.27.66 2.93 1.6 2.77 4.02 5.5 3.15 8.28.06.96-.39 1.81-.31 2.48.56 1.02 1.66-1.66 3.07-.32 4.75.01.31 0 .62-.04.92-1.09 1.11-2.26 1.86-3.78.72-1.49-.94-3.19-.6-4.8-.84-2.96-.44-2.77 1.26-2.37 3.21-1.71-1.59-3.41-3.18-5.12-4.78Z" class="cls-69"/><path d="M117.73 373.89c1.74.77 5.68-1.47 5.74 2.2.06 3.69-3.87 2.6-6.34 2.93-.65.09-1.35.1-1.99-.02-1.78-.36-4.01-.59-3.97-2.94.05-2.79 2.56-1.91 4.22-2.15.65-.09 1.33-.02 2.35-.02Z" style="stroke-width:0;fill:#268146"/><path d="M351.14 360.07c-1.63 4.01-.08 5.91 4.05 5.93 4.57.02 9.14-.05 13.71-.09.02 1 .05 2 .07 3-1.37 1.53-3.05 1.78-4.93 1.18-.46-2.66-2.57-1.92-4.26-2.07-3.02-.26-6.3.93-8.94-1.47-1.03-.93-3.68.16-3.35-1.93.29-1.85.78-4.37 3.63-4.54Z" class="cls-161"/><path d="M379.8 388.23c-2.1.17-3.15-1.78-4.86-2.4-2.99-3.61-5.98-7.21-8.97-10.82-.3-2.05-2.18-4.7 1.55-5.43 4.96-.97 4.45 2.99 5.02 5.9-.75 2.44.24 4.12 1.91 5.98 1.9 2.13 5.41 3.09 5.36 6.77Z" style="stroke-width:0;fill:#50541e"/><path d="M141.18 363.62c1.93 1.01 5.74-1.2 5.62 2.83-.08 2.72-3.14 2.69-5.12 2.37-2.31-.38-6.28.72-6.35-2.76-.08-3.79 3.78-1.61 5.86-2.44Z" style="stroke-width:0;fill:#45864c"/><path d="M371.86 377.08c-.32-1.24-.84-2.47-.91-3.73-.1-1.73-.02-3.31-2.39-3.39-2.68-.09-2.76 1.65-2.64 3.58.03.49.02.98.04 1.46-1.45-1.32-1.53-3.18-1.91-4.92 1.47-1.11 3.21-1.12 4.93-1.18l4.01.15c.91.33 1.48.83 1.01 1.89-1.28.98-.91 1.94.21 2.62 1.51.91 2.95 1.83 3.71 3.51.56 1.14-3.25-.8-1.12 1.69 1.65 1.92 5.58 2.45 4.24 6.38-4.68-.85-7.73-3.54-9.18-8.06" style="stroke-width:0;fill:#8d9c26"/><path d="M283.11 358.15c2.6-.75 5.21-1.49 7.81-2.24 4.02-.7 7.74-3.31 12.09-1.9-1.11 3.86-4.78 1.63-7.13 2.8-3.91 1.96-8.19 3.91-12.93 3.16-.53-.66-.54-1.27.16-1.82" style="stroke-width:0;fill:#c3cf59"/><path d="M303.01 354.01c-4.21-.49-7.86 2.53-12.09 1.9 1.49-3.78 5.25-1.59 7.84-2.82 4.02-1.92 8.4-3.93 13.23-3.09.57 1.18-.36 1.47-1.1 1.87-2.91-.33-5.2 1.61-7.88 2.13Z" style="stroke-width:0;fill:#dfe5ab"/><path d="M368.91 365.94c3.16-2.73 2.01-4.01-1.38-5.35-3.26-1.28-6.52 1.19-9.6-.55 4.26-3.33 12.63-2.23 15.86 2.02.52.68.34 1.05.04 1.65-1.04 2.11-2.76 2.63-4.91 2.23Z" class="cls-161"/><path d="M283.11 358.15c-.05.61-.11 1.22-.16 1.82-3.59-.12-6.75 1.55-9.88 2.84-2.11.87-4.01 1.26-6.17 1.03 4.21-5.28 10.59-4.42 16.21-5.7Z" style="stroke-width:0;fill:#d9e49d"/><path d="M63.05 302c.02-.69.04-1.37.07-2.06l11.84 14.18c-6.33-1.72-9.01-7.02-11.9-12.12Z" style="stroke-width:0;fill:#619943"/><path d="M58.03 238.03c-2.37 4.21.2 9.03-1.55 13.45-2.33-3.84-1.93-13.02.58-15.44 1.67.02 1.76.79.97 2Z" class="cls-129"/><path d="M321.82 347.88c1.67-2.62 5.31-1.55 7.17-3.81 1.94-.7 3.93-1.12 6.01-.84.51.18.9.52 1.15 1-4.22 3.39-9.1 4.24-14.34 3.66Z" class="cls-21"/><path d="M186.87 376.11c.39.61.78 1.22 1.16 1.83-6.64-1.6-12.01-5.42-17.04-9.8 6.06 1.14 10.12 6.25 15.88 7.97" style="stroke-width:0;fill:#6fae48"/><path d="M337 342.04c3.83-4.23 8.89-4.19 13.98-4-.36.62-.71 1.25-1.07 1.87-2.83.04-5.5.64-7.97 2.07-1.64 1.02-3.28 1.46-4.95.06Z" class="cls-145"/><path d="M76.03 315.99c5.64 1.49 10.24 4.92 14.98 8.08-5.98-.86-10.81-3.86-14.98-8.08" style="stroke-width:0;fill:#82b946"/><path d="M362.93 377.9c-5.27.08-10.55.16-15.82.25-.1-.22-.21-.44-.31-.66 1.29-2.12 3.74-.07 5.23-1.45 3.58.93 7.87-2.29 10.9 1.87Z" class="cls-87"/><path d="M347.11 378.14c-.13 2.26-2.86 1.25-3.77 3.22 3.93 1.25 7.86.27 11.67.63-.06 2.2-1.79 1.48-2.86 1.45-3.04-.09-6.11.52-9.11-.38-.84-.08-1.71-.1-2.19-.98.23-4.51 1.34-5.29 6.04-4.22z" class="cls-87"/><path d="M346.89 377.87c-3.05-.08-5.46.76-6.03 4.22-2.18-2.45-.91-5.42 2.83-5.94 2.73-.37 5.56-.1 8.34-.12-1.3 1.76-3.77.24-5.13 1.84Z" class="cls-30"/><path d="M310.89 351.88c.37-.62.74-1.25 1.1-1.87 2.77-1.69 5.75-2.44 9-2.02-2.76 2.87-6 4.51-10.1 3.89" style="stroke-width:0;fill:#c6d65e"/><path d="M58.03 238.03c.01-.83-.17-1.56-.97-2v-3.99c2.29-2.65 4.62-1.43 6.96-.08l.09.14c-1.91 1.8-4.79 2.75-5.13 5.91l-.48.01h-.48Z" class="cls-14"/><path d="M343.05 383.07c3.96-.65 8.14 1.07 11.97-1.07q.435-.06.87-.06c1.75-.78 3.51-1.47 5.18.17-5.89 2.52-11.9 2.69-18.01.97Z" class="cls-30"/><path d="M383.56 330.81c.28-.19.65-.66 1-.65 1.72.06 3.67-.94 5.05.89.16.21.19.77.04.93-1.52 1.56-3.05-.44-4.63-.05-.57.14-1.33-.04-1.46-1.14Z" class="cls-75"/><path d="M374 370.95c-.34-.63-.67-1.26-1.01-1.89 3.32-.5 5.6.85 6.92 3.89-1.97-.67-3.94-1.34-5.92-2Z" class="cls-161"/><path d="M61.06 238.36c1.08.29 2.15.59 3.43.93-1.38 1.64-3.46 2.44-3.41 4.71-4.38-1.86.97-3.77-.02-5.65Z" class="cls-14"/><path d="M361.06 382.1c-1.73-.06-3.45-.11-5.18-.17 1.83-2.81 4.68-1.59 7.17-1.82.11 1.44-.8 1.86-1.99 1.99" class="cls-87"/><path d="M288.03 409.81c-2.02.05-4.04.09-6.06.14 1.73-2.93 4.6-1.57 7.03-1.88-.32.58-.65 1.16-.97 1.74" style="stroke-width:0;fill:#ccdf7a"/><path d="m337 342.04 4.95-.06c-1.14 2.79-3.74 1.82-5.8 2.24l-.29-.37c-.32-1.04.58-1.32 1.14-1.82Z" class="cls-21"/><path d="M379.91 352.22c.65 2.26 1.29 4.53 1.94 6.79-2.05-1.86-3.89-3.78-1.94-6.79" class="cls-69"/><path d="M458.98 188.1c1.1.16 2.79-.04 3.18.57.85 1.34-1.02 1.65-1.7 2.4-.77.86-1.56 1.66-1.57 2.91-.83 2.85-2.86 5.21-3.29 8.22-.17 1.22-1.45 2.62.07 3.58 1.19.75 2.07-.51 2.95-1.21 4.46-3.54 9.5-5.96 14.9-7.67 1.11-.35 2.19-.8 3.37-.73 1.41.09 2.67.55 3.05 2.05.34 1.34-.67 2.12-1.61 2.81-2.03 1.48-4.49 2.09-6.71 3.2-3.58 1.79-6.51 4.54-9.85 6.67-1.72 1.06-2.32 3.12-1.16 4.2 1.74 1.61 3.09-.69 4.48-1.63.81-.85 1.58-1.75 2.66-2.29 1.66-.62 3.67-1.66 4.8.29 1.58 2.7-1.72 3.25-2.7 4.86-.82.78-1.65 1.57-2.45 2.38-2.23 1.57-2.91 4.24-4.47 6.28-.67 1.36-.99 2.62-.5 4.25.8 2.7 1.53 5.64-2.29 6.98-1.42.5-1.22 1.87-1.18 2.98.08 2.21-1.04 2.96-3.06 2.81-2.38-2.33-3.52-4.33-.71-7.6 2.23-2.6.99-6.63 1.76-9.96.18-.77-.8-1.39-1.69-1.55-.93-.17-1.6.28-2.06 1.05-.26.44-.42.95-.38 1.43.52 6.17-2.55 10.78-6.48 15.02-2.36 2-2.22 4.72-2.1 7.42-.04 1.4.46 2.83-.28 4.17-1.02 0-2.04 0-3.05-.01-1.13-3.88-3.86-7.49-2.04-11.88 1.17-1.58 2.29-3.21 3.71-4.6 2.27-1.59 4.12-3.38 3.27-6.53-.5-1.87-1.3-3.64-3.59-3.29-2.07.32-3.05 1.87-2.77 3.98.2 1.47.69 2.91-.16 4.33-.34.41-.76.7-1.26.89-5.54.38-6.1-.13-6.16-5.56.11-.49.32-.95.59-1.38 2.93-1.93 2.87-5.69 4.94-8.17.29-.37.62-.7.97-1.01 1.6-1.59 3.35-1.82 5.39-.81 2.31 1.15 4.83.8 7.28.72 1.49-.05 3.15-.22 3.59-1.98.44-1.74-.85-2.68-2.2-3.43-.72-.4-1.46-.76-2.11-1.27-1.67-1.46-3.69-2.63-4.31-5-.22-1.03-.15-2.04.14-3.05 1.58-5.81 4.2-10.99 9.07-14.79 1.08-.85 1.96-2.46 3.7-1.11Z" style="stroke-width:0;fill:#691619"/><path d="M445.94 240.01c.33-.92.38-2.25 1.03-2.7 4.64-3.17 4.61-7.81 4.4-12.64-.12-2.8 1.86-3.84 4.22-3.44 2.39.4 4.11 2.37 3.11 4.66-1.03 2.36-1.96 4.36-.87 6.92.24.57-.23 2.06-.66 2.19-5.19 1.56-1.17 4.66-1.26 7.03-3.61.78-5.58 3.29-6.74 6.57-.88 2.49-2.37 3.95-5.2 3.43-.7-1.27-1.24-2.58-.91-4.09 4.34-1.42 5.07-4.14 2.88-7.93" style="stroke-width:0;fill:#6a3635"/><path d="M528.74 121.96c1.92-.75 3.52-1.01 2.98 1.97-1.59 5.59-4.23 10.88-4.57 16.82-.14 2.48-.59 4.93.75 7.23-1.98-.61-3.96-.5-5.95-.06 2.26-8.65 4.53-17.31 6.79-25.96" style="stroke-width:0;fill:#a7532d"/><path d="M466.93 218.04c.67-.66 1.34-1.33 2.01-1.99 2.94-2.02 5.63-4.48 9.3-5.2 1.63-.25 3.23-.97 4.91-.58 1.49.34 3.08.9 3.15 2.68.07 1.83-1.33 2.49-3 2.58-.82.04-1.67-.08-2.39.46-4.5-.74-7.08 3.52-11.04 4.21-1.93.59-3.73.99-2.95-2.15Z" style="stroke-width:0;fill:#6b7257"/><path d="M438.02 252.06c-1.67 1.87-3.76 3.09-6.08 3.94-2.02 1.16-4.18 1.83-5.48-.71-1.12-2.18.4-3.68 2.18-4.85 1.23-.81 2.55-1.53 3.39-2.82.91-1.16 1.91-2.21 3.43-2.55 5.11.76 5.83 2.73 2.58 6.99Z" style="stroke-width:0;fill:#5e6b5f"/><path d="M432.92 248.12c.02 1.84-1.71 2.19-2.72 3.14-1.13 1.06-4.04.78-2.99 3.46.88 2.25 3.13.88 4.72 1.28-.98 2.08-2.68 2.51-4.56 1.59-3.54-1.73-6.98-3.65-10.47-5.5.15-.18.3-.35.46-.53 4.9-.45 8.51-2.71 10.45-7.36l.17-.19c2.33.55 3.14 2.92 4.94 4.11" class="cls-134"/><path d="M480.92 215.98c.91-1.87 5.39.01 4.25-3.33-.81-2.36-3.65-1.36-5.73-.69-.46.15-.98.07-1.48.09-.48-1.56.82-1.87 1.85-2.58-1.72-.6-3.79.16-5.07-1.49 1.56-3.5 4.78-2.19 7.35-2.34 2.28-.13 4.59.67 6.94.38 2.19 3.67.64 6.48-2.06 9.02-1.89 1.1-3.96 1.08-6.04.94Z" class="cls-142"/><path d="M438.02 252.06c1.27-3.22 2.52-6.42-3.11-6.12-1.03-1.61-5.37-.8-3.38-4.62 2.8-.56 5.29-3.33 8.47-1.21-1.54 1.91-.79 3.72.23 5.53 1.13 2.02.61 4.23.69 6.36-.97.02-1.93.03-2.9.05Z" class="cls-134"/><path d="M466.93 218.04c.05 2 1.5 2.08 2.95 2.15-2.1 1.92-3.97 4.16-6.94 4.82-.49-3.37 1.33-5.4 3.99-6.96Z" class="cls-154"/><path d="M416.91 252.09c-3.7-1.38-5.79-3.98-6.06-7.97l.14-.11c4.11 1.01 5.25 4.32 6.09 7.86l-.17.21Z" class="cls-134"/><path d="M189.84 372.12c-.6-.24-1.2-.47-1.8-.71-.39-.34-.77-.68-1.16-1.02-1.81-1.75-4.07-2.86-6.11-4.26-.95-.61-1.9-1.21-2.86-1.82-1.28-3-4.44-3.85-6.77-5.52-6.75-4.85-13-10.4-20.15-14.7h-.07c.58-5.5-.99-10.96-.75-16.35 1.71-37.75.34-75.52 1.04-113.27.08-4.15-.13-8.4.66-12.65 1.25-6.78.3-7.51-7.67-9.48 1.58-.38 3.72.24 4.1-2.29 5.02-.54 8.37 3.31 12.58 4.89 6.28 2.35 12.01 6 18.29 8.41 5.42 2.78 10.36 6.51 16.26 8.37 1.96 1.25 4.05 2.29 6.07 3.45 1.55.89 2.73 2.24 1.94 4.09-.87 2.06-2.86 1.84-4.24.87-3.38-2.38-6.78-1.97-10.45-1.02-1.73.45-3.85.41-4.92-1.47-.89-1.56 1.13-2.15 1.61-3.29-.35-1.18-1.51-1.15-2.33-1.6-2.37-1.28-4.51-2.51-4.82 1.96-.13 1.9-2.36 3.15-3.3 5.39 1.63-.59 2.99-1.36 4.53-1.25 1.33.1 2.79.08 3.56 1.37.93 1.57-.36 2.43-1.38 3.26-.79.64-1.63 1.3-1.69 2.36-.21 3.42-1.66 4.37-4.89 2.9-2.66-1.22-2.79.95-2.68 2.6.47 7.35-1.21 14.59-1.06 21.91.03 1.33.04 2.67-.15 3.99-.23 1.51-.52 3.12-2.4 3.34-2.05.24-3.01-1.24-3.52-2.9-.99-3.25-.93-6.64-.37-9.9 1.42-8.24.09-16.64 1.65-24.87.41-2.14-.37-4.28-1.17-6.32-.86-2.2-1.45-4.42-.71-6.81.34-1.09.91-2.45-.08-3.3-1.32-1.14-2.42.3-3.56.82-.45.21-.89.46-1.38.56-1.77.38-3.11 1.15-3.14 3.24-.03 1.98.67 3.39 2.41 4.57 3.88 2.61 4.59 6.21 1.32 9.46-3.24 3.2-4.2 6.56-3.28 10.81.36 1.64-.21 3.3-.36 4.96-.41 4.5.57 8.73 1.48 13.17 2.13 10.4 6.18 20.66 3.77 31.73-1.28 5.87-.86 12-.35 17.92.57 6.66-1.96 12.29-4.1 18.18-1.36 3.74-2.17 7.31 2.54 9.8 2.35 1.24 2.06 3.35-.64 4.33-2.2.8-3.46 2.01-2.73 4.46.82 2.73 2.82 2.24 4.87 1.72 3.07-.79 6.06-.2 8.64 1.43 2.26 1.43 4.35 3 7.11 3.38.99.14 2 .67 2.07 1.84.08 1.49-1.13 1.89-2.29 2.16-1.99.46-3.95.23-5.96-.46 11.4 7.25 21.19 16.54 32.58 23.65.7 2.27 1.45 4.56-1.49 5.9-3.58-3.46-7.85-5.86-12.29-8Z" class="cls-200"/><path d="M82.96 239.98c-4.64.49-5.09-3.13-4.17-5.69 2.1-5.84-1.05-6.19-5.24-6.17-1.14 0-2.29-.12-3.44-.18-6.47-1.59-10.24-5.89-12.16-12.06-.7-2.69-1.5-5.35-2.06-8.06-.49-2.41.61-3.78 3.14-3.84h.7c3.36 1 6.33 2.8 9.35 4.49.36.3.68.63.97 1 1.86 2.61 4.33 4.66 6.53 6.95.47.45.92.94 1.41 1.36 3.03.74 1.65-1.83 1.81-2.75.46-2.73 1.67-4.37 4.55-3.83 3.16.59 2.86 3.03 2.52 5.42-.27 1.89-2.2 3.35-1.4 5.48 6.87-3.2 8.57-9.41 9.84-16.31-2.33.94-3.29 2.83-4.83 4.04-2.31 1.83-4.13 2.24-4.46-1.57 1.04-4.51 4.19-7.17 8.07-9.2 6.56-2.82 6.72-2.63 6.91 4.85.1 3.89-1.04 7.43-2.28 10.99.57 5.4-3.68 8.09-6.93 10.71-4 3.22-8.46 5.51-6.9 11.83.27 1.1-.57 2.23-1.93 2.53Z" style="stroke-width:0;fill:#2e2f0d"/><path d="M70.93 186.15c-3.87-8.01-2.15-12.81 7.17-20.02 5.28-2.67 9.55-1.05 13.23 3.08 7.43 7.18 3.53 14.09-.5 21.01-1.03 1.55-2.14 3.02-3.75 4.03-3.54 1.69-2.38 4.97-2.7 7.79-.26 2.27.89 6.03-2.25 6.09-3.24.07-2.12-3.7-2.38-5.95-.24-2.1.27-4.28-.66-6.3-.29-.39-.57-.79-.87-1.18-2.26-3-5.41-5.24-7.29-8.56Z" style="stroke-width:0;fill:#392415"/><path d="M69.15 209.93c-.12-.22-.16-.46-.14-.71-2.95-2.32-6.31-3.86-9.8-5.15l-.18-.1c-.48-1.12-.97-2.24-1.72-3.97 3.59 1.13 6.52 2.11 9.49 3.47 2.85 1.31 4.3 4.77 7.9 4.82.95-2.94-.16-5.99.95-8.86.49-1.26-.38-2.87-1.41-3.52-4.37-2.76-6.16-7.44-9.01-11.34-.86-1.18-1.32-2.33-1.14-3.65.24-1.79-1.08-4.88 1.55-4.95 2.2-.06 1.26 2.96 1.32 4.63.12 3.25 1.64 5.57 4.22 7.34 3.51.86 4.84 4.48 7.73 6.12l.13.13c1.1 1.32 1.77 2.79 1.47 4.54-.99 5.88-.09 11.75 0 17.62.05 2.96-.71 4.41-3.53 1.82-.33-.37-.67-.73-1-1.1-1.75-2.89-4.36-4.96-6.84-7.14Z" style="stroke-width:0;fill:#d4e62c"/><path d="M82.96 239.98c-.44-7.81 3.29-12.93 9.83-16.94 2.7-1.66 4.76-4.82 5.93-8.13 4.11-1.3 2.59-5.12 3.21-7.8.61-2.64.13-5.54.13-8.79 7.13 6.61-2.49 26.62-10.93 31.67-.26.33-.59.43-.99.31-2.47-.17-3.95 1.24-3.84 3.46.12 2.44 2.36 2.31 4.21 2.3h5.5c-4.69 3.24-10.39 3.04-12.97 7.75-1.26-.26-2.94 2.23-3.62.04-.76-2.47 2.93-1.99 3.54-3.87" style="stroke-width:0;fill:#cee42a"/><path d="M87.17 193.2c.96-1.06 1.92-2.11 2.88-3.17 2.19-2.52 2.51-6.38 5.8-8.12 1.96-.58 4.28-1.03 2.58 2.13-1.5 2.79-2.3 6.13-5.57 7.91-2 1.09-3.36 3.1-2.96 5.98 3-.02 4.04-2.65 5.85-4.11 1.16-.94 2.15-2.21 3.88-1.34.79.4 1.33 1.1 1.23 1.99-.22 1.99-1.9 1.41-3.1 1.59-1.83.28-2.91 1.44-3.68 3-2 3.27-5.95 4.96-7.16 8.87-.86 1.68-2 2.27-3.25.48-.88-1.26 1.11-13.3 2.22-14.5.34-.36.82-.52 1.26-.73Z" style="stroke-width:0;fill:#d0e330"/><path d="M57.95 215.87c3.4 4.68 7 9.15 12.16 12.06 1.2 1.86 2.09 3.48-1.51 3.17-1.53-.13-3.26-.53-4.57.87-2.31.6-4.65-.94-6.96.08.03-1.33.05-2.66.08-3.99 1.99-.7 1.65-2.5 1.89-4.02-1.37-2.61-3.42-4.55-5.94-6.03-.31-3.77-.62-7.54-1-12.05 2.89 1.62 3.08 3.55 2.94 5.49-.16 2.3.59 3.84 2.9 4.43Z" style="stroke-width:0;fill:#ccdd32"/><path d="M128.04 216.05c2.44-.37 4.71.2 4.61 2.99-.08 2.28-2.29 2.95-4.46 3.01-2.51.07-5.56-.69-4.72 3.84.23 1.24-1.29 2.15-2.86 2.11-2.49-.06-4.98-.02-7.48-.04-1.44 0-2.77-.53-3.26-1.87-.62-1.71.84-3.12 1.94-3.59 2.75-1.16 5.3-2 6.14-5.49.35-1.46 2.55-1.12 4.05-.97.38 3.19 2.72 3.34 5.09 3.09 2.43-.26.31-2.14.94-3.09Z" style="stroke-width:0;fill:#679a43"/><path d="M126.85 209.94c-1.49 0-2.98.02-4.47 0-1.89-.03-3.27-.79-3.33-2.85-.08-2.4 1.55-3.1 3.58-3.13 2.31-.03 4.63-.01 6.95.08 2.44.1 4.31 1.19 4.25 3.83-.07 3.13-2.7 2.16-4.51 2.35-.81.09-1.65-.06-2.48-.1v-.18Z" style="stroke-width:0;fill:#2d7a58"/><path d="M90.15 230.3c.33-.1.66-.21.99-.31 2.49.67 6.89-1.66 7.12 2.06.21 3.38-4.31 1.49-6.57 2.4-1.15.46-2.7 1.33-3.44-.43s1.12-2.54 1.9-3.72" style="stroke-width:0;fill:#377843"/><path d="M128.04 216.05c.59 1.29 3.33.72 2.73 2.87-.52 1.86-2.5 1.22-3.82 1.47-1.23.23-2.58-.2-3.88-.27-4.57-.27-2.98-2.12-1.06-4.06h6.04Z" style="stroke-width:0;fill:#377b45"/><path d="M95.85 181.92c-2.58 2.24-2.66 6.27-5.8 8.12.5-2.46 1.96-4.46 3.07-6.64 2.51-4.9 1.75-9.38-2.03-13.37.32-.47.67-.47 1.06-.08 4.09 3.11 6.05 6.87 3.7 11.97" class="cls-66"/><path d="M92.15 169.95c-.35.03-.71.05-1.06.08-3.31-4.7-8.1-4.46-12.99-3.89 4.63-4.28 10.61-2.66 14.04 3.81Z" style="stroke-width:0;fill:#93a019"/><path d="M78.92 194.06c-3.71-.6-4.78-4.55-7.73-6.12-.09-.6-.17-1.2-.26-1.8 3.31 1.98 5.84 4.76 7.99 7.91Z" class="cls-66"/><path d="M371.96 117.09c3.94 4.13 9.15 6.28 14 8.99 1.79 1.52 5.09.87 5.75 3.94.11.51-.36 1.65-.58 1.66-2.76.06-4.79-1.72-7.02-2.98-4.65-2.62-9.73-4.5-13.66-8.36-2.84-2.79-1.17-3.18 1.5-3.25Z" class="cls-81"/><path d="m399.09 364.68 3.78-.72c2.69-.47 4.39 1.14 6.03 2.87-4.11 3.62-7.4 7.93-10.51 12.4-.54.78-1.01 1.85-2.28 1.25-.85-.4-1.14-1.28-.98-2.09.69-3.42.74-6.86.72-10.32-.01-2.12 2.32-2.1 3.24-3.39" style="stroke-width:0;fill:#c3d42b"/><path d="M402.91 363.04c-5.74-1.42 1.28-2.59.08-3.92.93-1.34.63-2.49-.66-3.33-2.09-1.38-3.21.58-4.64 1.46-2.19-3.07-1.63-5.18 1.51-5.98 1.48-.38 3.84 1.06 4.32-.98.56-2.35-2.51-2.6-3.64-4.09 3.2-1.64.57-4.37 1.23-6.49 2.2.65 3.29 2.66 4.73 4.13 4.44 4.52 4.54 6.79 1.12 12.41-1.16 2.38-.92 5.58-4.04 6.79Z" style="stroke-width:0;fill:#505918"/><path d="M291.01 138.08c8.8-1.75 17.89-1.13 26.61-2.56 25.53-4.19 47.32 14.09 56.87 32.14 1.68 3.17 2.54 6.84 3.35 10.38.78 3.42.05 5.68-4.35 6.55-22.89 4.52-45.65 9.7-68.57 14.07-6.17 1.17-12.16 3.47-18.55 3.56-1.3.02-2.63.5-3.36 1.83-10.22 1.28-20.15 4-30.2 6.12-12.48 2.64-25.13 4.53-37.39 8.19-3.3.98-3.63-.97-3.75-3.43-.47-9.57 2.5-18.29 6.69-26.66 11.11-22.19 28.74-36.7 52.14-44.65 6.75-2.29 13.36-4.84 20.51-5.53Z" style="stroke-width:0;fill:#ce170c"/><path d="M152.25 171.15c7.43-19.15 21.64-32.32 38.25-43.37 1.64-1.09 3.51-1.84 4.58-3.63 22.48-11.22 46.73-13.01 71.28-13.79 12.26-.39 21.98 6.62 32.93 9.97 7.19 2.2 14.12 5.27 21.12 7.93-.38 1.39-1.21 1.72-2 1.67-9.22-.53-18.21 1.11-27.13 3-10.64 2.26-20.95 5.48-30.94 10.02-9.72 4.42-18.91 9.49-26.58 16.86-11.14 10.7-19.62 23.28-24.44 38.05-1.32 4.05-1.66 8.42-2.46 12.64-.54.75-.38 1.98-1.54 2.32-1.63.57-3.38.71-4.83-.17-4.96-3.03-10.74-4.25-15.69-7.28-.7-.43-1.65-.61-2.09-1.29-3.56-5.59-9.73-5.47-15.14-6.97-.47-.12-.91-.34-1.3-.6-.9-.5.25-1.63-.18-1.71-5.07-.97-8.23-6.18-13.73-6.13-.44-.26-.79-.6-1.08-1.02-2.24-3.39-.62-6.83.07-10.15.44-2.12.79-4.22.91-6.37Z" style="stroke-width:0;fill:#cd180c"/><path d="M205.98 212.11c.29-.54.58-1.07.87-1.6.05 9.69.09 19.37.15 29.06 0 1.82.04 3.63.07 5.45-.03 1.35-.05 2.7-.08 4.05-.87 1.56-.45 3.27-.46 4.9-.03 16.99-.04 33.98-.01 50.97.01 7.98-1.48 15.89-1.04 23.9.64 11.78.75 23.51-.48 35.33-.52 4.99-.07 10.52 1.05 15.71 6.49.48 11.69-3.61 17.66-5.03 4.74-1.13 9.15-3.77 14.3-2.86-4.83 3.26-10.65 3.82-15.97 5.73-4.71 1.69-9.57 2.93-14.31 4.51-2.56.85-4.9 1.72-5.59-2.11 1.68-1.85.64-4.07.82-6.12-1.02-1.22-1.31-2.66-1.31-4.2a71 71 0 0 1-.06-4.6c.13-23.64-1.12-47.29.73-70.91.18-2.33.16-4.66.09-6.99-.65-21.15 1.01-42.27 1.02-63.41 0-2.51.66-4.94.86-7.43.32-1.54.45-3.17 1.69-4.36Z" class="cls-6"/><path d="M309.06 621.99c5.56-12.92 10.99-25.9 16.71-38.74 7.9-17.72 16.2-35.26 23.99-53.02 7.39-16.86 14.86-33.67 22.75-50.31 1.96-4.13.53-6-4.32-6.02-15.65-.08-31.3-.17-46.95-.09-3.8.02-7.55-.86-11.41-.12-3.03.58-3.73-1.76-3.49-4.11.88-8.64.65-17.26.14-25.9-.14-2.41.74-3.79 3.4-3.71 13.97.41 27.94.05 41.92.58 15.96.6 31.95.28 47.93.35 2.16 0 4.34.1 6.49-.1 3.54-.33 5.12.81 5.01 4.69-.26 9.15-.14 18.31-.16 27.47 0 6.47-3.78 11.65-6.35 17.07-7.45 15.73-14.24 31.75-21.48 47.58-2.48 5.42-4.88 10.88-7.31 16.33-5.8 9.55-9.32 20.15-13.94 30.25-6.19 13.55-12.42 27.09-18.63 40.63-3.49 7.6-5.26 16.05-5.26 24.66 0 13.78-.05 27.57-.12 41.35-.02 4.82.06 9.61.78 14.42 1.4 9.33 13.49 17.16 22.49 13.97 11.56-4.1 15.05-8.15 14.91-20.19-.17-14.79.46-29.59.63-44.39.04-3.31-.57-6.61-.63-9.93-.07-3.67 1.28-6.32 5.61-5.59 7.44 1.25 14.94.67 22.41.79 3.41.05 4.86 1.18 4.68 4.68-1.03 19.45-.23 38.94-1.08 58.38-.85 19.62-14.06 36.66-33.56 43.2-15.11 5.06-30.13 4.21-43.52-3.87-10.13-6.11-18.06-15.17-21.84-27.22-2.43-7.76-2.75-15.56-2.73-23.5.07-18.3-.26-36.6.68-54.89.26-5.01 3.21-9.53 2.25-14.68Z" style="stroke-width:0;fill:#148cdd"/><path d="M431.95 343.92c3.48-.2 5.95 1.64 8.17 4-3.35-.05-5.94-1.66-8.17-4" class="cls-125"/><path d="M430.93 242.08c.46 2.18 4.52.66 3.98 3.87-.66.72-1.32 1.45-1.99 2.17-3.52.89-3.75-2.18-4.94-4.11-1.45-2.47-4.06-2.5-6.42-2.94-1.61-.3-3.74-.22-4.05-2.04-.39-2.27 2.49-1.56 3.47-2.76.24-2.14-2.9-2.94-2.12-5.3-1.52-4.23 3.27-2.08 4.04-4-1.37-2.36-2.52-4.83-5.01-6.39-1.6-1-2.26-2.71-1.9-4.67.18-1.52-.69-3.72 1.44-4.16 1.42-.29 1.68 1.75 2.29 2.83.82 1.45 1.66 2.81 3.36 3.35.85-.79 1.99-1.2 2.79-2.05 1.43-2.56-.23-4.87-.66-7.22-.55-3.01-.83-5.92.39-8.81.46-1.09.98-2.25 2.39-2.17 1.43.08 1.79 1.3 2.06 2.45.45 1.94.42 3.94.76 5.91.59 3.39 2.25 5.01 5.7 4.72.77.09 1.49.33 2.14.76 1.21 1.52-.17 2.06-1.11 2.53-1.89.96-2.85 2.66-3.86 4.35-4.06 4.92-7.2 10.01-5.6 16.96.58 2.51 2.4 4.26 2.84 6.69Z" style="stroke-width:0;fill:#681822"/><path d="M417.08 251.88c-2.29-2.42-3.33-5.81-6.09-7.86 0-5.41-.17-5.03 4.99-2.78 3.68 1.6 7.87 2.01 11.84 2.96-.9 6.55-3.12 8.14-10.73 7.68Z" style="stroke-width:0;fill:#696a70"/><path d="M441.85 186.12c.16 2.27-3.36 2.47-2.8 4.96.26.4.36.83.28 1.31-1.58 3.68-4.28 7.1-2.59 11.52.15.49.25.98.33 1.48.17 1.35.15 2.68-.33 3.95-.45 1.17-1.29 1.96-2.57 2.08-1.32.12-2.32-.61-2.75-1.75-2.54-6.6-2.66-13.13.75-19.52 3.23-1.33 5.68-4.54 9.68-4.03" class="cls-49"/><path d="M426.92 217.96c-1.28 0-2.56-.01-3.84-.02-1.21-3.74-3.35-7.03-4.51-10.89-1.55-5.17.72-7.68 4.39-10.05 1.28-1.49 3.83-2.14 3.25.2-1.66 6.6-.11 12.68 1.22 18.92.14.65-.03 1.31-.5 1.84Z" style="stroke-width:0;fill:#657173"/><path d="M426.92 217.96c.37-2.56-1.08-4.69-1.58-6.99-.86-3.92-1.28-8.15-.11-12.15.91-3.07-.37-2.66-2.28-1.82 1.71-4.11 5.96-4.81 9.21-6.85.24 5.57-2.91 10.94-1.05 16.59.54 1.63.72 4.12 3.06 3.78 2.42-.35 1.67-2.78 1.76-4.49.03-.66 0-1.32.01-1.97 4.01 2.19 2.42 5.08.99 7.95-6.17.09-6.92-.66-7.93-7.8-.26-1.85.44-3.86-.94-6.08-2.46 3.39-2.3 6.55-1.66 10.04.59 3.19 3.21 6.4.52 9.8Z" class="cls-148"/><path d="M415.98 215.91c1.17 1.87 1.84 4.07 4.24 5.02 2.73 1.08 3.22 3.39 2.67 6.05-4.46-.29-10.74-5.66-10.9-9.49-.07-1.56-.69-3.8 1.01-4.5 2.36-.98 1.4 2.49 2.98 2.93Z" style="stroke-width:0;fill:#676b5f"/><path d="M418.85 230.98c1.01 1.02 2 2.05 3.03 3.05 1.57 1.52.06 1.76-.9 2.25-3.51.53-6.62-1.28-9.26-2.77-3.56-2.01-1.31-6.17-1.41-9.61 2.23 3.23 5.6 4.9 8.56 7.08Z" style="stroke-width:0;fill:#5f6765"/><path d="M298.96 201.95c-3.6 3.08-7.92 1.89-12.02 2.06 3.89-1.39 7.93-1.83 12.02-2.06" class="cls-9"/><path d="M49.04 182.07c1.72 7.32 1.7 14.65.02 21.98 0-7.33-.01-14.65-.02-21.98" class="cls-117"/><path d="M406.26 385.97c-2.48 2.03-5.01 4.01-7.43 6.1-3.21 2.78-3.71.83-3.76-2.06 3.05-3.09 4.35-7.65 8.39-9.9 1.71-1.45 3.4-1.7 5.09.04.71 2.52-.82 4.15-2.28 5.82Z" style="stroke-width:0;fill:#eff1e8"/><path d="M388.74 385.17c.74-.72 1.49-1.44 2.23-2.16.64.12 1.31.16 1.92.39 1.26.47 3.06-1.46 3.84.72.61 1.69-1.2 2.53-1.77 3.83-1.53 1.69-1.81 4.44-.47 5.34 3.52 2.35-.17 3.25-.49 4.77-1.98-1.67-.45-6.63-5.05-5.1-.91-2.37 6.43-1.76 1.15-5.02-1.45-.44-1.96-1.33-1.36-2.78Z" style="stroke-width:0;fill:#0b0d0c"/><path d="M408.55 380.15c-1.7-.01-3.39-.02-5.09-.04.86-2.96 3.25-4.85 5.05-7.15.73-.93 1.47-1.98 2.8-1.02.95.69.75 1.75.43 2.71-.69 2.04-1.65 3.94-3.19 5.49Z" style="stroke-width:0;fill:#e2f034"/><path d="M535.42 746.18c1.27-5.39-2.27-4.46-5.18-4.17-1.52.15-3.73 1.56-3.83-1.15-.08-2.26 2.32-1.78 3.91-1.87.5-.03 1.01-.06 1.5.02 2.22.36 5.25-1.26 6.52.9 1.34 2.27-1.99 3.81-2.91 6.27Z" style="stroke-width:0;fill:#06090d"/><path d="M535.6 772.6c-1.23-2.01.52-3.58.36-5.35-.09-1.03-.71-3.1 1.52-2.69 1.57.28 1.5 2 1.33 3.28-.27 2.06-.65 4.16-3.21 4.76" style="stroke-width:0;fill:#0e1114"/><path d="M492.05 134.13c2.48.22 1.72 2.45 2.27 3.82.66 1.65-.39 2.04-1.76 1.99-1.94-.08-2.48-1.36-2.52-3.03-.03-1.41.12-2.72 2.01-2.78" style="stroke-width:0;fill:#a22b04"/><path d="M489.03 206.02c-.49 2.56-1.98 1.76-3.7 1.33-3.48-.87-7.01-1.11-10.36.68-1.46 2.97-5.05 2.07-7.13 3.91-.64.7-1.27 1.4-1.91 2.11-1.8 1.17-3.73 2.55-5.65.49-1.45-1.55-1.23-3.25.73-4.46 4.94-3.9 9.99-7.6 16.05-9.66.98-.33 2.65-.66 2.13-2.18-.53-1.54-2.27-1.52-3.44-1.01-5.98 2.58-12.67 3.9-17.08 9.31-1.26 1.55-2.71 1.99-4.35 1.06-1.88-1.07-1.48-2.66-.6-4.3 1.68-3.14 1.53-7.28 5.16-9.34 1.71-1.23 3.89-2.13 5.03-3.76 2.5-3.56 5.51-3.47 8.99-2.22 7.98 3.68 13.46 9.59 16.12 18.02Z" style="stroke-width:0;fill:#697074"/><path d="M458.98 188.1c-4.58 3.22-8.87 6.64-10.18 12.57-.27 1.22-1.17 2.31-1.77 3.46-1.24 1.81-2.58 3.61-5.13 2.55-2.56-1.07-1.31-3.33-1.31-5.15 0-2.47.99-4.78 1.15-7.23.21-.85.55-1.63 1.33-2.12 1.39-.27 3.01-.99 2.68-2.4-.78-3.35 1.5-4.93 3.64-5.38 3.5-.73 7.4-.96 10.63 1.07 1.62 1.02-.95 1.62-1.04 2.65Z" class="cls-49"/><path d="M443.07 192.16c-.08.62-.15 1.25-.23 1.87-.82 2.77-1.66 5.48-2.08 8.4-.57 3.99.61 5.16 4.31 4.39.67-.14 1.27-.1 1.87.22.71 1.96 2.79 2.53 4 3.99-3.05 2.09-6.83-1.08-9.84 1.37-.76.23-1.49.24-2.12-.34l-2.05-.06c-.39-2.64 1.07-5.52-.99-7.95-1.08-4.51 1.37-8.16 2.91-12.03.05-.32.11-.64.2-.95 1.71-1 3.89-3.74 4.02 1.09" style="stroke-width:0;fill:#691424"/><path d="M506.83 738.71c2.26 2.61.99 5.72.99 8.55 0 5.11-.04 10.12 3.01 14.55-4.33-1.4-7.05-3.97-6.98-8.92.07-4.94-1.56-10.19 2.98-14.18" style="stroke-width:0;fill:#06090e"/><path d="M511.19 773.67c-.66 0-1.31.04-1.97-.01-1.76-.13-4.11.11-4.05-2.4.07-2.58 2.46-2.05 4.19-2.14 1.31-.07 2.64.04 3.92-.16 1.55-.24 3.52-2.18 3.76 1.33.17 2.51-.77 3.73-3.41 3.4-.81-.1-1.64-.02-2.46-.02Z" style="stroke-width:0;fill:#111418"/><path d="M517.8 759.48c-.19 1.22-.76 2.11-2.11 2.22-.94.08-1.61-.43-1.61-1.35 0-1.29.75-2.08 2.06-2.21.95-.09 1.48.41 1.65 1.34Z" style="stroke-width:0;fill:#2a2e31"/><path d="M71.96 66.05c-1.33 1.63-2.26 3.83-4.31 4.54-1.74.61-.6-.77-.53-1.35 1.6-7.2 2.53-14.35-1.12-21.17 3.18-.35 5.84 1.74 6.02 5.58.19 4.12-.03 8.26-.07 12.4Z" style="stroke-width:0;fill:#0c0f12"/><path d="M60.15 42.2c.04-2.87-1.18-5.34 1.24-5.74 2.98-.49 6.22-.91 9.19.43.27.12.34 1.24.14 1.76-.4 1.05-1.44 1.24-2.45 1.31-2.57.17-5.32-.75-8.12 2.24" style="stroke-width:0;fill:#0a0c13"/><path d="M46.15 58.15c-1.47-.35-1.52 2.31-3.75 1.3 4.47-6.46 7.1-13.45 5.63-21.41-.13-.68.11-1.46.91-1.45.57 0 1.26.38 1.68.8 3.46 3.48 2.27 7.41.67 11.12-1.44 3.33-3.41 6.44-5.15 9.65Z" style="stroke-width:0;fill:#090c11"/><path d="M41.75 39.4c.06 2.61.16 5.31-2.95 5.55-2.23.17-1.53-2.11-1.59-3.42-.13-2.57 1.09-4.84 3.56-5.13 1.69-.19.84 2.05.98 2.99Z" style="stroke-width:0;fill:#171b21"/><path d="M166.14 195.97c.28.05.57.08.85.08 3.93 1.05 7.38 3.23 11.1 4.8 1.4.59 3.19 1.12 3.07 3.27-.68.57-1.38.45-2.08.07-8.74-2.9-16.68-7.59-25.07-11.26-1.95-.85-3.8-1.91-5.7-2.87-.19-.64-.39-1.29-.59-1.93.76-1.9-.21-4.14 1.14-5.92 1.89 1.52.92 4.56 3.14 5.9h.02c4.94 2.2 9.97 4.25 14.13 7.87Z" style="stroke-width:0;fill:#b9741a"/><path d="M152 188.1c-4.97.11-2.21-3.87-3.13-5.91 1.47-3.58 1.38-7.63 3.39-11.05 1.33 1.78.9 3.73.38 5.58-1.05 3.76-1.59 7.51-.63 11.37Z" class="cls-47"/><path d="M320.04 398.08c4.14-3.39 9.07-1.71 13.67-2.07 1.79-.14 3.6 0 5.4.02.15.61.31 1.22.46 1.83-6.52-.07-13.04-.76-19.54.22Z" class="cls-200"/><path d="M533.8 116.98c-3.54-1.16-4.72-3.31-2.8-6.74 5.24.46 4.29 3.49 2.8 6.74" style="stroke-width:0;fill:#a23b1d"/><path d="M517.88 739.98c.31.75.8 1.47.89 2.25.18 1.53.82 3.79-1.4 3.95-1.98.14-2.03-2.01-2.23-3.68-.26-2.24.09-3.54 2.72-2.52h.01Z" style="stroke-width:0;fill:#030609"/><path d="M371.86 377.08c2.64 3.09 5.48 5.93 9.19 7.75 1.42-.29 2.23.56 2.98 1.56.22.45.24.91.05 1.37.46 1.42 2.72 3.54-1.26 3.24-1.44-.45-2.14-1.71-3.02-2.77-2.78-2.74-5.59-5.44-8.32-8.23-.98-1.01-2.62-2.34.39-2.92Z" style="stroke-width:0;fill:#262c10"/><path d="M384.08 387.76c-.16-.41-.31-.82-.47-1.22-.29-.84-1.27-1.64-.45-2.57.91-1.03 2.01-.52 3.04-.07.85.42 1.7.85 2.54 1.27.07 1.11.53 2.04 1.36 2.78-2.17 5.23-4-.6-6.02-.19" style="stroke-width:0;fill:#dadbce"/><path d="M298.13 249.14c0-7.16.21-14.33-.08-21.47-.16-3.98.98-6.42 5.04-7.16 7.32-1.34 14.33-4.07 21.82-4.74 3.59-.32 6.75-2.49 10.47-2.74 2.83-.2 4.12.66 4.05 3.48-.03 1.17-.2 2.35-.04 3.49.7 5.04-1.02 7.36-6.48 8.09-4.88.66-9.73 1.91-14.68 2.52-3.92.49-6.21 2.69-5.95 7.13.25 4.31.05 8.65.04 12.98 0 3.34 1.35 4.1 4.39 2.61 13.22-6.5 22.73-.61 22.46 14.11-.26 14.31-.81 28.6-2.06 42.87-.63 7.15-10.12 17.89-17.89 19.67-3.02.69-6 2.1-9.25 1.72-5.98-.7-11.72-6.25-12.25-12.66-.49-5.95-.25-11.97-.24-17.96 0-2.49 1.21-4.09 3.88-4.27.99-.07 2.01-.1 2.97-.32q7.3-1.66 7.28 6.07c0 2.16 0 4.33.03 6.49.02 1.82-.3 4.04 2.02 4.55 2.27.51 4.83.5 6.34-1.76 1.17-1.75 2.48-3.48 2.51-5.85.14-11.15.45-22.3.53-33.45.02-2.19.49-4.94-2.29-6.1-3.06-1.26-4.93 1.07-6.12 3.05-2.37 3.96-5.79 5.31-10.07 6.16-6.3 1.25-6.79 1.04-6.69-5.54.1-6.99.02-13.98.02-20.98h.25Z" style="stroke-width:0;fill:#03060b"/><path d="M287.09 249.8c.71 14-3.77 26.6-9.87 38.93-4.4 8.89-8.05 18.15-12.07 27.22-1.26 2.85-2.55 5.7-4.04 8.44-.73 1.35-1.88 2.68-.7 4.04 1.3 1.49 3.03.68 4.62.12 4.51-1.6 8.98-3.34 13.57-4.66 4.85-1.4 6.08-.29 5.88 4.59-.04 1-.29 2.06-.03 2.98 1.56 5.64-1.15 8.27-6.29 9.54-8 1.99-15.95 4.15-23.92 6.26-1.28.34-2.59.66-3.78 1.22-6.07 2.83-7.72 1.41-8.51-4.97-1.61-13.04 4.81-23.62 9.53-34.75 5.75-13.54 11.94-26.91 17.3-40.6 2.43-6.2 1.52-13.16 1.51-19.78 0-2.19-1.12-5.55-4.32-5.16-3.75.45-5.37 3.85-5.84 7.14-.56 3.93-.41 7.98-.32 11.97.06 2.77-.73 4.55-3.74 4.76-.33.02-.67.05-.99.13-11.01 2.76-10.76 2.76-11.13-8.78-.33-10.42 1.35-19.93 9.99-26.78 6.45-5.11 14.06-6.66 22.05-5.33 6.41 1.07 10.24 7.81 11.05 15.5.28 2.63.04 5.32.04 7.98Z" style="stroke-width:0;fill:#787c7f"/><path d="M206.05 379.88c-2.04-5.5-2.12-11.47-1.68-16.96 1.06-13.3-.02-26.59.73-39.85 1.32-23.42.82-46.85 1.01-70.28.01-1.3-.29-2.7.89-3.73 0 20.99.79 42.03-.29 62.96-.57 10.98.46 21.78.34 32.67-.12 11.74-2.04 23.42-1 35.19" class="cls-9"/><path d="M251.3 369.01c-4.33 1.45-8.46 3.8-13.3 2.98 3.91-2.83 8.16-4.51 13.09-3.89.27.15.39.34.36.56-.03.24-.08.35-.16.35Z" class="cls-6"/><path d="M337 342.03c-.38.61-.76 1.22-1.14 1.82l-6.87.21c2.34-1.98 5.13-2.2 8.01-2.03" class="cls-145"/><path d="M251.3 369.01c-.09-.3-.16-.6-.2-.91 2.5.49 4.23-2.31 6.79-1.59-1.56 2.51-3.99 2.71-6.58 2.5Z" class="cls-200"/><path d="M115.05 271.05c-4.37 2.21-2.85 6.29-2.88 9.73-.02 2.55-1.47 6.47.68 7.38 2.58 1.09 3.39-3.19 5.29-4.83 3-2.6 6.04-5.11 9.2-7.52 3.35-2.55 4.24-.73 4.72 2.26 1 6.22-.73 11.84-4.51 16.63-3.96 5.02-8.33 9.76-14.48 12.29-3.93-4.89-4.07-6.79-.77-10.17 1.83 2.64 3.38 2.69 5.86.3 3.56-3.44 6.22-7.15 7.54-12.93-4.16 2.95-6.12 6.56-8.49 9.8-1.12 1.53-1.72 3.78-4.41 2.92-.81-.59-.08-2.79-2-2.12-1.87.65-2.67 2.05-2.81 4.17-.31 4.77-3.08 6.45-6.51 4.19-.99-.65-1.73-1.54-1.68-2.84.89-1.77 2.86.12 4.22-1.44-3.32-4.43-7.18-8.28-12.58-12.17 1.75 4.94 6.33 6.93 6.82 11.32.39 1.07-3.87-.43-1.11 2.07 1.1.99 2.58 2.05 1.88 3.99-8.93-4.95-12.65-13.36-14.94-22.68-.26-1.04-.34-2.48 1-3.06 1.65-.71 3.08-.13 4.62.83 5.84 3.64 11.31 7.72 16.29 12.48.61.58.84 2.19 2.13 1.49 1.26-.68.66-1.92.53-3.09-1.02-8.59-.87-17.33-3.67-25.67 2.89-2.1 3.28.59 4.24 2.2 1.34 4.04 4.17.77 6.23 1.25 2.09 1.36.79 2.29-.41 3.23Z" class="cls-59"/><path d="M115.05 271.05c.15-.95 1.64-1.84.12-2.85-.19-.14-.38-.27-.58-.4-.81-1.08-1.05-2.45-1.82-3.54-2.08-2.98-2.04-5.48 1.36-7.51 1.01-.6 2.75-1.56 1.19-2.94-1.15-1.02-2.51-.05-3.28 1.21-.72 1.16-1.58 2.14-2.89 2.64-3.2 1.03-4.22-1.45-5.67-3.69.02 3.07 1.33 6.2-2.81 7.82-1.97.77.6 2.84.31 4.38-.53 3.02-2.41 3.99-4.38 1.71-2.39-2.76-5.12-5.73-2.16-10.14 1.54-2.29 2.48-5.06 4.51-7.05 1.8-1.77 3.81-3.3 6.64-1.95 1.1.53 2.25.18 3.39-.2 4.77-1.59 11.5 1.28 13.59 5.75.07.15.19.31.19.46 0 .81.25 2.16-.11 2.36-5.52 3.06.83 12.57-7.61 13.95Z" class="cls-187"/><path d="M100.11 299.97c1.13 2.42 3.1 3.87 5.59 2.81 2.48-1.05 1.12-3.3.73-5.19-.32-1.52 5.1-6.03 6.44-5.33 2.63 1.37-.28 3.19.21 4.79-2.64 1.44-2.49 3.7-1.37 5.87.69 1.33 1.48 2.51 1.36 4.06l-1.08 2.07c-.97 1.65-2.61 2.2-3.39.42-1.19-2.69-3.6-2.52-5.61-3.38-1.55-.22-2.88-.86-3.95-2.03-1.27-2.83-4.63-4.03-5.77-7.24 2.1-1.19 3.05 1.72 4.79 1.19 1.62-.34 2.22.4 2.06 1.95Z" style="stroke-width:0;fill:#051c0f"/><path d="M100.99 266.16c-4.11-3.93-4.13-4.13.52-6.18 2.21-.98 1.19-2.21.7-3.6-.53-1.5-2.53-3.45.61-4.28 2.26-.59 3.3.3 2.94 2.95-.31 2.3 1.9 1.66 3.22 1.95-1.66 2.41-3.29 4.65.32 7.02 1.15.76.94 2.67 0 4.04-.45.33-.84.27-1.18-.16-.2-1.93-.27-3.98-3.14-3.54-1.39.48-.77 5.43-3.99 1.79Z" style="stroke-width:0;fill:#246e9f"/><path d="M102.98 306.09c2.45.03 5.21-.9 6.23 2.74.47 1.71 1.81.48 2.78.22-.29 2.77-.61 5.54-.87 8.31-.15 1.52-.25 3.3-2.22 3.22-1.76-.08-2.17-1.88-2.45-3.32-.15-.74.31-1.58.44-2.39.64-3.79.5-7.24-3.91-8.79Z" class="cls-59"/><path d="M151 344.1c3.99 1.59 7.56 3.59 10.79 6.69 3.75 3.61 8.38 6.35 12.82 9.15 1.79 1.13 3.43 1.97 3.31 4.37-9.31-6.29-18.68-12.51-26.92-20.22ZM180.77 366.13c2.75.39 4.98 1.55 6.11 4.26-2.49-.77-4.76-1.86-6.11-4.26" class="cls-117"/><path d="M59.05 224.03c.53 1.07 2.54 1.46 1.77 3.05-.72 1.5-2.13 1.8-3.66.98-.17-1.72.11-3.23 1.89-4.02Z" class="cls-14"/><path d="M390.39 340.82c.46-1.38.56-2.6-1.36-2.84 3.91-4.43 7.07-4.13 11.91 1.13-1.07.97-2.32 1.49-3.75 1.6-2.28-1.01-4.51 1.49-6.8.1Z" style="stroke-width:0;fill:#75811c"/><path d="M397.1 339.89c1.2-.63 2.43-1.14 3.84-.78.07.19.13.39.16.6.14 2.06 5 4.88-.96 5.97-1.27 1.65-3.07 1.68-4.12.29-1.6-2.11-.57-4.27 1.08-6.08" style="stroke-width:0;fill:#2c2f2f"/><path d="M332.01 386.03c2.8.03 5.59 0 8.39.1 1.26.04 2.24.69 2.32 2.08.09 1.65-1.21 1.76-2.36 1.81-2.14.09-4.28.08-6.42.1-3.63.05-3.21-1.82-1.93-4.1Z" style="stroke-width:0;fill:#197561"/><path d="M314.97 387.95c2.64.03 5.28-.05 7.91.11 2.06.12 2.21 1.48.9 2.59-2.37 2.01-5.54 2.47-8.31 1.91-3.04-.62-1.52-2.87-.54-4.57l.04-.03Z" style="stroke-width:0;fill:#216f4d"/><path d="M63.18 243.96c.04-1.75.98-2.68 2.67-2.86 3.04-.34 6.09-.65 9.14-.97 2.49 3.09 1.83 4.78-2.21 4.9-3.24.1-6.5.25-9.59-1.06Z" style="stroke-width:0;fill:#297268"/><path d="M75.04 236.02c-2.9.23-5.89-.51-8.71.85-1.21.59-3.04 1.91-3.55-.38-.41-1.84 1.47-3 3.12-3.1 2.07-.13 4.18.39 6.28.57.98.08 1.96.02 2.94.03-.03.68-.05 1.36-.08 2.04Z" style="stroke-width:0;fill:#217761"/><path d="M397.1 339.89c1.39 1.73-4.49 7.28 3.04 5.78 1.07.39 2.22.63 3.18 1.19 1.66.96 3.11 2.37 2.24 4.44-.87 2.08-2.61 1.86-4.62 1.35-3.57-.91-4.17.03-3.07 4.09 1.45-.35 2.49.16 3.12 1.51-.28 3.43-3.11 3.46-5.46 4-2.73.62-2.7-1.68-3.29-3.32-.46-1.26-1.54-1.83-2.79-1.6-4.31.77-5.71-1.41-5.57-5.27.37-.72.77-2.08 1.1-2.06 6.66.4 6.16-3.42 4.82-7.87-.1-.34.38-.87.59-1.31 2.23-.41 4.15-2.96 6.71-.93" style="stroke-width:0;fill:#e8ebeb"/><path d="M146.33 378.88c-4.17 1.65-8.38 1.3-12.61.24 4.17-1.61 8.39-1.22 12.61-.24" style="stroke-width:0;fill:#157555"/><path d="M386.19 383.9c-1.98-.21-2.95.57-2.58 2.64-.86-.57-1.71-1.14-2.56-1.71-1.59-3.89-6.63-4.8-7.94-9.05 2.23-1.54 2.98 1.83 4.81 1.29 3.52 1.35 5.73 4.28 8.27 6.83" style="stroke-width:0;fill:#dbea5c"/><path d="M290.56 397.1c2.57-1.71 5.21-1.02 9.18-.94-3.75 2.7-6.48 1.84-9.18.94" style="stroke-width:0;fill:#0a666e"/><path d="M400.99 358.26c-1.04-.5-2.08-1.01-3.12-1.51.48-1.21-.16-3.75 2.13-2.97 1.57.53 3.94-.11 4.73 2.01.58 1.55.34 3.01-1.75 3.33-.45-.79-1.05-1.23-2-.86Z" style="stroke-width:0;fill:#1a1925"/><path d="M430.93 242.08c-6.09-5.12-6.13-16.03-.09-22.01.69-.68 1.35-1.39 2.03-2.09 1.99-2.85 4.45-4.96 8.13-5.18 1.02.82 1.46 1.87 1.25 3.17-1.37 1.11-2.83 2.15-3.38 3.97l-.84.24c-2.84 1.89-1.7 6.33-5.04 7.89-.92 2.08-2.17 4.66-.41 6.29 1.61 1.49 4.27 1.11 6.33-.36l.02-.02c.9-1.34 2.07-2.17 3.62-1.24 1.38.82 1.23 2.08.46 3.32-1.02 1.34-1.2 3.3-3.01 4.04-3.24-.34-5.76 2.62-9.07 1.96Z" style="stroke-width:0;fill:#635e5c"/><path d="M438.87 219.94c.02-2.13.61-3.81 3.13-3.97 1.06-1.13 2.8-2.31-.22-3.15-.38-.24-.7-.54-.95-.9 3.02-4.39 6.75-.48 10.11-.87.6.99 1.8.7 2.58 1.17 1.86 1.1 3.66 2.65 3.09 5.03-.52 2.14-2.49 3.07-4.66 2.79-3.14-.41-6.53 1.19-9.43-1.42-1.7-1.53-2.43.85-3.65 1.34Z" class="cls-148"/><path d="M443.01 236.08c.15-3.67-1.8-3.2-4.08-2.08.78-2.16-1.59-3.94-.84-5.97 1.02-2.77 2.63-5.05 6.18-3.69 2.56.98 4.09 5.77 2.76 8.51-.82 1.69-1.97 3.04-4.02 3.24Z" class="cls-74"/><path d="M467.84 211.95c1.85-2.27 4.64-2.81 7.13-3.91 2.75.24 5.56-.52 8.81.67-1.76 1.94-4.66 1.31-5.83 3.35-3.01 1.33-6.01 2.66-9.02 4 1.1-1.29 2.2-2.57 3.3-3.87-1.41-2.03-2.97.32-4.4-.23Z" class="cls-154"/><path d="M445.94 240.01c2.19 1.21 3.52 2.82 2.69 5.53-.93 3.01-3.31 2.54-5.57 2.41.6-2.78-2.05-6.73 2.88-7.93Z" style="stroke-width:0;fill:#60595a"/><path d="M446.94 207.05c-5.85 1.95-6.92 1.11-7-4.93-.04-3.13 1.02-5.72 2.91-8.08.72 2.4-1.15 4.51-.83 6.78.24 1.7-1.84 3.65.19 4.95 1.97 1.26 3.17-1.17 4.83-1.65l-.09 2.93Z" class="cls-148"/><path d="M438.91 234.01c-1.99 3.01-5.46 2.87-7.29 1.27-2.47-2.16-.61-5.04 1.37-7.21-.87 4.82 1.08 6.81 5.92 5.94" class="cls-74"/><path d="M461.02 210.09c-1.32 4.34-.41 5.07 4.92 3.96-.69.68-1.27 1.69-2.1 1.96-1.5.49-3.55 3.04-4.48.7-.72-1.81-2.23-5.31 1.66-6.62" class="cls-154"/><path d="M432.99 228.07c2.5-2.11 1.09-6.72 5.04-7.89-2.04 2.4-.23 7.26-5.04 7.89" class="cls-74"/><path d="M203.16 370.05c-.07 1.32-.14 2.64-.2 3.96-3.21-.32-6.3-.81-7.68-4.38-.39-1.01-1.35-1.25-2.29-1.68-5.15-2.36-9.7-5.63-13.34-9.99-1.54-1.84-3.37-3.42-5.54-3.78-3.42-.56-4.77-2.99-7.38-6.01 4.59.38 7.93 3.4 11.74.73-6.95.82-10.85-9.45-19.13-4.61-1.1.64-4.59.27-4.3-3.2.21-2.45-2.04-6.08 3.06-6.09.91 0 2.17.29 2.4-1.09.17-.99-.71-1.37-1.48-1.71-3.84-1.71-5.52-5.83-3.37-9.95 3.7-7.08 5.12-14.44 4.41-22.35-.83-9.14 1.45-18.19 1.01-27.34-.1-2.2 0-4.34-1.88-5.94-.36-.31-.83-.84-.79-1.22.94-9.21-6.19-17.64-2.61-27.1.58-1.52-.39-2.91-.56-4.36-.41-3.39-.11-6.41 3.2-8.72 4-2.79 3.38-6.02-1.08-8.37-3.21-1.69-2.23-4.87-2.25-7.58-.03-2.85 1.61-3.18 4.02-2.45 1.54.46 1.6-1.31 2.39-2.01 1.37-1.23 3.2-1.1 4.65-.28 1.34.76 1.25 2.61.61 3.61-2.3 3.55-.82 6.63.67 9.83 1.1 2.37.9 5 .46 7.38-1.64 9.02-.45 18.2-1.76 27.24-.37 2.53-1.06 6.88 2.53 6.87 2.64-.01 1.25-4.21 1.29-6.49.14-8.13 1.66-16.18 1.12-24.35-.18-2.75.85-3.71 3.55-1.89 1.1.74 2.25 2.71 3.76 1.67 1.52-1.05-.31-2.27-.63-3.45-.36-1.36.8-1.61 1.74-1.89 1.25-.37 2.45-.76 3.41-2.53-2.89-.33-5.38-1.85-7.15 1.52-.63 1.2-1.94 1.26-3.02.49-.84-.6-.48-1.39-.06-2.19 1.63-3.09 6.26-5.04 3.76-9.76-.08-.16.53-.81.92-1.07 1.21-.8 11.22 3.21 11.37 4.62.32 3.16-3.49.89-4.28 3.18 1.72 1.15 3.97 1.3 5.16.5 3.78-2.53 6.76-1.48 9.8 1.1 1.01.86 2.41 1.88 3.28.1.72-1.48-.59-2.23-1.87-2.95-2.05-1.15-4.87-1.25-5.84-3.98l.54-.51c4.04.25 7.5 1.76 10.28 4.75-.27 1.28-.82 2.57-.77 3.84.63 15.94-1.01 31.82-1.06 47.75-.1 32.7-.56 65.4-.87 98.09-1.31 1.4-2.71-.27-4.17.13 1.41 1.39 3.24 2.21 4.24 3.91Z" class="cls-117"/><path d="m179.08 204.19 1.94-.09c5.25 1.62 10.49 3.26 14.12 7.81l-.17.19c-6.39-.44-10.87-4.72-15.9-7.91ZM156.74 197.41c.48.35 1.48.71 1.68 1.33.35 1.08-.68 1.23-1.53 1.22-.93 0-1.6-.41-1.65-1.41-.04-.81.48-1.13 1.49-1.15Z" class="cls-117"/><path d="M87.17 193.2c-4.2 4.21-1.63 9.77-2.74 14.61-.41 1.76 1.58.48 2.5.13-.08 3.44 1.43 2.35 3.01 1.06.21 5.85-2.37 10.6-5.85 15.01-2.32-2.29.36-3.86.91-5.68.56-1.89 1.82-3.71.58-5.63-.7-1.07-2.16-.96-3.2-.48-2.3 1.07-.98 3.17-1.13 4.84-.11 1.32.05 2.95-1.51 3.3-1.44.33-2.47-.65-2.74-2.2 1.46.21 3.91 1.35 3.03-1.66-1.77-6.04-.9-11.98-.29-18 .14-1.4-.44-2.88-.69-4.32 2.61.91 1.88 3.17 2.06 5.06.26 2.73-.69 5.56.71 8.94 2.13-3.35 1.15-6.48 1.27-9.39.12-2.87.42-5.39 4.07-5.6Z" class="cls-66"/><path d="M84.1 224.01c1.95-5 3.9-10.01 5.85-15.01 2.07-2.01 3.41-4.92 7.23-5.66-1.17 8.58-3.86 15.88-11.16 20.75-.43.29-1.27-.04-1.92-.08" style="stroke-width:0;fill:#c2d329"/><path d="M76.04 223.21c-.71 2.44-2.2 2.19-3.53 1.25-4.19-2.96-8.34-6.01-10.63-10.86-.43-.9-.93-1.86.07-2.69.96-.79 1.88-.39 2.64.35 3.55 3.47 7.09 6.95 10.59 10.47.43.43.64 1.08.86 1.48" style="stroke-width:0;fill:#cfdb3b"/><path d="M59.22 204.07c4.14.05 7.27 2.03 9.8 5.14-3.4-1.46-6.82-2.88-9.8-5.14" class="cls-117"/><path d="M69.15 209.93c3.18 1.52 5.9 3.48 6.84 7.14-2.5-2.17-5.19-4.16-6.84-7.14" class="cls-66"/><path d="M91.99 180.92c-5.17-.1-9.67 3.19-14.88 2.95-2.32-.11-4.55-.41-4.66-3.24-.12-2.98 2.24-2.65 4.24-2.69 1.74-.03 3.54-.33 3.2-2.69-.26-1.83-2.65-3.66-.75-5.41 1.96-1.81 4.66-1.05 7.1-.64.17.49.05.9-.3 1.27-6.28.94-1.35 6.3-5.02 9.15 4.72-.25 7.97-1.67 11.1.1q.39.42.24.81c-.09.26-.19.39-.27.39" style="stroke-width:0;fill:#af5f7a"/><path d="M85.93 187.74c-.34 1.65-1.3 2.79-2.95 2.9-1.68.11-2.83-.76-2.88-2.63-.05-1.84.83-2.86 2.68-2.7 1.49.13 3.01.46 3.15 2.43" style="stroke-width:0;fill:#cf9b96"/><path d="M86.01 170.23c.08-.35.15-.69.23-1.04 1.1 2.7.43 6.37 5.35 6.6 1.98.09 2.4 3.18.4 5.13.04-.33.03-.66-.02-.99-.97-1.13-2.2-1.88-3.57-2.43-3.68-1.47-4.45-3.91-2.39-7.27" class="cls-66"/><path d="M122.07 225.23c-2.29 1.27-4.27.83-6.12.83-1.17 0-3.14.69-3.29-1.08-.17-2 1.83-1.91 3.28-1.96 2.14-.08 4.03.57 6.14 2.21Z" style="stroke-width:0;fill:#2b684c"/><path d="M195.14 211.9c-4.38-3.19-9.4-5.23-14.12-7.81-4.23-3.45-9.89-4.43-14.03-8.04 5.97 1.14 12.46.5 16.48 7.01 1.29 2.09 4.85 3.23 7.6 3.88 5.18 1.22 9.15 5.8 14.91 5.16.56 1.43.33 2.83-.19 4.22-3.97-.46-6.59-4.16-10.65-4.42" style="stroke-width:0;fill:#a62a05"/><path d="M166.14 195.97c-4.73-2.59-10.16-3.92-14.13-7.87 6.59-1.62 9.93 4.58 15.13 6.3-.33.53-.67 1.05-1 1.58Z" class="cls-47"/><path d="M203.16 370.05c-.45-.21-.93-.38-1.33-.65-1.95-1.3-6.11-2.04-5.02-4.38 1.51-3.2 3.95 1.4 6.28 1 .02 1.34.05 2.69.07 4.03" class="cls-200"/><path d="M440.96 213.04c-3.28.69-5.46 3.18-8.09 4.93.53-3.53 3.41-4.62 6.11-5.91.61-.05 1.23-.11 1.84-.16l.26.27c.21.33.18.62-.13.86ZM438.85 192.03l-2.91 12.03c-2.51-4.85.18-8.44 2.91-12.03" class="cls-148"/><path d="M285.14 250.24c1.21 15.15-4.74 28.43-10.82 41.65-5.09 11.07-10.31 22.09-15.43 33.15-.64 1.39-.89 2.9-.04 4.33 1.11 1.87 2.93 1.47 4.47 1.01 4.89-1.44 9.78-2.93 14.56-4.66 4.32-1.57 5.23-1.06 5.16 3.55-.14 8.88-.18 8.75-8.91 11.07-8.61 2.29-17.16 4.8-25.68 7.36-3.18.96-3.83-.14-4.31-3.2-1.98-12.58 3.33-23.24 8.21-34.11 6.08-13.55 12.42-27.01 17.7-40.87 2.24-5.9 3.14-12.56 2.84-19.15-.12-2.7-1.5-4.76-2.84-6.81-2.12-3.24-4.82-3.41-7.42-.59-2.37 2.57-4.42 5.35-4.29 9.2.11 3.33-.11 6.66-.09 9.99.02 2.2-.8 3.48-3.13 3.6-.99.05-2.01.16-2.96.42-6.28 1.73-6.25 1.75-6.46-5.09-.27-8.83-.41-17.54 5.74-24.98 5.13-6.21 17.89-10.51 25.34-8.12 4.23 1.36 8.27 8.45 8.37 14.75.04 2.5 0 5 0 7.49Z" style="stroke-width:0;fill:#04070a"/><path d="M113.07 297.04c3.85-3.4 5.79-8.28 9.26-11.99 1.14-1.22 2.23-3.23 3.83-2.4 2.04 1.07.7 3.14.13 4.82-1.93 5.74-6.2 9.64-10.57 13.45-.63.55-1.37 1.18-2.21.64-1.99-1.28.15-3.05-.44-4.52" style="stroke-width:0;fill:#2e8463"/><path d="M100.11 299.97c-.68-.65-1.37-1.3-2.06-1.95-2.52-3.03-5.03-6.06-7.55-9.09-.74-.89-1.7-1.76-.57-2.97 1.14-1.21 2-.22 3 .36 3.94 2.28 6.6 5.94 9.77 9.03 1.55 1.51 4.26 3.18 2.52 5.65-1.71 2.44-3.21-1.41-5.12-1.04Z" style="stroke-width:0;fill:#2a8d67"/><path d="m108.12 267.91 1.05-.12c1.99-1.37 3.93-1.25 5.82.19l.18.22c-2.42 1.55-4.85 3.51-7.05-.28Z" class="cls-187"/><path d="M115 267.97c-1.95.06-3.91.6-5.83-.18-.14-1.46.16-2.98-1.17-4.16-4.56-4.03-4.54-4.05.99-6.62 2.45-.94 1.27-5.58 5.14-5.08 1.39.18 3.19-.37 3.71 1.61.42 1.61-.21 3.34-1.67 3.76-4.77 1.38-5.01 3.52-1.75 6.87.95.98.78 2.47.58 3.8" style="stroke-width:0;fill:#198dcc"/><path d="M440.96 213.04c.03-.29.07-.58.13-.87 1.62.17 4.07-1.3 4.54 1.24.45 2.38-1.62 2.8-3.63 2.55-.35-.98-.69-1.95-1.04-2.92" style="stroke-width:0;fill:#6c8676"/><path d="M86.01 170.23c.15 3.02-.48 6.38 4.5 6.18 1.67-.07 1.9 1.93 1.46 3.51-3.1.76-6.37-.61-9.55 1.55-1.58 1.07-2.96-1.38-1.77-3.05 1.5-2.11.54-3.56.14-5.69-.94-5.01 3.33-1.79 5.21-2.51Z" style="stroke-width:0;fill:#e2859c"/></g></svg>