<svg xmlns="http://www.w3.org/2000/svg" width="400" height="550" fill="none"><path fill="#fff" stroke="#000" d="M.619.094h398.998v548.998H.619Z" style="display:inline;stroke-width:1.0022"/><g style="fill:#effe08;fill-opacity:.998928"><g clip-path="url(#a)" style="fill:#effe08;fill-opacity:.998928" transform="matrix(.89885 0 0 .90188 32.278 10.287)"><path fill="#fdfdfd" d="M153.1 39.5V39c.2-.2.3-.4.5-.6 1.2-2.1 2.4-4.3 3.7-6.4 1-1.6 2.2-3.1 3.3-4.6.1 0 .1.1.2.1-.9 2.7-1.1 5.5-.9 8.4 1.6.2 3.2.5 4.8.7 0-.1.1-.2.1-.2-.2-.1-.3-.3-.5-.4-1-.7-1.1-1.6-.6-2.8.5-1.3.8-2.7 1.3-4.1 1.1 1.2 2 2.3 3.1 3.4.3.3.3.5.1.9-.5 1-.9 2-1.3 3v.1h.2l2.7-1.5c.2-.1.5-.1.7 0 .8.4 1.6.9 2.4 1.3.1.1.3.1.6.2-.6-1.3-1.1-2.5-1.6-3.6 1.1-1.3 2.3-2.5 3.4-3.8.5 1.8 1.1 3.6 1.6 5.4 0 .1-.1.4-.2.5-.4.5-.8 1-1.3 1.5l.1.1c1.6-.2 3.3-.5 4.9-.7.2-2.9 0-5.6-.8-8.3 0 0 .1-.1.1 0 .9 1.2 1.9 2.3 2.7 3.5 1.6 2.5 3 5.1 4.5 7.6l.3.3v.5c-1.8 1.5-3.8 2.3-5.9 2.8-.6.2-1.2.3-1.9.4.3 1.7.6 3.3.9 4.9 0 .2 0 .6-.2.8l-1.8 2.1c-.4.5-.9.9-1.3 1.4.9.7 1.7 1.4 2.5 2.1.1.1.2.4.2.5-.6 1.7-1.3 3.3-1.9 5-1-.3-2-.5-3-.7-.3 1.5-.7 3-1 4.5H167c-.3-1.5-.7-3-1-4.5-1.1.3-2 .5-3.1.7-.7-1.8-1.4-3.6-2-5.3.9-.8 1.8-1.5 2.7-2.3-1.1-1.2-2.1-2.3-3.1-3.5-.2-.2-.3-.4-.2-.8.3-1.6.6-3.2.9-4.9-.8-.2-1.5-.4-2.3-.6-1.9-.5-3.7-1.2-5.2-2.6-.1-.1-.2 0-.3-.1z" style="fill:#effe08;fill-opacity:.998928"/><path fill="#000" d="M167 36.4h-.1v-.1s.1 0 .1.1" style="fill:#effe08;fill-opacity:.998928"/><path fill="#fdfdfd" d="M179.5 27.6v-.1z" style="fill:#effe08;fill-opacity:.998928"/><path fill="#f3ea02" stroke="#000" d="m166.2 58.3-.2-.2h-.4c-.1 0-.2 0-.3.1-.3.1-.7.2-1.1.3l-1.1.3-.8-2.1c-.3-.7-.5-1.3-.7-1.8-.1-.2-.1-.4-.2-.5 0 0 .1-.1.2-.1.2-.2.5-.5.9-.8s.7-.6.9-.8l.3-.3.1-.1.1-.1v-.7s-.1-.1-.1-.2c-.1-.1-.2-.3-.4-.5-.3-.4-.7-.9-1.2-1.4l-1.5-1.7.4-2.1q.15-1.05.3-1.8c0-.2.1-.4.1-.6v-.4c0-.3-.2-.5-.3-.6s-.3-.2-.5-.2c-.4-.1-.9-.3-1.7-.5-1.9-.5-3-1-5-2.2-.1-.1-.2-.1-.3-.2.1-.2.2-.4.4-.7.3-.5 1.4-2.3 2.4-4 .7-1.2 1.8-2.9 2.7-4.3.1-.2.3-.4.4-.6-.3 1.4-.4 3-.4 4.3v1.3c0 .3.1.7.4.9s.6.3 1 .4c.3.1.6.1 1.1.2.2 0 .3 0 .5.1.7.1 1.3.2 1.7.2h1s.1 0 .2-.1.2-.2.3-.4 0-.4-.1-.5l-.3-.3c-.1-.1-.2-.2-.4-.3-.3-.2-.4-.3-.5-.4s-.1-.2-.1-.4 0-.5.1-.9.3-1 .5-1.7l.5-1.7.8.9c.4.4.8.8 1.1 1.2.1.2.3.3.4.4 0 .1.1.1.1.1v.2c-.1.3-.2.7-.5 1.4-.2.5-.4.9-.5 1.3-.1.2-.1.3-.1.4v.4s0 .1.1.2.2.1.3.2h.2c.1 0 .1 0 .2-.1.1 0 .2-.1.4-.2q.45-.15 1.2-.6l1.3-.7 1.3.7c.7.4 1.2.6 1.5.7.1.1.3.1.5.1.1 0 .3 0 .4-.2.2-.1.2-.3.2-.4V36s0-.1-.1-.1c0-.1-.1-.2-.2-.4-.1-.3-.3-.8-.5-1.2l-.6-1.4 1.4-1.5c.4-.5.8-.9 1.1-1.1v.1c.1.4.3 1 .5 1.7.3 1.1.6 2 .7 2.4 0 0 0 .1-.1.1-.1.2-.3.4-.5.6-.2.3-.4.5-.5.7-.1.1-.1.2-.2.3 0 0 0 .1-.1.2v.2c0 .1 0 .2.1.4.1.1.2.1.2.1h.4c.1 0 .3 0 .6-.1.5-.1 1.1-.1 1.8-.2l2.5-.4.4-.1v-.4l-.1-2.7c0-1.6-.1-2.6-.2-3.4.1.2.2.3.4.5.9 1.3 2 3.1 3.1 4.8.7 1.1 1.3 2.1 1.8 2.9q.3.6.6.9c.1.1.1.2.2.3-.2.1-.4.3-.7.5-.6.4-1.4.8-2.1 1.1s-1.9.7-2.8.9q-.75.15-1.2.3c-.2 0-.3.1-.4.1h-.2s-.1 0-.1.1c-.1.1-.1.2-.1.2v.5c0 .1 0 .3.1.5.1.4.2 1 .3 1.6s.2 1.2.3 1.7c0 .2.1.5.1.6v.3s0 .1-.3.4c-.2.3-.6.8-1.3 1.5l-1.6 1.9-.3.4.4.3 1.3 1c.3.3.7.6.9.8.1.1.2.1.2.2v.1q-.15.3-.3.9c-.3.8-.7 1.9-1.2 3.2l-.1.3-1.1-.3c-.4-.1-.8-.2-1.1-.3-.1 0-.3-.1-.4-.1h-.3s-.1 0-.2.1c0 .1-.1.1-.1.1v.2c0 .1-.1.2-.1.4-.1.3-.2.7-.3 1.1-.2.9-.4 1.9-.5 2.2l-.1.2h-5.9l-.4-1.8c-.1-.6-.3-1.2-.3-1.6 0-.2-.1-.4-.1-.5v-.2zm1.5-25.4z" style="fill:#effe08;fill-opacity:.998928"/></g><g clip-path="url(#b)" style="fill:#effe08;fill-opacity:.998928" transform="matrix(.88985 0 0 .90624 4.194 10.14)"><path fill="#fdfdfd" d="M221.1 39.5V39c.2-.2.3-.4.5-.6 1.2-2.1 2.4-4.3 3.7-6.4 1-1.6 2.2-3.1 3.3-4.6.1 0 .1.1.2.1-.9 2.7-1.1 5.5-.9 8.4 1.6.2 3.2.5 4.8.7 0-.1.1-.2.1-.2-.2-.1-.3-.3-.5-.4-1-.7-1.1-1.6-.6-2.8.5-1.3.8-2.7 1.3-4.1 1.1 1.2 2 2.3 3.1 3.4.3.3.3.5.1.9-.5 1-.9 2-1.3 3v.1h.2l2.7-1.5c.2-.1.5-.1.7 0 .8.4 1.6.9 2.4 1.3.1.1.3.1.6.2-.6-1.3-1.1-2.5-1.6-3.6 1.1-1.3 2.3-2.5 3.4-3.8.5 1.8 1.1 3.6 1.6 5.4 0 .1-.1.4-.2.5-.4.5-.8 1-1.3 1.5l.1.1c1.6-.2 3.3-.5 4.9-.7.2-2.9 0-5.6-.8-8.3 0 0 .1-.1.1 0 .9 1.2 1.9 2.3 2.7 3.5 1.6 2.5 3 5.1 4.5 7.6l.3.3v.5c-1.8 1.5-3.8 2.3-5.9 2.8-.6.2-1.2.3-1.9.4.3 1.7.6 3.3.9 4.9 0 .2 0 .6-.2.8l-1.8 2.1c-.4.5-.9.9-1.3 1.4.9.7 1.7 1.4 2.5 2.1.1.1.2.4.2.5-.6 1.7-1.3 3.3-1.9 5-1-.3-2-.5-3-.7-.3 1.5-.7 3-1 4.5H235c-.3-1.5-.7-3-1-4.5-1.1.3-2 .5-3.1.7-.7-1.8-1.4-3.6-2-5.3.9-.8 1.8-1.5 2.7-2.3-1.1-1.2-2.1-2.3-3.1-3.5-.2-.2-.3-.4-.2-.8.3-1.6.6-3.2.9-4.9-.8-.2-1.5-.4-2.3-.6-1.9-.5-3.7-1.2-5.2-2.6-.1-.1-.2 0-.3-.1z" style="fill:#effe08;fill-opacity:.998928"/><path fill="#000" d="M235 36.4h-.1v-.1s.1 0 .1.1" style="fill:#effe08;fill-opacity:.998928"/><path fill="#fdfdfd" d="M247.5 27.6v-.1z" style="fill:#effe08;fill-opacity:.998928"/><path fill="#f3ea02" stroke="#000" d="m234.2 58.3-.2-.2h-.4c-.1 0-.2 0-.3.1-.3.1-.7.2-1.1.3l-1.1.3-.8-2.1c-.3-.7-.5-1.3-.7-1.8-.1-.2-.1-.4-.2-.5 0 0 .1-.1.2-.1.2-.2.5-.5.9-.8s.7-.6.9-.8l.3-.3.1-.1.1-.1v-.7s-.1-.1-.1-.2c-.1-.1-.2-.3-.4-.5-.3-.4-.7-.9-1.2-1.4l-1.5-1.7.4-2.1q.15-1.05.3-1.8c0-.2.1-.4.1-.6v-.4c0-.3-.2-.5-.3-.6s-.3-.2-.5-.2c-.4-.1-.9-.3-1.7-.5-1.9-.5-3-1-5-2.2-.1-.1-.2-.1-.3-.2.1-.2.2-.4.4-.7.3-.5 1.4-2.3 2.4-4 .7-1.2 1.8-2.9 2.7-4.3.1-.2.3-.4.4-.6-.3 1.4-.4 3-.4 4.3v1.3c0 .3.1.7.4.9s.6.3 1 .4c.3.1.6.1 1.1.2.2 0 .3 0 .5.1.7.1 1.3.2 1.7.2h1s.1 0 .2-.1.2-.2.3-.4 0-.4-.1-.5l-.3-.3c-.1-.1-.2-.2-.4-.3-.3-.2-.4-.3-.5-.4s-.1-.2-.1-.4 0-.5.1-.9.3-1 .5-1.7l.5-1.7.8.9c.4.4.8.8 1.1 1.2.1.2.3.3.4.4 0 .1.1.1.1.1v.2c-.1.3-.2.7-.5 1.4-.2.5-.4.9-.5 1.3-.1.2-.1.3-.1.4v.4s0 .1.1.2.2.1.3.2h.2c.1 0 .1 0 .2-.1.1 0 .2-.1.4-.2q.45-.15 1.2-.6l1.3-.7 1.3.7c.7.4 1.2.6 1.5.7.1.1.3.1.5.1.1 0 .3 0 .4-.2.2-.1.2-.3.2-.4V36s0-.1-.1-.1c0-.1-.1-.2-.2-.4-.1-.3-.3-.8-.5-1.2l-.6-1.4 1.4-1.5c.4-.5.8-.9 1.1-1.1v.1c.1.4.3 1 .5 1.7.3 1.1.6 2 .7 2.4 0 0 0 .1-.1.1-.1.2-.3.4-.5.6-.2.3-.4.5-.5.7-.1.1-.1.2-.2.3 0 0 0 .1-.1.2v.2c0 .1 0 .2.1.4.1.1.2.1.2.1h.4c.1 0 .3 0 .6-.1.5-.1 1.1-.1 1.8-.2l2.5-.4.4-.1v-.4l-.1-2.7c0-1.6-.1-2.6-.2-3.4.1.2.2.3.4.5.9 1.3 2 3.1 3.1 4.8.7 1.1 1.3 2.1 1.8 2.9q.3.6.6.9c.1.1.1.2.2.3-.2.1-.4.3-.7.5-.6.4-1.4.8-2.1 1.1s-1.9.7-2.8.9q-.75.15-1.2.3c-.2 0-.3.1-.4.1h-.2s-.1 0-.1.1c-.1.1-.1.2-.1.2v.5c0 .1 0 .3.1.5.1.4.2 1 .3 1.6s.2 1.2.3 1.7c0 .2.1.5.1.6v.3s0 .1-.3.4c-.2.3-.6.8-1.3 1.5l-1.6 1.9-.3.4.4.3 1.3 1c.3.3.7.6.9.8.1.1.2.1.2.2v.1q-.15.3-.3.9c-.3.8-.7 1.9-1.2 3.2l-.1.3-1.1-.3c-.4-.1-.8-.2-1.1-.3-.1 0-.3-.1-.4-.1h-.3s-.1 0-.2.1c0 .1-.1.1-.1.1v.2c0 .1-.1.2-.1.4-.1.3-.2.7-.3 1.1-.2.9-.4 1.9-.5 2.2l-.1.2h-5.9l-.4-1.8c-.1-.6-.3-1.2-.3-1.6 0-.2-.1-.4-.1-.5v-.2zm1.5-25.4z" style="fill:#effe08;fill-opacity:.998928"/></g><g clip-path="url(#c)" style="fill:#effe08;fill-opacity:.998928" transform="matrix(.88985 0 0 .90624 -42.8 -20.5)"><path fill="#fdfdfd" d="M221.1 39.5V39c.2-.2.3-.4.5-.6 1.2-2.1 2.4-4.3 3.7-6.4 1-1.6 2.2-3.1 3.3-4.6.1 0 .1.1.2.1-.9 2.7-1.1 5.5-.9 8.4 1.6.2 3.2.5 4.8.7 0-.1.1-.2.1-.2-.2-.1-.3-.3-.5-.4-1-.7-1.1-1.6-.6-2.8.5-1.3.8-2.7 1.3-4.1 1.1 1.2 2 2.3 3.1 3.4.3.3.3.5.1.9-.5 1-.9 2-1.3 3v.1h.2l2.7-1.5c.2-.1.5-.1.7 0 .8.4 1.6.9 2.4 1.3.1.1.3.1.6.2-.6-1.3-1.1-2.5-1.6-3.6 1.1-1.3 2.3-2.5 3.4-3.8.5 1.8 1.1 3.6 1.6 5.4 0 .1-.1.4-.2.5-.4.5-.8 1-1.3 1.5l.1.1c1.6-.2 3.3-.5 4.9-.7.2-2.9 0-5.6-.8-8.3 0 0 .1-.1.1 0 .9 1.2 1.9 2.3 2.7 3.5 1.6 2.5 3 5.1 4.5 7.6l.3.3v.5c-1.8 1.5-3.8 2.3-5.9 2.8-.6.2-1.2.3-1.9.4.3 1.7.6 3.3.9 4.9 0 .2 0 .6-.2.8l-1.8 2.1c-.4.5-.9.9-1.3 1.4.9.7 1.7 1.4 2.5 2.1.1.1.2.4.2.5-.6 1.7-1.3 3.3-1.9 5-1-.3-2-.5-3-.7-.3 1.5-.7 3-1 4.5H235c-.3-1.5-.7-3-1-4.5-1.1.3-2 .5-3.1.7-.7-1.8-1.4-3.6-2-5.3.9-.8 1.8-1.5 2.7-2.3-1.1-1.2-2.1-2.3-3.1-3.5-.2-.2-.3-.4-.2-.8.3-1.6.6-3.2.9-4.9-.8-.2-1.5-.4-2.3-.6-1.9-.5-3.7-1.2-5.2-2.6-.1-.1-.2 0-.3-.1z" style="fill:#effe08;fill-opacity:.998928"/><path fill="#000" d="M235 36.4h-.1v-.1s.1 0 .1.1" style="fill:#effe08;fill-opacity:.998928"/><path fill="#fdfdfd" d="M247.5 27.6v-.1z" style="fill:#effe08;fill-opacity:.998928"/><path fill="#f3ea02" stroke="#000" d="m234.2 58.3-.2-.2h-.4c-.1 0-.2 0-.3.1-.3.1-.7.2-1.1.3l-1.1.3-.8-2.1c-.3-.7-.5-1.3-.7-1.8-.1-.2-.1-.4-.2-.5 0 0 .1-.1.2-.1.2-.2.5-.5.9-.8s.7-.6.9-.8l.3-.3.1-.1.1-.1v-.7s-.1-.1-.1-.2c-.1-.1-.2-.3-.4-.5-.3-.4-.7-.9-1.2-1.4l-1.5-1.7.4-2.1q.15-1.05.3-1.8c0-.2.1-.4.1-.6v-.4c0-.3-.2-.5-.3-.6s-.3-.2-.5-.2c-.4-.1-.9-.3-1.7-.5-1.9-.5-3-1-5-2.2-.1-.1-.2-.1-.3-.2.1-.2.2-.4.4-.7.3-.5 1.4-2.3 2.4-4 .7-1.2 1.8-2.9 2.7-4.3.1-.2.3-.4.4-.6-.3 1.4-.4 3-.4 4.3v1.3c0 .3.1.7.4.9s.6.3 1 .4c.3.1.6.1 1.1.2.2 0 .3 0 .5.1.7.1 1.3.2 1.7.2h1s.1 0 .2-.1.2-.2.3-.4 0-.4-.1-.5l-.3-.3c-.1-.1-.2-.2-.4-.3-.3-.2-.4-.3-.5-.4s-.1-.2-.1-.4 0-.5.1-.9.3-1 .5-1.7l.5-1.7.8.9c.4.4.8.8 1.1 1.2.1.2.3.3.4.4 0 .1.1.1.1.1v.2c-.1.3-.2.7-.5 1.4-.2.5-.4.9-.5 1.3-.1.2-.1.3-.1.4v.4s0 .1.1.2.2.1.3.2h.2c.1 0 .1 0 .2-.1.1 0 .2-.1.4-.2q.45-.15 1.2-.6l1.3-.7 1.3.7c.7.4 1.2.6 1.5.7.1.1.3.1.5.1.1 0 .3 0 .4-.2.2-.1.2-.3.2-.4V36s0-.1-.1-.1c0-.1-.1-.2-.2-.4-.1-.3-.3-.8-.5-1.2l-.6-1.4 1.4-1.5c.4-.5.8-.9 1.1-1.1v.1c.1.4.3 1 .5 1.7.3 1.1.6 2 .7 2.4 0 0 0 .1-.1.1-.1.2-.3.4-.5.6-.2.3-.4.5-.5.7-.1.1-.1.2-.2.3 0 0 0 .1-.1.2v.2c0 .1 0 .2.1.4.1.1.2.1.2.1h.4c.1 0 .3 0 .6-.1.5-.1 1.1-.1 1.8-.2l2.5-.4.4-.1v-.4l-.1-2.7c0-1.6-.1-2.6-.2-3.4.1.2.2.3.4.5.9 1.3 2 3.1 3.1 4.8.7 1.1 1.3 2.1 1.8 2.9q.3.6.6.9c.1.1.1.2.2.3-.2.1-.4.3-.7.5-.6.4-1.4.8-2.1 1.1s-1.9.7-2.8.9q-.75.15-1.2.3c-.2 0-.3.1-.4.1h-.2s-.1 0-.1.1c-.1.1-.1.2-.1.2v.5c0 .1 0 .3.1.5.1.4.2 1 .3 1.6s.2 1.2.3 1.7c0 .2.1.5.1.6v.3s0 .1-.3.4c-.2.3-.6.8-1.3 1.5l-1.6 1.9-.3.4.4.3 1.3 1c.3.3.7.6.9.8.1.1.2.1.2.2v.1q-.15.3-.3.9c-.3.8-.7 1.9-1.2 3.2l-.1.3-1.1-.3c-.4-.1-.8-.2-1.1-.3-.1 0-.3-.1-.4-.1h-.3s-.1 0-.2.1c0 .1-.1.1-.1.1v.2c0 .1-.1.2-.1.4-.1.3-.2.7-.3 1.1-.2.9-.4 1.9-.5 2.2l-.1.2h-5.9l-.4-1.8c-.1-.6-.3-1.2-.3-1.6 0-.2-.1-.4-.1-.5v-.2zm1.5-25.4z" style="fill:#effe08;fill-opacity:.998928"/></g><g clip-path="url(#d)" style="fill:#effe08;fill-opacity:.998928" transform="matrix(.88985 0 0 .90624 -12 -20.556)"><path fill="#fdfdfd" d="M221.1 39.5V39c.2-.2.3-.4.5-.6 1.2-2.1 2.4-4.3 3.7-6.4 1-1.6 2.2-3.1 3.3-4.6.1 0 .1.1.2.1-.9 2.7-1.1 5.5-.9 8.4 1.6.2 3.2.5 4.8.7 0-.1.1-.2.1-.2-.2-.1-.3-.3-.5-.4-1-.7-1.1-1.6-.6-2.8.5-1.3.8-2.7 1.3-4.1 1.1 1.2 2 2.3 3.1 3.4.3.3.3.5.1.9-.5 1-.9 2-1.3 3v.1h.2l2.7-1.5c.2-.1.5-.1.7 0 .8.4 1.6.9 2.4 1.3.1.1.3.1.6.2-.6-1.3-1.1-2.5-1.6-3.6 1.1-1.3 2.3-2.5 3.4-3.8.5 1.8 1.1 3.6 1.6 5.4 0 .1-.1.4-.2.5-.4.5-.8 1-1.3 1.5l.1.1c1.6-.2 3.3-.5 4.9-.7.2-2.9 0-5.6-.8-8.3 0 0 .1-.1.1 0 .9 1.2 1.9 2.3 2.7 3.5 1.6 2.5 3 5.1 4.5 7.6l.3.3v.5c-1.8 1.5-3.8 2.3-5.9 2.8-.6.2-1.2.3-1.9.4.3 1.7.6 3.3.9 4.9 0 .2 0 .6-.2.8l-1.8 2.1c-.4.5-.9.9-1.3 1.4.9.7 1.7 1.4 2.5 2.1.1.1.2.4.2.5-.6 1.7-1.3 3.3-1.9 5-1-.3-2-.5-3-.7-.3 1.5-.7 3-1 4.5H235c-.3-1.5-.7-3-1-4.5-1.1.3-2 .5-3.1.7-.7-1.8-1.4-3.6-2-5.3.9-.8 1.8-1.5 2.7-2.3-1.1-1.2-2.1-2.3-3.1-3.5-.2-.2-.3-.4-.2-.8.3-1.6.6-3.2.9-4.9-.8-.2-1.5-.4-2.3-.6-1.9-.5-3.7-1.2-5.2-2.6-.1-.1-.2 0-.3-.1z" style="fill:#effe08;fill-opacity:.998928"/><path fill="#000" d="M235 36.4h-.1v-.1s.1 0 .1.1" style="fill:#effe08;fill-opacity:.998928"/><path fill="#fdfdfd" d="M247.5 27.6v-.1z" style="fill:#effe08;fill-opacity:.998928"/><path fill="#f3ea02" stroke="#000" d="m234.2 58.3-.2-.2h-.4c-.1 0-.2 0-.3.1-.3.1-.7.2-1.1.3l-1.1.3-.8-2.1c-.3-.7-.5-1.3-.7-1.8-.1-.2-.1-.4-.2-.5 0 0 .1-.1.2-.1.2-.2.5-.5.9-.8s.7-.6.9-.8l.3-.3.1-.1.1-.1v-.7s-.1-.1-.1-.2c-.1-.1-.2-.3-.4-.5-.3-.4-.7-.9-1.2-1.4l-1.5-1.7.4-2.1q.15-1.05.3-1.8c0-.2.1-.4.1-.6v-.4c0-.3-.2-.5-.3-.6s-.3-.2-.5-.2c-.4-.1-.9-.3-1.7-.5-1.9-.5-3-1-5-2.2-.1-.1-.2-.1-.3-.2.1-.2.2-.4.4-.7.3-.5 1.4-2.3 2.4-4 .7-1.2 1.8-2.9 2.7-4.3.1-.2.3-.4.4-.6-.3 1.4-.4 3-.4 4.3v1.3c0 .3.1.7.4.9s.6.3 1 .4c.3.1.6.1 1.1.2.2 0 .3 0 .5.1.7.1 1.3.2 1.7.2h1s.1 0 .2-.1.2-.2.3-.4 0-.4-.1-.5l-.3-.3c-.1-.1-.2-.2-.4-.3-.3-.2-.4-.3-.5-.4s-.1-.2-.1-.4 0-.5.1-.9.3-1 .5-1.7l.5-1.7.8.9c.4.4.8.8 1.1 1.2.1.2.3.3.4.4 0 .1.1.1.1.1v.2c-.1.3-.2.7-.5 1.4-.2.5-.4.9-.5 1.3-.1.2-.1.3-.1.4v.4s0 .1.1.2.2.1.3.2h.2c.1 0 .1 0 .2-.1.1 0 .2-.1.4-.2q.45-.15 1.2-.6l1.3-.7 1.3.7c.7.4 1.2.6 1.5.7.1.1.3.1.5.1.1 0 .3 0 .4-.2.2-.1.2-.3.2-.4V36s0-.1-.1-.1c0-.1-.1-.2-.2-.4-.1-.3-.3-.8-.5-1.2l-.6-1.4 1.4-1.5c.4-.5.8-.9 1.1-1.1v.1c.1.4.3 1 .5 1.7.3 1.1.6 2 .7 2.4 0 0 0 .1-.1.1-.1.2-.3.4-.5.6-.2.3-.4.5-.5.7-.1.1-.1.2-.2.3 0 0 0 .1-.1.2v.2c0 .1 0 .2.1.4.1.1.2.1.2.1h.4c.1 0 .3 0 .6-.1.5-.1 1.1-.1 1.8-.2l2.5-.4.4-.1v-.4l-.1-2.7c0-1.6-.1-2.6-.2-3.4.1.2.2.3.4.5.9 1.3 2 3.1 3.1 4.8.7 1.1 1.3 2.1 1.8 2.9q.3.6.6.9c.1.1.1.2.2.3-.2.1-.4.3-.7.5-.6.4-1.4.8-2.1 1.1s-1.9.7-2.8.9q-.75.15-1.2.3c-.2 0-.3.1-.4.1h-.2s-.1 0-.1.1c-.1.1-.1.2-.1.2v.5c0 .1 0 .3.1.5.1.4.2 1 .3 1.6s.2 1.2.3 1.7c0 .2.1.5.1.6v.3s0 .1-.3.4c-.2.3-.6.8-1.3 1.5l-1.6 1.9-.3.4.4.3 1.3 1c.3.3.7.6.9.8.1.1.2.1.2.2v.1q-.15.3-.3.9c-.3.8-.7 1.9-1.2 3.2l-.1.3-1.1-.3c-.4-.1-.8-.2-1.1-.3-.1 0-.3-.1-.4-.1h-.3s-.1 0-.2.1c0 .1-.1.1-.1.1v.2c0 .1-.1.2-.1.4-.1.3-.2.7-.3 1.1-.2.9-.4 1.9-.5 2.2l-.1.2h-5.9l-.4-1.8c-.1-.6-.3-1.2-.3-1.6 0-.2-.1-.4-.1-.5v-.2zm1.5-25.4z" style="fill:#effe08;fill-opacity:.998928"/></g><g clip-path="url(#e)" style="fill:#effe08;fill-opacity:.998928" transform="matrix(.88985 0 0 .90624 19.147 -20.379)"><path fill="#fdfdfd" d="M221.1 39.5V39c.2-.2.3-.4.5-.6 1.2-2.1 2.4-4.3 3.7-6.4 1-1.6 2.2-3.1 3.3-4.6.1 0 .1.1.2.1-.9 2.7-1.1 5.5-.9 8.4 1.6.2 3.2.5 4.8.7 0-.1.1-.2.1-.2-.2-.1-.3-.3-.5-.4-1-.7-1.1-1.6-.6-2.8.5-1.3.8-2.7 1.3-4.1 1.1 1.2 2 2.3 3.1 3.4.3.3.3.5.1.9-.5 1-.9 2-1.3 3v.1h.2l2.7-1.5c.2-.1.5-.1.7 0 .8.4 1.6.9 2.4 1.3.1.1.3.1.6.2-.6-1.3-1.1-2.5-1.6-3.6 1.1-1.3 2.3-2.5 3.4-3.8.5 1.8 1.1 3.6 1.6 5.4 0 .1-.1.4-.2.5-.4.5-.8 1-1.3 1.5l.1.1c1.6-.2 3.3-.5 4.9-.7.2-2.9 0-5.6-.8-8.3 0 0 .1-.1.1 0 .9 1.2 1.9 2.3 2.7 3.5 1.6 2.5 3 5.1 4.5 7.6l.3.3v.5c-1.8 1.5-3.8 2.3-5.9 2.8-.6.2-1.2.3-1.9.4.3 1.7.6 3.3.9 4.9 0 .2 0 .6-.2.8l-1.8 2.1c-.4.5-.9.9-1.3 1.4.9.7 1.7 1.4 2.5 2.1.1.1.2.4.2.5-.6 1.7-1.3 3.3-1.9 5-1-.3-2-.5-3-.7-.3 1.5-.7 3-1 4.5H235c-.3-1.5-.7-3-1-4.5-1.1.3-2 .5-3.1.7-.7-1.8-1.4-3.6-2-5.3.9-.8 1.8-1.5 2.7-2.3-1.1-1.2-2.1-2.3-3.1-3.5-.2-.2-.3-.4-.2-.8.3-1.6.6-3.2.9-4.9-.8-.2-1.5-.4-2.3-.6-1.9-.5-3.7-1.2-5.2-2.6-.1-.1-.2 0-.3-.1z" style="fill:#effe08;fill-opacity:.998928"/><path fill="#000" d="M235 36.4h-.1v-.1s.1 0 .1.1" style="fill:#effe08;fill-opacity:.998928"/><path fill="#fdfdfd" d="M247.5 27.6v-.1z" style="fill:#effe08;fill-opacity:.998928"/><path fill="#f3ea02" stroke="#000" d="m234.2 58.3-.2-.2h-.4c-.1 0-.2 0-.3.1-.3.1-.7.2-1.1.3l-1.1.3-.8-2.1c-.3-.7-.5-1.3-.7-1.8-.1-.2-.1-.4-.2-.5 0 0 .1-.1.2-.1.2-.2.5-.5.9-.8s.7-.6.9-.8l.3-.3.1-.1.1-.1v-.7s-.1-.1-.1-.2c-.1-.1-.2-.3-.4-.5-.3-.4-.7-.9-1.2-1.4l-1.5-1.7.4-2.1q.15-1.05.3-1.8c0-.2.1-.4.1-.6v-.4c0-.3-.2-.5-.3-.6s-.3-.2-.5-.2c-.4-.1-.9-.3-1.7-.5-1.9-.5-3-1-5-2.2-.1-.1-.2-.1-.3-.2.1-.2.2-.4.4-.7.3-.5 1.4-2.3 2.4-4 .7-1.2 1.8-2.9 2.7-4.3.1-.2.3-.4.4-.6-.3 1.4-.4 3-.4 4.3v1.3c0 .3.1.7.4.9s.6.3 1 .4c.3.1.6.1 1.1.2.2 0 .3 0 .5.1.7.1 1.3.2 1.7.2h1s.1 0 .2-.1.2-.2.3-.4 0-.4-.1-.5l-.3-.3c-.1-.1-.2-.2-.4-.3-.3-.2-.4-.3-.5-.4s-.1-.2-.1-.4 0-.5.1-.9.3-1 .5-1.7l.5-1.7.8.9c.4.4.8.8 1.1 1.2.1.2.3.3.4.4 0 .1.1.1.1.1v.2c-.1.3-.2.7-.5 1.4-.2.5-.4.9-.5 1.3-.1.2-.1.3-.1.4v.4s0 .1.1.2.2.1.3.2h.2c.1 0 .1 0 .2-.1.1 0 .2-.1.4-.2q.45-.15 1.2-.6l1.3-.7 1.3.7c.7.4 1.2.6 1.5.7.1.1.3.1.5.1.1 0 .3 0 .4-.2.2-.1.2-.3.2-.4V36s0-.1-.1-.1c0-.1-.1-.2-.2-.4-.1-.3-.3-.8-.5-1.2l-.6-1.4 1.4-1.5c.4-.5.8-.9 1.1-1.1v.1c.1.4.3 1 .5 1.7.3 1.1.6 2 .7 2.4 0 0 0 .1-.1.1-.1.2-.3.4-.5.6-.2.3-.4.5-.5.7-.1.1-.1.2-.2.3 0 0 0 .1-.1.2v.2c0 .1 0 .2.1.4.1.1.2.1.2.1h.4c.1 0 .3 0 .6-.1.5-.1 1.1-.1 1.8-.2l2.5-.4.4-.1v-.4l-.1-2.7c0-1.6-.1-2.6-.2-3.4.1.2.2.3.4.5.9 1.3 2 3.1 3.1 4.8.7 1.1 1.3 2.1 1.8 2.9q.3.6.6.9c.1.1.1.2.2.3-.2.1-.4.3-.7.5-.6.4-1.4.8-2.1 1.1s-1.9.7-2.8.9q-.75.15-1.2.3c-.2 0-.3.1-.4.1h-.2s-.1 0-.1.1c-.1.1-.1.2-.1.2v.5c0 .1 0 .3.1.5.1.4.2 1 .3 1.6s.2 1.2.3 1.7c0 .2.1.5.1.6v.3s0 .1-.3.4c-.2.3-.6.8-1.3 1.5l-1.6 1.9-.3.4.4.3 1.3 1c.3.3.7.6.9.8.1.1.2.1.2.2v.1q-.15.3-.3.9c-.3.8-.7 1.9-1.2 3.2l-.1.3-1.1-.3c-.4-.1-.8-.2-1.1-.3-.1 0-.3-.1-.4-.1h-.3s-.1 0-.2.1c0 .1-.1.1-.1.1v.2c0 .1-.1.2-.1.4-.1.3-.2.7-.3 1.1-.2.9-.4 1.9-.5 2.2l-.1.2h-5.9l-.4-1.8c-.1-.6-.3-1.2-.3-1.6 0-.2-.1-.4-.1-.5v-.2zm1.5-25.4z" style="fill:#effe08;fill-opacity:.998928"/></g></g><defs><clipPath id="a"><path fill="#fff" d="M153 27h34v38h-34z"/></clipPath><clipPath id="b"><path fill="#fff" d="M221 27h34v38h-34z"/></clipPath><clipPath id="c"><path fill="#fff" d="M221 27h34v38h-34z"/></clipPath><clipPath id="d"><path fill="#fff" d="M221 27h34v38h-34z"/></clipPath><clipPath id="e"><path fill="#fff" d="M221 27h34v38h-34z"/></clipPath><clipPath id="g"><path fill="#fff" d="M153 27h34v38h-34z"/></clipPath><clipPath id="h"><path fill="#fff" d="M221 27h34v38h-34z"/></clipPath><clipPath id="i"><path fill="#fff" d="M221 27h34v38h-34z"/></clipPath><clipPath id="j"><path fill="#fff" d="M221 27h34v38h-34z"/></clipPath><clipPath id="k"><path fill="#fff" d="M221 27h34v38h-34z"/></clipPath></defs><path d="M14.95 72.653h370.1v404.694H14.95Z" style="display:inline;fill:#cb9b13;fill-opacity:.419078;stroke:#040438;stroke-width:.99913;stroke-opacity:.923913"/><path fill="none" d="M23 94.7h340.7V476H23z" style="display:inline;opacity:1;mix-blend-mode:normal;fill:#000;fill-opacity:0;stroke:none;stroke-width:1;stroke-dasharray:none;stroke-opacity:1;paint-order:normal"/><path d="M101.246 102.263c-1.272-1.53-31.144 41.933-46.37 67.464-10.194 17.096-21.134 35.37-24.31 40.608-3.177 5.24-5.745 10.024-5.707 10.633.038.608 2.873 2.766 6.3 4.793 20.833 12.323 32.347 17.378 52.18 22.903 15.7 4.373 21.504 6.65 21.504 8.44 0 1.348-2.125 13.378-4.723 26.734l-4.721 24.283 17.324 19.165c9.528 10.542 17.324 19.635 17.324 20.206s-6.005 5.97-13.344 12c-7.338 6.029-13.356 11.44-13.373 12.024-.018.584 4.38 12.55 9.771 26.588l9.802 25.524 15.763-3.755c8.67-2.065 15.855-3.615 15.97-3.44.114.173 2.443 10.438 5.174 22.81l4.964 22.493h68.93l1.458-6.136c.802-3.374 3.105-13.372 5.118-22.217s3.907-16.353 4.207-16.684c.301-.332 7.425 1.17 15.857 3.204l15.299 3.693 2.705-6.754c10.906-27.23 17.224-44.623 16.712-46.015-.332-.9-6.522-6.42-13.757-12.268l-13.156-10.635 16.926-18.964c13.04-14.61 16.93-19.965 16.93-23.32 0-2.396-2.004-14.78-4.45-27.52-2.448-12.74-4.282-23.313-4.077-23.497.205-.183 8.043-2.304 17.42-4.71 9.376-2.406 22.92-6.53 29.86-9.737 16.28-7.523 31.86-16.507 34.877-19.648.487-.507-.63-1.727-2.598-4.422-.506-.693-12.604-18.514-26.385-41.299-21.107-34.898-47.027-72.64-48.654-70.845-.245.27.964 6.318 2.689 13.44 2.38 9.831 3.316 19.659 3.887 40.829l.752 27.88-25.577 3.667c-14.067 2.016-25.926 3.283-26.352 2.812-.427-.47 2.724-4.943 7.003-9.936 4.279-4.992 7.483-9.968 7.12-11.06-.363-1.09-3.844-12.656-7.734-25.702s-7.513-24.261-8.05-24.921-8.28 6.883-17.205 16.762l-16.228 17.962 3.737 8.784c12.916 30.373 11.77 25.98 11.77 26.42 0 1.872-3.828.33-18.61-7.498l-15.665-8.297-16.286 8.495c-8.958 4.672-16.624 8.223-17.05 7.752-.427-.47 2.581-8.852 6.699-18.484 6.247-14.614 7.182-17.957 5.646-20.199-1.012-1.477-8.494-9.707-16.64-18.426l-14.807-15.853-8.034 25.89c-9.188 29.61-9.093 32.175 1.498 40.273 5.819 4.45 6.885 6.322 4.52 7.935-.701.478-12.332-.717-25.843-2.657-28.257-4.056-26.199-2.22-26.231-23.418-.026-16.464 2.17-36.12 5.781-51.72 1.533-6.621 2.64-12.213 2.46-12.43" style="display:inline;fill:#4b3a18;fill-opacity:1;stroke-width:1.55728" transform="matrix(.99428 0 0 .99448 -.107 -2.015)"><desc>tête taureau sans imperfection et symétrique</desc></path><path d="M101.27 98.367c-1.262-1.538-30.905 42.179-46.013 67.86-10.116 17.196-20.971 35.576-24.123 40.846s-5.7 10.082-5.663 10.695c.038.612 2.85 2.782 6.252 4.821 20.673 12.396 32.098 17.48 51.777 23.037 15.58 4.4 21.34 6.69 21.34 8.49 0 1.356-2.11 13.457-4.688 26.89l-4.684 24.425 17.19 19.278c9.455 10.603 17.19 19.75 17.19 20.324s-5.958 6.005-13.24 12.07-13.253 11.507-13.27 12.095c-.018.588 4.345 12.623 9.696 26.743l9.726 25.675 15.642-3.778c8.602-2.077 15.732-3.636 15.846-3.46.113.174 2.425 10.499 5.134 22.943l4.926 22.625h68.4l1.446-6.172c.795-3.393 3.08-13.45 5.079-22.346s3.876-16.45 4.174-16.783 7.368 1.177 15.735 3.224l15.18 3.714 2.685-6.794c10.823-27.388 17.091-44.884 16.583-46.284-.329-.905-6.471-6.457-13.65-12.34l-13.056-10.697 16.797-19.075c12.94-14.696 16.798-20.082 16.798-23.457 0-2.41-1.987-14.867-4.416-27.682-2.428-12.815-4.248-23.449-4.045-23.633.204-.185 7.981-2.318 17.286-4.738 9.304-2.42 22.744-6.57 29.63-9.795 16.155-7.566 31.614-16.603 34.609-19.763.482-.51-.626-1.737-2.578-4.447-.503-.698-12.507-18.623-26.182-41.541-20.944-35.103-46.665-73.066-48.28-71.26-.242.271.958 6.354 2.669 13.518 2.362 9.89 3.29 19.774 3.857 41.068l.746 28.043-25.38 3.689c-13.958 2.029-25.725 3.303-26.149 2.829s2.703-4.972 6.95-9.994c4.245-5.022 7.425-10.027 7.065-11.124s-3.814-12.731-7.675-25.854-7.455-24.403-7.988-25.067-8.216 6.923-17.072 16.86l-16.103 18.067 3.708 8.836c12.817 30.551 11.679 26.133 11.679 26.575 0 1.883-3.798.332-18.466-7.542l-15.544-8.346-16.161 8.546c-8.889 4.699-16.496 8.27-16.92 7.797-.423-.474 2.563-8.904 6.649-18.593 6.198-14.699 7.127-18.062 5.602-20.317-1.005-1.486-8.429-9.763-16.51-18.534l-14.695-15.946-7.971 26.041c-9.118 29.785-9.023 32.364 1.485 40.51 5.775 4.476 6.833 6.359 4.486 7.981-.696.481-12.237-.72-25.644-2.672-28.039-4.08-25.997-2.233-26.03-23.555-.024-16.56 2.155-36.331 5.738-52.024 1.52-6.66 2.619-12.284 2.44-12.502" style="display:inline;fill:#d19411;fill-opacity:1;stroke-width:1.55582" transform="matrix(.99428 0 0 .99448 -.107 -2.015)"><desc>tête taureau sans imperfection et symétrique</desc></path><path d="M102.586 99.781c-1.25-1.493-30.612 40.917-45.578 65.83-10.02 16.681-20.773 34.512-23.895 39.624s-5.647 9.78-5.61 10.375c.038.594 2.824 2.699 6.193 4.677 20.478 12.025 31.795 16.957 51.288 22.348 15.432 4.267 21.138 6.49 21.138 8.236 0 1.315-2.09 13.054-4.642 26.085l-4.64 23.695 17.027 18.7c9.366 10.287 17.028 19.16 17.028 19.717s-5.902 5.826-13.115 11.709-13.128 11.163-13.146 11.733c-.017.57 4.305 12.245 9.605 25.944l9.635 24.906 15.494-3.664c8.52-2.016 15.583-3.528 15.696-3.358s2.402 10.186 5.086 22.257l4.88 21.949h67.753l1.433-5.987c.787-3.293 3.051-13.048 5.03-21.679s3.84-15.956 4.136-16.28c.295-.324 7.297 1.141 15.586 3.127l15.037 3.603 2.659-6.59c10.72-26.57 16.93-43.541 16.426-44.9-.325-.878-6.41-6.264-13.522-11.97l-12.931-10.378 16.637-18.505c12.818-14.255 16.64-19.48 16.64-22.755 0-2.337-1.968-14.422-4.374-26.853s-4.208-22.748-4.007-22.927c.202-.18 7.906-2.248 17.123-4.596 9.216-2.348 22.53-6.372 29.35-9.502 16.003-7.34 31.315-16.106 34.282-19.171.478-.495-.62-1.685-2.553-4.315-.498-.677-12.39-18.066-25.935-40.298-20.747-34.052-46.225-70.88-47.824-69.129-.24.264.948 6.165 2.643 13.114 2.34 9.594 3.26 19.183 3.821 39.84l.74 27.204-25.14 3.579c-13.828 1.968-25.484 3.204-25.903 2.744-.42-.46 2.678-4.823 6.884-9.695 4.205-4.872 7.355-9.727 6.998-10.791s-3.778-12.35-7.602-25.08-7.385-23.674-7.913-24.318-8.138 6.716-16.91 16.356l-15.952 17.526 3.674 8.572c12.695 29.637 11.568 25.351 11.568 25.78 0 1.827-3.762.322-18.291-7.317l-15.398-8.096-16.008 8.29c-8.805 4.559-16.34 8.023-16.76 7.564-.419-.46 2.538-8.637 6.586-18.036 6.14-14.26 7.06-17.522 5.55-19.71-.996-1.441-8.35-9.471-16.356-17.98l-14.555-15.468-7.896 25.262c-9.031 28.894-8.938 31.395 1.472 39.298 5.72 4.342 6.768 6.168 4.443 7.742-.69.467-12.122-.7-25.402-2.592-27.774-3.958-25.751-2.166-25.783-22.85-.025-16.066 2.134-35.245 5.682-50.468 1.507-6.46 2.595-11.917 2.418-12.128" style="display:inline;fill:#4b3a18;fill-opacity:1;stroke-width:1.52512" transform="matrix(.99428 0 0 .99448 -.107 -2.015)"><desc>tête taureau sans imperfection et symétrique</desc></path><path d="M34.527 113.58q1.119 0 2.394-.209 1.301-.234 2.342-.755 1.067-.546 1.77-1.457.703-.937.703-2.394h12.05v25.869q0 1.744.832 2.29.859.52 2.186.52h1.77v9.656H35.073v-9.655h2.082q1.38 0 2.03-.86.677-.884.677-1.9v-12.517h-5.335zm26.181 0q1.12 0 2.394-.209 1.302-.234 2.343-.755 1.067-.546 1.77-1.457.702-.937.702-2.394h12.05v25.869q0 1.744.833 2.29.858.52 2.186.52h1.77v9.656H61.255v-9.655h2.082q1.379 0 2.03-.86.676-.884.676-1.9v-12.517h-5.335z" aria-label="11" style="font-size:53.3px;font-family:Ultra;-inkscape-font-specification:Ultra;white-space:pre;inline-size:170.864;fill:#db9200;stroke:#f9fff4;stroke-width:1.7;stroke-opacity:.996" transform="matrix(1.3 0 0 1.3 -16.51 -132.34)"/><path d="M34.527 113.58q1.119 0 2.394-.209 1.301-.234 2.342-.755 1.067-.546 1.77-1.457.703-.937.703-2.394h12.05v25.869q0 1.744.832 2.29.859.52 2.186.52h1.77v9.656H35.073v-9.655h2.082q1.38 0 2.03-.86.677-.884.677-1.9v-12.517h-5.335zm26.181 0q1.12 0 2.394-.209 1.302-.234 2.343-.755 1.067-.546 1.77-1.457.702-.937.702-2.394h12.05v25.869q0 1.744.833 2.29.858.52 2.186.52h1.77v9.656H61.255v-9.655h2.082q1.379 0 2.03-.86.676-.884.676-1.9v-12.517h-5.335z" aria-label="11" style="font-size:53.3px;font-family:Ultra;-inkscape-font-specification:Ultra;white-space:pre;inline-size:170.864;fill:#db9200;stroke:#fff;stroke-width:1.7;stroke-opacity:.996" transform="matrix(1.3 0 0 1.3 260.799 -129.37)"/><path d="M34.527 113.58q1.119 0 2.394-.209 1.301-.234 2.342-.755 1.067-.546 1.77-1.457.703-.937.703-2.394h12.05v25.869q0 1.744.832 2.29.859.52 2.186.52h1.77v9.656H35.073v-9.655h2.082q1.38 0 2.03-.86.677-.884.677-1.9v-12.517h-5.335zm26.181 0q1.12 0 2.394-.209 1.302-.234 2.343-.755 1.067-.546 1.77-1.457.702-.937.702-2.394h12.05v25.869q0 1.744.833 2.29.858.52 2.186.52h1.77v9.656H61.255v-9.655h2.082q1.379 0 2.03-.86.676-.884.676-1.9v-12.517h-5.335z" aria-label="11" style="font-size:53.3px;font-family:Ultra;-inkscape-font-specification:Ultra;white-space:pre;inline-size:170.864;fill:#db9200;stroke:#fff;stroke-width:1.7;stroke-opacity:.996" transform="rotate(180 69.556 338.254)scale(1.3)"/><path d="M34.527 113.58q1.119 0 2.394-.209 1.301-.234 2.342-.755 1.067-.546 1.77-1.457.703-.937.703-2.394h12.05v25.869q0 1.744.832 2.29.859.52 2.186.52h1.77v9.656H35.073v-9.655h2.082q1.38 0 2.03-.86.677-.884.677-1.9v-12.517h-5.335zm26.181 0q1.12 0 2.394-.209 1.302-.234 2.343-.755 1.067-.546 1.77-1.457.702-.937.702-2.394h12.05v25.869q0 1.744.833 2.29.858.52 2.186.52h1.77v9.656H61.255v-9.655h2.082q1.379 0 2.03-.86.676-.884.676-1.9v-12.517h-5.335z" aria-label="11" style="font-size:53.3px;font-family:Ultra;-inkscape-font-specification:Ultra;white-space:pre;inline-size:170.864;fill:#db9200;stroke:#fff;stroke-width:1.7;stroke-opacity:.996" transform="rotate(180 208.161 340.324)scale(1.3)"/><path d="M34.527 113.58q1.119 0 2.394-.209 1.301-.234 2.342-.755 1.067-.546 1.77-1.457.703-.937.703-2.394h12.05v25.869q0 1.744.832 2.29.859.52 2.186.52h1.77v9.656H35.073v-9.655h2.082q1.38 0 2.03-.86.677-.884.677-1.9v-12.517h-5.335zm26.181 0q1.12 0 2.394-.209 1.302-.234 2.343-.755 1.067-.546 1.77-1.457.702-.937.702-2.394h12.05v25.869q0 1.744.833 2.29.858.52 2.186.52h1.77v9.656H61.255v-9.655h2.082q1.379 0 2.03-.86.676-.884.676-1.9v-12.517h-5.335z" aria-label="11" style="font-size:53.3px;font-family:Ultra;-inkscape-font-specification:Ultra;white-space:pre;inline-size:170.864;fill:#effe08;stroke:#4b3a18;stroke-width:1.7" transform="matrix(2.12634 0 0 2.39905 73.183 -31.916)"/><g style="fill:#effe08;fill-opacity:.99892801"><g clip-path="url(#g)" style="fill:#effe08;fill-opacity:.99892801" transform="matrix(-.89885 0 0 -.90188 367.722 540.219)"><path fill="#fdfdfd" d="M153.1 39.5V39c.2-.2.3-.4.5-.6 1.2-2.1 2.4-4.3 3.7-6.4 1-1.6 2.2-3.1 3.3-4.6.1 0 .1.1.2.1-.9 2.7-1.1 5.5-.9 8.4 1.6.2 3.2.5 4.8.7 0-.1.1-.2.1-.2-.2-.1-.3-.3-.5-.4-1-.7-1.1-1.6-.6-2.8.5-1.3.8-2.7 1.3-4.1 1.1 1.2 2 2.3 3.1 3.4.3.3.3.5.1.9-.5 1-.9 2-1.3 3v.1h.2l2.7-1.5c.2-.1.5-.1.7 0 .8.4 1.6.9 2.4 1.3.1.1.3.1.6.2-.6-1.3-1.1-2.5-1.6-3.6 1.1-1.3 2.3-2.5 3.4-3.8.5 1.8 1.1 3.6 1.6 5.4 0 .1-.1.4-.2.5-.4.5-.8 1-1.3 1.5l.1.1c1.6-.2 3.3-.5 4.9-.7.2-2.9 0-5.6-.8-8.3 0 0 .1-.1.1 0 .9 1.2 1.9 2.3 2.7 3.5 1.6 2.5 3 5.1 4.5 7.6l.3.3v.5c-1.8 1.5-3.8 2.3-5.9 2.8-.6.2-1.2.3-1.9.4.3 1.7.6 3.3.9 4.9 0 .2 0 .6-.2.8l-1.8 2.1c-.4.5-.9.9-1.3 1.4.9.7 1.7 1.4 2.5 2.1.1.1.2.4.2.5-.6 1.7-1.3 3.3-1.9 5-1-.3-2-.5-3-.7-.3 1.5-.7 3-1 4.5H167c-.3-1.5-.7-3-1-4.5-1.1.3-2 .5-3.1.7-.7-1.8-1.4-3.6-2-5.3.9-.8 1.8-1.5 2.7-2.3-1.1-1.2-2.1-2.3-3.1-3.5-.2-.2-.3-.4-.2-.8.3-1.6.6-3.2.9-4.9-.8-.2-1.5-.4-2.3-.6-1.9-.5-3.7-1.2-5.2-2.6-.1-.1-.2 0-.3-.1z" style="fill:#effe08;fill-opacity:.99892801"/><path fill="#000" d="M167 36.4h-.1v-.1s.1 0 .1.1" style="fill:#effe08;fill-opacity:.99892801"/><path fill="#fdfdfd" d="M179.5 27.6v-.1z" style="fill:#effe08;fill-opacity:.99892801"/><path fill="#f3ea02" stroke="#000" d="m166.2 58.3-.2-.2h-.4c-.1 0-.2 0-.3.1-.3.1-.7.2-1.1.3l-1.1.3-.8-2.1c-.3-.7-.5-1.3-.7-1.8-.1-.2-.1-.4-.2-.5 0 0 .1-.1.2-.1.2-.2.5-.5.9-.8s.7-.6.9-.8l.3-.3.1-.1.1-.1v-.7s-.1-.1-.1-.2c-.1-.1-.2-.3-.4-.5-.3-.4-.7-.9-1.2-1.4l-1.5-1.7.4-2.1q.15-1.05.3-1.8c0-.2.1-.4.1-.6v-.4c0-.3-.2-.5-.3-.6s-.3-.2-.5-.2c-.4-.1-.9-.3-1.7-.5-1.9-.5-3-1-5-2.2-.1-.1-.2-.1-.3-.2.1-.2.2-.4.4-.7.3-.5 1.4-2.3 2.4-4 .7-1.2 1.8-2.9 2.7-4.3.1-.2.3-.4.4-.6-.3 1.4-.4 3-.4 4.3v1.3c0 .3.1.7.4.9s.6.3 1 .4c.3.1.6.1 1.1.2.2 0 .3 0 .5.1.7.1 1.3.2 1.7.2h1s.1 0 .2-.1.2-.2.3-.4 0-.4-.1-.5l-.3-.3c-.1-.1-.2-.2-.4-.3-.3-.2-.4-.3-.5-.4s-.1-.2-.1-.4 0-.5.1-.9.3-1 .5-1.7l.5-1.7.8.9c.4.4.8.8 1.1 1.2.1.2.3.3.4.4 0 .1.1.1.1.1v.2c-.1.3-.2.7-.5 1.4-.2.5-.4.9-.5 1.3-.1.2-.1.3-.1.4v.4s0 .1.1.2.2.1.3.2h.2c.1 0 .1 0 .2-.1.1 0 .2-.1.4-.2q.45-.15 1.2-.6l1.3-.7 1.3.7c.7.4 1.2.6 1.5.7.1.1.3.1.5.1.1 0 .3 0 .4-.2.2-.1.2-.3.2-.4V36s0-.1-.1-.1c0-.1-.1-.2-.2-.4-.1-.3-.3-.8-.5-1.2l-.6-1.4 1.4-1.5c.4-.5.8-.9 1.1-1.1v.1c.1.4.3 1 .5 1.7.3 1.1.6 2 .7 2.4 0 0 0 .1-.1.1-.1.2-.3.4-.5.6-.2.3-.4.5-.5.7-.1.1-.1.2-.2.3 0 0 0 .1-.1.2v.2c0 .1 0 .2.1.4.1.1.2.1.2.1h.4c.1 0 .3 0 .6-.1.5-.1 1.1-.1 1.8-.2l2.5-.4.4-.1v-.4l-.1-2.7c0-1.6-.1-2.6-.2-3.4.1.2.2.3.4.5.9 1.3 2 3.1 3.1 4.8.7 1.1 1.3 2.1 1.8 2.9q.3.6.6.9c.1.1.1.2.2.3-.2.1-.4.3-.7.5-.6.4-1.4.8-2.1 1.1s-1.9.7-2.8.9q-.75.15-1.2.3c-.2 0-.3.1-.4.1h-.2s-.1 0-.1.1c-.1.1-.1.2-.1.2v.5c0 .1 0 .3.1.5.1.4.2 1 .3 1.6s.2 1.2.3 1.7c0 .2.1.5.1.6v.3s0 .1-.3.4c-.2.3-.6.8-1.3 1.5l-1.6 1.9-.3.4.4.3 1.3 1c.3.3.7.6.9.8.1.1.2.1.2.2v.1q-.15.3-.3.9c-.3.8-.7 1.9-1.2 3.2l-.1.3-1.1-.3c-.4-.1-.8-.2-1.1-.3-.1 0-.3-.1-.4-.1h-.3s-.1 0-.2.1c0 .1-.1.1-.1.1v.2c0 .1-.1.2-.1.4-.1.3-.2.7-.3 1.1-.2.9-.4 1.9-.5 2.2l-.1.2h-5.9l-.4-1.8c-.1-.6-.3-1.2-.3-1.6 0-.2-.1-.4-.1-.5v-.2zm1.5-25.4z" style="fill:#effe08;fill-opacity:.99892801"/></g><g clip-path="url(#h)" style="fill:#effe08;fill-opacity:.99892801" transform="matrix(-.88985 0 0 -.90624 395.806 540.365)"><path fill="#fdfdfd" d="M221.1 39.5V39c.2-.2.3-.4.5-.6 1.2-2.1 2.4-4.3 3.7-6.4 1-1.6 2.2-3.1 3.3-4.6.1 0 .1.1.2.1-.9 2.7-1.1 5.5-.9 8.4 1.6.2 3.2.5 4.8.7 0-.1.1-.2.1-.2-.2-.1-.3-.3-.5-.4-1-.7-1.1-1.6-.6-2.8.5-1.3.8-2.7 1.3-4.1 1.1 1.2 2 2.3 3.1 3.4.3.3.3.5.1.9-.5 1-.9 2-1.3 3v.1h.2l2.7-1.5c.2-.1.5-.1.7 0 .8.4 1.6.9 2.4 1.3.1.1.3.1.6.2-.6-1.3-1.1-2.5-1.6-3.6 1.1-1.3 2.3-2.5 3.4-3.8.5 1.8 1.1 3.6 1.6 5.4 0 .1-.1.4-.2.5-.4.5-.8 1-1.3 1.5l.1.1c1.6-.2 3.3-.5 4.9-.7.2-2.9 0-5.6-.8-8.3 0 0 .1-.1.1 0 .9 1.2 1.9 2.3 2.7 3.5 1.6 2.5 3 5.1 4.5 7.6l.3.3v.5c-1.8 1.5-3.8 2.3-5.9 2.8-.6.2-1.2.3-1.9.4.3 1.7.6 3.3.9 4.9 0 .2 0 .6-.2.8l-1.8 2.1c-.4.5-.9.9-1.3 1.4.9.7 1.7 1.4 2.5 2.1.1.1.2.4.2.5-.6 1.7-1.3 3.3-1.9 5-1-.3-2-.5-3-.7-.3 1.5-.7 3-1 4.5H235c-.3-1.5-.7-3-1-4.5-1.1.3-2 .5-3.1.7-.7-1.8-1.4-3.6-2-5.3.9-.8 1.8-1.5 2.7-2.3-1.1-1.2-2.1-2.3-3.1-3.5-.2-.2-.3-.4-.2-.8.3-1.6.6-3.2.9-4.9-.8-.2-1.5-.4-2.3-.6-1.9-.5-3.7-1.2-5.2-2.6-.1-.1-.2 0-.3-.1z" style="fill:#effe08;fill-opacity:.99892801"/><path fill="#000" d="M235 36.4h-.1v-.1s.1 0 .1.1" style="fill:#effe08;fill-opacity:.99892801"/><path fill="#fdfdfd" d="M247.5 27.6v-.1z" style="fill:#effe08;fill-opacity:.99892801"/><path fill="#f3ea02" stroke="#000" d="m234.2 58.3-.2-.2h-.4c-.1 0-.2 0-.3.1-.3.1-.7.2-1.1.3l-1.1.3-.8-2.1c-.3-.7-.5-1.3-.7-1.8-.1-.2-.1-.4-.2-.5 0 0 .1-.1.2-.1.2-.2.5-.5.9-.8s.7-.6.9-.8l.3-.3.1-.1.1-.1v-.7s-.1-.1-.1-.2c-.1-.1-.2-.3-.4-.5-.3-.4-.7-.9-1.2-1.4l-1.5-1.7.4-2.1q.15-1.05.3-1.8c0-.2.1-.4.1-.6v-.4c0-.3-.2-.5-.3-.6s-.3-.2-.5-.2c-.4-.1-.9-.3-1.7-.5-1.9-.5-3-1-5-2.2-.1-.1-.2-.1-.3-.2.1-.2.2-.4.4-.7.3-.5 1.4-2.3 2.4-4 .7-1.2 1.8-2.9 2.7-4.3.1-.2.3-.4.4-.6-.3 1.4-.4 3-.4 4.3v1.3c0 .3.1.7.4.9s.6.3 1 .4c.3.1.6.1 1.1.2.2 0 .3 0 .5.1.7.1 1.3.2 1.7.2h1s.1 0 .2-.1.2-.2.3-.4 0-.4-.1-.5l-.3-.3c-.1-.1-.2-.2-.4-.3-.3-.2-.4-.3-.5-.4s-.1-.2-.1-.4 0-.5.1-.9.3-1 .5-1.7l.5-1.7.8.9c.4.4.8.8 1.1 1.2.1.2.3.3.4.4 0 .1.1.1.1.1v.2c-.1.3-.2.7-.5 1.4-.2.5-.4.9-.5 1.3-.1.2-.1.3-.1.4v.4s0 .1.1.2.2.1.3.2h.2c.1 0 .1 0 .2-.1.1 0 .2-.1.4-.2q.45-.15 1.2-.6l1.3-.7 1.3.7c.7.4 1.2.6 1.5.7.1.1.3.1.5.1.1 0 .3 0 .4-.2.2-.1.2-.3.2-.4V36s0-.1-.1-.1c0-.1-.1-.2-.2-.4-.1-.3-.3-.8-.5-1.2l-.6-1.4 1.4-1.5c.4-.5.8-.9 1.1-1.1v.1c.1.4.3 1 .5 1.7.3 1.1.6 2 .7 2.4 0 0 0 .1-.1.1-.1.2-.3.4-.5.6-.2.3-.4.5-.5.7-.1.1-.1.2-.2.3 0 0 0 .1-.1.2v.2c0 .1 0 .2.1.4.1.1.2.1.2.1h.4c.1 0 .3 0 .6-.1.5-.1 1.1-.1 1.8-.2l2.5-.4.4-.1v-.4l-.1-2.7c0-1.6-.1-2.6-.2-3.4.1.2.2.3.4.5.9 1.3 2 3.1 3.1 4.8.7 1.1 1.3 2.1 1.8 2.9q.3.6.6.9c.1.1.1.2.2.3-.2.1-.4.3-.7.5-.6.4-1.4.8-2.1 1.1s-1.9.7-2.8.9q-.75.15-1.2.3c-.2 0-.3.1-.4.1h-.2s-.1 0-.1.1c-.1.1-.1.2-.1.2v.5c0 .1 0 .3.1.5.1.4.2 1 .3 1.6s.2 1.2.3 1.7c0 .2.1.5.1.6v.3s0 .1-.3.4c-.2.3-.6.8-1.3 1.5l-1.6 1.9-.3.4.4.3 1.3 1c.3.3.7.6.9.8.1.1.2.1.2.2v.1q-.15.3-.3.9c-.3.8-.7 1.9-1.2 3.2l-.1.3-1.1-.3c-.4-.1-.8-.2-1.1-.3-.1 0-.3-.1-.4-.1h-.3s-.1 0-.2.1c0 .1-.1.1-.1.1v.2c0 .1-.1.2-.1.4-.1.3-.2.7-.3 1.1-.2.9-.4 1.9-.5 2.2l-.1.2h-5.9l-.4-1.8c-.1-.6-.3-1.2-.3-1.6 0-.2-.1-.4-.1-.5v-.2zm1.5-25.4z" style="fill:#effe08;fill-opacity:.99892801"/></g><g clip-path="url(#i)" style="fill:#effe08;fill-opacity:.99892801" transform="matrix(-.88985 0 0 -.90624 442.8 571.006)"><path fill="#fdfdfd" d="M221.1 39.5V39c.2-.2.3-.4.5-.6 1.2-2.1 2.4-4.3 3.7-6.4 1-1.6 2.2-3.1 3.3-4.6.1 0 .1.1.2.1-.9 2.7-1.1 5.5-.9 8.4 1.6.2 3.2.5 4.8.7 0-.1.1-.2.1-.2-.2-.1-.3-.3-.5-.4-1-.7-1.1-1.6-.6-2.8.5-1.3.8-2.7 1.3-4.1 1.1 1.2 2 2.3 3.1 3.4.3.3.3.5.1.9-.5 1-.9 2-1.3 3v.1h.2l2.7-1.5c.2-.1.5-.1.7 0 .8.4 1.6.9 2.4 1.3.1.1.3.1.6.2-.6-1.3-1.1-2.5-1.6-3.6 1.1-1.3 2.3-2.5 3.4-3.8.5 1.8 1.1 3.6 1.6 5.4 0 .1-.1.4-.2.5-.4.5-.8 1-1.3 1.5l.1.1c1.6-.2 3.3-.5 4.9-.7.2-2.9 0-5.6-.8-8.3 0 0 .1-.1.1 0 .9 1.2 1.9 2.3 2.7 3.5 1.6 2.5 3 5.1 4.5 7.6l.3.3v.5c-1.8 1.5-3.8 2.3-5.9 2.8-.6.2-1.2.3-1.9.4.3 1.7.6 3.3.9 4.9 0 .2 0 .6-.2.8l-1.8 2.1c-.4.5-.9.9-1.3 1.4.9.7 1.7 1.4 2.5 2.1.1.1.2.4.2.5-.6 1.7-1.3 3.3-1.9 5-1-.3-2-.5-3-.7-.3 1.5-.7 3-1 4.5H235c-.3-1.5-.7-3-1-4.5-1.1.3-2 .5-3.1.7-.7-1.8-1.4-3.6-2-5.3.9-.8 1.8-1.5 2.7-2.3-1.1-1.2-2.1-2.3-3.1-3.5-.2-.2-.3-.4-.2-.8.3-1.6.6-3.2.9-4.9-.8-.2-1.5-.4-2.3-.6-1.9-.5-3.7-1.2-5.2-2.6-.1-.1-.2 0-.3-.1z" style="fill:#effe08;fill-opacity:.99892801"/><path fill="#000" d="M235 36.4h-.1v-.1s.1 0 .1.1" style="fill:#effe08;fill-opacity:.99892801"/><path fill="#fdfdfd" d="M247.5 27.6v-.1z" style="fill:#effe08;fill-opacity:.99892801"/><path fill="#f3ea02" stroke="#000" d="m234.2 58.3-.2-.2h-.4c-.1 0-.2 0-.3.1-.3.1-.7.2-1.1.3l-1.1.3-.8-2.1c-.3-.7-.5-1.3-.7-1.8-.1-.2-.1-.4-.2-.5 0 0 .1-.1.2-.1.2-.2.5-.5.9-.8s.7-.6.9-.8l.3-.3.1-.1.1-.1v-.7s-.1-.1-.1-.2c-.1-.1-.2-.3-.4-.5-.3-.4-.7-.9-1.2-1.4l-1.5-1.7.4-2.1q.15-1.05.3-1.8c0-.2.1-.4.1-.6v-.4c0-.3-.2-.5-.3-.6s-.3-.2-.5-.2c-.4-.1-.9-.3-1.7-.5-1.9-.5-3-1-5-2.2-.1-.1-.2-.1-.3-.2.1-.2.2-.4.4-.7.3-.5 1.4-2.3 2.4-4 .7-1.2 1.8-2.9 2.7-4.3.1-.2.3-.4.4-.6-.3 1.4-.4 3-.4 4.3v1.3c0 .3.1.7.4.9s.6.3 1 .4c.3.1.6.1 1.1.2.2 0 .3 0 .5.1.7.1 1.3.2 1.7.2h1s.1 0 .2-.1.2-.2.3-.4 0-.4-.1-.5l-.3-.3c-.1-.1-.2-.2-.4-.3-.3-.2-.4-.3-.5-.4s-.1-.2-.1-.4 0-.5.1-.9.3-1 .5-1.7l.5-1.7.8.9c.4.4.8.8 1.1 1.2.1.2.3.3.4.4 0 .1.1.1.1.1v.2c-.1.3-.2.7-.5 1.4-.2.5-.4.9-.5 1.3-.1.2-.1.3-.1.4v.4s0 .1.1.2.2.1.3.2h.2c.1 0 .1 0 .2-.1.1 0 .2-.1.4-.2q.45-.15 1.2-.6l1.3-.7 1.3.7c.7.4 1.2.6 1.5.7.1.1.3.1.5.1.1 0 .3 0 .4-.2.2-.1.2-.3.2-.4V36s0-.1-.1-.1c0-.1-.1-.2-.2-.4-.1-.3-.3-.8-.5-1.2l-.6-1.4 1.4-1.5c.4-.5.8-.9 1.1-1.1v.1c.1.4.3 1 .5 1.7.3 1.1.6 2 .7 2.4 0 0 0 .1-.1.1-.1.2-.3.4-.5.6-.2.3-.4.5-.5.7-.1.1-.1.2-.2.3 0 0 0 .1-.1.2v.2c0 .1 0 .2.1.4.1.1.2.1.2.1h.4c.1 0 .3 0 .6-.1.5-.1 1.1-.1 1.8-.2l2.5-.4.4-.1v-.4l-.1-2.7c0-1.6-.1-2.6-.2-3.4.1.2.2.3.4.5.9 1.3 2 3.1 3.1 4.8.7 1.1 1.3 2.1 1.8 2.9q.3.6.6.9c.1.1.1.2.2.3-.2.1-.4.3-.7.5-.6.4-1.4.8-2.1 1.1s-1.9.7-2.8.9q-.75.15-1.2.3c-.2 0-.3.1-.4.1h-.2s-.1 0-.1.1c-.1.1-.1.2-.1.2v.5c0 .1 0 .3.1.5.1.4.2 1 .3 1.6s.2 1.2.3 1.7c0 .2.1.5.1.6v.3s0 .1-.3.4c-.2.3-.6.8-1.3 1.5l-1.6 1.9-.3.4.4.3 1.3 1c.3.3.7.6.9.8.1.1.2.1.2.2v.1q-.15.3-.3.9c-.3.8-.7 1.9-1.2 3.2l-.1.3-1.1-.3c-.4-.1-.8-.2-1.1-.3-.1 0-.3-.1-.4-.1h-.3s-.1 0-.2.1c0 .1-.1.1-.1.1v.2c0 .1-.1.2-.1.4-.1.3-.2.7-.3 1.1-.2.9-.4 1.9-.5 2.2l-.1.2h-5.9l-.4-1.8c-.1-.6-.3-1.2-.3-1.6 0-.2-.1-.4-.1-.5v-.2zm1.5-25.4z" style="fill:#effe08;fill-opacity:.99892801"/></g><g clip-path="url(#j)" style="fill:#effe08;fill-opacity:.99892801" transform="matrix(-.88985 0 0 -.90624 412 571.061)"><path fill="#fdfdfd" d="M221.1 39.5V39c.2-.2.3-.4.5-.6 1.2-2.1 2.4-4.3 3.7-6.4 1-1.6 2.2-3.1 3.3-4.6.1 0 .1.1.2.1-.9 2.7-1.1 5.5-.9 8.4 1.6.2 3.2.5 4.8.7 0-.1.1-.2.1-.2-.2-.1-.3-.3-.5-.4-1-.7-1.1-1.6-.6-2.8.5-1.3.8-2.7 1.3-4.1 1.1 1.2 2 2.3 3.1 3.4.3.3.3.5.1.9-.5 1-.9 2-1.3 3v.1h.2l2.7-1.5c.2-.1.5-.1.7 0 .8.4 1.6.9 2.4 1.3.1.1.3.1.6.2-.6-1.3-1.1-2.5-1.6-3.6 1.1-1.3 2.3-2.5 3.4-3.8.5 1.8 1.1 3.6 1.6 5.4 0 .1-.1.4-.2.5-.4.5-.8 1-1.3 1.5l.1.1c1.6-.2 3.3-.5 4.9-.7.2-2.9 0-5.6-.8-8.3 0 0 .1-.1.1 0 .9 1.2 1.9 2.3 2.7 3.5 1.6 2.5 3 5.1 4.5 7.6l.3.3v.5c-1.8 1.5-3.8 2.3-5.9 2.8-.6.2-1.2.3-1.9.4.3 1.7.6 3.3.9 4.9 0 .2 0 .6-.2.8l-1.8 2.1c-.4.5-.9.9-1.3 1.4.9.7 1.7 1.4 2.5 2.1.1.1.2.4.2.5-.6 1.7-1.3 3.3-1.9 5-1-.3-2-.5-3-.7-.3 1.5-.7 3-1 4.5H235c-.3-1.5-.7-3-1-4.5-1.1.3-2 .5-3.1.7-.7-1.8-1.4-3.6-2-5.3.9-.8 1.8-1.5 2.7-2.3-1.1-1.2-2.1-2.3-3.1-3.5-.2-.2-.3-.4-.2-.8.3-1.6.6-3.2.9-4.9-.8-.2-1.5-.4-2.3-.6-1.9-.5-3.7-1.2-5.2-2.6-.1-.1-.2 0-.3-.1z" style="fill:#effe08;fill-opacity:.99892801"/><path fill="#000" d="M235 36.4h-.1v-.1s.1 0 .1.1" style="fill:#effe08;fill-opacity:.99892801"/><path fill="#fdfdfd" d="M247.5 27.6v-.1z" style="fill:#effe08;fill-opacity:.99892801"/><path fill="#f3ea02" stroke="#000" d="m234.2 58.3-.2-.2h-.4c-.1 0-.2 0-.3.1-.3.1-.7.2-1.1.3l-1.1.3-.8-2.1c-.3-.7-.5-1.3-.7-1.8-.1-.2-.1-.4-.2-.5 0 0 .1-.1.2-.1.2-.2.5-.5.9-.8s.7-.6.9-.8l.3-.3.1-.1.1-.1v-.7s-.1-.1-.1-.2c-.1-.1-.2-.3-.4-.5-.3-.4-.7-.9-1.2-1.4l-1.5-1.7.4-2.1q.15-1.05.3-1.8c0-.2.1-.4.1-.6v-.4c0-.3-.2-.5-.3-.6s-.3-.2-.5-.2c-.4-.1-.9-.3-1.7-.5-1.9-.5-3-1-5-2.2-.1-.1-.2-.1-.3-.2.1-.2.2-.4.4-.7.3-.5 1.4-2.3 2.4-4 .7-1.2 1.8-2.9 2.7-4.3.1-.2.3-.4.4-.6-.3 1.4-.4 3-.4 4.3v1.3c0 .3.1.7.4.9s.6.3 1 .4c.3.1.6.1 1.1.2.2 0 .3 0 .5.1.7.1 1.3.2 1.7.2h1s.1 0 .2-.1.2-.2.3-.4 0-.4-.1-.5l-.3-.3c-.1-.1-.2-.2-.4-.3-.3-.2-.4-.3-.5-.4s-.1-.2-.1-.4 0-.5.1-.9.3-1 .5-1.7l.5-1.7.8.9c.4.4.8.8 1.1 1.2.1.2.3.3.4.4 0 .1.1.1.1.1v.2c-.1.3-.2.7-.5 1.4-.2.5-.4.9-.5 1.3-.1.2-.1.3-.1.4v.4s0 .1.1.2.2.1.3.2h.2c.1 0 .1 0 .2-.1.1 0 .2-.1.4-.2q.45-.15 1.2-.6l1.3-.7 1.3.7c.7.4 1.2.6 1.5.7.1.1.3.1.5.1.1 0 .3 0 .4-.2.2-.1.2-.3.2-.4V36s0-.1-.1-.1c0-.1-.1-.2-.2-.4-.1-.3-.3-.8-.5-1.2l-.6-1.4 1.4-1.5c.4-.5.8-.9 1.1-1.1v.1c.1.4.3 1 .5 1.7.3 1.1.6 2 .7 2.4 0 0 0 .1-.1.1-.1.2-.3.4-.5.6-.2.3-.4.5-.5.7-.1.1-.1.2-.2.3 0 0 0 .1-.1.2v.2c0 .1 0 .2.1.4.1.1.2.1.2.1h.4c.1 0 .3 0 .6-.1.5-.1 1.1-.1 1.8-.2l2.5-.4.4-.1v-.4l-.1-2.7c0-1.6-.1-2.6-.2-3.4.1.2.2.3.4.5.9 1.3 2 3.1 3.1 4.8.7 1.1 1.3 2.1 1.8 2.9q.3.6.6.9c.1.1.1.2.2.3-.2.1-.4.3-.7.5-.6.4-1.4.8-2.1 1.1s-1.9.7-2.8.9q-.75.15-1.2.3c-.2 0-.3.1-.4.1h-.2s-.1 0-.1.1c-.1.1-.1.2-.1.2v.5c0 .1 0 .3.1.5.1.4.2 1 .3 1.6s.2 1.2.3 1.7c0 .2.1.5.1.6v.3s0 .1-.3.4c-.2.3-.6.8-1.3 1.5l-1.6 1.9-.3.4.4.3 1.3 1c.3.3.7.6.9.8.1.1.2.1.2.2v.1q-.15.3-.3.9c-.3.8-.7 1.9-1.2 3.2l-.1.3-1.1-.3c-.4-.1-.8-.2-1.1-.3-.1 0-.3-.1-.4-.1h-.3s-.1 0-.2.1c0 .1-.1.1-.1.1v.2c0 .1-.1.2-.1.4-.1.3-.2.7-.3 1.1-.2.9-.4 1.9-.5 2.2l-.1.2h-5.9l-.4-1.8c-.1-.6-.3-1.2-.3-1.6 0-.2-.1-.4-.1-.5v-.2zm1.5-25.4z" style="fill:#effe08;fill-opacity:.99892801"/></g><g clip-path="url(#k)" style="fill:#effe08;fill-opacity:.99892801" transform="matrix(-.88985 0 0 -.90624 380.853 570.884)"><path fill="#fdfdfd" d="M221.1 39.5V39c.2-.2.3-.4.5-.6 1.2-2.1 2.4-4.3 3.7-6.4 1-1.6 2.2-3.1 3.3-4.6.1 0 .1.1.2.1-.9 2.7-1.1 5.5-.9 8.4 1.6.2 3.2.5 4.8.7 0-.1.1-.2.1-.2-.2-.1-.3-.3-.5-.4-1-.7-1.1-1.6-.6-2.8.5-1.3.8-2.7 1.3-4.1 1.1 1.2 2 2.3 3.1 3.4.3.3.3.5.1.9-.5 1-.9 2-1.3 3v.1h.2l2.7-1.5c.2-.1.5-.1.7 0 .8.4 1.6.9 2.4 1.3.1.1.3.1.6.2-.6-1.3-1.1-2.5-1.6-3.6 1.1-1.3 2.3-2.5 3.4-3.8.5 1.8 1.1 3.6 1.6 5.4 0 .1-.1.4-.2.5-.4.5-.8 1-1.3 1.5l.1.1c1.6-.2 3.3-.5 4.9-.7.2-2.9 0-5.6-.8-8.3 0 0 .1-.1.1 0 .9 1.2 1.9 2.3 2.7 3.5 1.6 2.5 3 5.1 4.5 7.6l.3.3v.5c-1.8 1.5-3.8 2.3-5.9 2.8-.6.2-1.2.3-1.9.4.3 1.7.6 3.3.9 4.9 0 .2 0 .6-.2.8l-1.8 2.1c-.4.5-.9.9-1.3 1.4.9.7 1.7 1.4 2.5 2.1.1.1.2.4.2.5-.6 1.7-1.3 3.3-1.9 5-1-.3-2-.5-3-.7-.3 1.5-.7 3-1 4.5H235c-.3-1.5-.7-3-1-4.5-1.1.3-2 .5-3.1.7-.7-1.8-1.4-3.6-2-5.3.9-.8 1.8-1.5 2.7-2.3-1.1-1.2-2.1-2.3-3.1-3.5-.2-.2-.3-.4-.2-.8.3-1.6.6-3.2.9-4.9-.8-.2-1.5-.4-2.3-.6-1.9-.5-3.7-1.2-5.2-2.6-.1-.1-.2 0-.3-.1z" style="fill:#effe08;fill-opacity:.99892801"/><path fill="#000" d="M235 36.4h-.1v-.1s.1 0 .1.1" style="fill:#effe08;fill-opacity:.99892801"/><path fill="#fdfdfd" d="M247.5 27.6v-.1z" style="fill:#effe08;fill-opacity:.99892801"/><path fill="#f3ea02" stroke="#000" d="m234.2 58.3-.2-.2h-.4c-.1 0-.2 0-.3.1-.3.1-.7.2-1.1.3l-1.1.3-.8-2.1c-.3-.7-.5-1.3-.7-1.8-.1-.2-.1-.4-.2-.5 0 0 .1-.1.2-.1.2-.2.5-.5.9-.8s.7-.6.9-.8l.3-.3.1-.1.1-.1v-.7s-.1-.1-.1-.2c-.1-.1-.2-.3-.4-.5-.3-.4-.7-.9-1.2-1.4l-1.5-1.7.4-2.1q.15-1.05.3-1.8c0-.2.1-.4.1-.6v-.4c0-.3-.2-.5-.3-.6s-.3-.2-.5-.2c-.4-.1-.9-.3-1.7-.5-1.9-.5-3-1-5-2.2-.1-.1-.2-.1-.3-.2.1-.2.2-.4.4-.7.3-.5 1.4-2.3 2.4-4 .7-1.2 1.8-2.9 2.7-4.3.1-.2.3-.4.4-.6-.3 1.4-.4 3-.4 4.3v1.3c0 .3.1.7.4.9s.6.3 1 .4c.3.1.6.1 1.1.2.2 0 .3 0 .5.1.7.1 1.3.2 1.7.2h1s.1 0 .2-.1.2-.2.3-.4 0-.4-.1-.5l-.3-.3c-.1-.1-.2-.2-.4-.3-.3-.2-.4-.3-.5-.4s-.1-.2-.1-.4 0-.5.1-.9.3-1 .5-1.7l.5-1.7.8.9c.4.4.8.8 1.1 1.2.1.2.3.3.4.4 0 .1.1.1.1.1v.2c-.1.3-.2.7-.5 1.4-.2.5-.4.9-.5 1.3-.1.2-.1.3-.1.4v.4s0 .1.1.2.2.1.3.2h.2c.1 0 .1 0 .2-.1.1 0 .2-.1.4-.2q.45-.15 1.2-.6l1.3-.7 1.3.7c.7.4 1.2.6 1.5.7.1.1.3.1.5.1.1 0 .3 0 .4-.2.2-.1.2-.3.2-.4V36s0-.1-.1-.1c0-.1-.1-.2-.2-.4-.1-.3-.3-.8-.5-1.2l-.6-1.4 1.4-1.5c.4-.5.8-.9 1.1-1.1v.1c.1.4.3 1 .5 1.7.3 1.1.6 2 .7 2.4 0 0 0 .1-.1.1-.1.2-.3.4-.5.6-.2.3-.4.5-.5.7-.1.1-.1.2-.2.3 0 0 0 .1-.1.2v.2c0 .1 0 .2.1.4.1.1.2.1.2.1h.4c.1 0 .3 0 .6-.1.5-.1 1.1-.1 1.8-.2l2.5-.4.4-.1v-.4l-.1-2.7c0-1.6-.1-2.6-.2-3.4.1.2.2.3.4.5.9 1.3 2 3.1 3.1 4.8.7 1.1 1.3 2.1 1.8 2.9q.3.6.6.9c.1.1.1.2.2.3-.2.1-.4.3-.7.5-.6.4-1.4.8-2.1 1.1s-1.9.7-2.8.9q-.75.15-1.2.3c-.2 0-.3.1-.4.1h-.2s-.1 0-.1.1c-.1.1-.1.2-.1.2v.5c0 .1 0 .3.1.5.1.4.2 1 .3 1.6s.2 1.2.3 1.7c0 .2.1.5.1.6v.3s0 .1-.3.4c-.2.3-.6.8-1.3 1.5l-1.6 1.9-.3.4.4.3 1.3 1c.3.3.7.6.9.8.1.1.2.1.2.2v.1q-.15.3-.3.9c-.3.8-.7 1.9-1.2 3.2l-.1.3-1.1-.3c-.4-.1-.8-.2-1.1-.3-.1 0-.3-.1-.4-.1h-.3s-.1 0-.2.1c0 .1-.1.1-.1.1v.2c0 .1-.1.2-.1.4-.1.3-.2.7-.3 1.1-.2.9-.4 1.9-.5 2.2l-.1.2h-5.9l-.4-1.8c-.1-.6-.3-1.2-.3-1.6 0-.2-.1-.4-.1-.5v-.2zm1.5-25.4z" style="fill:#effe08;fill-opacity:.99892801"/></g></g></svg>