<svg xmlns="http://www.w3.org/2000/svg" width="400" height="550" fill="none"><path fill="#fff" stroke="#000" d="M.514.105h398.998v548.999H.514Z" style="display:inline;stroke-width:1.00182;stroke-linejoin:round"/><defs><clipPath id="b"><path fill="#fff" d="M153 27h34v38h-34z"/></clipPath><clipPath id="c"><path fill="#fff" d="M221 27h34v38h-34z"/></clipPath><clipPath id="d"><path fill="#fff" d="M153 27h34v38h-34z"/></clipPath><clipPath id="e"><path fill="#fff" d="M221 27h34v38h-34z"/></clipPath></defs><path d="M14.95 72.653h370.1v404.694H14.95Z" style="display:inline;fill:#13b4cb;fill-opacity:.41960785;stroke:#000;stroke-width:.999;stroke-opacity:.923913;stroke-dasharray:none;stroke-linejoin:round"/><path fill="none" d="M23 94.7h340.7V476H23z" style="display:inline;opacity:1;mix-blend-mode:normal;fill:#000;fill-opacity:0;stroke:none;stroke-width:1;stroke-dasharray:none;stroke-opacity:1;paint-order:normal"/><path d="M101.246 102.263c-1.272-1.53-31.144 41.933-46.37 67.464-10.194 17.096-21.134 35.37-24.31 40.608-3.177 5.24-5.745 10.024-5.707 10.633.038.608 2.873 2.766 6.3 4.793 20.833 12.323 32.347 17.378 52.18 22.903 15.7 4.373 21.504 6.65 21.504 8.44 0 1.348-2.125 13.378-4.723 26.734l-4.721 24.283 17.324 19.165c9.528 10.542 17.324 19.635 17.324 20.206s-6.005 5.97-13.344 12c-7.338 6.029-13.356 11.44-13.373 12.024-.018.584 4.38 12.55 9.771 26.588l9.802 25.524 15.763-3.755c8.67-2.065 15.855-3.615 15.97-3.44.114.173 2.443 10.438 5.174 22.81l4.964 22.493h68.93l1.458-6.136c.802-3.374 3.105-13.372 5.118-22.217s3.907-16.353 4.207-16.684c.301-.332 7.425 1.17 15.857 3.204l15.299 3.693 2.705-6.754c10.906-27.23 17.224-44.623 16.712-46.015-.332-.9-6.522-6.42-13.757-12.268l-13.156-10.635 16.926-18.964c13.04-14.61 16.93-19.965 16.93-23.32 0-2.396-2.004-14.78-4.45-27.52-2.448-12.74-4.282-23.313-4.077-23.497.205-.183 8.043-2.304 17.42-4.71 9.376-2.406 22.92-6.53 29.86-9.737 16.28-7.523 31.86-16.507 34.877-19.648.487-.507-.63-1.727-2.598-4.422-.506-.693-12.604-18.514-26.385-41.299-21.107-34.898-47.027-72.64-48.654-70.845-.245.27.964 6.318 2.689 13.44 2.38 9.831 3.316 19.659 3.887 40.829l.752 27.88-25.577 3.667c-14.067 2.016-25.926 3.283-26.352 2.812-.427-.47 2.724-4.943 7.003-9.936 4.279-4.992 7.483-9.968 7.12-11.06-.363-1.09-3.844-12.656-7.734-25.702s-7.513-24.261-8.05-24.921-8.28 6.883-17.205 16.762l-16.228 17.962 3.737 8.784c12.916 30.373 11.77 25.98 11.77 26.42 0 1.872-3.828.33-18.61-7.498l-15.665-8.297-16.286 8.495c-8.958 4.672-16.624 8.223-17.05 7.752-.427-.47 2.581-8.852 6.699-18.484 6.247-14.614 7.182-17.957 5.646-20.199-1.012-1.477-8.494-9.707-16.64-18.426l-14.807-15.853-8.034 25.89c-9.188 29.61-9.093 32.175 1.498 40.273 5.819 4.45 6.885 6.322 4.52 7.935-.701.478-12.332-.717-25.843-2.657-28.257-4.056-26.199-2.22-26.231-23.418-.026-16.464 2.17-36.12 5.781-51.72 1.533-6.621 2.64-12.213 2.46-12.43" style="display:inline;fill:#111440;fill-opacity:1;stroke-width:1.55728" transform="matrix(.99428 0 0 .99448 .843 -2.015)"><desc>tête taureau sans imperfection et symétrique</desc></path><path d="M101.556 100.62c-1.267-1.529-31.021 41.916-46.186 67.438-10.154 17.088-21.051 35.354-24.215 40.591s-5.722 10.02-5.684 10.628 2.862 2.765 6.275 4.791c20.751 12.318 32.22 17.372 51.973 22.894 15.638 4.371 21.42 6.648 21.42 8.436 0 1.348-2.117 13.373-4.705 26.723l-4.702 24.273 17.255 19.158c9.49 10.537 17.256 19.627 17.256 20.197s-5.982 5.968-13.29 11.995c-7.31 6.027-13.304 11.435-13.322 12.02-.017.583 4.363 12.544 9.733 26.576l9.763 25.514 15.701-3.753c8.635-2.065 15.792-3.614 15.906-3.44s2.434 10.434 5.154 22.8l4.944 22.485h68.658l1.452-6.133c.798-3.373 3.092-13.366 5.098-22.208s3.89-16.346 4.19-16.678c.3-.331 7.395 1.17 15.794 3.204l15.238 3.69 2.695-6.75c10.863-27.218 17.156-44.604 16.645-45.996-.33-.9-6.495-6.417-13.702-12.263l-13.104-10.63 16.86-18.957c12.988-14.604 16.861-19.957 16.861-23.31 0-2.396-1.994-14.775-4.432-27.51s-4.264-23.303-4.06-23.486c.204-.184 8.011-2.303 17.35-4.709s22.83-6.528 29.743-9.733c16.216-7.52 31.733-16.5 34.739-19.64.484-.506-.628-1.726-2.587-4.42-.505-.693-12.555-18.506-26.281-41.282-21.024-34.883-46.842-72.61-48.462-70.816-.244.27.96 6.315 2.678 13.434 2.372 9.828 3.303 19.651 3.872 40.813l.75 27.868-25.477 3.666c-14.011 2.016-25.823 3.282-26.248 2.811-.425-.47 2.714-4.941 6.976-9.932 4.262-4.99 7.454-9.964 7.092-11.055s-3.829-12.651-7.704-25.692-7.483-24.252-8.018-24.911-8.247 6.88-17.137 16.755l-16.164 17.955 3.723 8.78c12.865 30.361 11.722 25.97 11.722 26.41 0 1.871-3.811.33-18.534-7.496l-15.604-8.293-16.222 8.492c-8.922 4.67-16.558 8.219-16.983 7.748s2.572-8.848 6.673-18.476c6.222-14.608 7.154-17.95 5.624-20.19-1.008-1.478-8.46-9.703-16.573-18.42l-14.75-15.846-8.001 25.879c-9.152 29.6-9.057 32.162 1.49 40.257 5.797 4.448 6.86 6.32 4.503 7.932-.698.478-12.283-.717-25.74-2.656-28.145-4.054-26.095-2.219-26.128-23.408-.025-16.458 2.163-36.105 5.759-51.7 1.526-6.618 2.629-12.208 2.45-12.424" style="display:inline;fill:#0404e2;fill-opacity:1;stroke-width:1.55389" transform="matrix(.99428 0 0 .99448 .843 -2.015)"><desc>tête taureau sans imperfection et symétrique</desc></path><path d="M102.586 99.781c-1.25-1.493-30.612 40.917-45.578 65.83-10.02 16.681-20.773 34.512-23.895 39.624s-5.647 9.78-5.61 10.375c.038.594 2.824 2.699 6.193 4.677 20.478 12.025 31.795 16.957 51.288 22.348 15.432 4.267 21.138 6.49 21.138 8.236 0 1.315-2.09 13.054-4.642 26.085l-4.64 23.695 17.027 18.7c9.366 10.287 17.028 19.16 17.028 19.717s-5.902 5.826-13.115 11.709-13.128 11.163-13.146 11.733c-.017.57 4.305 12.245 9.605 25.944l9.635 24.906 15.494-3.664c8.52-2.016 15.583-3.528 15.696-3.358s2.402 10.186 5.086 22.257l4.88 21.949h67.753l1.433-5.987c.787-3.293 3.051-13.048 5.03-21.679s3.84-15.956 4.136-16.28c.295-.324 7.297 1.141 15.586 3.127l15.037 3.603 2.659-6.59c10.72-26.57 16.93-43.541 16.426-44.9-.325-.878-6.41-6.264-13.522-11.97l-12.931-10.378 16.637-18.505c12.818-14.255 16.64-19.48 16.64-22.755 0-2.337-1.968-14.422-4.374-26.853s-4.208-22.748-4.007-22.927c.202-.18 7.906-2.248 17.123-4.596 9.216-2.348 22.53-6.372 29.35-9.502 16.003-7.34 31.315-16.106 34.282-19.171.478-.495-.62-1.685-2.553-4.315-.498-.677-12.39-18.066-25.935-40.298-20.747-34.052-46.225-70.88-47.824-69.129-.24.264.948 6.165 2.643 13.114 2.34 9.594 3.26 19.183 3.821 39.84l.74 27.204-25.14 3.579c-13.828 1.968-25.484 3.204-25.903 2.744-.42-.46 2.678-4.823 6.884-9.695 4.205-4.872 7.355-9.727 6.998-10.791s-3.778-12.35-7.602-25.08-7.385-23.674-7.913-24.318-8.138 6.716-16.91 16.356l-15.952 17.526 3.674 8.572c12.695 29.637 11.568 25.351 11.568 25.78 0 1.827-3.762.322-18.291-7.317l-15.398-8.096-16.008 8.29c-8.805 4.559-16.34 8.023-16.76 7.564-.419-.46 2.538-8.637 6.586-18.036 6.14-14.26 7.06-17.522 5.55-19.71-.996-1.441-8.35-9.471-16.356-17.98l-14.555-15.468-7.896 25.262c-9.031 28.894-8.938 31.395 1.472 39.298 5.72 4.342 6.768 6.168 4.443 7.742-.69.467-12.122-.7-25.402-2.592-27.774-3.958-25.751-2.166-25.783-22.85-.025-16.066 2.134-35.245 5.682-50.468 1.507-6.46 2.595-11.917 2.418-12.128" style="display:inline;fill:#111440;fill-opacity:1;stroke-width:1.52512" transform="matrix(.99428 0 0 .99448 .843 -2.015)"><desc>tête taureau sans imperfection et symétrique</desc></path><path d="M50.428 115.817q-2.68 0-3.982.6-1.301.572-1.952 1.092.547.052 1.197.286.677.209 1.224.651.572.416.937 1.171.39.729.39 1.848 0 2.082-1.51 3.331-1.483 1.25-4.372 1.25-1.38 0-2.628-.417-1.25-.442-2.213-1.301-.963-.885-1.535-2.16-.547-1.302-.547-3.045 0-2.447 1.224-4.45 1.223-2.005 3.513-3.436 2.29-1.457 5.543-2.212 3.254-.78 7.314-.78 3.357 0 6.61.52 3.253.494 5.778 1.717t4.06 3.227q1.561 2.004 1.561 4.92 0 3.643-2.16 5.855t-6.532 2.94v.287q4.372.52 7.053 2.837 2.706 2.316 2.706 6.688 0 1.874-.989 3.826-.989 1.926-3.253 3.514-2.264 1.561-5.934 2.576t-9.005 1.015q-5.074 0-8.614-1.067t-5.752-2.733q-2.212-1.691-3.2-3.825-.99-2.134-.99-4.32 0-1.744.52-3.124.547-1.405 1.484-2.342t2.186-1.405 2.629-.469q1.77 0 2.967.469t1.9 1.197q.728.729 1.04 1.613.34.86.34 1.666 0 2.186-1.328 3.357-1.301 1.171-2.889 1.666 2.603 1.588 7.027 1.588 3.643 0 5.335-1.38 1.718-1.38 1.718-3.956 0-1.275-.52-2.186-.495-.91-1.328-1.457-.833-.573-1.9-.833t-2.134-.26h-1.848v-5.648h1.848q2.577 0 3.852-1.275t1.275-2.993q0-1.327-.52-2.238-.495-.911-1.328-1.432-.807-.546-1.926-.754-1.119-.209-2.342-.209zm38.414 24.88q3.513 0 5.257-1.847 1.77-1.874 1.77-4.763 0-3.019-1.953-4.606-1.925-1.614-5.23-1.614-2.187 0-3.514.443-1.327.442-1.978.728h-6.506v-20.794h1.119q2.03.364 3.591.599 1.588.208 3.175.312 1.614.104 3.436.13 1.847.026 4.346.026 2.94 0 5.179-.052 2.238-.052 3.956-.156 1.744-.104 3.123-.312 1.38-.235 2.628-.547l1.276.52q-.547 2.265-1.432 4.19-.859 1.9-2.602 3.254-1.718 1.353-4.633 2.134t-7.443.78q-2.655 0-4.138-.13-1.457-.13-2.42-.364v3.462q.494-.157 1.015-.26.546-.105 1.249-.209.729-.104 1.691-.156t2.29-.052q4.998 0 8.38 1.093 3.41 1.093 5.414 2.993 2.03 1.874 2.889 4.372.859 2.473.859 5.231 0 2.837-1.093 5.205-1.093 2.369-3.358 4.138-2.264 1.744-5.751 2.733-3.462.989-8.25.989-8.042 0-12.57-2.785-4.529-2.81-4.529-7.937 0-1.848.573-3.228.598-1.405 1.561-2.264.963-.885 2.186-1.301 1.224-.442 2.447-.442 3.045 0 4.528 1.275 1.484 1.275 1.484 3.305t-1.172 3.071-2.758 1.51q1.275.65 2.706.988 1.432.339 3.202.339z" aria-label="35" style="font-size:53.3px;font-family:Ultra;-inkscape-font-specification:Ultra;white-space:pre;inline-size:170.864;fill:#0037e8;stroke:#f9fff4;stroke-width:1.78695;stroke-opacity:.996" transform="matrix(1.31134 0 0 1.29698 -15.874 -128.527)"/><path d="M50.428 115.817q-2.68 0-3.982.6-1.301.572-1.952 1.092.547.052 1.197.286.677.209 1.224.651.572.416.937 1.171.39.729.39 1.848 0 2.082-1.51 3.331-1.483 1.25-4.372 1.25-1.38 0-2.628-.417-1.25-.442-2.213-1.301-.963-.885-1.535-2.16-.547-1.302-.547-3.045 0-2.447 1.224-4.45 1.223-2.005 3.513-3.436 2.29-1.457 5.543-2.212 3.254-.78 7.314-.78 3.357 0 6.61.52 3.253.494 5.778 1.717t4.06 3.227q1.561 2.004 1.561 4.92 0 3.643-2.16 5.855t-6.532 2.94v.287q4.372.52 7.053 2.837 2.706 2.316 2.706 6.688 0 1.874-.989 3.826-.989 1.926-3.253 3.514-2.264 1.561-5.934 2.576t-9.005 1.015q-5.074 0-8.614-1.067t-5.752-2.733q-2.212-1.691-3.2-3.825-.99-2.134-.99-4.32 0-1.744.52-3.124.547-1.405 1.484-2.342t2.186-1.405 2.629-.469q1.77 0 2.967.469t1.9 1.197q.728.729 1.04 1.613.34.86.34 1.666 0 2.186-1.328 3.357-1.301 1.171-2.889 1.666 2.603 1.588 7.027 1.588 3.643 0 5.335-1.38 1.718-1.38 1.718-3.956 0-1.275-.52-2.186-.495-.91-1.328-1.457-.833-.573-1.9-.833t-2.134-.26h-1.848v-5.648h1.848q2.577 0 3.852-1.275t1.275-2.993q0-1.327-.52-2.238-.495-.911-1.328-1.432-.807-.546-1.926-.754-1.119-.209-2.342-.209zm38.414 24.88q3.513 0 5.257-1.847 1.77-1.874 1.77-4.763 0-3.019-1.953-4.606-1.925-1.614-5.23-1.614-2.187 0-3.514.443-1.327.442-1.978.728h-6.506v-20.794h1.119q2.03.364 3.591.599 1.588.208 3.175.312 1.614.104 3.436.13 1.847.026 4.346.026 2.94 0 5.179-.052 2.238-.052 3.956-.156 1.744-.104 3.123-.312 1.38-.235 2.628-.547l1.276.52q-.547 2.265-1.432 4.19-.859 1.9-2.602 3.254-1.718 1.353-4.633 2.134t-7.443.78q-2.655 0-4.138-.13-1.457-.13-2.42-.364v3.462q.494-.157 1.015-.26.546-.105 1.249-.209.729-.104 1.691-.156t2.29-.052q4.998 0 8.38 1.093 3.41 1.093 5.414 2.993 2.03 1.874 2.889 4.372.859 2.473.859 5.231 0 2.837-1.093 5.205-1.093 2.369-3.358 4.138-2.264 1.744-5.751 2.733-3.462.989-8.25.989-8.042 0-12.57-2.785-4.529-2.81-4.529-7.937 0-1.848.573-3.228.598-1.405 1.561-2.264.963-.885 2.186-1.301 1.224-.442 2.447-.442 3.045 0 4.528 1.275 1.484 1.275 1.484 3.305t-1.172 3.071-2.758 1.51q1.275.65 2.706.988 1.432.339 3.202.339z" aria-label="35" style="font-size:53.3px;font-family:Ultra;-inkscape-font-specification:Ultra;white-space:pre;inline-size:170.864;fill:#0037e8;stroke:#fff;stroke-width:1.76406;stroke-opacity:.996" transform="matrix(1.30215 0 0 1.29791 228.589 -129.421)"/><path d="M50.428 115.817q-2.68 0-3.982.6-1.301.572-1.952 1.092.547.052 1.197.286.677.209 1.224.651.572.416.937 1.171.39.729.39 1.848 0 2.082-1.51 3.331-1.483 1.25-4.372 1.25-1.38 0-2.628-.417-1.25-.442-2.213-1.301-.963-.885-1.535-2.16-.547-1.302-.547-3.045 0-2.447 1.224-4.45 1.223-2.005 3.513-3.436 2.29-1.457 5.543-2.212 3.254-.78 7.314-.78 3.357 0 6.61.52 3.253.494 5.778 1.717t4.06 3.227q1.561 2.004 1.561 4.92 0 3.643-2.16 5.855t-6.532 2.94v.287q4.372.52 7.053 2.837 2.706 2.316 2.706 6.688 0 1.874-.989 3.826-.989 1.926-3.253 3.514-2.264 1.561-5.934 2.576t-9.005 1.015q-5.074 0-8.614-1.067t-5.752-2.733q-2.212-1.691-3.2-3.825-.99-2.134-.99-4.32 0-1.744.52-3.124.547-1.405 1.484-2.342t2.186-1.405 2.629-.469q1.77 0 2.967.469t1.9 1.197q.728.729 1.04 1.613.34.86.34 1.666 0 2.186-1.328 3.357-1.301 1.171-2.889 1.666 2.603 1.588 7.027 1.588 3.643 0 5.335-1.38 1.718-1.38 1.718-3.956 0-1.275-.52-2.186-.495-.91-1.328-1.457-.833-.573-1.9-.833t-2.134-.26h-1.848v-5.648h1.848q2.577 0 3.852-1.275t1.275-2.993q0-1.327-.52-2.238-.495-.911-1.328-1.432-.807-.546-1.926-.754-1.119-.209-2.342-.209zm38.414 24.88q3.513 0 5.257-1.847 1.77-1.874 1.77-4.763 0-3.019-1.953-4.606-1.925-1.614-5.23-1.614-2.187 0-3.514.443-1.327.442-1.978.728h-6.506v-20.794h1.119q2.03.364 3.591.599 1.588.208 3.175.312 1.614.104 3.436.13 1.847.026 4.346.026 2.94 0 5.179-.052 2.238-.052 3.956-.156 1.744-.104 3.123-.312 1.38-.235 2.628-.547l1.276.52q-.547 2.265-1.432 4.19-.859 1.9-2.602 3.254-1.718 1.353-4.633 2.134t-7.443.78q-2.655 0-4.138-.13-1.457-.13-2.42-.364v3.462q.494-.157 1.015-.26.546-.105 1.249-.209.729-.104 1.691-.156t2.29-.052q4.998 0 8.38 1.093 3.41 1.093 5.414 2.993 2.03 1.874 2.889 4.372.859 2.473.859 5.231 0 2.837-1.093 5.205-1.093 2.369-3.358 4.138-2.264 1.744-5.751 2.733-3.462.989-8.25.989-8.042 0-12.57-2.785-4.529-2.81-4.529-7.937 0-1.848.573-3.228.598-1.405 1.561-2.264.963-.885 2.186-1.301 1.224-.442 2.447-.442 3.045 0 4.528 1.275 1.484 1.275 1.484 3.305t-1.172 3.071-2.758 1.51q1.275.65 2.706.988 1.432.339 3.202.339z" aria-label="35" style="font-size:53.3px;font-family:Ultra;-inkscape-font-specification:Ultra;white-space:pre;inline-size:170.864;fill:#0037e8;stroke:#fff;stroke-width:1.79168;stroke-opacity:.996" transform="matrix(-1.30158 0 0 -1.29705 170.672 679.019)"/><path d="M50.428 115.817q-2.68 0-3.982.6-1.301.572-1.952 1.092.547.052 1.197.286.677.209 1.224.651.572.416.937 1.171.39.729.39 1.848 0 2.082-1.51 3.331-1.483 1.25-4.372 1.25-1.38 0-2.628-.417-1.25-.442-2.213-1.301-.963-.885-1.535-2.16-.547-1.302-.547-3.045 0-2.447 1.224-4.45 1.223-2.005 3.513-3.436 2.29-1.457 5.543-2.212 3.254-.78 7.314-.78 3.357 0 6.61.52 3.253.494 5.778 1.717t4.06 3.227q1.561 2.004 1.561 4.92 0 3.643-2.16 5.855t-6.532 2.94v.287q4.372.52 7.053 2.837 2.706 2.316 2.706 6.688 0 1.874-.989 3.826-.989 1.926-3.253 3.514-2.264 1.561-5.934 2.576t-9.005 1.015q-5.074 0-8.614-1.067t-5.752-2.733q-2.212-1.691-3.2-3.825-.99-2.134-.99-4.32 0-1.744.52-3.124.547-1.405 1.484-2.342t2.186-1.405 2.629-.469q1.77 0 2.967.469t1.9 1.197q.728.729 1.04 1.613.34.86.34 1.666 0 2.186-1.328 3.357-1.301 1.171-2.889 1.666 2.603 1.588 7.027 1.588 3.643 0 5.335-1.38 1.718-1.38 1.718-3.956 0-1.275-.52-2.186-.495-.91-1.328-1.457-.833-.573-1.9-.833t-2.134-.26h-1.848v-5.648h1.848q2.577 0 3.852-1.275t1.275-2.993q0-1.327-.52-2.238-.495-.911-1.328-1.432-.807-.546-1.926-.754-1.119-.209-2.342-.209zm38.414 24.88q3.513 0 5.257-1.847 1.77-1.874 1.77-4.763 0-3.019-1.953-4.606-1.925-1.614-5.23-1.614-2.187 0-3.514.443-1.327.442-1.978.728h-6.506v-20.794h1.119q2.03.364 3.591.599 1.588.208 3.175.312 1.614.104 3.436.13 1.847.026 4.346.026 2.94 0 5.179-.052 2.238-.052 3.956-.156 1.744-.104 3.123-.312 1.38-.235 2.628-.547l1.276.52q-.547 2.265-1.432 4.19-.859 1.9-2.602 3.254-1.718 1.353-4.633 2.134t-7.443.78q-2.655 0-4.138-.13-1.457-.13-2.42-.364v3.462q.494-.157 1.015-.26.546-.105 1.249-.209.729-.104 1.691-.156t2.29-.052q4.998 0 8.38 1.093 3.41 1.093 5.414 2.993 2.03 1.874 2.889 4.372.859 2.473.859 5.231 0 2.837-1.093 5.205-1.093 2.369-3.358 4.138-2.264 1.744-5.751 2.733-3.462.989-8.25.989-8.042 0-12.57-2.785-4.529-2.81-4.529-7.937 0-1.848.573-3.228.598-1.405 1.561-2.264.963-.885 2.186-1.301 1.224-.442 2.447-.442 3.045 0 4.528 1.275 1.484 1.275 1.484 3.305t-1.172 3.071-2.758 1.51q1.275.65 2.706.988 1.432.339 3.202.339z" aria-label="35" style="font-size:53.3px;font-family:Ultra;-inkscape-font-specification:Ultra;white-space:pre;inline-size:170.864;fill:#0037e8;stroke:#fff;stroke-width:1.79845;stroke-opacity:.996" transform="matrix(-1.30144 0 0 -1.29683 416.004 679.29)"/><path d="M50.428 115.817q-2.68 0-3.982.6-1.301.572-1.952 1.092.547.052 1.197.286.677.209 1.224.651.572.416.937 1.171.39.729.39 1.848 0 2.082-1.51 3.331-1.483 1.25-4.372 1.25-1.38 0-2.628-.417-1.25-.442-2.213-1.301-.963-.885-1.535-2.16-.547-1.302-.547-3.045 0-2.447 1.224-4.45 1.223-2.005 3.513-3.436 2.29-1.457 5.543-2.212 3.254-.78 7.314-.78 3.357 0 6.61.52 3.253.494 5.778 1.717t4.06 3.227q1.561 2.004 1.561 4.92 0 3.643-2.16 5.855t-6.532 2.94v.287q4.372.52 7.053 2.837 2.706 2.316 2.706 6.688 0 1.874-.989 3.826-.989 1.926-3.253 3.514-2.264 1.561-5.934 2.576t-9.005 1.015q-5.074 0-8.614-1.067t-5.752-2.733q-2.212-1.691-3.2-3.825-.99-2.134-.99-4.32 0-1.744.52-3.124.547-1.405 1.484-2.342t2.186-1.405 2.629-.469q1.77 0 2.967.469t1.9 1.197q.728.729 1.04 1.613.34.86.34 1.666 0 2.186-1.328 3.357-1.301 1.171-2.889 1.666 2.603 1.588 7.027 1.588 3.643 0 5.335-1.38 1.718-1.38 1.718-3.956 0-1.275-.52-2.186-.495-.91-1.328-1.457-.833-.573-1.9-.833t-2.134-.26h-1.848v-5.648h1.848q2.577 0 3.852-1.275t1.275-2.993q0-1.327-.52-2.238-.495-.911-1.328-1.432-.807-.546-1.926-.754-1.119-.209-2.342-.209zm38.414 24.88q3.513 0 5.257-1.847 1.77-1.874 1.77-4.763 0-3.019-1.953-4.606-1.925-1.614-5.23-1.614-2.187 0-3.514.443-1.327.442-1.978.728h-6.506v-20.794h1.119q2.03.364 3.591.599 1.588.208 3.175.312 1.614.104 3.436.13 1.847.026 4.346.026 2.94 0 5.179-.052 2.238-.052 3.956-.156 1.744-.104 3.123-.312 1.38-.235 2.628-.547l1.276.52q-.547 2.265-1.432 4.19-.859 1.9-2.602 3.254-1.718 1.353-4.633 2.134t-7.443.78q-2.655 0-4.138-.13-1.457-.13-2.42-.364v3.462q.494-.157 1.015-.26.546-.105 1.249-.209.729-.104 1.691-.156t2.29-.052q4.998 0 8.38 1.093 3.41 1.093 5.414 2.993 2.03 1.874 2.889 4.372.859 2.473.859 5.231 0 2.837-1.093 5.205-1.093 2.369-3.358 4.138-2.264 1.744-5.751 2.733-3.462.989-8.25.989-8.042 0-12.57-2.785-4.529-2.81-4.529-7.937 0-1.848.573-3.228.598-1.405 1.561-2.264.963-.885 2.186-1.301 1.224-.442 2.447-.442 3.045 0 4.528 1.275 1.484 1.275 1.484 3.305t-1.172 3.071-2.758 1.51q1.275.65 2.706.988 1.432.339 3.202.339z" aria-label="35" style="font-size:53.3px;font-family:Ultra;-inkscape-font-specification:Ultra;white-space:pre;inline-size:170.864;fill:#00d5f4;stroke:#111440;stroke-width:1.40966" transform="matrix(2.21267 0 0 2.65442 40.681 -65.312)"/><g clip-path="url(#b)" style="fill:#0adceb;fill-opacity:.929412" transform="matrix(-1.0417 0 0 -1.0197 395.025 566.26)"><path fill="#fdfdfd" d="M153.1 39.5V39c.2-.2.3-.4.5-.6 1.2-2.1 2.4-4.3 3.7-6.4 1-1.6 2.2-3.1 3.3-4.6.1 0 .1.1.2.1-.9 2.7-1.1 5.5-.9 8.4 1.6.2 3.2.5 4.8.7 0-.1.1-.2.1-.2-.2-.1-.3-.3-.5-.4-1-.7-1.1-1.6-.6-2.8.5-1.3.8-2.7 1.3-4.1 1.1 1.2 2 2.3 3.1 3.4.3.3.3.5.1.9-.5 1-.9 2-1.3 3v.1h.2l2.7-1.5c.2-.1.5-.1.7 0 .8.4 1.6.9 2.4 1.3.1.1.3.1.6.2-.6-1.3-1.1-2.5-1.6-3.6 1.1-1.3 2.3-2.5 3.4-3.8.5 1.8 1.1 3.6 1.6 5.4 0 .1-.1.4-.2.5-.4.5-.8 1-1.3 1.5l.1.1c1.6-.2 3.3-.5 4.9-.7.2-2.9 0-5.6-.8-8.3 0 0 .1-.1.1 0 .9 1.2 1.9 2.3 2.7 3.5 1.6 2.5 3 5.1 4.5 7.6l.3.3v.5c-1.8 1.5-3.8 2.3-5.9 2.8-.6.2-1.2.3-1.9.4.3 1.7.6 3.3.9 4.9 0 .2 0 .6-.2.8l-1.8 2.1c-.4.5-.9.9-1.3 1.4.9.7 1.7 1.4 2.5 2.1.1.1.2.4.2.5-.6 1.7-1.3 3.3-1.9 5-1-.3-2-.5-3-.7-.3 1.5-.7 3-1 4.5H167c-.3-1.5-.7-3-1-4.5-1.1.3-2 .5-3.1.7-.7-1.8-1.4-3.6-2-5.3.9-.8 1.8-1.5 2.7-2.3-1.1-1.2-2.1-2.3-3.1-3.5-.2-.2-.3-.4-.2-.8.3-1.6.6-3.2.9-4.9-.8-.2-1.5-.4-2.3-.6-1.9-.5-3.7-1.2-5.2-2.6-.1-.1-.2 0-.3-.1z" style="fill:#0adceb;fill-opacity:.929412"/><path fill="#000" d="M167 36.4h-.1v-.1s.1 0 .1.1" style="fill:#0adceb;fill-opacity:.929412"/><path fill="#fdfdfd" d="M179.5 27.6v-.1z" style="fill:#0adceb;fill-opacity:.929412"/><path fill="#f3ea02" stroke="#000" d="m166.2 58.3-.2-.2h-.4c-.1 0-.2 0-.3.1-.3.1-.7.2-1.1.3l-1.1.3-.8-2.1c-.3-.7-.5-1.3-.7-1.8-.1-.2-.1-.4-.2-.5 0 0 .1-.1.2-.1.2-.2.5-.5.9-.8s.7-.6.9-.8l.3-.3.1-.1.1-.1v-.7s-.1-.1-.1-.2c-.1-.1-.2-.3-.4-.5-.3-.4-.7-.9-1.2-1.4l-1.5-1.7.4-2.1q.15-1.05.3-1.8c0-.2.1-.4.1-.6v-.4c0-.3-.2-.5-.3-.6s-.3-.2-.5-.2c-.4-.1-.9-.3-1.7-.5-1.9-.5-3-1-5-2.2-.1-.1-.2-.1-.3-.2.1-.2.2-.4.4-.7.3-.5 1.4-2.3 2.4-4 .7-1.2 1.8-2.9 2.7-4.3.1-.2.3-.4.4-.6-.3 1.4-.4 3-.4 4.3v1.3c0 .3.1.7.4.9s.6.3 1 .4c.3.1.6.1 1.1.2.2 0 .3 0 .5.1.7.1 1.3.2 1.7.2h1s.1 0 .2-.1.2-.2.3-.4 0-.4-.1-.5l-.3-.3c-.1-.1-.2-.2-.4-.3-.3-.2-.4-.3-.5-.4s-.1-.2-.1-.4 0-.5.1-.9.3-1 .5-1.7l.5-1.7.8.9c.4.4.8.8 1.1 1.2.1.2.3.3.4.4 0 .1.1.1.1.1v.2c-.1.3-.2.7-.5 1.4-.2.5-.4.9-.5 1.3-.1.2-.1.3-.1.4v.4s0 .1.1.2.2.1.3.2h.2c.1 0 .1 0 .2-.1.1 0 .2-.1.4-.2q.45-.15 1.2-.6l1.3-.7 1.3.7c.7.4 1.2.6 1.5.7.1.1.3.1.5.1.1 0 .3 0 .4-.2.2-.1.2-.3.2-.4V36s0-.1-.1-.1c0-.1-.1-.2-.2-.4-.1-.3-.3-.8-.5-1.2l-.6-1.4 1.4-1.5c.4-.5.8-.9 1.1-1.1v.1c.1.4.3 1 .5 1.7.3 1.1.6 2 .7 2.4 0 0 0 .1-.1.1-.1.2-.3.4-.5.6-.2.3-.4.5-.5.7-.1.1-.1.2-.2.3 0 0 0 .1-.1.2v.2c0 .1 0 .2.1.4.1.1.2.1.2.1h.4c.1 0 .3 0 .6-.1.5-.1 1.1-.1 1.8-.2l2.5-.4.4-.1v-.4l-.1-2.7c0-1.6-.1-2.6-.2-3.4.1.2.2.3.4.5.9 1.3 2 3.1 3.1 4.8.7 1.1 1.3 2.1 1.8 2.9q.3.6.6.9c.1.1.1.2.2.3-.2.1-.4.3-.7.5-.6.4-1.4.8-2.1 1.1s-1.9.7-2.8.9q-.75.15-1.2.3c-.2 0-.3.1-.4.1h-.2s-.1 0-.1.1c-.1.1-.1.2-.1.2v.5c0 .1 0 .3.1.5.1.4.2 1 .3 1.6s.2 1.2.3 1.7c0 .2.1.5.1.6v.3s0 .1-.3.4c-.2.3-.6.8-1.3 1.5l-1.6 1.9-.3.4.4.3 1.3 1c.3.3.7.6.9.8.1.1.2.1.2.2v.1q-.15.3-.3.9c-.3.8-.7 1.9-1.2 3.2l-.1.3-1.1-.3c-.4-.1-.8-.2-1.1-.3-.1 0-.3-.1-.4-.1h-.3s-.1 0-.2.1c0 .1-.1.1-.1.1v.2c0 .1-.1.2-.1.4-.1.3-.2.7-.3 1.1-.2.9-.4 1.9-.5 2.2l-.1.2h-5.9l-.4-1.8c-.1-.6-.3-1.2-.3-1.6 0-.2-.1-.4-.1-.5v-.2zm1.5-25.4z" style="fill:#0adceb;fill-opacity:.929412"/></g><g clip-path="url(#c)" style="fill:#0adceb;fill-opacity:.929412" transform="matrix(-1.03128 0 0 -1.02462 427.428 566.425)"><path fill="#fdfdfd" d="M221.1 39.5V39c.2-.2.3-.4.5-.6 1.2-2.1 2.4-4.3 3.7-6.4 1-1.6 2.2-3.1 3.3-4.6.1 0 .1.1.2.1-.9 2.7-1.1 5.5-.9 8.4 1.6.2 3.2.5 4.8.7 0-.1.1-.2.1-.2-.2-.1-.3-.3-.5-.4-1-.7-1.1-1.6-.6-2.8.5-1.3.8-2.7 1.3-4.1 1.1 1.2 2 2.3 3.1 3.4.3.3.3.5.1.9-.5 1-.9 2-1.3 3v.1h.2l2.7-1.5c.2-.1.5-.1.7 0 .8.4 1.6.9 2.4 1.3.1.1.3.1.6.2-.6-1.3-1.1-2.5-1.6-3.6 1.1-1.3 2.3-2.5 3.4-3.8.5 1.8 1.1 3.6 1.6 5.4 0 .1-.1.4-.2.5-.4.5-.8 1-1.3 1.5l.1.1c1.6-.2 3.3-.5 4.9-.7.2-2.9 0-5.6-.8-8.3 0 0 .1-.1.1 0 .9 1.2 1.9 2.3 2.7 3.5 1.6 2.5 3 5.1 4.5 7.6l.3.3v.5c-1.8 1.5-3.8 2.3-5.9 2.8-.6.2-1.2.3-1.9.4.3 1.7.6 3.3.9 4.9 0 .2 0 .6-.2.8l-1.8 2.1c-.4.5-.9.9-1.3 1.4.9.7 1.7 1.4 2.5 2.1.1.1.2.4.2.5-.6 1.7-1.3 3.3-1.9 5-1-.3-2-.5-3-.7-.3 1.5-.7 3-1 4.5H235c-.3-1.5-.7-3-1-4.5-1.1.3-2 .5-3.1.7-.7-1.8-1.4-3.6-2-5.3.9-.8 1.8-1.5 2.7-2.3-1.1-1.2-2.1-2.3-3.1-3.5-.2-.2-.3-.4-.2-.8.3-1.6.6-3.2.9-4.9-.8-.2-1.5-.4-2.3-.6-1.9-.5-3.7-1.2-5.2-2.6-.1-.1-.2 0-.3-.1z" style="fill:#0adceb;fill-opacity:.929412"/><path fill="#000" d="M235 36.4h-.1v-.1s.1 0 .1.1" style="fill:#0adceb;fill-opacity:.929412"/><path fill="#fdfdfd" d="M247.5 27.6v-.1z" style="fill:#0adceb;fill-opacity:.929412"/><path fill="#f3ea02" stroke="#000" d="m234.2 58.3-.2-.2h-.4c-.1 0-.2 0-.3.1-.3.1-.7.2-1.1.3l-1.1.3-.8-2.1c-.3-.7-.5-1.3-.7-1.8-.1-.2-.1-.4-.2-.5 0 0 .1-.1.2-.1.2-.2.5-.5.9-.8s.7-.6.9-.8l.3-.3.1-.1.1-.1v-.7s-.1-.1-.1-.2c-.1-.1-.2-.3-.4-.5-.3-.4-.7-.9-1.2-1.4l-1.5-1.7.4-2.1q.15-1.05.3-1.8c0-.2.1-.4.1-.6v-.4c0-.3-.2-.5-.3-.6s-.3-.2-.5-.2c-.4-.1-.9-.3-1.7-.5-1.9-.5-3-1-5-2.2-.1-.1-.2-.1-.3-.2.1-.2.2-.4.4-.7.3-.5 1.4-2.3 2.4-4 .7-1.2 1.8-2.9 2.7-4.3.1-.2.3-.4.4-.6-.3 1.4-.4 3-.4 4.3v1.3c0 .3.1.7.4.9s.6.3 1 .4c.3.1.6.1 1.1.2.2 0 .3 0 .5.1.7.1 1.3.2 1.7.2h1s.1 0 .2-.1.2-.2.3-.4 0-.4-.1-.5l-.3-.3c-.1-.1-.2-.2-.4-.3-.3-.2-.4-.3-.5-.4s-.1-.2-.1-.4 0-.5.1-.9.3-1 .5-1.7l.5-1.7.8.9c.4.4.8.8 1.1 1.2.1.2.3.3.4.4 0 .1.1.1.1.1v.2c-.1.3-.2.7-.5 1.4-.2.5-.4.9-.5 1.3-.1.2-.1.3-.1.4v.4s0 .1.1.2.2.1.3.2h.2c.1 0 .1 0 .2-.1.1 0 .2-.1.4-.2q.45-.15 1.2-.6l1.3-.7 1.3.7c.7.4 1.2.6 1.5.7.1.1.3.1.5.1.1 0 .3 0 .4-.2.2-.1.2-.3.2-.4V36s0-.1-.1-.1c0-.1-.1-.2-.2-.4-.1-.3-.3-.8-.5-1.2l-.6-1.4 1.4-1.5c.4-.5.8-.9 1.1-1.1v.1c.1.4.3 1 .5 1.7.3 1.1.6 2 .7 2.4 0 0 0 .1-.1.1-.1.2-.3.4-.5.6-.2.3-.4.5-.5.7-.1.1-.1.2-.2.3 0 0 0 .1-.1.2v.2c0 .1 0 .2.1.4.1.1.2.1.2.1h.4c.1 0 .3 0 .6-.1.5-.1 1.1-.1 1.8-.2l2.5-.4.4-.1v-.4l-.1-2.7c0-1.6-.1-2.6-.2-3.4.1.2.2.3.4.5.9 1.3 2 3.1 3.1 4.8.7 1.1 1.3 2.1 1.8 2.9q.3.6.6.9c.1.1.1.2.2.3-.2.1-.4.3-.7.5-.6.4-1.4.8-2.1 1.1s-1.9.7-2.8.9q-.75.15-1.2.3c-.2 0-.3.1-.4.1h-.2s-.1 0-.1.1c-.1.1-.1.2-.1.2v.5c0 .1 0 .3.1.5.1.4.2 1 .3 1.6s.2 1.2.3 1.7c0 .2.1.5.1.6v.3s0 .1-.3.4c-.2.3-.6.8-1.3 1.5l-1.6 1.9-.3.4.4.3 1.3 1c.3.3.7.6.9.8.1.1.2.1.2.2v.1q-.15.3-.3.9c-.3.8-.7 1.9-1.2 3.2l-.1.3-1.1-.3c-.4-.1-.8-.2-1.1-.3-.1 0-.3-.1-.4-.1h-.3s-.1 0-.2.1c0 .1-.1.1-.1.1v.2c0 .1-.1.2-.1.4-.1.3-.2.7-.3 1.1-.2.9-.4 1.9-.5 2.2l-.1.2h-5.9l-.4-1.8c-.1-.6-.3-1.2-.3-1.6 0-.2-.1-.4-.1-.5v-.2zm1.5-25.4z" style="fill:#0adceb;fill-opacity:.929412"/></g><g clip-path="url(#d)" style="fill:#0adceb;fill-opacity:.929412" transform="matrix(1.0417 0 0 1.0197 4.975 -11.112)"><path fill="#fdfdfd" d="M153.1 39.5V39c.2-.2.3-.4.5-.6 1.2-2.1 2.4-4.3 3.7-6.4 1-1.6 2.2-3.1 3.3-4.6.1 0 .1.1.2.1-.9 2.7-1.1 5.5-.9 8.4 1.6.2 3.2.5 4.8.7 0-.1.1-.2.1-.2-.2-.1-.3-.3-.5-.4-1-.7-1.1-1.6-.6-2.8.5-1.3.8-2.7 1.3-4.1 1.1 1.2 2 2.3 3.1 3.4.3.3.3.5.1.9-.5 1-.9 2-1.3 3v.1h.2l2.7-1.5c.2-.1.5-.1.7 0 .8.4 1.6.9 2.4 1.3.1.1.3.1.6.2-.6-1.3-1.1-2.5-1.6-3.6 1.1-1.3 2.3-2.5 3.4-3.8.5 1.8 1.1 3.6 1.6 5.4 0 .1-.1.4-.2.5-.4.5-.8 1-1.3 1.5l.1.1c1.6-.2 3.3-.5 4.9-.7.2-2.9 0-5.6-.8-8.3 0 0 .1-.1.1 0 .9 1.2 1.9 2.3 2.7 3.5 1.6 2.5 3 5.1 4.5 7.6l.3.3v.5c-1.8 1.5-3.8 2.3-5.9 2.8-.6.2-1.2.3-1.9.4.3 1.7.6 3.3.9 4.9 0 .2 0 .6-.2.8l-1.8 2.1c-.4.5-.9.9-1.3 1.4.9.7 1.7 1.4 2.5 2.1.1.1.2.4.2.5-.6 1.7-1.3 3.3-1.9 5-1-.3-2-.5-3-.7-.3 1.5-.7 3-1 4.5H167c-.3-1.5-.7-3-1-4.5-1.1.3-2 .5-3.1.7-.7-1.8-1.4-3.6-2-5.3.9-.8 1.8-1.5 2.7-2.3-1.1-1.2-2.1-2.3-3.1-3.5-.2-.2-.3-.4-.2-.8.3-1.6.6-3.2.9-4.9-.8-.2-1.5-.4-2.3-.6-1.9-.5-3.7-1.2-5.2-2.6-.1-.1-.2 0-.3-.1z" style="fill:#0adceb;fill-opacity:.929412"/><path fill="#000" d="M167 36.4h-.1v-.1s.1 0 .1.1" style="fill:#0adceb;fill-opacity:.929412"/><path fill="#fdfdfd" d="M179.5 27.6v-.1z" style="fill:#0adceb;fill-opacity:.929412"/><path fill="#f3ea02" stroke="#000" d="m166.2 58.3-.2-.2h-.4c-.1 0-.2 0-.3.1-.3.1-.7.2-1.1.3l-1.1.3-.8-2.1c-.3-.7-.5-1.3-.7-1.8-.1-.2-.1-.4-.2-.5 0 0 .1-.1.2-.1.2-.2.5-.5.9-.8s.7-.6.9-.8l.3-.3.1-.1.1-.1v-.7s-.1-.1-.1-.2c-.1-.1-.2-.3-.4-.5-.3-.4-.7-.9-1.2-1.4l-1.5-1.7.4-2.1q.15-1.05.3-1.8c0-.2.1-.4.1-.6v-.4c0-.3-.2-.5-.3-.6s-.3-.2-.5-.2c-.4-.1-.9-.3-1.7-.5-1.9-.5-3-1-5-2.2-.1-.1-.2-.1-.3-.2.1-.2.2-.4.4-.7.3-.5 1.4-2.3 2.4-4 .7-1.2 1.8-2.9 2.7-4.3.1-.2.3-.4.4-.6-.3 1.4-.4 3-.4 4.3v1.3c0 .3.1.7.4.9s.6.3 1 .4c.3.1.6.1 1.1.2.2 0 .3 0 .5.1.7.1 1.3.2 1.7.2h1s.1 0 .2-.1.2-.2.3-.4 0-.4-.1-.5l-.3-.3c-.1-.1-.2-.2-.4-.3-.3-.2-.4-.3-.5-.4s-.1-.2-.1-.4 0-.5.1-.9.3-1 .5-1.7l.5-1.7.8.9c.4.4.8.8 1.1 1.2.1.2.3.3.4.4 0 .1.1.1.1.1v.2c-.1.3-.2.7-.5 1.4-.2.5-.4.9-.5 1.3-.1.2-.1.3-.1.4v.4s0 .1.1.2.2.1.3.2h.2c.1 0 .1 0 .2-.1.1 0 .2-.1.4-.2q.45-.15 1.2-.6l1.3-.7 1.3.7c.7.4 1.2.6 1.5.7.1.1.3.1.5.1.1 0 .3 0 .4-.2.2-.1.2-.3.2-.4V36s0-.1-.1-.1c0-.1-.1-.2-.2-.4-.1-.3-.3-.8-.5-1.2l-.6-1.4 1.4-1.5c.4-.5.8-.9 1.1-1.1v.1c.1.4.3 1 .5 1.7.3 1.1.6 2 .7 2.4 0 0 0 .1-.1.1-.1.2-.3.4-.5.6-.2.3-.4.5-.5.7-.1.1-.1.2-.2.3 0 0 0 .1-.1.2v.2c0 .1 0 .2.1.4.1.1.2.1.2.1h.4c.1 0 .3 0 .6-.1.5-.1 1.1-.1 1.8-.2l2.5-.4.4-.1v-.4l-.1-2.7c0-1.6-.1-2.6-.2-3.4.1.2.2.3.4.5.9 1.3 2 3.1 3.1 4.8.7 1.1 1.3 2.1 1.8 2.9q.3.6.6.9c.1.1.1.2.2.3-.2.1-.4.3-.7.5-.6.4-1.4.8-2.1 1.1s-1.9.7-2.8.9q-.75.15-1.2.3c-.2 0-.3.1-.4.1h-.2s-.1 0-.1.1c-.1.1-.1.2-.1.2v.5c0 .1 0 .3.1.5.1.4.2 1 .3 1.6s.2 1.2.3 1.7c0 .2.1.5.1.6v.3s0 .1-.3.4c-.2.3-.6.8-1.3 1.5l-1.6 1.9-.3.4.4.3 1.3 1c.3.3.7.6.9.8.1.1.2.1.2.2v.1q-.15.3-.3.9c-.3.8-.7 1.9-1.2 3.2l-.1.3-1.1-.3c-.4-.1-.8-.2-1.1-.3-.1 0-.3-.1-.4-.1h-.3s-.1 0-.2.1c0 .1-.1.1-.1.1v.2c0 .1-.1.2-.1.4-.1.3-.2.7-.3 1.1-.2.9-.4 1.9-.5 2.2l-.1.2h-5.9l-.4-1.8c-.1-.6-.3-1.2-.3-1.6 0-.2-.1-.4-.1-.5v-.2zm1.5-25.4z" style="fill:#0adceb;fill-opacity:.929412"/></g><g clip-path="url(#e)" style="fill:#0adceb;fill-opacity:.929412" transform="matrix(1.03128 0 0 1.02462 -27.428 -11.277)"><path fill="#fdfdfd" d="M221.1 39.5V39c.2-.2.3-.4.5-.6 1.2-2.1 2.4-4.3 3.7-6.4 1-1.6 2.2-3.1 3.3-4.6.1 0 .1.1.2.1-.9 2.7-1.1 5.5-.9 8.4 1.6.2 3.2.5 4.8.7 0-.1.1-.2.1-.2-.2-.1-.3-.3-.5-.4-1-.7-1.1-1.6-.6-2.8.5-1.3.8-2.7 1.3-4.1 1.1 1.2 2 2.3 3.1 3.4.3.3.3.5.1.9-.5 1-.9 2-1.3 3v.1h.2l2.7-1.5c.2-.1.5-.1.7 0 .8.4 1.6.9 2.4 1.3.1.1.3.1.6.2-.6-1.3-1.1-2.5-1.6-3.6 1.1-1.3 2.3-2.5 3.4-3.8.5 1.8 1.1 3.6 1.6 5.4 0 .1-.1.4-.2.5-.4.5-.8 1-1.3 1.5l.1.1c1.6-.2 3.3-.5 4.9-.7.2-2.9 0-5.6-.8-8.3 0 0 .1-.1.1 0 .9 1.2 1.9 2.3 2.7 3.5 1.6 2.5 3 5.1 4.5 7.6l.3.3v.5c-1.8 1.5-3.8 2.3-5.9 2.8-.6.2-1.2.3-1.9.4.3 1.7.6 3.3.9 4.9 0 .2 0 .6-.2.8l-1.8 2.1c-.4.5-.9.9-1.3 1.4.9.7 1.7 1.4 2.5 2.1.1.1.2.4.2.5-.6 1.7-1.3 3.3-1.9 5-1-.3-2-.5-3-.7-.3 1.5-.7 3-1 4.5H235c-.3-1.5-.7-3-1-4.5-1.1.3-2 .5-3.1.7-.7-1.8-1.4-3.6-2-5.3.9-.8 1.8-1.5 2.7-2.3-1.1-1.2-2.1-2.3-3.1-3.5-.2-.2-.3-.4-.2-.8.3-1.6.6-3.2.9-4.9-.8-.2-1.5-.4-2.3-.6-1.9-.5-3.7-1.2-5.2-2.6-.1-.1-.2 0-.3-.1z" style="fill:#0adceb;fill-opacity:.929412"/><path fill="#000" d="M235 36.4h-.1v-.1s.1 0 .1.1" style="fill:#0adceb;fill-opacity:.929412"/><path fill="#fdfdfd" d="M247.5 27.6v-.1z" style="fill:#0adceb;fill-opacity:.929412"/><path fill="#f3ea02" stroke="#000" d="m234.2 58.3-.2-.2h-.4c-.1 0-.2 0-.3.1-.3.1-.7.2-1.1.3l-1.1.3-.8-2.1c-.3-.7-.5-1.3-.7-1.8-.1-.2-.1-.4-.2-.5 0 0 .1-.1.2-.1.2-.2.5-.5.9-.8s.7-.6.9-.8l.3-.3.1-.1.1-.1v-.7s-.1-.1-.1-.2c-.1-.1-.2-.3-.4-.5-.3-.4-.7-.9-1.2-1.4l-1.5-1.7.4-2.1q.15-1.05.3-1.8c0-.2.1-.4.1-.6v-.4c0-.3-.2-.5-.3-.6s-.3-.2-.5-.2c-.4-.1-.9-.3-1.7-.5-1.9-.5-3-1-5-2.2-.1-.1-.2-.1-.3-.2.1-.2.2-.4.4-.7.3-.5 1.4-2.3 2.4-4 .7-1.2 1.8-2.9 2.7-4.3.1-.2.3-.4.4-.6-.3 1.4-.4 3-.4 4.3v1.3c0 .3.1.7.4.9s.6.3 1 .4c.3.1.6.1 1.1.2.2 0 .3 0 .5.1.7.1 1.3.2 1.7.2h1s.1 0 .2-.1.2-.2.3-.4 0-.4-.1-.5l-.3-.3c-.1-.1-.2-.2-.4-.3-.3-.2-.4-.3-.5-.4s-.1-.2-.1-.4 0-.5.1-.9.3-1 .5-1.7l.5-1.7.8.9c.4.4.8.8 1.1 1.2.1.2.3.3.4.4 0 .1.1.1.1.1v.2c-.1.3-.2.7-.5 1.4-.2.5-.4.9-.5 1.3-.1.2-.1.3-.1.4v.4s0 .1.1.2.2.1.3.2h.2c.1 0 .1 0 .2-.1.1 0 .2-.1.4-.2q.45-.15 1.2-.6l1.3-.7 1.3.7c.7.4 1.2.6 1.5.7.1.1.3.1.5.1.1 0 .3 0 .4-.2.2-.1.2-.3.2-.4V36s0-.1-.1-.1c0-.1-.1-.2-.2-.4-.1-.3-.3-.8-.5-1.2l-.6-1.4 1.4-1.5c.4-.5.8-.9 1.1-1.1v.1c.1.4.3 1 .5 1.7.3 1.1.6 2 .7 2.4 0 0 0 .1-.1.1-.1.2-.3.4-.5.6-.2.3-.4.5-.5.7-.1.1-.1.2-.2.3 0 0 0 .1-.1.2v.2c0 .1 0 .2.1.4.1.1.2.1.2.1h.4c.1 0 .3 0 .6-.1.5-.1 1.1-.1 1.8-.2l2.5-.4.4-.1v-.4l-.1-2.7c0-1.6-.1-2.6-.2-3.4.1.2.2.3.4.5.9 1.3 2 3.1 3.1 4.8.7 1.1 1.3 2.1 1.8 2.9q.3.6.6.9c.1.1.1.2.2.3-.2.1-.4.3-.7.5-.6.4-1.4.8-2.1 1.1s-1.9.7-2.8.9q-.75.15-1.2.3c-.2 0-.3.1-.4.1h-.2s-.1 0-.1.1c-.1.1-.1.2-.1.2v.5c0 .1 0 .3.1.5.1.4.2 1 .3 1.6s.2 1.2.3 1.7c0 .2.1.5.1.6v.3s0 .1-.3.4c-.2.3-.6.8-1.3 1.5l-1.6 1.9-.3.4.4.3 1.3 1c.3.3.7.6.9.8.1.1.2.1.2.2v.1q-.15.3-.3.9c-.3.8-.7 1.9-1.2 3.2l-.1.3-1.1-.3c-.4-.1-.8-.2-1.1-.3-.1 0-.3-.1-.4-.1h-.3s-.1 0-.2.1c0 .1-.1.1-.1.1v.2c0 .1-.1.2-.1.4-.1.3-.2.7-.3 1.1-.2.9-.4 1.9-.5 2.2l-.1.2h-5.9l-.4-1.8c-.1-.6-.3-1.2-.3-1.6 0-.2-.1-.4-.1-.5v-.2zm1.5-25.4z" style="fill:#0adceb;fill-opacity:.929412"/></g></svg>