<?xml version="1.0" standalone="no"?>
<svg xmlns:xlink="http://www.w3.org/1999/xlink" id="wave" style="transform:rotate(0deg); transition: 0.3s" viewBox="0 0 1440 140" version="1.1" xmlns="http://www.w3.org/2000/svg"><defs><linearGradient id="sw-gradient-0" x1="0" x2="0" y1="1" y2="0"><stop stop-color="rgba(48.867, 38.153, 75.454, 1)" offset="0%"/><stop stop-color="rgba(71.381, 65.371, 136.927, 1)" offset="100%"/></linearGradient></defs><path style="transform:translate(0, 0px); opacity:1" fill="url(#sw-gradient-0)" d="M0,42L60,46.7C120,51,240,61,360,56C480,51,600,33,720,32.7C840,33,960,51,1080,60.7C1200,70,1320,70,1440,58.3C1560,47,1680,23,1800,16.3C1920,9,2040,19,2160,28C2280,37,2400,47,2520,53.7C2640,61,2760,65,2880,77C3000,89,3120,107,3240,112C3360,117,3480,107,3600,88.7C3720,70,3840,42,3960,46.7C4080,51,4200,89,4320,88.7C4440,89,4560,51,4680,35C4800,19,4920,23,5040,35C5160,47,5280,65,5400,65.3C5520,65,5640,47,5760,44.3C5880,42,6000,56,6120,63C6240,70,6360,70,6480,60.7C6600,51,6720,33,6840,30.3C6960,28,7080,42,7200,44.3C7320,47,7440,37,7560,28C7680,19,7800,9,7920,11.7C8040,14,8160,28,8280,28C8400,28,8520,14,8580,7L8640,0L8640,140L8580,140C8520,140,8400,140,8280,140C8160,140,8040,140,7920,140C7800,140,7680,140,7560,140C7440,140,7320,140,7200,140C7080,140,6960,140,6840,140C6720,140,6600,140,6480,140C6360,140,6240,140,6120,140C6000,140,5880,140,5760,140C5640,140,5520,140,5400,140C5280,140,5160,140,5040,140C4920,140,4800,140,4680,140C4560,140,4440,140,4320,140C4200,140,4080,140,3960,140C3840,140,3720,140,3600,140C3480,140,3360,140,3240,140C3120,140,3000,140,2880,140C2760,140,2640,140,2520,140C2400,140,2280,140,2160,140C2040,140,1920,140,1800,140C1680,140,1560,140,1440,140C1320,140,1200,140,1080,140C960,140,840,140,720,140C600,140,480,140,360,140C240,140,120,140,60,140L0,140Z"/></svg>