<?xml version="1.0" encoding="UTF-8"?>
<svg id="Calque_2" data-name="Calque 2" xmlns="http://www.w3.org/2000/svg" viewBox="0 0 586 810">
  <defs>
    <style>
      .cls-1 {
        fill: #c08b21;
      }

      .cls-1, .cls-2, .cls-3, .cls-4, .cls-5, .cls-6, .cls-7, .cls-8, .cls-9, .cls-10, .cls-11, .cls-12, .cls-13, .cls-14, .cls-15, .cls-16, .cls-17, .cls-18, .cls-19, .cls-20, .cls-21, .cls-22, .cls-23, .cls-24, .cls-25, .cls-26, .cls-27, .cls-28, .cls-29, .cls-30, .cls-31, .cls-32, .cls-33, .cls-34, .cls-35, .cls-36, .cls-37, .cls-38, .cls-39, .cls-40, .cls-41, .cls-42, .cls-43, .cls-44, .cls-45, .cls-46, .cls-47, .cls-48, .cls-49, .cls-50, .cls-51, .cls-52, .cls-53, .cls-54, .cls-55, .cls-56, .cls-57, .cls-58, .cls-59, .cls-60, .cls-61, .cls-62, .cls-63, .cls-64, .cls-65, .cls-66, .cls-67, .cls-68, .cls-69, .cls-70, .cls-71, .cls-72, .cls-73, .cls-74, .cls-75, .cls-76, .cls-77, .cls-78, .cls-79, .cls-80, .cls-81, .cls-82, .cls-83, .cls-84, .cls-85, .cls-86, .cls-87, .cls-88, .cls-89, .cls-90, .cls-91, .cls-92, .cls-93, .cls-94, .cls-95, .cls-96, .cls-97, .cls-98, .cls-99, .cls-100, .cls-101, .cls-102, .cls-103, .cls-104, .cls-105, .cls-106, .cls-107, .cls-108, .cls-109, .cls-110, .cls-111, .cls-112, .cls-113, .cls-114, .cls-115, .cls-116, .cls-117, .cls-118, .cls-119, .cls-120, .cls-121, .cls-122, .cls-123, .cls-124, .cls-125, .cls-126, .cls-127, .cls-128, .cls-129, .cls-130, .cls-131, .cls-132, .cls-133, .cls-134, .cls-135, .cls-136, .cls-137, .cls-138, .cls-139, .cls-140, .cls-141, .cls-142, .cls-143, .cls-144, .cls-145, .cls-146, .cls-147, .cls-148, .cls-149, .cls-150, .cls-151, .cls-152, .cls-153, .cls-154, .cls-155, .cls-156, .cls-157, .cls-158, .cls-159, .cls-160, .cls-161, .cls-162, .cls-163, .cls-164, .cls-165, .cls-166, .cls-167, .cls-168, .cls-169, .cls-170, .cls-171, .cls-172, .cls-173, .cls-174, .cls-175, .cls-176, .cls-177, .cls-178, .cls-179, .cls-180, .cls-181, .cls-182, .cls-183, .cls-184, .cls-185, .cls-186, .cls-187, .cls-188, .cls-189, .cls-190, .cls-191, .cls-192, .cls-193, .cls-194, .cls-195, .cls-196, .cls-197, .cls-198, .cls-199, .cls-200, .cls-201, .cls-202, .cls-203, .cls-204, .cls-205, .cls-206, .cls-207, .cls-208, .cls-209, .cls-210, .cls-211, .cls-212, .cls-213, .cls-214, .cls-215, .cls-216, .cls-217, .cls-218, .cls-219, .cls-220, .cls-221, .cls-222 {
        stroke-width: 0px;
      }

      .cls-2 {
        fill: #a2c2d4;
      }

      .cls-3 {
        fill: #a92b0a;
      }

      .cls-4 {
        fill: #22745c;
      }

      .cls-5 {
        fill: #494d14;
      }

      .cls-6 {
        fill: #d3de3f;
      }

      .cls-7 {
        fill: #f7f095;
      }

      .cls-8 {
        fill: #deea4d;
      }

      .cls-9 {
        fill: #dee7a5;
      }

      .cls-10 {
        fill: #dee996;
      }

      .cls-11 {
        fill: #fefefe;
      }

      .cls-12 {
        fill: #30855c;
      }

      .cls-13 {
        fill: #237c81;
      }

      .cls-14 {
        fill: #0c5053;
      }

      .cls-15 {
        fill: #c6d92f;
      }

      .cls-16 {
        fill: #646a05;
      }

      .cls-17 {
        fill: #131619;
      }

      .cls-18 {
        fill: #cbe286;
      }

      .cls-19 {
        fill: #bb120c;
      }

      .cls-20 {
        fill: #dfdf8b;
      }

      .cls-21 {
        fill: #2492d0;
      }

      .cls-22 {
        fill: #020407;
      }

      .cls-23 {
        fill: #dfecb7;
      }

      .cls-24 {
        fill: #79b092;
      }

      .cls-25 {
        fill: #66a74e;
      }

      .cls-26 {
        fill: #f0f7ef;
      }

      .cls-27 {
        fill: #e4efbb;
      }

      .cls-28 {
        fill: #266c59;
      }

      .cls-29 {
        fill: #2c7d60;
      }

      .cls-30 {
        fill: #8bc8ec;
      }

      .cls-31 {
        fill: #286f62;
      }

      .cls-32 {
        fill: #cddc6b;
      }

      .cls-33 {
        fill: #8b9192;
      }

      .cls-34 {
        fill: #111218;
      }

      .cls-35 {
        fill: #9bcdee;
      }

      .cls-36 {
        fill: #1f755c;
      }

      .cls-37 {
        fill: #1c2110;
      }

      .cls-38 {
        fill: #b92a09;
      }

      .cls-39 {
        fill: #34373d;
      }

      .cls-40 {
        fill: #c3d419;
      }

      .cls-41 {
        fill: #0a0d0f;
      }

      .cls-42 {
        fill: #b5d6ec;
      }

      .cls-43 {
        fill: #d2f0fb;
      }

      .cls-44 {
        fill: #2c735f;
      }

      .cls-45 {
        fill: #dce248;
      }

      .cls-46 {
        fill: #0b7669;
      }

      .cls-47 {
        fill: #1d8361;
      }

      .cls-48 {
        fill: #073626;
      }

      .cls-49 {
        fill: #2e7e5a;
      }

      .cls-50 {
        fill: #c1190d;
      }

      .cls-51 {
        fill: #2a6e5e;
      }

      .cls-52 {
        fill: #94999d;
      }

      .cls-53 {
        fill: #7cb668;
      }

      .cls-54 {
        fill: #9da4aa;
      }

      .cls-55 {
        fill: #e7eab5;
      }

      .cls-56 {
        fill: #e2eaa6;
      }

      .cls-57 {
        fill: #282509;
      }

      .cls-58 {
        fill: #c9de6f;
      }

      .cls-59 {
        fill: #e0e5a2;
      }

      .cls-60 {
        fill: #bf1304;
      }

      .cls-61 {
        fill: #dde8ab;
      }

      .cls-62 {
        fill: #e7f0a4;
      }

      .cls-63 {
        fill: #d8e090;
      }

      .cls-64 {
        fill: #e3e9bb;
      }

      .cls-65 {
        fill: #c06618;
      }

      .cls-66 {
        fill: #080b0c;
      }

      .cls-67 {
        fill: #e8f5af;
      }

      .cls-68 {
        fill: #329a77;
      }

      .cls-69 {
        fill: #3a8375;
      }

      .cls-70 {
        fill: #1b91e0;
      }

      .cls-71 {
        fill: #d3de2c;
      }

      .cls-72 {
        fill: #d0e7f6;
      }

      .cls-73 {
        fill: #191c1e;
      }

      .cls-74 {
        fill: #709d35;
      }

      .cls-75 {
        fill: #5e9a4f;
      }

      .cls-76 {
        fill: #a2cff0;
      }

      .cls-77 {
        fill: #7fb13e;
      }

      .cls-78 {
        fill: #090b12;
      }

      .cls-79 {
        fill: #90c34c;
      }

      .cls-80 {
        fill: #6ba14a;
      }

      .cls-81 {
        fill: #d5ebf6;
      }

      .cls-82 {
        fill: #0c0d11;
      }

      .cls-83 {
        fill: #52561c;
      }

      .cls-84 {
        fill: #3d3b32;
      }

      .cls-85 {
        fill: #dfe4aa;
      }

      .cls-86 {
        fill: #d2de33;
      }

      .cls-87 {
        fill: #c78627;
      }

      .cls-88 {
        fill: #d21614;
      }

      .cls-89 {
        fill: #b8300f;
      }

      .cls-90 {
        fill: #d1e338;
      }

      .cls-91 {
        fill: #93be3b;
      }

      .cls-92 {
        fill: #e3e89f;
      }

      .cls-93 {
        fill: #353a3c;
      }

      .cls-94 {
        fill: #06080b;
      }

      .cls-95 {
        fill: #b8190b;
      }

      .cls-96 {
        fill: #eef2fb;
      }

      .cls-97 {
        fill: #d5e828;
      }

      .cls-98 {
        fill: #929a1b;
      }

      .cls-99 {
        fill: #a4b130;
      }

      .cls-100 {
        fill: #b3585d;
      }

      .cls-101 {
        fill: #c3711b;
      }

      .cls-102 {
        fill: #d8e556;
      }

      .cls-103 {
        fill: #cee25d;
      }

      .cls-104 {
        fill: #62ae91;
      }

      .cls-105 {
        fill: #96a531;
      }

      .cls-106 {
        fill: #853d40;
      }

      .cls-107 {
        fill: #599538;
      }

      .cls-108 {
        fill: #605d18;
      }

      .cls-109 {
        fill: #d8e34c;
      }

      .cls-110 {
        fill: #c5d530;
      }

      .cls-111 {
        fill: #6ca64a;
      }

      .cls-112 {
        fill: #4e5255;
      }

      .cls-113 {
        fill: #dce18a;
      }

      .cls-114 {
        fill: #71aa3f;
      }

      .cls-115 {
        fill: #98c63f;
      }

      .cls-116 {
        fill: #b1cc63;
      }

      .cls-117 {
        fill: #cbde74;
      }

      .cls-118 {
        fill: #d9e11b;
      }

      .cls-119 {
        fill: #508d4b;
      }

      .cls-120 {
        fill: #dde9ad;
      }

      .cls-121 {
        fill: #29715f;
      }

      .cls-122 {
        fill: #186594;
      }

      .cls-123 {
        fill: #d3dc7c;
      }

      .cls-124 {
        fill: #d0d870;
      }

      .cls-125 {
        fill: #cee4f4;
      }

      .cls-126 {
        fill: #dee9ae;
      }

      .cls-127 {
        fill: #a92503;
      }

      .cls-128 {
        fill: #197977;
      }

      .cls-129 {
        fill: #dbe798;
      }

      .cls-130 {
        fill: #dce88d;
      }

      .cls-131 {
        fill: #e1ef5a;
      }

      .cls-132 {
        fill: #157d6b;
      }

      .cls-133 {
        fill: #8d942d;
      }

      .cls-134 {
        fill: #5f6366;
      }

      .cls-135 {
        fill: #357b51;
      }

      .cls-136 {
        fill: #51555a;
      }

      .cls-137 {
        fill: #5f6934;
      }

      .cls-138 {
        fill: #70ab54;
      }

      .cls-139 {
        fill: #246c5b;
      }

      .cls-140 {
        fill: #d8e93d;
      }

      .cls-141 {
        fill: #c37726;
      }

      .cls-142 {
        fill: #e1ecbc;
      }

      .cls-143 {
        fill: #8eb9cd;
      }

      .cls-144 {
        fill: #1e775e;
      }

      .cls-145 {
        fill: #1f6d5e;
      }

      .cls-146 {
        fill: #247ec0;
      }

      .cls-147 {
        fill: #7fc17c;
      }

      .cls-148 {
        fill: #accde3;
      }

      .cls-149 {
        fill: #b5cdde;
      }

      .cls-150 {
        fill: #0f1218;
      }

      .cls-151 {
        fill: #d1de84;
      }

      .cls-152 {
        fill: #2b7fa2;
      }

      .cls-153 {
        fill: #c3d51c;
      }

      .cls-154 {
        fill: #4b845b;
      }

      .cls-155 {
        fill: #77ae3c;
      }

      .cls-156 {
        fill: #d7dd80;
      }

      .cls-157 {
        fill: #8cbb4d;
      }

      .cls-158 {
        fill: #dbe399;
      }

      .cls-159 {
        fill: #267f96;
      }

      .cls-160 {
        fill: #bc2d12;
      }

      .cls-161 {
        fill: #c50f07;
      }

      .cls-162 {
        fill: #1a6e5f;
      }

      .cls-163 {
        fill: #cc120e;
      }

      .cls-164 {
        fill: #c3d02c;
      }

      .cls-165 {
        fill: #d11815;
      }

      .cls-166 {
        fill: #a2c0d7;
      }

      .cls-167 {
        fill: #d7e843;
      }

      .cls-168 {
        fill: #7ebb44;
      }

      .cls-169 {
        fill: #dde692;
      }

      .cls-170 {
        fill: #181a20;
      }

      .cls-171 {
        fill: #e4e6e8;
      }

      .cls-172 {
        fill: #f2d7d1;
      }

      .cls-173 {
        fill: #d7e01f;
      }

      .cls-174 {
        fill: #2c8370;
      }

      .cls-175 {
        fill: #3aa1db;
      }

      .cls-176 {
        fill: #1484b4;
      }

      .cls-177 {
        fill: #dadfd9;
      }

      .cls-178 {
        fill: #549358;
      }

      .cls-179 {
        fill: #237172;
      }

      .cls-180 {
        fill: #c8d335;
      }

      .cls-181 {
        fill: #3f430f;
      }

      .cls-182 {
        fill: #197bb9;
      }

      .cls-183 {
        fill: #458655;
      }

      .cls-184 {
        fill: #c6d630;
      }

      .cls-185 {
        fill: #b52608;
      }

      .cls-186 {
        fill: #9a9ea2;
      }

      .cls-187 {
        fill: #c3d329;
      }

      .cls-188 {
        fill: #e37e9c;
      }

      .cls-189 {
        fill: #578d56;
      }

      .cls-190 {
        fill: #1d79d9;
      }

      .cls-191 {
        fill: #d2eefb;
      }

      .cls-192 {
        fill: #2d8966;
      }

      .cls-193 {
        fill: #1e8ad2;
      }

      .cls-194 {
        fill: #b6cfdf;
      }

      .cls-195 {
        fill: #0d0e0b;
      }

      .cls-196 {
        fill: #74a740;
      }

      .cls-197 {
        fill: #e0e8a4;
      }

      .cls-198 {
        fill: #daea44;
      }

      .cls-199 {
        fill: #e0e6a2;
      }

      .cls-200 {
        fill: #176d7d;
      }

      .cls-201 {
        fill: #0c0e15;
      }

      .cls-202 {
        fill: #92a60f;
      }

      .cls-203 {
        fill: #86b244;
      }

      .cls-204 {
        fill: #dee7a3;
      }

      .cls-205 {
        fill: #d6e38b;
      }

      .cls-206 {
        fill: #cbd71f;
      }

      .cls-207 {
        fill: #0b0e11;
      }

      .cls-208 {
        fill: #d5e58f;
      }

      .cls-209 {
        fill: #dce49e;
      }

      .cls-210 {
        fill: #06070d;
      }

      .cls-211 {
        fill: #bd1910;
      }

      .cls-212 {
        fill: #61666b;
      }

      .cls-213 {
        fill: #c6d5de;
      }

      .cls-214 {
        fill: #060a0a;
      }

      .cls-215 {
        fill: #dde8a6;
      }

      .cls-216 {
        fill: #767014;
      }

      .cls-217 {
        fill: #388452;
      }

      .cls-218 {
        fill: #d3919c;
      }

      .cls-219 {
        fill: #0d0c10;
      }

      .cls-220 {
        fill: #595f62;
      }

      .cls-221 {
        fill: #3d8956;
      }

      .cls-222 {
        fill: #3e2018;
      }
    </style>
  </defs>
  <g id="Calque_1-2" data-name="Calque 1">
    <g>
      <path class="cls-11" d="m.09,405C.09,271.53.11,138.06,0,4.59,0,.84.84,0,4.58,0c192.28.11,384.55.11,576.83,0,3.74,0,4.59.84,4.58,4.59-.1,266.94-.1,533.88,0,800.83,0,3.74-.84,4.59-4.58,4.59-192.28-.11-384.55-.11-576.83,0-3.74,0-4.59-.84-4.58-4.59.11-133.47.09-266.94.09-400.41Z"/>
      <path class="cls-11" d="m574.93,400.49c0,117.98-.01,235.97.04,353.95,0,4.54-.23,8.96-2.08,13.15-1.04,2.37-1.05,4.85-.95,7.35.15,3.4.3,6.76-3.62,8.43-.41.17-.95.7-.96,1.08-.19,7.12-7.1,6.71-10.68,9.98-7.21,6.6-15.53,3.47-23.36,4.47-12.15,1.56-24.34,2.61-36.62,2.05-5.29-.24-10.56-1.99-15.82-.96-21.42,4.17-43.06,2.01-64.5,1.44-10.96-.29-22.28-2.88-33-.94-11.18,2.03-22.37,2.3-33.08.86-9.64-1.3-19.39-2.45-28.6-1.08-21.05,3.14-42.07.56-63.06,1.66-5.84.31-11.12-2.59-17.11-2.12-56.07,4.36-112.25,1.04-168.38,2.2-6.73.14-13.15-1.01-19.55-2.47-3.5-.8-7-.93-10.38-.53-11.49,1.37-18.85-4.46-25.28-12.99-3-3.98-4.29-8-5.32-12.87-2.19-10.34-2.61-20.63-2.6-31.09.08-58.74.04-117.48.04-176.23,0-102.26-.2-204.51.3-306.76.05-10.44,2.58-21.09,1.55-31.58-4.18-42.62-1.14-85.31-1.53-127.96-.12-12.38-.56-24.79-.34-37.18.13-7.27.49-14.29,2.49-21.54,1.8-6.53,4.05-12.96,5.7-19.55,1.43-5.71,13.3-12.41,19.22-11.6,5.4.73,10.93,1.39,15.96-1.78,1.65-1.04,3.53-.8,5.34-.81,25.78,0,51.56-.32,77.33.18,7.92.15,15.88,1.04,23.82.77,65.64-2.22,131.31-.45,196.96-.81,9.24-.05,18.58,1.56,27.8.73,19.75-1.78,39.51-.4,59.26-.85,8.12-.18,16.17,1.66,24.32.96,21.06-1.81,42.16-.7,63.24-.99,8.64-.12,16.76,3.04,25.19,4.33,4.82.73,7.66,5.89,9.88,9.83,2.85,5.06,3.54,11.25,7.4,16.02,1.57,1.93.95,4.49.95,6.79.01,118.81.01,237.63.01,356.44Z"/>
      <path class="cls-96" d="m570.94,401c0,117.82,0,235.64.03,353.46,0,4.18.01,8.27-2.02,12.11-1.46,2.76-.97,5.85-1,8.82-.01,1.87.06,3.78-2.22,4.48-1.36.41-1.91,1.36-1.75,2.63.52,4.13-2.68,5.69-5.41,6.87-3.28,1.42-7,1.62-9.35,5.03-.79,1.15-3.36,1.05-4.05-.17-2.47-4.39-6.47-3.17-10.13-3.28-2.49-.07-5-.15-7.48.03-1.79.13-5.56-1.09-2.53,3.28.99,1.43-1.15,1.49-2.15,1.68-10.05,1.89-20.17,1.09-30.26.59-6.23-.31-12.42-1.9-18.46,1.12-1.09.54-2.61.26-3.94.27-6.65.02-13.33-.34-19.95.07-21.55,1.34-42.97-3.59-64.38-1.73-11.52,1-23.27,3.2-34.41,1.18-10.83-1.97-21.71-2.56-32-1.08-20.39,2.94-40.67.75-60.98,1.37-5.91.18-11.81-2.31-18-1.85-57.41,4.27-114.92,1.46-172.38,1.64-9.67.03-19.77-.41-29.42-2.01-5.51-.91-11.48-3.56-15.05-9.14-2.87-4.49-6.03-8.3-7.1-14.19-1.9-10.48-2.55-20.86-2.53-31.43.08-58.91-.01-117.82.1-176.73.01-7.11,1.69-14.23.86-21.33-1.9-16.42-.75-32.87-.86-49.3-.23-34.03-.07-68.06-.07-102.08,0-43.27,0-86.53,0-129.8,0-1-.26-2.08.04-2.98,3.14-9.42,1.2-19.27,2.56-28.83.2-1.42.02-2.6-.43-3.85-2.39-6.54-2.22-13.33-2.19-20.15.07-19.14.03-38.27.03-57.41,0-15.72.02-31.44,0-47.17,0-6.47,1.68-12.84,1-19.34-.65-6.24-1.54-12.46-1.93-18.72-.37-5.94.13-11.74,2.66-17.44,1.56-3.5,1.69-7.74,2.56-11.52,1.31-5.69,3.35-12.63,8.27-15.39,4.48-2.5,9.01-5.5,15.33-6.06,30.14-2.67,60.27-1.26,90.39-1.39,9.57-.04,19.2,1.12,28.81.79,65.15-2.23,130.31-.5,195.46-.78,9.56-.04,19.26,1.48,28.8.66,19.43-1.66,38.85-.69,58.26-.68,8.91,0,17.9,1.44,26.81.74,20.91-1.65,41.84-.92,62.74-.69,7.4.08,14.8,2.53,22.15,4.09,4.15.88,5.4,5.1,6.91,8.03,5.07,9.84,9,19.68,8.95,31.62-.5,115.32-.3,230.64-.3,345.97Z"/>
      <path class="cls-214" d="m275.64,678.58c0,21.29-.09,42.59.09,63.88.03,3.55-.95,4.64-4.44,4.63-32.59-.16-65.18-.19-97.77-.24-2.84,0-4.58-.62-4.71-4.16-.33-8.95,1.3-17.9-.13-26.86-.49-3.07,2.04-3.37,4.32-3.36,20.45.1,40.9.07,61.34.46,4.57.09,6.15-.93,6.09-5.67-.22-15.13-.08-30.28.05-45.41.03-3.07-.94-4.2-4.09-3.85-3.97.44-7.69,1.89-11.72,2.15-14.29.9-27.45-2.23-38.49-11.49-12.56-10.53-16.69-24.83-16.66-40.75.07-32.78,0-65.55,0-98.33,0-8.31.09-16.6.78-24.92,1.88-22.5,16.74-39.49,36.69-45.46,25.96-7.76,51.85,5.24,62.76,29.08,5.21,11.39,5.2,23.87,5.5,36.12.34,13.8.12,27.61.34,41.41.05,3.13-1.13,4.17-4.04,4.15-9.31-.06-18.62-.06-27.93-.02-2.91.01-3.59-1.49-3.57-4.12.12-17.96.14-35.93.18-53.89.02-7.13-.73-14.04-6.73-18.97-5.54-4.55-11.98-4.75-18.34-2.57-7.46,2.56-10.77,8.61-10.97,16.16-.28,10.47-.11,20.96-.11,31.44,0,30.11-.58,60.24.28,90.33.42,14.94,8.49,21.84,23.52,19.21,5.99-1.05,12.11-6.99,12.04-13.32-.05-4.1,1.74-5.46,5.8-5.33,8.3.28,16.63.29,24.93.07,4-.1,5.2,1.46,5.18,5.26-.11,21.46-.05,42.92-.05,64.38-.05,0-.09,0-.14,0Z"/>
      <path class="cls-184" d="m226.26,410.13c-3.7.07-7.39.14-11.09.21-6.33-4.9-13.05-4.89-20.02-1.53-1.05-.45-1.9-1.45-3.16-1.28-6.23.84-11.96-1.93-18-2.46-3.55-2.64-8.34-1.15-11.97-3.61-.63-.43-1.57-.46-2.22-1.02-12.1-3.54-23.45-8.96-34.99-13.89-4.92-1.7-8.73-5.16-12.91-8.05h0c-9.98-6.19-18.93-13.46-25.36-23.52-1.39-2.18-3.2-4.14-4.68-6.31v-.03c-1.41-2.21-3.27-4.04-4.95-6.03-.58-3.87-4.75-5.9-5.04-9.91-1.7-1.64-2.31-3.59-1.71-5.89,1.62-7.06,3.03-13.66-2.98-20.08-3.75-4-7.21-9.37-4.65-15.84.96-.95,1.83-.38,2.71.14,2.29,2.04,3.27,4.97,4.81,7.49,4.94,8.11,13.33,11.73,20.86,16.44,7.02,4.39,14.39,8.22,21.29,12.83,2.12,1.8,4.34,3.43,7.15,4.01,12.5,6.11,24.22,13.65,36.56,20.06,13.58,8.06,27.71,15.17,40.92,23.85,2.71,1.82,5.36,5.08,8.26.22,4.84-2.52,10.14-3.55,15.39-4.72,2.75.37,5.04-1.08,7.54-1.78,7.98-2.22,16.02-4.24,23.8-7.14.43-.28.9-.49,1.39-.64,7.34-.64,14.04-3.67,21.03-5.61,2.1-.83,4.45-.95,6.4-2.24,1.24-.43,2.52-.55,3.82-.56,6.77-.75,13.06-3.34,19.53-5.22,4-1.26,8.01-2.46,11.91-4.03.47-.21.95-.35,1.44-.46,5.26-.48,10.25-2.02,15.23-3.67,8.08-2.73,16.56-4.23,24.38-7.76,2.19-.99,4.53-.81,6.83-.87,3.64-.49,7.36-.78,10.08-3.75.21-4.92.74-9.82.53-14.74,1.26-2.11-.63-5.86,3.39-6.53,1.73.63.52,2.49,1.45,3.46.8,1.74,2.7,2.01,4.04,3.02,2.96.72,5.58,2.17,8.12,3.81,5.22,2.85,10.96,4.67,15.85,8.15,5.7,1.9,10.44,5.74,15.97,7.98h0c5.82,3.77,12.2,6.47,18.38,9.54,8.9,4.66,18.08,8.75,26.96,13.43,2.7,1.42,5.98,1.61,8.22,3.92,2.82,2.21,6.13,3.53,9.32,5.06h0c2.51,2.26,5.99,2.49,8.78,4.17l4.18,1.85c.44.23.88.46,1.34.65,1.27.55,3.33.49,2.88,2.61-.4,1.91-2.27,1.65-3.7,1.63-3.6-.05-7.3.63-10.65-1.46-1.01-.63-2.24-.49-3.4-.49-12.9.08-25.8-.21-38.69.15-4.52-.63-8.91-2.32-13.58-1.7-2.15-.17-4.15.1-6.16,1.1-2.94,1.45-6.08.79-9.15.22-2.46-1.45-1.5-3.7-1.32-5.76.13-1.47.53-3.09-1.06-4.01-1.52-.88-2.82.13-4.13.83-2.01,1.06-3.31,3.31-5.85,3.46-3.59-.67-6.16-2.41-6.6-6.37.02-.16,0-.42.09-.48,5.01-2.95,8.06-7.47,10.23-12.71,1.9-1.8,1.73-3.44-.35-4.95-1.12-1.07-2.2-2.19-3.32-3.26-1.57-1.58-3.12-3.16-4.5-4.91-2.16-2.42-5.56-2.63-8.02-4.49-.39-.39.58-1.96-1.09-1.29-2.91,1.18-5.09,3.67-6.37,6.04-2.66,4.89-8.58,8.51-6.49,15.6.57,1.92,1.43,3.38,2.18,4.46-2.84-2.85-2.62-6.84-1.58-10.71.5-1.86,1.45-4.34,4.5-3.41-2.97,6.84-.68,12.3,4.47,17.01-.09,2.94,3.53,5.95.28,8.74-2.43,2.09-5.84.02-8.64,1.17-.73.11-1.45.09-2.18-.03-3.93-.84-7.59-3.24-11.87-2.05-2.83-.45-5.42-.29-7.76,1.83-3.14,2.85-7.16,1.41-10.81,1.87-1.31.17-4.12-1.31-3.3,2.22-.16,2.44-1.86,4.94.37,7.27-.57,2.63-2.76,2.22-4.6,2.43-2.35.27-4.84-.5-7.02.95-.43.27-.89.48-1.37.63-4.37.84-8.81.21-13.21.46-1.61.09-3.46-.17-4.27,1.69-.82,1.87,1.3,2.37,1.95,3.57.24.44.36.9.31,1.4-1.42,1.5-3.35,1.1-5.11,1.37-1.12.17-2.7.19-2.65,1.64.06,1.81,1.81,1.55,3.07,1.6,2.25.09,4.04-1.23,6.02-2.02,7.71-3.05,15.52-4.05,23.42-.61.2.59.4,1.18.6,1.78-3.8,1.72-7.77.37-11.65.55-3.77.17-7.24.72-10.08,3.4-1.74.11-3.4-1-5.26.08-4.45,2.58-9.48,2.28-14.39,2.51-2.33-2.5,2.35-2.87,1.49-4.93,1.33-5.54.98-6.04-4.64-6.08-3.86-.03-8.23-.98-9.37,4.59-1.58,4.24,2.09,3.91,4.24,4.66,1.5.53,3.27.04,4.81.65,1.56.62,2.21,1.51.38,2.68-8.73.87-16.92,5.07-25.94,4.15-7.87,1.25-15.56,4.04-23.71,2.96-.6-.25-1.37-.46-1.54-1.13-1.37-5.34-5.59-5.02-9.52-4.49-4.27.58-9.13.65-10.55,6.25Z"/>
      <path class="cls-70" d="m348.42,692.09c-1.4,5.11-2.51,10.32-4.29,15.29-1.63,4.55-.06,6.17,4.29,6.14,6.46-.05,12.91-.18,19.37-.2,13.79-.04,27.58.02,41.38-.09,3.86-.03,5.27,1.39,5.04,5.35-.5,8.62-.59,17.26-.89,25.89-.04,1.22.44,2.8-1.49,3.19-1.29-3.19-3.79-2.59-6.55-2.56-16.92.19-33.85.45-50.77.33-13.13-.09-26.26.05-39.39-.05-6.68-.05-7.73-1.69-5.17-7.83.86-2.06,1.12-4.15,1.12-6.32,0-5.99-.16-11.98.04-17.96.28-8.08,1.71-15.86,4.31-23.67,2.48-7.46,4.88-15.13,5.86-23.07.1-.83-.1-1.89.38-2.43,6.81-7.65,2.29-18.72,8.11-26.68,1.17-1.6,1.17-3.78,1.23-5.79.05-1.5-.36-3.22.34-4.44,5.16-9.12,3.74-20.06,8.35-29.36,2.95-5.95,4.65-12.23,5.13-19.08.29-4.21,1.06-9.36,5.41-12.27,1.05-.71,1.17-1.28.74-2.41-2.59-6.74,1.49-12.61,2.64-18.86.27-1.49,1.54-2.7,3.36-2.15,1.8.55,1.85,2.11,1.7,3.68-.21,2.2-1.32,4.44.28,7.09,2.65-4.71-1.6-10.05,2.85-14.54-2.28.9-3.68,3.3-5.53,1.61-1.62-1.48-1.74-4.05-.64-5.58,3.09-4.29.91-10.06,4.76-14.31,1.69-1.87,1.04-5.73.12-8.68.03-4.88,1.62-9.42,3.06-13.98.61-1.94.86-3.87.93-5.86,4.13-14.28,7.48-28.75,11.04-43.18.48-1.94,1.35-3.75,1.95-5.65.92-2.89,2.84-4.23,5.96-4.21,8.8.07,17.61-.04,26.41.05,4.86.05,6.07,1.87,4.81,6.7-.5,1.92-1.38,3.74-1.65,5.73-4.56,13.25-7.3,27.01-11.26,40.43-4.5,18.62-10.04,36.97-14.73,55.55-3.31,13.13-6.75,26.23-10.37,39.28-3.04,10.96-5.87,21.97-8.74,32.97-2.28,8.77-4.42,17.6-6.97,26.31-1.48,5.05-2.68,10.18-4.1,15.26-2.82,10.12-5.22,20.35-8.39,30.38Z"/>
      <path class="cls-187" d="m64.81,291.67c-.62-.33-1.24-.66-1.86-1-2.82.13-3.07-2.11-3.4-3.97-1.29-7.38-1.94-14.76,1.02-21.95.56-1.37,1.14-2.72.42-4.28.03-.6-.95.02-.3-.14.2-.05.18.11.24.44.16.85.19,1.86-.37,2.37-4.72,4.36-3.26,9.93-3.3,15.29-.02,2.21,1.07,5.05-2.07,6.35-1.89-6.63-3.95-13.34-4.08-20.2-.45-22.71.79-45.4,1.5-68.1.41-13.02.27-26.37-3.69-39.34-1.78-5.85-2.58-12.16-3.92-18.24h0c-.27-.42-.54-.82-.82-1.22-.89-1.31-2.39-2.55-1.44-4.31,1.04-1.93,2.92-1.67,4.71-1.23,3.93,3.81,9.51,5.05,13.57,8.67,5.83,1.69,10.72,5.28,16.06,7.96,3.8,1.6,7.36,3.68,11.01,5.59,1.17,1.66,3.46,1.18,4.81,2.5v.07c1.63,1.35,3.98,1.96,4.54,4.42.01,1.53-.88,2.2-2.27,2.4-1.43.1-2.48-.71-3.6-1.44-4.09-2.67-6.66-2.48-10.24.65-.63.55-1.15,1.19-1.71,1.81-6.92,7.69-6.84,10.62.46,17.99,1.4,1.41,2.92,2.72,4.16,4.3,1.2,1.67,1.92,3.52,1.53,5.57-.96,5.04.22,10.21-.99,15.22-2.53,2.87-3.05-.41-4.33-1.42-5.46-4.29-10.29-9.59-17.58-10.96-1.21-.23-1.97-.17-1.54,1.37.05,1.75-1.02,2.97-1.97,4.25-2.43,5.29-.08,9.97,3.17,13.4,3.94,4.16,7.56,9.19,13.71,10.74.67.17.95.85.86,1.58-1.95,1.78-4.38,1.1-6.63,1.2-2.03.09-3.9.39-5.55,1.72-1.22.98-1.5,1.86.05,2.56,2.18.99,2.92,2.35,2.14,4.74-.59,1.81.84,2.34,2.27,2.36,3.28.05,6.61.65,9.78-.74.37-.23.74-.46,1.09-.72.86-.62,1.52-1.67,2.83-1.37.96.65,1.83,1.37,2.12,2.57-1.35,2.88-4.33,4.3-6.09,6.81-3.11,3.86-6.95,7.07-9.55,11.4-5.5,9.19-6.52,18.93-4.29,29.22.37,1.71,1.24,3.55-.47,5.11Z"/>
      <path class="cls-172" d="m220.59,372.46c-5.45.72-10.35,3.61-15.89,4.02-.22-.24-.43-.47-.65-.7-.83-1.56-.83-3.24-.45-4.87,1.7-7.36,1.2-14.88,1.42-22.32.32-10.8.26-21.63.05-32.44-.6-30.6,1.59-61.17,1.07-91.77-.08-4.5,1-8.92,1.17-13.41.2-1.42.6-2.8.83-4.21,1.19-20.34,10.98-36.62,24.57-50.91,11.15-11.72,25.15-18.8,40.31-23.96,15.81-5.38,32.04-7.89,47.84-8.5-9.67-3.78-20.37-7.41-30.61-12.13-10.99-5.06-22.48-5.61-34.16-4.86-12.93.83-25.8,2.46-38.26,6.06-20.34,5.89-38.5,15.48-51.88,32.59-6.61,8.45-10.13,18.25-12.62,28.51-.43,1.78-.73,3.59-1.5,5.26-1.01,1.31-.37,3.87-2.98,3.99,1.49-16.68,6.6-31.69,18.46-44.2,6.89-7.27,14.41-13.52,22.93-18.6,8.59-5.12,18.04-8.17,27.55-11.09,15.51-4.77,31.68-4.87,47.59-6.47,10.06-1.01,19.68,2.88,28.96,6.96,10.61,4.67,21.51,8.62,32.55,12.17,1.98.64,4.91-.03,4.05,4.02-.4,1.87,2.16,2.08,3.75,2.35,6.53,1.12,13.01,2.42,18.87,5.7,13.68,7.64,23.54,18.08,27.11,34.04,2.81,12.52,2.12,24.77-.26,37.12-1.59-1.56-1.61-3.6-1.55-5.57.2-7.1-.75-14.25.91-21.3.38-1.6.23-3.31-.43-4.88-1.9-3.9-2.16-8.35-4.05-12.28-8.72-18.11-23.37-28.15-43.1-29.22-26.54-1.45-52.36,2.35-76.03,15.57-19.97,11.15-32.78,28.13-39.53,49.84-.84,2.72-.73,5.59-1.12,8.39-.61,4.31.55,5.41,5.03,4.71,5.74-.89,11.44-2.12,17.09-3.42,19.09-4.39,38.3-8.19,57.43-12.34,14.56-3.16,29.08-6.64,43.85-8.82,2.01.45,4.87-.91,5.48,2.56-6.56,3.47-13.97,4.63-21,5.69-7.93,1.19-15.44,3.77-23.3,5.07-11.25,1.86-22.42,4.24-33.59,6.58-12.02,2.51-23.93,5.47-35.93,8.07-4.84,1.05-9.75,2.02-14.67,2.43-2.81.23-3.72,1.2-4.07,3.75-.44,3.31-.75,6.6-.67,9.94.62,26.92-.91,53.82-1.28,80.73-.26,18.6-.94,37.18-.19,55.78.2,5.05.45,5.25,5.19,4.12,1.99-.48,3.89-1.03,5.58.67.42.51.46,1.06.13,1.63Z"/>
      <path class="cls-15" d="m471.01,240.67c-5.25,2.33-10.86,3.13-16.48,3.83-5.82.72-11.7-.21-17.51,2-4.58,1.74-9.41-.42-14-1.71-2.75-.77-1.88-2.45-.89-4.23,1.73-3.09,5.22-4.18,7.44-6.81,1.71-2.03.64-2.35-.7-3.15-1.66-.61-.22-1.33.11-1.44,3.84-1.31,7.35-3.61,11.51-3.95q1.35,3.32,5.99,2.58c3.04,3.23,6.01,2.76,7.89-1.23.71-1.51.41-3.32,1.46-4.72,1.63.06,2.64-2.28,4.55-1.2,1.03,1.23.97,2.77,1.11,4.23.17,1.88,1.21,2.59,2.98,2.45,1.97-.16,2.3-1.52,2.33-3.14.05-3.01-.98-5.46-3.63-7.08-.2-2.96,2.66-3.89,4.1-5.58,3.45-4.03,6.55-8.63,11.81-10.75,3.53-3.55,7.74-5.7,12.76-6.13,3.13-2.4,7.13-3.24,10.21-5.72,7.83-4.19,15.95-7.45,24.94-8.04,4.28,1.45,9.26.64,12.94,4.01h0c4.44,5.64,4.34,10.94-.28,14.81-5.95,1.63-11.55,4.6-17.91,4.67-2.07-1.73.01-2.16.97-2.63,2.51-1.24,5.08-2.37,7.53-3.74,1.87-1.05,3.6-2.2,3.88-4.85-2.66-.51-3.57,1.83-5.25,2.54-2.37,1.13-4.52,3.33-7.48,1.49-1.89-1.48-3.07-4.03-5.96-3.98-1.42.02-3.44-.39-3.6,1.5-.13,1.55,1.82,1.5,3.06,1.77,2.07.45,4.27-.74,6.28.5.39,4.05-4.09,3.24-5.48,5.51-6.76,3.81-11.86,9.39-16.76,15.23,4.32-.25,6.4-3.69,9.06-6.11,2.72-2.48,5.57-4.7,8.67-6.63,1.33-.83,2.66-2.17,4.49-1.04,1.08,2.23-.78,2.92-2.09,3.75-2.24,1.42-4.36,2.92-5.68,5.29-2.88,2.19-4.92,5.17-7.34,7.79h0c-4.53,6.33-8.92,7.64-16.5,5.27-2.01-.63-4.37-.92-5.49,1.8-1.49,3.62-4.48,6.06-6.96,8.9-.9.26-.96,1.05-1.14,1.77-1.09,2.03-3.68.59-4.96,2.16Z"/>
      <path class="cls-164" d="m94.9,162.9c1.1-.07,1.87-.52,2-1.72,2.41-1.81,4.09.55,5.87,1.3,1.37.57,2.79,1.48,4.08,2.4h.02c4.1,1.24,7.62,3.69,11.45,5.5,6.62,3.22,12.87,7.13,19.36,10.6,1.04.63,2.08,1.26,3.13,1.89,2.84,1.25,5.08,2.97,5.21,6.42-1.63,8.93,1.03,17.92-.35,26.85-1.29,2.26-3.19,3.92-5.34,5.33-1.71.58-3.43,1.38-5.25.44-1.04-.54-2.21-2.65-3.14-.92-1.18,2.2,1.37,2.39,2.77,3.03,1.36.51,2.85.23,4.19.72,1.09.39,2.61.64,1.63,2.46-.84.59-1.81.94-2.8.89-7.16-.37-14.14,1.15-21.16,2.11-4.45-.83-8.46.98-12.56,2.16-1.57.45-3.03,1.41-4.77.83-.73-.45-.95-1.14-.92-1.94.3-1.98,2.4-2.65,3.28-4.47-2.32-1.57-5.33-.02-7.55-1.66-.87-2.12,1.22-2.38,2.16-3.28,1.8-1.71,3.72-3.23,5.24-5.27,1.62-2.17,1.14-3.33-1.06-4.33.43-4.41,3.09-8.21,3.2-12.76.09-3.5-.45-6.2-4.33-7.08-1.48,1.25.82-3.31-1.53-.97-1.26,1.25-3.03,2.9-4.73,1.32-1.94-1.81-.31-3.72,1.05-5.17,3.3-3.52,5.2-8.07,8.55-11.54.86-.89.92-2.08.57-4.19-.15,3.96-2.02,6.14-4,8.22-1.02,1.08-2.22,1.5-3.38.07-.52-1.38.39-2.22,1.16-3.11,3.84-4.97,3.65-6.76-1.27-11.57-.63-.73-1.23-1.47-.78-2.53Z"/>
      <path class="cls-193" d="m360.47,512.31c.47-.05,1.31-.26,1.37-.12,1.06,2.35.36,4.84.5,7.27.13,2.3.48,4.85-2.98,5.16-.23.02-.66.58-.61.68,3.05,5.52-4.04,9.77-2.07,15.16,2.64.23,2.8-2.13,3.98-3.36.93-.98,2.16-1.1,3.08-.15.91.95.92,2.45-.29,2.98-3.63,1.59-2.82,4.18-2.22,7.09.43,2.08.12,4.31.12,6.47,0,1.46-.3,2.71-2.14,2.68-1.54-.03-2.47-.85-2.73-2.37-.42-2.53.11-4.95.93-7.33.39-1.13.85-2.42-.83-2.79-1.17-.26-2.04.76-2.02,1.72.12,4.47-2.56,8.2-3.09,12.47-.1.82.14,1.72-.11,2.48-.97,2.95,2.85,3.7,2.77,5.67-.12,3.25-5.13-.12-5.06,2.54.12,4.56-4.12,7.63-3.04,12.61,1.05,4.87-1.74,9.62-3.5,14.1-2.44,6.22-3.92,12.58-5.67,18.93-2.43,8.85-3.61,18.12-7.15,26.74-1.55,3.78-4.51,7.57-1.66,12.51.97,1.67.66,5.72-3.02,6.74-1.76.49-1.66,1.99-1.77,3.21-.83,8.99-3.39,17.78-6.36,26-1.81,5-1.06,10.44-3.9,15.03-1.25,2.02-.49,4.57-.51,6.88-.06,6.49,0,12.98-.03,19.47-.02,3.09.32,6.07-2.07,8.87-1.91,2.23-1.21,4.37,2.42,4.36,26.61-.03,53.21.1,79.81-.16,3.91-.04,7.78-1.32,11.73.05.86.3,2.05.15,2.92-.21,4.36-1.81,5.04-1.25,4.56,3.94-.18,1.09-.99,1.17-1.85,1.13-32.05-1.62-64.12-.48-96.18-.72-6.47-.05-6.79-.61-6.54-7.11.34-8.8.04-17.63.27-26.44.22-8.49,2.38-16.62,5.35-24.54.51-1.96,1.51-3.78,1.71-5.83-.1-1.8-.49-3.67,1.13-5.08,2.58-3.25,1.15-7.83,3.71-11.09-.26-4.5.3-8.8,2.74-12.73,1.18-1.9.76-4.18,1.27-6.21,2.54-10.12,5.29-20.19,8.01-30.27.16-.58.66-1.06,1-1.58,1.9-2.25,1.01-5.22,1.99-7.7,2.11-9.07,3.81-18.27,6.44-27.19,3.5-11.9,6.77-23.84,9.5-35.94.17-.76.78-1.41,1.18-2.12,2.97-3.33,1.63-7.74,2.87-11.5,1.81-6.86,2.45-14.07,6.05-20.41Z"/>
      <path class="cls-180" d="m460.26,182.92c-.88,6.32-2.85,12.28-5.81,17.92-.69,1.31-1.7,2.47-.75,4.05.31.73.23,1.44-.07,2.15-4.07,3.1-6.7,8.32-12.64,8.71-.49-1-.38-1.84.52-2.4-2.1.46-3.84,3-6.52,1.47-.51-5.83,5.27-4.34,7.8-6.77-5.67.05-9.69,3.43-13.73,6.66-3.16,2.52-6.55,3.95-10.6,3.08-2.62-.56-3.16-1.74-.73-3.46,1.56-.8,3.48-.79,4.8-2.13,1.62-1.38,3.46-2.5,4.76-4.22.7-1.26.08-1.79-1.11-1.92-2.45-.25-4.87-.14-7.09,1.13-.41.22-.83.39-1.26.56-2.01.47-3.67,2.36-6.01,1.54-2.38-3.3.55-6.97-.73-10.35.04-.74.18-1.46.41-2.17,2-4.65,3.76-9.46,8.05-12.66.8-.51,1.64-.99,2.27-1.74.62-.74,1.33-1.57.59-2.53-.7-.92-1.78-.25-2.69-.32-.76-.04-1.43-.28-1.85-.97.96-3.33,5.45-6.9,8.43-6.56,3.04.35,3.33,2.46,2.24,4.64-.81,1.62-2.08,2.95-.82,4.84-1.59,3.49-5.02,6.16-4.12,10.8.27,1.39-2.43,1.9-3.47,3.15-.99,1.26-2.55,2.49-1.25,4.24.99,1.34,2.7.93,4.13.74,2.61-.34,5.14-.97,7.34-2.53,2.33-1.47,3.24-3.15,1.05-5.53-1.03-1.11-.88-2.38.06-3.55.32-.34.69-.62,1.1-.86.7-.4,1.5-.61,2.11-1.17,1.22-1.13,2.39-2.47,1.82-4.19-.69-2.08-2.64-1.41-4.17-1.26-1.43.14-2.85.72-4.22-.19-.5-.74-.58-1.51-.01-2.24,2.77-3.6,2.47-4.94-1.44-7.46-1.51-.98-3.36-1.27-4.73-2.51-.38-.7-.43-1.43-.26-2.19,1.36-2.68,3.1-4.78,6.54-4.2,1.87,4.19,4.79,6.98,9.67,6.99,1.12,0,2.52.16,2.9-1.24.29-1.06-.74-1.73-1.49-2.36-1.66-1.4-3.51-2.39-5.68-2.76-1.59-.28-3.35-.31-4.05-2.24.61-4.01,2.37-7.1,6.55-8.27.25.23.53.5.53.8-.12,4.14.77,5.93,4.33,8.49,1.62,1.17,2.86,2.76,4.42,4,1.47,1.17,2.95,2.2,4.68.33-8.74.02-13.67-10.3-10.49-15.16,1.16-1.78,2.48-3.19,4.72-3.06,1.74.1,3.32.67,3,2.99-5.31,2.5-5.81,4.96-1.84,8.9.86.86,1.74,1.62,2.99,1.01,1.25-.61,1.23-1.79,1.05-2.98-.25-1.72-1.61-3.34-.43-5.18,3.37-.32,5.51,1.79,7.64,3.9,2.53,4.21,1.83,8.95,2.04,13.51.08,1.79-.43,3.63-.21,5.43.39,3.2-.39,5.79-2.97,7.91-2.54,2.09-2.61,5.04-2.21,8.08,2.44-3.59,1.22-9.43,6.95-10.83.4.73.37,1.44-.06,2.15Z"/>
      <path class="cls-153" d="m460,180.78c-3.18,3.04-3.78,7.16-4.69,11.15-.24,1.06-.02,2.62-1.62,2.62-1.65,0-2.41-1.7-2.25-2.78.5-3.22-.48-7.06,3.2-9.2,2.41-1.4,2.8-3.33,2.67-6.17-.29-6.51.65-13.08-1.13-19.51.02-2.91,1.23-5.83-.06-8.74-.37-2.84-.59-5.69.18-8.5,3.03-3.16,1.01-6.6-.04-9.54-1.06-2.97-3.28.59-5.01.05-2.24-2.35-4.54-1.9-6.91-.19-1.59,1.14-3.02,2.44-4.42,3.79-3.55,2.85-4.22,7.22-5.87,11.08-1.09,2.54-2.31,5.04-3.82,7.38-.41.56-.93,1.01-1.55,1.32-1.64.45-3.28.91-3.73,2.91-.22.39-.51.72-.85,1-2.2,1.24-3.66,3.18-4.91,5.3-1.45,2.19-1.93,4.98-4.19,6.66-1.03.41-2.04.37-3.04-.11-5.95-6.21-5.17-12.32,2.35-18.38,1.78-1.63,3.04-3.99,5.87-4.12,3.86-2.78,7.66-5.63,10.07-9.88l.04.02c2.41-2.92,3.35-6.41,4.13-10.02,1.52-7.02,7.42-11.68,14.8-11.28,7.87.43,12.18,4.1,14.14,11.9,2.06,8.22,2.59,16.31,1.81,24.63-.16,1.67-.32,3.3-1.02,4.84-.19,6.11-2.49,11.92-2.61,18.04-.5,1.91.13,4.13-1.54,5.73Z"/>
      <path class="cls-42" d="m390.27,244.81c-1.55-1.55-4.93-2.85-3.35-5.23,1.62-2.45,4.27.05,6.11,1.12,11.6,6.76,23.55,12.95,35.31,19.36,9.16,5,17.64,11.4,27.52,15.12.96.36,1.59,1.62,2.38,2.46-.65,1.47-3.16-1.06-3.29,1.55-1.61.88-3.2,1.76-4.73,2.75-1.9,1.22-3.86.75-5.61-.43-13.76-9.25-28.65-16.53-43.05-24.68-.87-.49-2.2-.88-2.24-1.8-.24-5.94-5.35-7.42-9.04-10.21Z"/>
      <path class="cls-125" d="m95.87,113.97c-.66-.68-1.33-1.36-1.99-2.03-1.1-2.63-3.92-3.33-5.77-5.12-1.21-1.16-3.45-1.49-3.21-3.86,1.82-.16,3.52-1.08,3.49-2.84-.02-1.82-2.11-.86-3.24-1.27-1.97-.72-3.25-2.16-4.19-3.97,1.68-1.19,3.13-.09,4.58.53,4.66,2.01,9.16,4.34,13.65,6.7,10.9,5.81,21.47,12.24,32.76,17.31,3.47,1.56,6.49,3.94,9.77,5.87,1.28.75,2.5,1.71,2.13,3.54-1.02.19-1.97.45-1.95,1.78,0,.63-.01,1.25-.02,1.88-3.82-1.68-6.51,4.6-10.74,1.33-7.95-6.13-17.84-8.68-26.3-13.91-.22-4.07-3.93-6.52-9-5.96Z"/>
      <path class="cls-206" d="m427.21,181.9c-1.75-1.6-2.91-3.22-.22-5.03,1.3-.87,1.67-2.19.69-3.33-1.02-1.19-2.26-.61-3.44.24-2.13,1.52-5.37,1.7-5.99,5.02-1.89,1.9-4.41,3.24-5.36,5.98-.3.37-.64.69-1.02.98-4.62,3.74-5.49,9.4-6.97,14.56-1.12,3.92-1.91,8.09-1.67,12.29.64,3.44,1.84,5.04,4.77,1.56.95-1.13,2.04-2.1,3.69-1.93,2.02,1.28,4.75.77,6.53,2.61.06.64-2.24,1.54-.15,1.79,3.03.37,6.17.51,8.83-1.9,5.36-4.84,11.52-8.19,19.17-9.13-1.71,2.52-2.68,5.28-6.46,5.24-2.34-.02-3.83,1.62-4.37,3.96-1.2,4.73-5.89,3.2-8.83,4.78-1.18.64-2.95.18-4.24,1.09-1.63,0-3.26.01-4.88.02-6.19-1.15-12.45-.93-18.69-.96-6.82-.03-7.67-1.53-4.3-7.59,2.02-3.64,1.91-7.64,1.63-11.52-.68-9.6,6.91-21.87,15.78-25.11,1.56-.57,3.08-1.28,3.98-2.82,1.36-1.58,3.38-2.44,4.61-4.17.66-.31,1.29-.3,1.86.2,5.23-.46,7.2,4,10.11,6.89,1.16,1.16.03,2.55-1.34,2.99-1.28.41-2.66.44-2.65,2.26.15.85-.2,1.19-1.05,1Z"/>
      <path class="cls-82" d="m441.68,215.61c3.93-3.15,7.86-6.3,11.79-9.46,7.89-4.6,15.51-9.61,22.66-15.31l.02-.02c1.39-.71.85-3.21,2.98-3.23,1.14,1.08,2.34,2.1,3.24,3.4-4.28,2.98-9.16,5.48-9.48,11.68-1.54,3.64-4.27,6.28-7.41,8.46-7.19,4.98-15.07,8.9-22.02,14.27-.67.51-1.44.8-2.31.49-4.1,1.57-8.2,3.14-12.29,4.71-7.24,1.62-14.49,3.2-21.72,4.91-1.93.46-4.59,1.56-5.27-.46-.75-2.23,2.37-3.06,3.97-3.42,6.46-1.45,12.43-4.18,18.6-6.37,1.67-.59,2.86-1.47,3.99-2.66,4.59-1.98,8.45-5.36,13.22-7Z"/>
      <path class="cls-148" d="m460.19,294.59c2.78,2.71,6.48,3.77,9.77,5.59,2.68,1.48,5.42,2.86,7.52,5.28.74.85,2.96.87,1.86,2.6-.71,1.12-2.57.9-3.67.21-2.9-1.83-6.2-2.7-9.17-4.5-10.95-6.62-22.19-12.75-33.32-19.07-10.22-4.32-19.77-9.96-29.51-15.2-1.93-1.58-5.12-1.16-6.27-3.97-.51-2.71-.41-5.25,2.08-7.08.49-.07,1.04-.1,1.43.2,7.66,5.86,17.35,8.4,24.52,15.05,1.57,1.46,3.85.9,5.61,1.76,10.52,5.15,21.4,9.77,29.16,19.13Z"/>
      <path class="cls-18" d="m380.46,171.97c1.43,1.53,1.23,3.53.88,5.18-1.92,9.18-.46,18.44-.94,27.64-1.69,1.66-.93,3.78-.94,5.68-.11,33.07-.17,66.14-.23,99.2-1.15-.68-.92-1.84-1-2.89-1.77-2.19-1.08-4.87-1.05-7.22.45-29.08-.07-58.16.14-80.59-.07,23.09.16,52.83-.14,82.57-.04,3.77-1.61,7.39-1.75,11.19,1.12,5.3-.27,10.58-.12,15.87-1.45,1.03-2.88,1.26-4.25-.14,3-10.73,1.42-21.71,1.7-32.59.88-34.4,1.29-68.8,1.04-103.22,0-.67-.01.17,0-.5q.22-8.59-8.27-7.89c-2.81-.39-5.42.49-8.02,1.38-2.83.56-5.64,1.19-8.39,2.1-1.46.48-3.04,1.29-4.52-.08-1.73-1.7-3.94-.48-5.87-.98-.03-2.62,2.18-1.97,3.54-2.27,9.64-2.12,19.26-4.45,29.01-5.95,4.35-.67,7.74-2.01,9.16-6.5Z"/>
      <path class="cls-71" d="m344.44,372.6c-1.53-.11-3.2-.14-2.87-2.4.27-1.87,1.83-1.62,3.12-1.64,2.66-.04,5.33-.1,7.98.01,2.26.1,4.19-.24,5.81-2.06,2.31-2.6,5.04-2.78,7.93-.87,1.26,1.08.99,2.97,2.2,4.07,2.72,2.8,4.78,6.13,7.45,8.98,1,1.07,2.32,2.47,1.05,4.28-2.79.8-5.12,3.33-8.41,2.2-4.76-3.39-12.16-1.96-14.63,2.83-3.46,3.65-9.01,1.39-12.67,4.49-5.53.03-10.97-1.4-16.61-.19-2.46.53-4.98.87-6.85,2.35-2.49,1.98-5.16,1.96-7.94,1.8-1.25-.07-3.28.84-3.08-1.88.15-2.09.25-4.09,3.12-4.07,2.16.01,4.32-.02,6.47-.04,7.22-3.15,14.65-4.87,22.6-3.67,3.44.52,6.39.02,6.63-4.45.15-2.72,2.23-3.05,4.28-3.08,2.84-.05,5.63-.18,8.21-1.53,1.22-.38,2.47-.5,3.73-.61,1.67-.05,3.01-.56,2.79-2.56-.2-1.74-1.45-2.46-3.09-2.63-5.13-.53-10.16.24-15.16,1.31-.77.05-1.47-.12-2.05-.65Z"/>
      <path class="cls-64" d="m45.01,138.89c4.93,11.64,6.87,23.99,7.95,36.43,1.77,20.38-.27,40.74-.91,61.11-.29,9.46-1.05,19.09.29,28.37.96,6.64,1.13,13.6,3.56,20.04,2.55,4.71,3.27,9.93,4.2,15.09.07,2.27.54,4.45,1.55,6.5.25.74.35,1.5.3,2.28-.1.8-.38,1.5-1.06,1.98-2.55-2.46-3.3-5.9-3.73-9.04-.96-7-4.78-13.4-4.19-20.69.09-1.14.3-2.9-.32-3.37-5.2-4.01-2.63-9.3-2.62-14.17.02-11.81-.68-23.68.21-35.42.82-10.75,1.06-21.55,1.31-32.25.24-10.28.51-20.85-2.05-31.13-2.11-8.45-4.35-16.92-4.48-25.73Z"/>
      <path class="cls-43" d="m460.19,294.59c-1.04.02-1.99-.27-2.67-1.08-7.01-8.28-16.91-12.32-26.33-16.48-7.09-3.13-12.98-7.79-19.57-11.29-3.98-2.11-8.46-3.1-11.36-6.98-.56-.78-2.68-.05-1.98-2.05-1.41-3.02-.04-8.17-6.21-7.62-.98.09-1.43-2.7-1.81-4.29,2.3.92,4.55,1.98,6.9,2.73,2.22.71,3.7,1.26,1.99,4.07-1.01,1.66.42,3.1,1.99,3.91,14.99,7.7,30,15.37,43.91,24.97,1.86,1.28,3.89,2.06,5.57-.49,1.11-1.69,2.9-1.27,4.53-1.29,1.68.52,3.85.38,3.98,2.98-.99.04-2.02-.09-2.94.18-1.47.42-2.76,1.5-3.21,2.86-.57,1.73,1.23,2.52,2.31,3.35,2.27,1.74,5.54,2.62,4.91,6.52Z"/>
      <path class="cls-35" d="m348.42,692.09c.3-7.71,3.59-14.71,5.27-22.1,2.12-9.3,4.93-18.44,7.42-27.65,3.65-13.51,7.32-27.01,10.89-40.54,3.87-14.66,7.56-29.37,11.44-44.02,5.29-19.96,10.7-39.89,16.06-59.84.51-1.89,1.05-3.78,1.58-5.67.39-.34.76-.33,1.1.07-2,11.05-5.72,21.67-8.37,32.53-4.76,19.55-10.27,38.88-15.3,58.35-3.84,14.86-8.1,29.61-12.02,44.45-3.24,12.25-6.05,24.61-9.48,36.8-2.1,7.46-3.89,14.98-5.8,22.47-.48,1.88-1.13,3.83-2.79,5.14Z"/>
      <path class="cls-81" d="m404.25,268.71c9.66,5.3,19.99,9.39,28.93,15.99-1.33.17-3.52-.45-2.08,2.26.55,1.05,2.67,1.85,1.29,3.18-1.26,1.21-3.16.59-4.65-.27-3.55-2.05-6.98-4.33-10.61-6.22-6.52-3.39-13.09-6.68-19.77-9.72-1.84-.84-3.45-1.8-5.05-2.97-1.34-.98-4.19-.67-3.61-3.17.46-1.97,2.74-2.06,4.6-2.08,3.7.83,6.98,3.19,10.95,3.01Z"/>
      <path class="cls-72" d="m97.84,99.65c1.79-1.25,3.34-.74,4.85.59,1.04.92,3.47,2.3,3.38,1.08-.15-2.29,4.52-3.95.79-6.35,4.15-2.77,7.16.95,9.64,2.63,6.56,4.43,13.5,8.06,20.41,11.82.96.52,2.18.97,1.91,2.5-.91.11-2.7.43-2.47.7,1.99,2.4-.74,4.97.47,7.28-1.29,1.26-2.61,1.05-4.06.23-10.73-6.08-21.55-12-32.41-17.83-1.15-.58-2.36-1.12-2.53-2.64Z"/>
      <path class="cls-149" d="m138.83,111.91c-9.62-4.71-18.73-10.3-27.69-16.13-1.39-.91-2.81-.79-4.28-.82-5.01-3.26-10.07-6.33-15.66-8.63-1.93-.79-6.13-1.91-4.42-5.16,1.45-2.75,4.36.07,6.58.62,2.61.65,3.56,3.97,6.49,4.2,6.62,1.47,11.91,5.72,17.54,9.02,12.97,7.6,26.53,14.13,39.34,21.98,1.48,2.87,4.87,2.89,7.1,4.7,1.06.86,3.35.9,2.3,2.87-1.04,1.96-3.03,1.64-4.7.45-6.87-4.89-14.92-7.79-21.65-12.92-.23-.18-.64-.13-.96-.18Z"/>
      <path class="cls-73" d="m512.02,746.36c0,1.66-.11,3.33.02,4.98.47,5.69,1.45,6.31,6.69,4.44,1.91-.68,3.23-.31,3.56,1.98.59,4,.18,7.96-.58,11.88-.37,1.94-1.97,2.63-3.73,2.66-2.65.05-5.32-.04-7.97-.18-1.59-.08-3.16-.68-3.06-2.54.08-1.66,1.4-2.64,3.05-2.76,2.46-.18,4.95.39,7.36-.66,1.59-.7,2.41-1.81,2.26-3.46-.18-2.01-1.79-2.07-3.34-2.15-8.59-.43-10.29-2.12-10.46-10.63-.06-2.82-.15-5.69.27-8.46.73-4.8,5.11-7.12,11.16-6.26,3.63.52,5.98,3.83,5.86,7.92-.06,1.91-.47,3.34-2.6,3.5-2.19.16-3.48-.84-3.48-3.18,0-1,.02-2-.08-2.99-.13-1.24-.59-2.34-2.08-2.3-1.43.04-2.71.64-2.84,2.23-.16,1.98-.04,3.98-.04,5.97h.03Z"/>
      <path class="cls-123" d="m460,180.78c.09-1.94.18-3.88.27-5.82,1.7-5.92,2.51-11.97,2.92-18.1,1.72-11.89,2.2-23.66-3.16-34.91-2.12-4.44-12.16-6.67-17.34-4.06-5.33,2.68-6.77,7.72-8.4,12.73-.8,2.44-1.05,5.23-3.99,6.31,3.36-4.93,1.72-11.43,5.49-16.42,2.31-3.05,5.8-3.48,8.4-5.61,3.31-1.45,6.61-1.56,9.86.17,1.2,1,2.56,1.63,4.1,1.89,4.78,1.65,5.48,5.75,5.97,9.97.81,5.81,3.88,11.11,3.04,17.36-1.57,11.76-1.73,23.71-5.03,35.22-.37,1.28-.76,2.55-1.87,3.41-.08-.71-.17-1.42-.25-2.14Z"/>
      <path class="cls-191" d="m156.74,116.99c-4.09.31-7.08-2.53-10.24-4.23-7.62-4.09-15.5-7.85-22.8-12.36-7.9-4.88-16.53-8.58-23.84-14.41,1.35-.99,2.71-1.98,4.06-2.97,8.8,6.53,19.03,10.58,28.24,16.42,5.58,3.53,11.9,5.79,17.15,9.9,1.89,1.48,3.73.76,5.49-.39,1.7.19,2.58,1.36,1.47,2.58-2.01,2.21-.57,3.73.46,5.47Z"/>
      <path class="cls-170" d="m534.69,772.44c-9.51-.18-9.8-.3-5.94-8.94,3.44-7.7,5.71-15.48,5-23.98-.26-3.11,1.37-4.09,4.29-3.85,2.89.24,3.81,1.85,3.23,4.38-1.84,8-3.72,16.02-8.98,22.65-.92,1.16-1.51,2.14-.81,3.56.81,1.63,2.13,1.06,3.46.94,2.15-.19,4.33-.34,6.46-.16,1.74.15,3.36,1.18,3.21,3.14-.14,1.8-1.9,2.16-3.43,2.23-2.16.1-4.32.02-6.48.02Z"/>
      <path class="cls-208" d="m417.05,172.72c-1.2,1.93-3.04,3.33-5.1,3.68-5.63.97-8.25,5.08-10.74,9.45-3.93,6.9-4.63,14.51-4.84,22.22-.06,2.18-.51,4.02-1.93,5.93-2.33,3.14-1.28,4.78,2.63,4.84,5.58.08,11.15.11,16.73.21,1.37.02,2.58.57,3.47,1.67-7.47.03-14.93.16-22.39.05-4.21-.06-5.71-3.23-3.32-6.71,1.66-2.42,3.18-4.54,3.17-7.97-.01-8.39,1.93-16.42,6.23-23.87,2.44-4.22,5.78-6.56,10.35-7.59,1.12-.25,2.36-.64,2.68-1.94.45-1.78-1.29-1.55-2.16-2.11-4.63-2.99-5.2-7.6-4.28-12.33.69-3.54,2.14-7.07,6.75-7.33-1.05,1.63-2,3.34-3.18,4.88-3.66,4.76-1.91,8.94,1.21,13.03q4.76,1.2,4.73,3.89Z"/>
      <path class="cls-76" d="m412.25,452.42c-.1-1.87.41-3.57,1.06-5.32,1.99-5.32,1.06-6.66-4.46-6.68-6.98-.03-13.97.02-20.95-.02-8.84-.05-9.6.85-11.67,9.7-2.98,12.72-6.4,25.34-9.65,37.99-.41,1.59-.64,3.29-2.12,4.37-1.15-4.89,1.59-9.01,2.8-13.38,3.4-12.26,5.21-24.93,9.59-36.95,1.05-2.87,2.55-3.78,5.46-3.81,10.12-.11,20.24.52,30.37-.38,3.74-.33,4.01,3.16,3.44,5.78-.95,4.33-2.48,8.54-3.77,12.8-.91-1.35-.76-2.73-.1-4.11Z"/>
      <path class="cls-109" d="m441.17,225.89c6.24-6.31,14.53-9.61,21.71-14.55,3.64-2.51,6.56-5.45,9.25-8.79,1.27-.37-.44-2.73,1.69-2.52,1.58,1.55,3.52.51,5.28.73-4.2,4.68-9.34,8.51-12.68,14.01-.58.96-2.14,1.34-3.24,1.98-.55,1.67-.41,3.86-3,4.01-1.54-.34-2.24,2.26-4,1.13-3.75,1.31-6.61,4.13-10.09,5.9-.58.57-1.08,1.45-1.77,1.63-1.49.4-3.15,2.15-4.52.67-1.58-1.71.93-2.77,1.37-4.21Z"/>
      <path class="cls-194" d="m154.8,108.95c-.91,4.15-3.65,3.48-6,1.83-11.89-8.32-25.18-14.18-37.54-21.65-2.67-1.62-6.88-1.73-7.34-6.11,7.05-.92,11.27,4.71,16.7,7.42,10.11,5.04,19.2,12.02,29.93,15.97,1.52.56,2.84,1.68,4.25,2.54Z"/>
      <path class="cls-120" d="m446.41,372.6c12.91,0,25.82.03,38.72-.02,4.33-.01,8.23,2.61,12.65,1.94,1.56-.24,3.28.47,4.78-.79-.69-1.67-3.11-1.3-3.52-3.13,3.27.2,8.46-1.41,8.51,3.22.05,4.75-5.35,2.91-8.02,2.55-12.59-1.68-25.22-1.5-37.85-1.98-9.57-.36-18.49,2.49-27.73,3.71-2.83.37-5.81,1.49-8.5-.62.35-.42.78-.71,1.29-.88,6.54-1.39,13.38-1.3,19.66-3.99Z"/>
      <path class="cls-2" d="m100.89,100.93c8.59,4.04,16.15,9.94,25.1,13.41,3.72,1.45,6.43,5.21,10.84,5.56,4.15,2.57,8.3,5.13,12.43,7.73,1.01.63,2.9,1.12,1.75,2.74-.77,1.09-2.45.68-3.66.14-1.17-.52-2.04-1.67-3.47-1.67-5.3-5.02-12.04-7.56-18.31-11-8.95-4.9-18.31-9.07-26.79-14.81.32-1.09,1.53-1.27,2.11-2.1Z"/>
      <path class="cls-213" d="m84.91,102.96c2.72,1.97,5.33,4.13,8.21,5.83,1.68.99,2.34,1.63.76,3.14-3.7-.4-6.57-2.73-9.41-4.68-7.31-5.01-15.53-8.18-23.33-12.18-1.67-.86-3.38-1.28-3.97-3.21-.33-1.07.21-1.97,1.18-2.47,1.81-.94,3.15.35,4.55,1.13,7.35,4.13,14.67,8.28,22.01,12.43Z"/>
      <path class="cls-186" d="m42.01,62.01c2.66-6.33,5.32-12.65,7.98-18.98,0,0,0,0,0,0,1.87-1.97,1.03-2.85-1.27-2.95-1.8-.08-3.61.14-5.41.06-4.31-.18-5.01-1.55-3.19-5.96.87.77.88,2.05,1.66,2.86.34.23.7.44,1.09.58,3.5.41,7.07-.17,10.49.93.6,0,1.19-.07,1.72-.37,1.12-1.14.5-3.07,1.86-4.09,2.07,1.99,1.42,4.79.42,6.37-5.16,8.19-6.32,17.34-7.13,26.6-.27,3.03-1.79,3.92-4.53,3.9-2.76-.03-3.89-1.36-3.78-4.01.07-1.65.07-3.3.1-4.96,0,0,0,0,0,0Z"/>
      <path class="cls-136" d="m74.94,39.03c-2.01,1.86-4.41.47-6.61.73-1.96.24-3.2.97-3.14,3.01.05,1.96,1.27,2.12,3.06,2.15,6.11.08,8.58,2.96,8.82,9.78.46,2.43.7,4.85-.09,7.25-3.87-.91-1.8-4.08-2.26-6.22-.55-2.55.43-5.82-3.67-6.21-.47,0-.87-.16-1.22-.45-1.76-1.08-3.05-.5-4.19,1.06-.62.84-1.58,1.23-2.63.72-1.18-.57-1.55-1.58-1.49-2.86.15-3.62.33-7.25.35-10.87.01-2.66,1.04-4,3.83-3.89,2.63.11,5.3-.21,7.91.1,3.33.39,3.8,2.67,1.35,5.69-2.5-3.38-5.87-2.91-10.26-2.11,3.8,1.82,7.57-.42,10.26,2.11Z"/>
      <path class="cls-143" d="m100.89,100.93c0,1.41-.83,1.98-2.11,2.1-5.94-2.71-11.87-5.43-17.81-8.15-2.73-1.72-5.5-3.38-8.17-5.19-1.39-.93-3.9-1.78-2.83-3.81.93-1.75,3.32-1.14,4.92-.2,5.2,3.06,10.46,6.06,15.41,9.49,2.43,1.68,5.02,2.99,7.53,4.48,1.02.42,2.04.85,3.05,1.28Z"/>
      <path class="cls-39" d="m399.28,392.39c-2.68.95-3.17,2.9-2.83,5.51.26,1.96-.73,4.09-2.73,3.97-2.12-.12-1.53-2.52-1.55-4.07-.02-1.81.16-3.62.29-5.42.07-1.01.13-2.52-.85-2.55-4.62-.14-7.04-4.57-11.21-5.45-.59-.27-1.21-.49-1.48-1.18-.31-2.14.35-3.54,2.77-3.57.69.04,1.34.24,1.91.63,2.07,2.46,4.66,4,7.85,4.47.4.16.75.4,1.06.69,1.29,1.86,2.45-.75,3.7-.12.88.69.71,1.85,1.23,2.71,1.38,1.14,3.56,1.95,1.83,4.38Z"/>
      <path class="cls-54" d="m497.92,175.62c6.15-3.1,12.19-6.47,19.35-6.66.62-.02,1.31-.3,1.82-.67,1.25-.91,2.44-1.86,3.99-.68.89.68,1.02,1.71.79,2.71-.43,1.85-2.26,2.09-3.55,2.17-8.07.5-14.98,4.28-22.14,7.42-1.66-3.19,1.9-2.59,2.83-3.9.66-.11-.46-.49-.14.1.1.18-.06.19-.39.29-1.04.31-1.92.22-2.54-.78Z"/>
      <path class="cls-134" d="m76.01,62.02c1.77-2.23.4-4.92,1.06-7.32,1.92,7.02.21,14.58-6.3,17.18-3.52,1.41-5.68-.34-7.57-1.84-2.15-1.72-4.55-4.1-3.87-7.56.34-1.73,1.26-3.14,3.3-3.11,1.91.02,3.06,1.13,3.49,2.94.15.63.12,1.32.14,1.98.05,1.64.67,3.3,2.36,3.2,1.84-.11,1.97-2.11,1.87-3.57-.34-4.94.65-9.95-.66-14.84.37-.02.75-.04,1.12-.06,2.91,2.15,2.11,5.35,2.29,8.25.17,2.81-.12,5.63-.12,8.74,1.71-1,1.42-3.17,2.9-3.99Z"/>
      <path class="cls-174" d="m236.37,412.26c-2.8.12-5.58.11-7.98-1.68-2.5-2.58-1.68-4.11,1.38-5.5,3.47-1.58,7.04-1.78,10.67-1.5,3.39.26,5.22,1.92,4.05,5.61-1.86,3.25-5.22,2.55-8.12,3.07Z"/>
      <path class="cls-144" d="m320.26,398.23c-.1-2.57,1.06-3.69,3.69-4.11,6.05-.98,12.04-1.15,18.04.17.63,1.37.65,2.88-1.02,3.13-6.86,1.05-13.76,1.83-20.72.82Z"/>
      <path class="cls-52" d="m484.24,152.73c2.28,2.84,3.15,6.11,2.9,9.69-.42,6.21.89,12.48-.7,18.67-.63,2.45,1.44,1.41,2.53,1.55.26,2.85-1.95,2.73-3.74,3.12-1.58-.08-2.73-1.1-4.02-1.84-.7-3.26,1.82-5.84,1.82-9.03,0-5.77.2-11.47-2.04-16.99-.9-2.22-1.46-4.74.09-7.08,3.02,3.95,3.75,8.62,3.99,13.38.18,3.59.04,7.2.04,9.69-.45-5.45,1.14-12.18-1.8-18.53-.4-.86-.01-1.98.93-2.63Z"/>
      <path class="cls-145" d="m195.24,408.03c5.65-5.16,11.94-2.43,18.04-1.35,1.83.32,1.26,2.43,1.89,3.67-3.96,2.28-8.09.45-12.14.47-1.97,0-3.93.1-5.9.16-1.57-.38-1.5-1.81-1.89-2.95Z"/>
      <path class="cls-166" d="m459.13,281.69c-1.03-1.38-3.43-.95-3.97-2.98-.41-1.24-2.52-.69-2.63-2.36,2.5-1.72,3.61,1.84,5.7,1.29,4.97,2.41,9.96,4.79,14.92,7.23,1.46.72,3.38,1.58,2.28,3.58-1.07,1.94-3.33,1.61-4.86.7-3.92-2.32-7.64-4.96-11.45-7.48Z"/>
      <path class="cls-220" d="m484.05,184.88c1.85-.27,3.87-.18,4.92-2.23,2.26-3.26,6.46-4.05,8.95-7.02,1.11.13,2.23.25,3.35.38.03,2.35-3.64,1.38-3.1,3.91-3.75,4.25-9.02,6.58-12.96,10.89-2.72,2.97-7.96,3.99-10.65,7.94-.28.41-.5.85-.75,1.28-1.02.54-.32,2.23-1.69,2.52.5-6.37,4.93-9.35,10.09-11.69,1.63-1.68,1.95-3.76,1.85-5.98Z"/>
      <path class="cls-10" d="m476.17,360.57c-5.02-2.59-9.81-5.86-15.11-7.58-4.61-1.5-8.36-4.31-12.47-6.47-2.47-1.3-6.05-.67-7.53-3.85.72-.67,1.48-.72,2.29-.15,5.72.97,10.5,4.43,15.65,6.67,6.35,2.76,12.73,5.93,18.81,9.46.79.46,1.26,1,1.53,1.8-1.03.88-2.09.75-3.17.12Z"/>
      <path class="cls-197" d="m81.86,348.67c2.93.4,3.7,3.27,4.85,5.08,6.21,9.77,15.06,16.61,24.3,23.12.46.32.6,1.08.89,1.64-1.33.08-2.59.12-3.81-.69-10.44-6.94-18.45-16.27-25.82-26.22-.51-.69-.29-1.93-.41-2.92Z"/>
      <path class="cls-93" d="m399.28,392.39c.83-3.31-3.14-2.21-3.81-4.15.84-.3,1.62-.73,2.47-1,3.76-2.69,7.84-5.02,10.31-9.16.61-1.01,1.44-1.83,2.29-2.63,4.1-4.04,4.16-4.05,5.58-.25-.13.47-.32.92-.56,1.34-3.76,7-9.79,11.66-16.28,15.85Z"/>
      <path class="cls-130" d="m477.11,236.73c.78-4.88,5.72-6.95,7.59-11.24.72-1.64,3.68-1.11,5.52-.4,5.27,2.03,10.55.76,14.14-3.56.36-.43,1.13-.52,1.71-.77-2.11,6.77-9.84,9.99-16.18,6.64-2.95-1.56-4.64-.68-5.55,2.38-1.09,3.66-3.24,6.27-7.22,6.94Z"/>
      <path class="cls-55" d="m441.68,215.61c-3.67,3.73-7.86,6.48-13.22,7-.28-.61,2.1-1.5-.05-1.8-2.04-.29-4.16-.09-6.24-.1,2.44-2.58,6.07-2.33,9.04-3.66,1.43-.64,3.18-.51,4.03-2.21,1.17-.58,2.32-1.2,3.52-1.73,2.64-1.15,3,.43,2.92,2.5Z"/>
      <path class="cls-215" d="m236.37,412.26c2.41-1.19,5.57-.56,7.45-3.05.72-1.06,1.54-1.83,2.89-.92,6.27.66,12.4.15,18.49-1.66,1.96-.58,4.24-.09,6.38-.08-.23,1.8-1.6,1.75-2.95,1.94-5.8.82-11.7,1.13-17.14,3.68-.42.2-1.16.34-1.43.12-3.15-2.56-6.14-.79-9.26.07-1.36.38-2.95-.04-4.43-.1Z"/>
      <path class="cls-71" d="m297.52,402.39c.71-3.5-2.15-1.84-3.09-1.77-3.68.28-6.39-1.21-8.6-3.89-2.24-2.71.48-1.91,1.62-2.21,3.24.69,6.53.61,9.82.65,1.78.02,3.67-.23,5.11,1.26.9.2,2.28-.24,2.49.99.2,1.13-1.04,1.04-1.81,1.07-1.56.05-2.58.56-2.45,2.34-.11,2.34-1.75,1.66-3.09,1.57Z"/>
      <path class="cls-32" d="m60.89,310.69l.25-2.19c2.62-1.47,3.91.45,4.48,2.28,1.67,5.33,4.01,10.43,5.27,15.89.33,2.01.66,4.02.99,6.03-1.01-.01-2.24-.02-2.55-1.1-2.03-7.29-6.83-13.46-8.44-20.91Z"/>
      <path class="cls-30" d="m412.25,452.42c.03,1.37.07,2.74.1,4.11-4.19,11.71-5.6,24.21-10.17,35.81-.37-.02-.73-.05-1.1-.07,3.53-13.34,6.4-26.86,11.17-39.86Z"/>
      <path class="cls-212" d="m484.24,152.73c1.19,7.82,2.49,15.63,1.9,23.6-.13,1.7.33,3.66-2.45,4.25.72-10.26,1.49-20.24-2.6-29.75.19-.83.53-1.76,1.53-1.38,1.42.54,1.47,2,1.63,3.29Z"/>
      <path class="cls-103" d="m513.02,212.61c1.34-4.1,6.31-4.67,8.07-8.36-.12-.24-.24-.48-.37-.72.25.1.5.21.75.31,6.07-.94,11.74-3.32,17.64-4.91.38,1.05-.57,1.34-1.07,1.89-2.54,2.63-6.22,2.88-9.35,3.69-5.77,1.49-10.44,4.32-14.59,8.36-.45.27-.81.19-1.08-.26Z"/>
      <path class="cls-114" d="m246.71,408.29c-.96.31-1.93.62-2.89.93.59-3.06-.59-4.77-3.78-4.71-3.09.06-6.2-.35-9.24.87-2.61,1.04-3.76,2.47-2.41,5.21-.71-.15-1.42-.3-2.13-.45-1.13-3.07-.32-4.89,3.04-5.87,4.15-1.21,8.29-2.09,12.62-1.76,3.54.27,5.48,1.95,4.79,5.78Z"/>
      <path class="cls-126" d="m195.24,408.03c1.14.66,1.69,1.69,1.89,2.95-4.04-2.61-8.6-2.18-13.1-2.64-3.96-.4-8.2-.86-11.52-3.68.37-.58.83-.65,1.37-.23,7.2.76,14.4,1.45,21.37,3.59Z"/>
      <path class="cls-129" d="m137.66,180.98c-5.1-1.03-9.6-3.51-13.61-6.6-1.98-1.53-5.01-.87-6.23-3.49-.48-.6-1.6-.89-.97-2.02,7.55,2.97,14.95,6.21,20.81,12.1Z"/>
      <path class="cls-116" d="m415.56,376.53c-.18-.29-.24-.61-.17-.95.83-.94.48-2.76,2.23-3.02,5.51,1.61,10.3-2.64,15.7-1.94-1.21,3.51-5.09,4.03-7.24,6.48-.2.13-.41.25-.62.36-3.15-1.91-6.31-3.69-9.9-.94Z"/>
      <path class="cls-107" d="m354.06,388.01c-.15-.94-.71-2.06-.39-2.8,1.48-3.48,12.49-4.08,14.87-.9.61,1.01-.22,1.52-.73,2.15-.75.25-1.49.5-2.24.75-3.17-2.26-6.09-2.41-8.57,1.04-1.01.39-1.98.18-2.93-.23Z"/>
      <path class="cls-209" d="m443.34,342.53c-.76.05-1.52.1-2.28.15-5.22-1.36-9.28-5.32-14.65-6.49-1.26-.27-2.13-2.32-3.19-3.55,2.47-.8,4.15.95,5.75,2.15,4.42,3.32,10.3,3.86,14.37,7.75Z"/>
      <path class="cls-213" d="m95.87,113.97c.34-2.42,2-2.41,3.57-1.59,2.28,1.18,4.47,2.6,6.57,4.09,3.17,2.24,1.11,2.92-1.15,3.46-3-1.99-6-3.97-9-5.96Z"/>
      <path class="cls-156" d="m144.88,188.74c.36-3.16-3.49-3.39-4.09-5.88,1.69-.3,3.04.2,4.46,1.26,1.47,1.1,3.11,1.04,3.59-1.33,1.6-.83.41-2.96,1.81-3.88.19.1.39.19.58.29.81.82,1.2,1.82,1.22,2.97-.14,1.81-.29,3.62-1.35,5.2-1.11,1.38-2.44,2.36-4.3,2.35-.77-.07-1.41-.4-1.92-.99Z"/>
      <path class="cls-23" d="m47.96,132.93c-7.59-1.29-2.82,3.54-2.94,5.95-2.72-1.59-5.61-3.28-4.23-7.09,1.48-4.11,5.18-3.65,9.3,1.04-.68.6-1.38.67-2.12.1Z"/>
      <path class="cls-52" d="m476.13,190.84c-6.61,6.52-13.96,11.92-22.67,15.31.07-.42.14-.85.22-1.27,6.28-3.6,12.71-6.96,18.18-11.84,1.16-1.04,2.38-2.4,4.27-2.21Z"/>
      <path class="cls-112" d="m40.93,38.1c-1.49-1.06-.61-2.6-.81-3.92,5.6-1.65,11.2-1.5,16.81-.09-.29,1.92.77,4.11-1.13,5.71-2.9-4.26-9.93-5.06-14.87-1.7Z"/>
      <path class="cls-85" d="m538.03,200.81c.36-.63.71-1.26,1.07-1.89,4.29-2.55,3.55-6.41,2.29-10.09-.44-1.29-1.56-2.39-1.44-3.95,6.25,1.46,3.92,6.5,3.76,10.13-.13,2.92-1.13,6.49-5.67,5.8Z"/>
      <path class="cls-210" d="m484.05,184.88c2.66,3,2.01,4.99-1.85,5.98-2.21.16-3.31-.8-3.1-3.08-.52-1.31.45-2.02,1.14-2.85.32-.33.64-.67.97-1,1.56-1.5,1.89.66,2.84.96Z"/>
      <path class="cls-46" d="m356.99,388.25c-.6-1.91-.94-4.08,1.97-3.59,2.26.38,6.17-2.69,6.6,2.55-2.61,2.38-5.62,1.45-8.57,1.04Z"/>
      <path class="cls-169" d="m47.96,132.93c.71-.03,1.41-.07,2.12-.1,2.88,1.28,5.18,3.63,8.42,4.29,1.81.37,2.35,2,2.53,3.69-4.77-1.94-9.88-3.31-13.08-7.88Z"/>
      <path class="cls-209" d="m423.22,332.63c-6.45-.4-10.85-4.92-15.97-7.98,6.34.63,11.44,3.72,15.97,7.98Z"/>
      <path class="cls-197" d="m111.9,378.5c5,1.57,9.11,4.55,12.91,8.05-6.21.38-9.5-3.93-12.91-8.05Z"/>
      <path class="cls-43" d="m404.25,268.71c-4.56,2.31-7.77-.3-10.95-3.01.08-2.02,1.41-3.1,2.99-4.01,1.46.94.57,3.05,1.99,4.01,1.65,1.69,4.64.69,5.97,3Z"/>
      <path class="cls-113" d="m106.85,164.88c-3.83.15-6.04-4.06-9.95-3.7-1.1-1.63-3.79-1.78-4-4.26,5.48,1.19,10.06,3.98,13.95,7.96Z"/>
      <path class="cls-67" d="m367.8,386.46c.24-.71.49-1.43.73-2.14,3.29.99,5.48-2.49,8.62-2.12.98-.32,1.65.16,2.2.89.35.43.7.87,1.05,1.3-4.35-.17-8.05,3.53-12.6,2.08Z"/>
      <path class="cls-20" d="m430.25,136.92c-1.39,5.3-5.06,8.28-10.07,9.88,2.85-3.81,6.24-7.07,10.07-9.88Z"/>
      <path class="cls-56" d="m173.87,404.44c-.45.07-.91.15-1.36.22-4.75.13-9.22-.56-12.7-4.21,4.81.89,9.75,1.33,14.07,3.99Z"/>
      <path class="cls-204" d="m87.81,155.02c-3.66-1.93-7.86-2.95-10.72-6.26,4.49-.92,7.05,3.18,10.82,4.15.61.73.53,1.43-.1,2.1Z"/>
      <path class="cls-85" d="m539.94,184.88c-4.2-1.71-9.03-1.37-12.94-4.01,4.78-.16,9.81-1.16,12.94,4.01Z"/>
      <path class="cls-11" d="m50,43.03c-3.35,3.12-6.11-1.79-9.31-.79,3.17-.61,6.49-3.22,9.31.79,0,0,0,0,0,0Z"/>
      <path class="cls-130" d="m513.02,212.61c.36.09.72.17,1.08.26-1.53,3.81-4.57,6.06-8.04,7.9,1.73-3.22,3.24-6.63,6.95-8.15Z"/>
      <path class="cls-124" d="m502.06,188.9c-2.07,4.29-6.44,4.48-10.21,5.72,2.38-3.73,6.29-4.73,10.21-5.72Z"/>
      <path class="cls-113" d="m116.86,168.88c.32.67.65,1.35.97,2.02-3.76-1.81-7.87-3-10.97-6.01,4.25-.98,6.88,2.12,10,3.99Z"/>
      <path class="cls-142" d="m464.12,126.93c-1.45-3.64-2.48-7.54-5.97-9.97,4.87.43,7.27,4.43,5.97,9.97Z"/>
      <path class="cls-27" d="m454.04,115.07c-3.29-.06-6.58-.11-9.86-.17,2.8-2.85,6.79-2.78,9.86.17Z"/>
      <path class="cls-63" d="m476.17,360.57c1.06-.04,2.11-.08,3.17-.12,2.97.2,5.04,1.87,6.75,4.13-4.18.81-6.59-2.74-9.93-4.01Z"/>
      <path class="cls-63" d="m494.87,368.75c-3.61.05-6.86-.66-8.78-4.17,3.2.81,6.6,1.21,8.78,4.17Z"/>
      <path class="cls-70" d="m319.41,667.97c-1.2,2.13-.63,4.55-1.15,6.76-.37,1.58-.16,3.83-2.56,4.32.99-3.78.44-8.07,3.71-11.09Z"/>
      <path class="cls-81" d="m398.27,265.71c-2.67-.34-1.79-2.45-1.99-4.01,1.27-1.42.41-3.69,2.01-4.97.66.68,1.32,1.37,1.98,2.05-3.17,1.59-1.58,4.55-2,6.93Z"/>
      <path class="cls-11" d="m42.01,62c-1.73,1.01-.34,3.26-2,4.63-1.69-2.23-1.64-5.01-.37-6.68.99-1.31,1.61,1.21,2.37,2.06,0,0,0,0,0,0Z"/>
      <path class="cls-59" d="m391.39,316.5c-3.43.27-5.52-2.31-8.12-3.81,3.53-.48,6.65-.11,8.12,3.81Z"/>
      <path class="cls-70" d="m354.43,532.72c-.84,3.86,1.97,8.64-2.87,11.5.96-3.83,1.91-7.67,2.87-11.5Z"/>
      <path class="cls-11" d="m547.75,772.51c-.35-.67-.75-1.06-.7-1.4.21-1.57-1.81-2.98-.39-4.53.47-.51,1.29-.15,1.61.45.97,1.79,1.18,3.56-.52,5.48Z"/>
      <path class="cls-92" d="m76.92,342.61c2.83,1.04,4.55,2.99,4.93,6.03-2.68-1.16-4.59-2.95-4.93-6.03Z"/>
      <path class="cls-62" d="m87.81,155.02c.03-.7.06-1.4.1-2.1,1.91,1.01,4.34,1.34,5,3.93-1.82-.26-4.27,1.2-5.09-1.83Z"/>
      <path class="cls-11" d="m43.82,52.93c.02,1.37-.48,1.94-1.42,1.92-1.05-.02-1.9-.57-2.01-1.66-.12-1.13.59-1.82,1.71-1.8,1.17.02,1.44,1.04,1.72,1.54Z"/>
      <path class="cls-70" d="m334.43,609.47c-.54,2.6,1.33,5.82-1.99,7.7.3-2.66.57-5.33,1.99-7.7Z"/>
      <path class="cls-52" d="m480.25,184.92c-.38.95-.76,1.9-1.14,2.85-1.17.83-.64,3.33-2.95,3.05.89-2.29,1.07-5.08,4.09-5.89Z"/>
      <path class="cls-70" d="m314.57,684.14c.89,2.37,0,4.22-1.71,5.83-.47-2.25.16-4.17,1.71-5.83Z"/>
      <path class="cls-7" d="m471.01,240.67c.72-2.86,3.16-1.78,4.96-2.16-.39,3.62-3.11,1.89-4.96,2.16Z"/>
      <path class="cls-96" d="m344.61,187.68c4.27-.79,8.11-3.43,12.68-2.96,2.28-.87,4.93-.29,7.06-1.76,3.44-.38,6.87-.82,10.31-1.11,1.46-.12,2.69.18,2.03,2.25-2.56,7.94-1.17,16.14-1.34,24.2-.34,15.92.25,31.87-.27,47.78-.69,20.89-.54,41.77-.62,62.66-.02,3.71-.28,7.14-3.21,9.81-2.02,1.76-4.85,1.51-7.04,2.84-11.69,1.62-22.55,6.07-33.59,9.87-4.95.1-9.31,2.64-14.1,3.39l-.08-.08c-4.39,1.31-9.1,1.66-13,4.42-6.64.85-12.86,3.21-19.12,5.42-1.25.07-2.49.14-3.74.22-2.09,1.67-5.33.01-7.15,2.48-7.13,1.06-13.77,3.93-20.76,5.54v.03c-9.53,3.03-19.35,5.16-28.75,8.67-1.08.4-2.29.17-3.44.14-1.71-.89-3.13-.93-5.06.11-5.15,2.76-6.68.93-7.17-4.81-.68-7.97-.44-15.91-.52-23.85-.22-23.43.7-46.85,1.26-70.26.38-15.93.25-31.87.74-47.79.1-3.29.61-6.58.95-9.86.11-1.02.54-2.44,1.69-1.58,3.5,2.6,6.47-.21,9.66-.35,7.65-.35,14.75-2.99,22.14-4.34,9.59-1.75,18.91-5.51,28.53-6.41,7.27-.68,13.9-3.68,21.31-3.83,6.2-.13,12.33-2.83,18.53-4.23,7.01-1.58,14.01-3.27,21.1-4.34,3.72-.56,7.01-3.05,10.97-2.25Z"/>
      <path class="cls-47" d="m115.88,228.8c8.19-1.6,16.5-1.93,24.8-2.32,1.74-1.99,5.15,1.03,6.47-2.2.7-8.94-.46-17.94,1.22-26.81.18-.97.08-1.99.32-2.96.42-1.7,1.26-3.32,3.08-3.51,2.29-.24,2.15,2.03,2.77,3.43.48,1.08.58,2.28.44,3.43-1.7,13.56-.61,27.18-.73,40.76-.2,23.24.02,46.48-.1,69.72-.05,9.1-1.6,18.16-.76,27.28.52,2.21,2.52,3.35,3.69,5.1.29.75.25,1.47-.23,2.14-5.03,1.58-9.27-1.11-13.62-2.78-2.89-1.11-5.46-3.02-8.61-3.61,4.07,4.92,10.38,5.8,15.59,8.62,3.16,1.71,5.71,3.59,5.51,7.61-3.46.08-5.54-2.68-8.23-4.13-9.62-5.18-19.08-10.65-28.6-16.01-2.29-1.37-4.56-2.77-6.96-3.94-11.48-6.7-23.16-13.09-34.36-20.21-6.08-3.86-9.39-10.46-12.75-16.74-1.36-7.46-3.11-15-1.37-22.52,2.27-9.85,7.58-18.04,15.57-24.37,2.67-2.58,5.82-4.56,8.6-6.99,2.78-2.24,6-3.5,9.46-4.21,2.64.65,4.75-.92,7.04-1.7,3.85-1.3,7.87-1.97,11.77-3.09Z"/>
      <path class="cls-132" d="m155.72,352.69c-2.63-6.26-8.72-8.04-14.19-9.81-3.28-1.06-5.16-4.09-8.59-4.56-1.32-.18-.7-1.69-.5-2.55.46-2.06,2.28-1.32,3.21-.94,2.88,1.17,5.59,2.76,8.41,4.09,4.07,1.91,8.24,3.51,12.82,3.62,1.36-1.03,2.59-.27,3.63.48,12.47,9.01,24.73,18.3,36.87,27.75.51.4.86,1.01,1.26,1.54.71,1.36,2.81,2.35,1.89,4.12-.87,1.66-2.55.79-3.92.29-8.91-5.16-17.84-10.29-26.74-15.48-4.76-2.77-9.84-5.02-14.14-8.55Z"/>
      <path class="cls-83" d="m417.62,372.56c-.55,1.15-.98,2.39-2.23,3.02-.2-.77-.4-2.21-.6-2.21-1.99,0-2.08,2.26-3.43,3.11-2.43-2.71,1.04-4.79.88-8.17-3,2.74-4.58,5.94-7.31,7.95-2.16,1.18-2.83,4.35-5.84,4.4-2.34-1.82-3.83-1.29-4.55,1.6-.33,1.33-.02,3.09-2.05,3.42-.12-.17-.25-.34-.37-.51-1.28-1.4-1.49-3.16-1.69-4.92,1.78-5.98,2.48-12.05,1.24-18.23-.99-1.26-2.59-1.98-3.24-3.55-1.39-1.12-2.9-2.13-4.14-3.4-4.16-4.27-4.13-6.95-.09-13.5.43-.26.86-.25,1.3-.02.99,1.97-.37,3.31-1.32,4.73-.43.64-1.16,1.09-1.24,1.96.38-.62.78-1.21,1.64-.68,1.13,2.4,2.58,4.11,5.67,3.44,1.97-.43,3.4.81,4.67,2.21q3.77,4.15,8.2.17c.51-.11.91.33,1.29.36,1.22.11.44-.82.28-1.02-1.15-1.45-3.33-1.36-4.47-2.87-.35-.95.1-1.79.94-1.8,4.91-.03,4.11-3.24,3.62-6.3.21-.97.61-1.81,1.53-2.3,1.02,1.02,2.04,2.03,3.06,3.05,1.19,1.92,2.6,3.8.95,6.16-2.94,3.21-2.08,8.95-7.2,10.75-1.35.48-2.56,1.36-3.84,2.06.94,3.72-.89,7.4-.44,11.45,2.93-1.3,3.35-4.98,6.43-5.46,1.69-1.32,3.35-2.68,5.07-3.95,2.03-1.49,4.27-3.14,6.74-1.37,2.09,1.5,1.07,3.91.8,6.01-.18,1.46-.2,2.94-.29,4.42Z"/>
      <path class="cls-40" d="m70.88,326.68c-2.38-3.76-4.57-7.47-5.14-12.15-.29-2.36-.8-5.79-4.61-6.02-.09-.6-.18-1.2-.27-1.8-.99-1.92-.33-4.34-1.86-6.09-.68-5.33-3.27-10.29-3.1-15.78-.12-4.79.75-9.62-.75-14.34-.43-1.35-.06-2.93.95-3.7,2.58-1.96,3.71-4.9,5.55-8.29,1.11,3.12.78,4.98,0,7.49-2.56,8.23-3.38,16.68,1.3,24.66-.67,8.26,3.55,14.39,9,19.8,1.74,1.72,2.5,2.95.81,4.94-1.2,1.4-.17,2.77-.04,4.19.23,2.5,1.27,5.39-1.84,7.08Z"/>
      <path class="cls-58" d="m375.43,312.73c1.69-34.97.55-69.96.92-104.93,0-.78.25-1.56.38-2.35.5,0,1,.01,1.5.02,0,33.77,0,67.54,0,101.31-3.6.72-.75,4.49-2.79,5.94Z"/>
      <path class="cls-79" d="m358.4,378.58c-1.47,1.59-3.36,1.83-5.41,1.94-2.77.15-6.63-1.83-6.13,4.26.21,2.56-3.72,4.14-6.74,3.56-6.47-1.24-12.62-.69-18.7,1.9-1.42.6-3.27.19-4.92.25-1.16-1.74-4.89-1.55-3.85-4.89,1.01-3.26,3.84-3.1,6.5-3.08,4.44.04,8.87.08,13.31.12,2.73,3.23,6.13,3,10.4,1.95-3.42-3.22-7.54.69-10.33-2.02.58-3.38,3.3-1.52,5.04-2.08,2.2-.72,5.27,1.81,6.69-1.79.21-.23.42-.46.63-.7,4.57-1.28,9.11-1.93,13.51.58Z"/>
      <path class="cls-155" d="m231.97,392.49c2.88,4.81,1.43,6.37-3.12,6.02-3.3-.26-6.63-.09-9.91-.5-1.55-.2-3.66-1.11-3.54-2.95.13-2.12,2.18-2.64,4.15-2.63,2.66.02,5.31,0,7.97.08,2.36.08,3.58-.83,2.8-3.26-.55-1.7-.27-2.83,1.33-3.73,1.83-1.03,10.82-.36,12.44,1.04.92.8,1.65,1.77,1.25,3.03-.55,1.72-1.8,2.83-3.65,2.88-2.97.08-5.95.02-9.72.02Z"/>
      <path class="cls-139" d="m361.4,362.6c-1.79-.32-3.6-.53-5.35-.98-1.76-.45-3.88-.95-3.48-3.41.37-2.24,2.48-2.66,4.28-2.57,4.13.22,8.26.66,12.36,1.21,1.32.17,2.58,1.12,2.63,2.61.05,1.56-1.48,1.59-2.56,1.79-2.59.5-5.11,1.56-7.87,1.35Z"/>
      <path class="cls-140" d="m385.19,341.42c-.33.05-.66.11-1,.16-4.46,2.6-5.58,8.93-2.31,13.06.72.9,1.58,1.72,2.12,2.71.22.4-.04,1.37-.41,1.72-.73.67-1.44.26-2.06-.46-4.83-5.62-4.95-13.49.2-19.07,1.6-1.73,1.36-3.11.93-4.86,4.9-.38,5.71-6.87,10.68-7.18.77-.05,1.46-.88,2.39-.23.13,1.8-2.19,1.81-2.48,3.29-.11,1.26-.96,2.01-1.86,2.72-1.81,1.25-3.63,2.49-3.89,4.96-.34,1.38-.52,2.86-2.3,3.19Z"/>
      <path class="cls-115" d="m127.66,354.37c-.63.68-1.25,1.35-1.86,2.01.17.11.45.29.72.47,1.85,1.2,5.94.17,5.11,3.97-.7,3.18-4.04,3.69-6.86,3.59-5.12-.18-10.61,1.51-15.2-2.53.92-1.71,1.53-3.77,4.2-3.25,3.59,4.7,8.4,1.82,12.68,2.2-3.93-2.15-8.71.61-12.51-2.29,1.37-1.09,3.83-1.92.98-4.03,4.22-2.23,8.47-2.08,12.74-.14Z"/>
      <path class="cls-140" d="m388.43,358.47c1.71-.02,2.5,1.54,3.8,2.23,1.77,4.78.34,9.69.39,14.51.03,3-2.38,1.64-4,1-1.18-.65-2.17-1.53-2.99-2.6-.94-2.76-4.64-3.06-5.38-6.01,1.6-1.75,3.67-.99,5.56-.96,1.25.02,2.75.89,3.24-.99.36-1.37.84-3.04-.91-3.91-2.85-1.42-1.16-2.31.28-3.28Z"/>
      <path class="cls-162" d="m426.08,377.11c.57-4.22,4.96-4.17,7.24-6.48,4.53-.44,8.9.13,13.09,1.97-1.39,1.98-3.1,3.1-5.69,3.28-4.88.34-9.63,2.26-14.63,1.23Z"/>
      <path class="cls-157" d="m302.38,396.43c-3.43.03-6.86.04-10.29.08-1.86.03-3.63-.07-4.64-1.99-.3-4.49,1.94-6.29,6.26-6,1.63.11,3.29-.05,4.92.05,1.87.11,3.96-.61,5.23,1.69,1.44,2.6-.03,4.35-1.48,6.17Z"/>
      <path class="cls-205" d="m330.21,340.47c5.42-3.33,11.88-3.62,17.62-6.05,5.28-2.23,10.77-3.65,16.53-3.83.51.64.61,1.28-.05,1.89-4.06-.27-7.53,1.93-11.25,2.72-6.95,1.47-13.27,5.27-20.52,5.44-.82.58-1.6.53-2.33-.18Z"/>
      <path class="cls-12" d="m142.53,376.78c-1.24,0-2.08.1-2.89-.02-1.78-.26-4.64.9-4.67-2.11-.04-3.19,2.85-3.18,5.15-3.08,2.8.13,5.58.58,8.36.88,1.02.11,2.11.26,2.18,1.52.07,1.36-.85,2.17-2.11,2.33-2.13.26-4.28.34-6.01.47Z"/>
      <path class="cls-158" d="m220.47,371.48c10.56-3.59,21-7.57,32.2-8.81-.97,3.57-4.29,1.23-6.27,2.5-6.64,4.26-15.09,3.09-21.89,7.1-1,.59-2.6.15-3.93.19,0-.33-.03-.66-.12-.98Z"/>
      <path class="cls-131" d="m405.29,367.46c-1.65,2.26-3.32,4.51-4.93,6.8-.49.7-.98,1.5-1.89,1.16-.46-.17-.99-1.02-.95-1.52.36-4.17-.4-8.51,1.77-12.42,2.97.29,1.34,3.2,2.53,4.53,1.12.57,4.52-4.16,3.46,1.45Z"/>
      <path class="cls-183" d="m127.66,354.37c-4.25.05-8.49.1-12.74.14,0,0-.01,0-.01,0-1.56-.78-2.17-2.02-1.48-3.64.58-1.36,1.82-1.78,3.24-1.78,3.45,0,6.86.31,10.15,1.42,1.76.95,2.43,2.15.85,3.84Z"/>
      <path class="cls-154" d="m142.96,358.5c2.73.17,5.33-.09,7.05,2.2.47.63-.16,1.19-.55,1.7-2.02,2.64-4.61,1.96-7.21,1.28-1.83-.48-4.52-.43-3.98-3.2.49-2.53,3.07-1.88,4.69-1.97Z"/>
      <path class="cls-203" d="m124.66,368.74c1.55-.27,3.35-.3,3.68,1.46.39,2.09-1.49,3.4-3.11,3.93-3,.98-6.21.6-9.28.17-2.02-.29-2.3-2.17-2.03-3.91.31-2.01,1.91-2.66,3.62-2.6,1.79.06,3.56.55,5.33.85.2,1.89-1.64,1.54-2.49,2.28,2.28.97,3.19-.78,4.28-2.17Z"/>
      <path class="cls-199" d="m252.66,362.64c.25-.57.46-1.61.76-1.63,6.88-.55,12.93-4.75,19.97-4.51.56-.42,1.03-.34,1.43.23-1.63,3.23-5.03,1.58-7.51,2.58-4.63,1.86-9.37,4.06-14.66,3.34Z"/>
      <path class="cls-117" d="m284.3,354.4c4.13-3.87,9.63-4.25,14.7-5.7,1.37-.39,2.91-.2,4.37-.28.53-.37.94-.27,1.23.31-1.84,3.14-5.42,1.88-8.08,2.85-3.83,1.4-7.79,3.52-12.22,2.82Z"/>
      <path class="cls-196" d="m172.82,383.49c1.64.2,2.86.91,2.74,2.76-.06,1.05-.82,2.04-1.82,2.02-5.72-.15-11.69,1.99-17.05-1.7.31-.4.7-.7,1.16-.91,2.7-.74,5.47-.3,8.21-.45,1.73-.09,3.62.36,4.99-1.21.5-.5.99-1.02,1.77-.51Z"/>
      <path class="cls-84" d="m406.33,339.45c-.13.92-.31,1.81-1.25,2.28-6.29,1.64-7.5.96-7.57-4.27.91-2.07,1.54-4.64,4.75-2.8,1.36,1.6,2.72,3.19,4.08,4.79Z"/>
      <path class="cls-25" d="m172.82,383.49c-.35.25-.71.49-1.06.74-3.14,1.7-6.08-.18-9.07-.6-2.53-.36-4.26-.1-4.73,2.75-.42.06-.85.13-1.27.2-1.85-.31-3.29-1.16-2.66-3.25.57-1.89,2.19-2.65,4.18-2.86,5.21-.53,9.82,1.65,14.61,3.03Z"/>
      <path class="cls-98" d="m367.61,370.15c-2.15-1.03-.85-2.99-1.21-4.5,4.56-3.06,8.1.59,12,1.82-.03.21-.07.42-.09.63-.29,1.24.92,2.54-.14,3.75-1.74.69-3.47-.71-5.21-.02-.85-.24-1.32-.88-1.62-1.64-1.22-3.17-2.47-2.09-3.74-.04Z"/>
      <path class="cls-189" d="m196.6,376.72c1.11-.13,2.23-.26,3.36-.4.01-1.86-2.57-1.89-2.24-3.72,3.87-1.4,5.19,1.73,7.03,3.95,0,0-.05-.07-.05-.07-.24,4.57-1.1,5.15-4.66,2.91-1.21-.76-2.81-1.12-3.45-2.67Z"/>
      <path class="cls-115" d="m126.81,350.53c-2.96.36-5.76-.76-8.65-.93-3.69-.22-5.39,1.15-3.26,4.92-1.96.32-3.24-.54-3.63-2.41-.38-1.82,1.08-3.09,2.39-3.17,4.44-.28,9.13-1.81,13.15,1.59Z"/>
      <path class="cls-105" d="m402.25,334.66c-2.21-.46-2.92,1.11-3.62,2.69-1.83.17-2.5-1.54-3.75-2.3-1.03-1.09-2.71-1.23-3.63-2.48.67-.67,1.33-1.34,2-2.02,3.58.11,6.62,1.39,9,4.11Z"/>
      <path class="cls-58" d="m364.3,332.48c.02-.63.04-1.26.05-1.89,1.64-2.88,4.51-1.63,6.89-2.06,1.36.02,2.72.04,4.07.06-3.01,3.18-7.12,3.22-11.02,3.88Z"/>
      <path class="cls-151" d="m330.21,340.47c.77.06,1.55.12,2.32.18-4.95,2.91-10.27,4.35-16.03,4,4.39-1.99,8.64-4.42,13.7-4.17Z"/>
      <path class="cls-79" d="m344.44,372.6c.66-.04,1.31-.07,1.97-.11,3.36-.44,6.7-1.25,10.13-.7,2.39,1.99.07,2.3-1.09,2.69-1.85.62-3.86.29-5.77.69-2.1.44-4.13.97-5.13,3.18,0,0-.28.34-.28.34-5.83-2.21-1.01-4.09.18-6.09Z"/>
      <path class="cls-61" d="m304.6,348.74c-.41-.1-.82-.2-1.23-.31,3.7-3.47,8.16-4.41,13.05-3.87-3.56,2.46-7.65,3.44-11.82,4.18Z"/>
      <path class="cls-4" d="m124.66,368.74c.05,1.38,1.07,3.21-1.07,3.74-1.9.47-3.95.48-5.85-.25-.35-.13-.71-.75-.71-1.15-.01-.97.69-1.39,1.59-1.54,1.43-.25,3.03.3,4.25-.91.6.04,1.19.07,1.79.11Z"/>
      <path class="cls-98" d="m380.25,367.61c2.15,1.45,4.89,2.22,5.91,5.02-3.58-.12-6.96-.57-8.05-4.84,0,0,.29-.31.29-.31.62.04,1.23.09,1.85.14Z"/>
      <path class="cls-138" d="m111.93,328.61c3.07-.01,5.32,1.43,6.96,3.94-3.11.09-5.22-1.61-6.96-3.94Z"/>
      <path class="cls-9" d="m274.83,356.73c-.48-.08-.95-.15-1.43-.23,1.84-2.75,4.61-1.89,7.17-1.88-1.31,2.35-3.68,1.79-5.74,2.11Z"/>
      <path class="cls-202" d="m410.34,348.66c-.32-2.05-.64-4.11-.95-6.16,3.11,1.62,4.25,3.55.95,6.16Z"/>
      <path class="cls-222" d="m94.9,162.9c.36.62.71,1.25,1.07,1.87,1.51,2.11,5.99,3.65,1.36,6.97-3.83-.01-6.82-1.2-7.76-5.41-.41-1.85-1.72-2.28-3.42-1.84-.37.21-.73.43-1.06.69-.51,3.65-.19,7.82-5.5,8.29-.46.04-.79.63-.71,1.15.15,1.02,1,1.3,1.83,1.3,3.27,0,5.01,1.15,4.33,4.82-.36,1.93.76,2.75,2.7,2.15.55-.33,1.06-.7,1.53-1.14,2.14-1.96,2.61-5.26,5.37-6.73.87-.51,1.77-.87,2.8-.54,1.31.97,1.23,2.09.38,3.3-.73.56-1.65,1-1.53,2.16,1.05,2.95-.88,4.57-2.76,6.21-1.35.91-2.74,1.78-4.1,2.69-3.32,3.11-4.62-.69-6.66-1.96-1.02-.82-2.14-1.55-3.06-2.47-9.67-9.74-8.62-13.02,1.64-23.08,4.69-4.6,9.33-1.7,13.53,1.56Z"/>
      <path class="cls-181" d="m82.78,186.89c2.14-.02,3.58,4.19,6.23,1.02.84,4.49,0,8.92-.48,13.37-.01.11.16.31.29.36.13.04.31-.06.47-.14,2.89-3.52,4.96-7.85,9.69-9.44,4.73-1.28,5.99.85,6.01,5.33.02,5.61-1.72,10.54-4.28,15.33.3,4.19-3.02,5.2-5.83,6.67-2.67.35-4-.37-2.35-3.17.74-1.26,1.85-2.29,2.34-3.71,1.99-3.64,3.46-7.45,4.45-12.41-3.08,2.31-4.33,4.98-5.93,7.38-.92,1.39-1.12,3.7-3.66,3.37-.91-.91-1.55-2.95-3.17-.67-.74,1.03-1.71,1.49-2.9.58-.33-.7-.33-1.37.21-1.98.44-5.61-.32-11.26.72-16.85.37-1.99-1.08-3.4-1.8-5.04Z"/>
      <path class="cls-97" d="m94.9,218.81c1.96-2.01,4.55-3.41,5.8-6.09,1.32.21,2.21-2.67,3.7-.6.94,1.3-.05,2.36-.81,3.49-2.54,3.77-5.42,7.11-9.73,8.93-1.86,3.35-1.5,5.39,2.95,5.16.81-.04,1.57.38,2.09,1.08,0,.65,0,1.3,0,1.95-.19,1.18-1.33,1.36-2.06,1.98-3.15.98-6.27,2.02-8.93,4.07-.95.63-1.91.87-2.91.1-1.3-.15-2.08-.81-2.12-2.18-.38-1.1.21-1.83.94-2.5,4.59-1.97,2.09-6.3,3.12-9.45.12-.45.29-.87.53-1.27,1.96-2.37,4.79-3.35,7.41-4.68Z"/>
      <path class="cls-168" d="m83.88,234.77c-.33.64-.66,1.29-.98,1.93-.68.65-1.37,1.3-2.05,1.95-2.41-3.33-5.67-1.46-9.46-1.51,3.66.81,6.84-.54,9.45,1.52-4.16,3.7-9.1,1.78-13.73,1.75-1.23,0-2.46-1.94-1.67-3.04,2.04-2.82.57-3.65-1.85-4.27-3.3-.85-1.87-2.53-.48-3.75,2.16-1.9,4.7-2.93,7.74-2.66,1.97.18,3.97-.09,5.96-.16,1.1-.49,1.91-.3,2.25.97-2.85,2.69-6.82.86-9.86,2.82,3.11-.93,6.6-.06,9.45-2.29,2.66-.75,1.02-5.01,4.3-5.26,2.17,3.86,1.48,7.93.92,11.99Z"/>
      <path class="cls-90" d="m81.94,222.92c-1,1.68,2.69,6.21-3.04,5.01l-.12-.17c-.27-1.03-1.18-1.01-1.95-1.21-7.97-1.06-12.02-7.9-16.97-12.74-2.34-2.29-3.86-7.88-2.83-12.52.3-1.36,1.25-.57,1.97-.47,2.94,3.3,2.88,8.33,6.48,11.25.82.85,1.62,1.73,2.33,2.68,2.48,3.98,6.17,6.03,10.69,6.78,1.25.21,2.63.11,3.45,1.39Z"/>
      <path class="cls-198" d="m83.85,208.77c.09.68.18,1.35.27,2.03.71,1.28.83,2.72-.69,3.17-2.4.71-3.24-1.35-4.17-3-.89-2.31-1.69-4.7-4.56-5.32-1.32-.5-2.39-1.38-3.41-2.32-3.03-2.82-6.87-4.33-10.35-6.42-1.68-.3-2.28-1.4-1.72-2.88.69-1.84,1.84-.36,2.84-.22,5.04.72,8.52,4.17,12.67,6.51,4.02,2.27,6.4,5.31,9.14,8.43Z"/>
      <path class="cls-133" d="m60.93,196.93c4.68.07,8.15,2.4,11,5.89-2.51,1.39-4.28-.74-6.32-1.42-2.58-.86-3.38-.13-2.81,2.44.39,1.75.96,3.44,1.73,5.07.59,1.25,1.72,2.55.26,3.96-3.85-3.09-4.77-7.6-5.8-12.05-.1-1.67,1.24-2.61,1.93-3.89Z"/>
      <path class="cls-168" d="m85.02,238.88c.97-.03,1.94-.07,2.91-.1-2.92,2.08-5.57,4.56-8.92,6,1.36-2.63,3.69-4.25,6.01-5.9Z"/>
      <path class="cls-165" d="m380.46,171.97c.74,4.8-.33,6.7-6.13,7.43-11.98,1.5-23.74,4.76-35.59,7.3-10.53,2.13-21.09,4.21-31.61,6.42-10.53,2.21-21.04,4.57-31.56,6.85-11.65,2.53-23.29,5.11-34.96,7.56-6.97,1.47-13.97,2.86-20.99,4.04-5.25.88-6.25-.21-5.66-5.52,2.59-23.59,15-41.44,33.55-55.07,12.94-9.51,27.92-14.73,43.75-17.85,15.8-3.11,31.58-4.04,47.52-2.2,17.95,2.07,35.36,17.79,39.67,35.42.47,1.92,1.33,3.75,2.01,5.62Z"/>
      <path class="cls-110" d="m204.75,376.55c-2.48-1.08-4.14-3.61-7.03-3.95-10.61-8.04-21.15-16.16-31.86-24.06-2.88-2.13-5.29-5.05-8.98-6-.09-.58-.18-1.16-.28-1.74.12-.27.24-.54.36-.8.36-.55.91-1.2.57-1.79-2.96-5.06-2.11-10.62-2.12-16.04-.05-25.52-.03-51.04-.02-76.56,0-2.66.12-5.32-1.35-7.71-.26-12.96-.63-25.92.2-38.87.29-4.51,0-8.92-3.65-12.29.41-1.56.83-3.11,1.24-4.67,1.68-1.17,3.22-.26,4.65.46,16.41,8.32,32.88,16.5,49.17,25.05,1.16.61,2.39,1.19,3.01,2.49-1.25,18.07-.35,36.19-1.13,54.25-1.28,29.55-.58,59.11-1.01,88.66-.12,7.9-.78,15.74-1.77,23.57Z"/>
      <path class="cls-88" d="m150.65,178.92c2.25-9.53,4.5-19.07,9.5-27.65,8.22-14.08,20.46-23.73,34.62-31.2,17.17-9.05,35.66-13,54.87-14.17,11.07-.67,22.23-2.8,33.06,1.16,9.64,3.52,19.11,7.52,28.68,11.23,4.86,1.88,9.78,3.57,15.22,5.54-2.35,1.82-4.54,1.55-6.58,1.44-14.47-.78-28.59,2.2-42.17,6.19-17.14,5.04-33.33,12.92-45.6,26.65-9.43,10.55-17.42,22-20.76,36.24-.93,3.99-1.96,7.95-2.59,12.01-2.09,1.09-3.53.89-5.68-.79-4.37-3.4-8.93-6.95-14.8-7.58-2.24-.24-4.32-1.16-5.92-2.44-6.16-4.93-13.44-7.83-20.14-11.77-1.77-1.04-3.58-1.66-5.62-1.77-2.3-.12-4.13-1.12-5.29-3.19-.28-.01-.56.02-.83.09Z"/>
      <path class="cls-185" d="m151.48,178.83c9.53,2.32,18.42,6.41,26.27,12.05,7.78,5.59,17.59,6.45,25.07,12.12,1.97,1.49,3.82,2.69,6.1,3.37.66,1.29.26,2.5-.27,3.71-4.62-1.02-8.31-3.99-12.42-6.05-13.61-6.78-27.09-13.83-40.64-20.73-1.16-.59-2.5-.83-3.76-1.23-.23-1.06-1.23-2.05-.35-3.23Z"/>
      <path class="cls-159" d="m521.09,204.25c-6.81,2.18-11.27,7.52-16.25,12.15-1.21,1.12-2.36,2.2-3.84,3-1.23.66-2.25,1.57-3.37.04-.88-1.2-.99-3.11-.04-3.66,6.59-3.81,10-11.64,17.72-13.95,4.24-.96,11.9-5.11,13.38-7.25,1.57-1.61,2.82-3.87,5.57-3.4.99.17,1.75,1.14,1.67,2.22-.22,2.84-2.36,4.19-4.57,5.36-3.27,1.73-6.59,3.39-9.89,5.08,0,0-.31.09-.31.09l-.07.32Z"/>
      <path class="cls-69" d="m460.01,240.61c-3.3.14-6.46,1.01-9.66,1.73-2.19.5-4.58.3-6.85.12-1.62-.13-3.66-.71-3.86-2.49-.26-2.29,2.01-2.29,3.55-2.37,4.13-.23,7.65-2.96,11.86-2.73,1.27.45-1.64,4.11,2.17,2.76,1-.35,2.3.15,3.19,1.06.3.73.32,1.4-.4,1.92Z"/>
      <path class="cls-182" d="m460.23,238.73c-3.15-.28-6.41.5-9.66-.48.92-2.53,4.5-.29,4.49-3.38,0,0,.11-.13.11-.13,2.4-1.85,5.66-.13,8.07-1.93,2.31-.69,4.62-1.37,6.93-2.06,1.53-.64,3.28-1.42,4.2.57.79,1.7-.93,2.76-2.03,3.48-3.64,2.41-7.42,4.64-12.11,3.93Z"/>
      <path class="cls-3" d="m446.08,227.8c2.67-3.15,5.34-6.3,10.08-5.9.69,3.76-.51,6.77-3.66,8.94-3.52,2.43-5.88,1.3-6.43-3.03Z"/>
      <path class="cls-161" d="m521.15,196.87c-3.16,1.59-6.4,1.48-9.52.1-2.24-.99-3.08-2.68-.66-4.42,3.49-2.52,9.19,0,10.13,4.38l.06-.05Z"/>
      <path class="cls-95" d="m498.13,210c-.24,2.07-.67,4.04-2.83,3.49-3.19-.83-4.52-3.56-4.94-6.64-.24-1.72.73-3.26,2.46-2.78,2.99.84,4.92,3,5.31,5.93Z"/>
      <path class="cls-65" d="m473.26,228.48c-1.49-3.5-3.38-6.97-1.13-10.85.84-1.45,1.79-2.95,3.78-2.73,1.84.21,1.99,1.87,2.59,3.25,1.68,3.85-.42,7.09-1.42,10.53-1.33,1.06-2.62,1.33-3.82-.2Z"/>
      <path class="cls-80" d="m473.26,228.48c1.27.07,2.55.13,3.82.2-1.58,6.7-8.79,11.75-17.06,11.93.07-.63.14-1.25.21-1.88,4.38-2.39,10.39-1.57,13.35-6.9-.76-1.52-2.36-.49-3.41-1.08,1.03-.76,2.06-1.51,3.09-2.27Z"/>
      <path class="cls-127" d="m501.91,198.02c2.78.8,5.89,1.03,5.93,4.46.03,2.1-2.08,2.44-3.75,2.1-2.54-.53-5.49-1.19-5.69-4.36-.13-2.18,2.27-1.81,3.5-2.2Z"/>
      <path class="cls-101" d="m460.17,220.76c1.24-1.16,1.13-3.33,3-4.01,4.07.91,6.77,7.68,4.29,10.83-1.2,1.52-2.92,1.41-4.55,1.21-1.71-.21-2.57-1.37-2.63-3.07-.06-1.65-.07-3.3-.1-4.95Z"/>
      <path class="cls-152" d="m528.68,194.59c.93.2,1.86.4,3.57.77-4.72,3.21-10.03,3.79-13.79,7.27-.77.71-2.16-.21-3.15-.8.77-3.05,4.96-2.06,5.85-4.97,0,0-.06.05-.06.05,3.04.9,4.97-1.84,7.59-2.33Z"/>
      <path class="cls-104" d="m463.24,232.81c-2.12,3.04-5.3,1.64-8.07,1.93,2.08-3.21,5.28-1.71,8.07-1.93Z"/>
      <path class="cls-167" d="m98.98,192.05c-3.07,3.55-6.63,6.69-9.11,10.74-1.69.78-2.87.03-2.15-1.57,1.42-3.15,1.12-6.37,1.23-9.6.1-2.77,1.95-4.35,3.87-5.91,1.67-1.61,3.09-3.38,3.48-5.77,4.25-.2,4.71-3.64,5.57-6.66.35-1.21-.33-2.64.64-3.78,2.79,2.59,3.45,4.65,1.19,6.78-3.99,3.77-5.2,9.51-9.62,12.91-.91.7-1.75,1.89-.63,2.96.99.95,1.67-.43,2.5-.78,1.69-.73,2.53-3.34,5.03-2.34.48,1.84-1.94,1.63-2.01,3.01Z"/>
      <path class="cls-178" d="m115.19,217.8c2.75-1.55,6.61-1.44,7.2-6.07.23-1.83,11.86-1.41,12.87.5,1.18,2.23,1.08,4.18-2.16,4.54-2.26.25-4.65-.53-6.77.85-3.69,1.85-7.4,2.29-11.15.18Z"/>
      <path class="cls-173" d="m144.88,188.74c.63.03,1.25.06,1.88.09.58.68,1.07,1.41,1.24,2.31.6,4.62-.38,9.27.21,13.9.46,5.79-.7,11.54-.46,17.33-.2,1.79-.72,3.45-2.99,2.5-1.76-.74-3.01-2.2-2.1-4.27.58-1.31,1.2-2.67,2.12-3.82.17-9.34-1.63-18.7.1-28.04Z"/>
      <path class="cls-91" d="m124.86,204.74c-1.39-.1-3.16.67-3.81-1.32-.54-1.65.58-2.75,1.56-3.93,2.83-3.41,6.29-3.24,9.9-1.79,2.72,1.09,6.5,1.06,6.33,5.61-.08,2.11-.42,3.54-2.99,3.45-3.76-.13-7.45-.53-10.95-2.01,2.73-2.48,6.54-.13,9.45-2.02-4.42-4.23-7.63-3.52-9.49,2Z"/>
      <path class="cls-119" d="m115.19,217.8c3.72-.06,7.44-.12,11.15-.18,1.39,3.71-.08,5.22-3.84,5.06-1.79-.08-3.6.07-5.38-.09-3.62-.33-4.27-1.99-1.94-4.79Z"/>
      <path class="cls-173" d="m133.83,224.78c-1.93,0-3.71-.29-3.91-2.7-.09-1.1-.36-2.74,1-2.93,1.58-.23,3.67-1.74,4.7,1.49.64,2.01,2.76-.59,4.19.16,2.15,3.71,1.95,4.31-1.65,4.43-1.43.05-2.95.4-4.31-.44Z"/>
      <path class="cls-110" d="m133.83,224.78c.96,0,1.93-.11,2.88,0,3.28.38,4.47-.79,3.09-3.99,1.75-1.22,2.57-3.61,4.98-4.01-.04,1.42.17,2.81-.96,4.08-1.39,1.55.44,2.32,1.24,3.02,1.24,1.08,1.52-.15,1.76-1.11,2.37.59,1.48,2.1.99,3.5-2.31,2.41-4.75.18-7.12.21-1.99-1.77-4.96.46-6.85-1.69Z"/>
      <path class="cls-77" d="m98.92,230.78c-1.15,0-2.3.08-3.44-.05-1.63-.18-3.83.86-4.51-1.71-.67-2.5,1.17-3.48,2.91-4.48,1.95.04,3.89.07,5.84.14,1.46.05,3.19-.07,3.7,1.64.58,1.94-1.44,2.22-2.5,3.07-.63.51-1.33.93-1.99,1.39Z"/>
      <path class="cls-77" d="m96.86,234.71c.69-.66,1.37-1.32,2.06-1.98,5.63-1.41,10.79-4.83,16.96-3.93-1.87,3.42-5.63,1.62-8.39,2.9-3.24,1.51-6.73,3.32-10.63,3.02Z"/>
      <path class="cls-216" d="m96.83,171.02c4.17-2.7-.79-4.14-.86-6.26,5.89,3.39,6.49,7.6,1.86,13.02-.02-1.16.2-2.4-1.09-3.12-.98-1.24-.89-2.45.08-3.64Z"/>
      <path class="cls-86" d="m457.18,148.83c1.93,2.96,1.18,5.6-.99,8.06-2.37-1.3-4.75-2.61-7.12-3.91-1.43.13-2.09-.52-1.94-1.96-1.01-2.45-2.93-2.76-4.82-1.47-2.61,1.76-3.07,4.77-2.38,7.48,1.36,5.29,5.41,7.84,10.98,7.43.81-.06,1.64-.56,2,.59.24.74-.23,1.15-.76,1.63-2.63,2.3-4.86,3.9-7.83-.01-2.34-3.09-5.32-5.88-9.85-5.87-2.66,0-2.09-1.42-.84-2.81,1.34-1.5,2.53-3.08,2.47-5.24-.6-.56-.81-1.28-.85-2.07,2.42-8.25,6.1-15.66,13.84-20.29.7-.42,1.34-.99,2.23-.54,1.73-.62,2.12-3.81,4.69-2.65,2.12.95,2.21,3.06,2.14,5.05-.05,1.56.59,2.86,1.25,4.17,1.16,2.28-.31,2.46-1.97,2.51-.68-.16-1.12-.62-1.55-1.14-1.1-1.34-1.75-3.76-3.93-3.1-2.42.74-2.28,3.33-2.47,5.42-.14,1.64.13,3.23.64,4.84,1.15,3.62,3.46,4.83,7.04,3.88Z"/>
      <path class="cls-176" d="m412.34,196.95c-.02.68-.05,1.37-.07,2.05-.38,3.72-1.65,7.3-1.8,11.07-.11,2.66-1.93,4.23-4.03,5.18-1.64.74-2.77-.45-3.1-2.19-.45-10.47,1.63-20.15,8.8-28.24l.1-.02c1.08-.73,2.04-2.08,3.51-.64.88,1.6.88,3.38-.25,4.65-2.11,2.38-2.24,5.39-3.16,8.14Z"/>
      <path class="cls-87" d="m427.21,181.9c.35-.33.7-.67,1.05-1,.96-.18,1.93-.36,2.89-.54,2.66-.5,6.19-1.98,6.77,2.04.49,3.39-1.36,6.39-5.64,6.44-.92-2.22,3.65-4.12,1.27-5.37-2.65-1.39-5.36,1-7.48,3.31,2.01,1.57,4.67.09,6.18,2.08-.37,1.03-1.2,1.91.14,3.04,3.37,2.85,1.97,5.05-1.22,6.84-.67-3.04-1.97-4.55-5.47-3.2-2.06.79-4.54,1.14-6.49-.81,1.97-1.95,4.78-3.02,3.3-7.16-.9-2.51,2.92-3.87,4.72-5.67Z"/>
      <path class="cls-38" d="m429.93,161.06c4,1.17,8.49,1.18,11.4,4.91.78,1,2.24,1.7,1.53,3.3-.63,1.42-2.02,1.49-3.36,1.62-6.05.59-10.72-2.65-11.4-7.94.19-1.03.31-2.13,1.82-1.89Z"/>
      <path class="cls-89" d="m419.19,194.73c2.47-.1,5.01.46,7.36-.62,1.72-.79,3.44-1.57,5.03.02,1.6,1.61-.5,3.05-.43,4.61-2.46,2.23-5.62,2.53-8.65,2.98-1.88.28-4.39.91-5.4-1.13-1.11-2.22-.03-4.41,2.1-5.86Z"/>
      <path class="cls-160" d="m447.12,151.01c.65.65,1.3,1.31,1.94,1.96.7,2.02,1.75,3.99,2,6.06.41,3.3-2.64,5.42-5.05,3.41-2.31-1.93-4.62-4.46-4.82-7.76-.27-4.49,3.08-3.82,5.92-3.67Z"/>
      <path class="cls-13" d="m429.93,161.06c-.61.63-1.21,1.26-1.82,1.89-2.61.31-4.1,2.27-5.76,3.96-1.31.91-2.69,1.26-3.97.07-1.25-1.16-.26-2.39.11-3.57,1.58-2.19,2.77-4.73,5.4-5.97,3.57.44,4.89-2.02,6.04-4.71,1.48-1.1,3.19-1.7,4.89-2.33.48,0,.89.15,1.22.51.02.61.04,1.23.05,1.84-2.61,2.36-4.64,5.16-6.16,8.32Z"/>
      <path class="cls-50" d="m428.17,208.64c-1.64,1.4-3.27,2.8-4.91,4.2-2.1,1.19-4.48,1.08-6.75,1.38-1.56.21-3.06-.14-3.65-1.87-.53-1.56.64-2.36,1.58-3.32,1.08-1.12,2.52-1.52,3.77-2.28h.02c2.66-1.01,5.37-1.66,8.25-1.44,2.45.19,2.72,1.41,1.69,3.33Z"/>
      <path class="cls-74" d="m403.87,212.73c2.72,2.2,4.52,1.52,5.3-2.2.82-3.91,1-7.97,3.1-11.53,1.24,3.34-.84,6.67-.03,10.01,1.21,1.7-.07,2.69-1.08,3.76-.82.79-1.85,1.45-2.42,2.4-.9,1.51-1.75,2.9-3.79,2.38-2.38-.6-2.93-2.38-2.71-4.58.46-.65,1.01-.67,1.62-.24Z"/>
      <path class="cls-200" d="m412.34,196.95c-.22-3.08-.39-6.07,2.19-8.52,1.25-1.19.58-3.07.79-4.64.29-3.1,2.73-3.74,5.1-4.47,4.78,2.02.33,3.63-.23,5.42-3.89,3.25-5.43,8.02-7.84,12.22Z"/>
      <path class="cls-141" d="m411.15,212.76c.36-1.25.72-2.51,1.08-3.76,2.17-.27,3.45-2.92,5.97-2.25-1.28,2.07-5.6,2.66-4.15,5.75,1.36,2.9,4.44.07,6.74.31.81.09,1.64.02,2.46.03-1.03,2.29-3.23,1.67-5.04,2.02-2.55-.04-5.26.45-7.06-2.1Z"/>
      <path class="cls-24" d="m420.07,179.78c-1.58,1.33-3.17,2.67-4.75,4-1.02.34-2.05.67-3.08,1.01-.01-4.02,2.8-5.2,6-5.98.66-.03,1.33-.07,1.99-.1.26.29.32.54.19.76-.13.21-.25.31-.36.31Z"/>
      <path class="cls-111" d="m419.32,162.97c-1.78,3.47.01,4.18,3.03,3.94-.07.62-.14,1.23-.21,1.85-.61.07-1.22.15-1.83.22-1.76,1.16-3.49,1.21-5.18-.14.66-2.5,1.76-4.78,3.4-6.79.7-.07,1.26-.02.78.92Z"/>
      <path class="cls-75" d="m420.07,179.78c.06-.36.11-.72.17-1.07,1.55-1.13,3.37-1.62,3.87.7.62,2.87-1.18,4.6-3.93,5.32-.64-1.63,3.43-3.38-.11-4.95Z"/>
      <path class="cls-141" d="m428.17,208.64c.2-2.93-1.68-3.01-3.78-2.75-2.05.26-4.1.56-6.15.85,2.59-2.89,6.08-2.17,9.21-1.88,3.1.29,2.8,2.06.72,3.78Z"/>
      <path class="cls-128" d="m436.05,150.9c-.33-.03-.66-.05-.99-.06-1.84-2.55-.12-4.7.81-6.9,1.52-3.61,4-6.9,3.58-11.13,2.01-2.61,4.37-4.78,7.62-5.67,2.3-.63,4.28-.48,4.25,2.7-7.99,4.92-11.96,12.75-15.27,21.06Z"/>
      <path class="cls-146" d="m439.45,132.81c1.48.24,2.56-.17,1.59,2.52-1.87,5.23-5.73,9.69-5.98,15.51-1.13,1.8-2.82,2.3-4.82,2.05-.61-.06-.7-.63-.98-1.01,2.26-5.03,4.48-10.09,6.82-15.09.74-1.59,1.66-3.16,3.38-3.98Z"/>
      <path class="cls-1" d="m457.18,148.83c-2.78,3.2-5.04,2.37-7.01-.9-2.07-3.44-2.86-7.1-1.53-10.96.56-1.62.69-3.78,3.13-4.01,2.41-.22,3.63,1.3,4.55,3.19.44.89.75,1.84,1.11,2.77-.08,3.3-.17,6.61-.26,9.91Z"/>
      <path class="cls-180" d="m463.19,156.86c.35,6.25.04,12.38-2.92,18.1.08-6.18,2.09-12.04,2.92-18.1Z"/>
      <path class="cls-190" d="m429.25,151.88c.33.34.65.67.98,1.01-.41,5-1.81,6.2-5.97,5.11-.57-.37-.57-.74-.02-1.12h0c1.07-1.6,2.39-2.94,4.01-3.99.33-.34.66-.67,1-1.01Z"/>
      <path class="cls-180" d="m415.14,168.84c1.73.05,3.45.09,5.18.14.73,2.83-2.65,2.08-3.26,3.74-.04-3.17-3.61-2.04-4.73-3.89.94,0,1.88,0,2.81,0Z"/>
      <path class="cls-147" d="m424.25,156.87c0,.37.01.74.02,1.12-1.65,1.66-3.3,3.32-4.95,4.97-.26-.31-.52-.61-.78-.92,1.43-2.25,2.09-5.34,5.71-5.17Z"/>
      <path class="cls-147" d="m428.26,152.88c-.58,2.09-1.93,3.41-4.01,3.99-.41-3.09.85-4.5,4.01-3.99Z"/>
      <path class="cls-53" d="m403.87,212.73c-.54.08-1.08.15-1.62.23-.4-9.68,2.35-18.54,6.92-26.94.68-1.24,1.8-1.25,2.97-1.21-.54,4.04-4.03,6.48-5.44,10.14-2.24,5.79-2.48,11.76-2.83,17.78Z"/>
      <path class="cls-96" d="m364.34,182.96c-1.65,3.41-4.67,1.3-7.06,1.76,2.18-1.29,4.47-2.12,7.06-1.76Z"/>
      <path class="cls-221" d="m344.54,378.36c-1.86-2.56-.31-3.15,1.92-4.01,3.58-1.37,7.56.24,10.97-1.78.85-1,2.03-.94,3.19-1,2.32-.12,4.29.29,4.96,2.97.72,2.9-1.55,3.17-3.32,3.9-1.28.05-2.57.09-3.85.14-4.62-.07-9.24-.15-13.86-.22Z"/>
      <path class="cls-5" d="m367.61,370.15c-.03-1.57-.8-3.73,1.32-4.17,2.14-.43,3.03,1.46,3.33,3.36.13.81.08,1.63.89,2.14,4.33,1.58,6.94,4.8,8.56,8.97-2.2-.39-1.51,1.81-2.36,2.63-.73-.3-1.47-.59-2.2-.89-3.18-4.01-6.36-8.03-9.54-12.04Z"/>
      <path class="cls-184" d="m362.25,378.44c1.31-1.05,3.42-1.55,2.55-4.05-.81-2.31-2.65-2.02-4.44-1.95-.98.04-1.95.08-2.93.12-3.67-.02-7.35-.05-11.02-.07,5.12-2.44,10.59-2.05,16-1.86,2.48.09,3.84,1.75,3.93,4.28.1,2.85-1.41,3.87-4.09,3.52Z"/>
      <path class="cls-32" d="m59.01,300.63c3.38,1.19,1.4,4.01,1.86,6.09-1.71-1.7-2.03-3.82-1.86-6.09Z"/>
      <path class="cls-94" d="m517.93,737.3c3.32,1.78,4.55,3.67,3.8,6.46-.32,1.2-1.57,1.51-2.35.94-2.47-1.82-.78-4.47-1.45-7.4Z"/>
      <path class="cls-78" d="m510.62,769.5c2.33-.41,4.65-.84,6.98-1.24.8-.14,1.76-.37,1.91.81.13.98-.69,1.56-1.5,1.65-2.44.27-4.9.56-7.39-1.21Z"/>
      <path class="cls-150" d="m542.07,770.05c-4.29.95-8.54,1.51-12.82.11-.67-.22-1.93-.09-1.29-1.4.33-.69,1-1.21,1.52-1.81,3.52,4.29,8.63.56,12.58,3.1Z"/>
      <path class="cls-17" d="m52.97,43.44c.65,3.8-1.89,6.68-2.43,10.22-.65,4.21-2.1,8.3-1.84,12.67.11,1.91-.5,3.31-2.67,3.33-2.48.02-3.15-1.55-2.76-3.64,1.53-8.22,4.15-15.99,9.7-22.58Z"/>
      <path class="cls-22" d="m40.93,38.1c.06-2.16.26-3.91,3.33-3.36,2.24.4,4.62.36,6.89.11,3.94-.44,5.54,1.01,4.65,4.95-.58.05-1.17.1-1.75.14-4.05-2.91-8.84-.43-13.09-1.82l-.02-.02Z"/>
      <path class="cls-112" d="m40.95,38.13c2.8-.01,5.6-.05,8.4-.03,1.79.01,3.72-.26,4.7,1.85-4.18-1.94-8.97.5-13.09-1.82Z"/>
      <path class="cls-17" d="m76.01,62.02c-.16,1.15-.13,2.37-.53,3.42-.63,1.63-1.27,4.04-3.54,3.28-1.95-.65-.25-2.56-.2-3.91.19-5.29.92-10.6-.79-15.79,2.49-1.54,4.31-.68,4.68,2.65.39,3.42.27,6.9.38,10.35Z"/>
      <path class="cls-201" d="m74.94,39.03c-3.14-.33-6.28-.63-9.39.2-.95.26-2,.94-2.29-.61-.24-1.26-.57-3.19,1.06-3.38,3.1-.37,6.32-.42,9.41-.02,2.03.26.97,2.46,1.22,3.81h0Z"/>
      <path class="cls-8" d="m381.71,380.46c-2.85-2.99-5.7-5.98-8.56-8.97,1.77-4.54,3.44,1.36,5.18.05,4.24.08,6.64,3.5,9.88,5.43.98,1.27,3.62,2.01,1.39,4.31-2.26.88-4.44.74-6.52-.52-.45-.1-.91-.21-1.36-.31Z"/>
      <path class="cls-34" d="m392.49,385.68c1.12-1.42.73-3.11.72-4.68-.02-2.58,2.07-2.6,3.65-3.1,2.07-.66,2.51.72,2.53,2.39-.28,2.17-.26,4.49-2.9,5.39-1.05.24-1.69.97-2.2,1.86-.49.86-1.31,1.17-2.07.65-1.3-.88-.02-1.68.27-2.51Z"/>
      <path class="cls-177" d="m383.08,380.76c2.31-.12,4.63-.24,6.94-.37.45-.48.82-.43,1.11.16,1.15,1.36,1.02,3,1,4.62-4.68,1.95-6.78-1.4-9.05-4.41Z"/>
      <path class="cls-33" d="m396.49,385.68c1.5-1.51,1.03-4.08,2.9-5.39,1.6-1.59,3.2-3.18,4.8-4.77.35.32.56.72.61,1.19-1.52,4.28-5.49,7.22-6.49,11.79-.95-.09-1.89-.17-2.84-.26.34-.85.68-1.71,1.02-2.56Z"/>
      <path class="cls-207" d="m65.44,67.1c.23,1.38-.26,2.32-1.16,1.84-2.12-1.12-3.14-3.29-3.66-5.49-.26-1.08.57-2.44,2.05-2.15,3.67.73.98,4.52,2.77,5.79Z"/>
      <path class="cls-26" d="m398.31,388.5c-1.13-5.5,3.52-8.09,5.94-11.81,2.3-1.84,3.91-1.31,4.88,1.42-1.8,5.35-6.96,7.19-10.82,10.39Z"/>
      <path class="cls-102" d="m409.13,378.11c-1.4-1.26-3.02-1.76-4.88-1.42-.02-.39-.04-.78-.06-1.17,2-2.4,3.98-4.83,6.03-7.18.84-.96,1.86-2.32,3.28-1.27,1.25.92.95,2.4.11,3.57-1.28,1.76-2.58,3.48-2.25,5.84-.74.54-1.49,1.09-2.23,1.63Z"/>
      <path class="cls-164" d="m147.8,226.26c-.11-1.23.34-2.62-.99-3.5.31-5.98.63-11.95.94-17.93-1-4.63.52-9.42-.93-14.01-.02-.67-.04-1.33-.06-2,1.68.04,2.56-1.38,3.83-2.1,3.77.03,4.94,2.88,4.72,5.63-1.17,15.16-.21,30.33-.48,45.48,1.4,2.28.92,4.83.92,7.28,0,8.11.14,16.22-.07,24.32-1.06,8.41-.42,16.85-.45,25.27-.03,8.76-.46,17.53.29,26.28.37,2.05.24,4.12.16,6.18-.88,3.46-.75,7.21-2.89,10.32-1.82-5.97-1.14-12.16-.69-18.12.97-12.79.41-25.56.55-38.33.28-25.59.25-51.18.31-76.76,0-4.23,1.62-8.57-.74-12.73-2.69.87-2.29,3.16-2.52,5.27-.92,8.43-.81,16.89-.89,25.36-.01,1.39.53,3.04-1.02,4.1Z"/>
      <path class="cls-41" d="m336.4,280.89c0,6.65.25,13.32-.05,19.96-.72,16.07-11.41,27.24-27.95,27.1-7.55-.07-12.54-4.9-13.48-12.45-.74-6-.04-11.96-.09-17.94-.02-3.24,1.34-4.97,4.93-5.55,10.55-1.71,10.52-1.88,9.95,8.91-.04.66-.1,1.33-.16,1.99-.33,3.56-.06,7.33,4.34,7.49,3.89.14,6.23-2.93,6.63-6.75.57-5.45.75-10.93,1.08-16.4.31-4.98.54-9.96.93-14.94.28-3.59-1.15-6.56-4.37-7.51-3.09-.91-5.05,1.79-6.53,4.3-1.79,3.04-10.88,6.82-14.29,5.96-2.61-.66-2.02-2.67-1.93-4.42.68-13.28,1.41-26.56,2.09-39.84.21-4.14-.91-8.92.8-12.27,1.89-3.7,7.45-2.27,11.31-3.38,8.71-2.51,17.86-3.27,26.56-6.01,1.14-.36,2.26-.05,2.95,1.21,3.06,5.6-1.05,14.14-7.38,14.62-5.54.42-10.69,2.41-16.09,3.3-2.73.45-3.39,2.23-3.46,4.64-.14,4.49-.35,8.97-.56,13.46-.07,1.45-.77,3.12.82,4.1,1.54.95,2.85-.23,4.1-.97,6.24-3.73,11.66-3.3,16.78,1.21,2.98,2.63,4.05,5.89,4,9.76-.09,6.82-.02,13.63-.02,20.45-.31,0-.61,0-.92,0Z"/>
      <path class="cls-66" d="m285.72,230.32c.66,9.98-3.4,19.18-6.13,28.67-4,13.96-7.91,27.94-11.92,41.9-2.24,7.78-4.6,15.53-6.89,23.29-1.35,4.57-3.2,9.08-3.83,13.75-.48,3.55-2.28,4.79-5.09,5.8-3.23,1.17-6.69,1.04-9.92,2.88-2.67,1.53-3.07-1.09-2.42-3.36,2.25-7.78,4.44-15.57,6.74-23.33,4.36-14.72,8.74-29.43,13.19-44.13,3.35-11.06,6.8-22.08,10.27-33.1.41-1.32.88-2.58.05-3.8-.97-1.41-2.3-.65-3.61-.51-6.11.68-11.99,2.4-18,3.57-3.13.61-5.56-.01-3.97-4.19.17-.45.19-.97.25-1.47q1.09-9.24,10.65-10.79c8.82-1.42,17.63-2.84,26.21-5.41,3.4-1.02,5.63-.27,4.91,4.04-.33,1.96-.33,3.97-.49,6.19Z"/>
      <path class="cls-48" d="m124.75,252.62c-2.86.83-2,3.26-1.81,4.99.4,3.57-.78,6.41-3.72,8.06-2.98,1.67-3.62,3.89-3.4,6.98.16,2.29.46,4.65-.4,6.91-.49,1.3-.89,2.85.76,3.4,1.35.46,2.51-.64,3.28-1.77,2.95-4.3,6.88-7.55,10.95-10.72,2.73-2.12,3.76-1.86,4.57,1.61,2.89,12.49-5.54,21.91-15.5,27.78-3.87,2.28-4.46,4.37-4.64,7.97-.12,2.33,1.48,6.49-2.45,6.35-3.71-.14-1.74-3.88-1.51-6.06.45-4.24-.86-6.74-5.23-8.17-7.64-2.5-17.54-16.94-17.6-24.81-.02-2.51,2.96-3.71,5.6-1.82,5.6,4,12.21,6.83,15.78,13.29.51.93,1.39,2.18,2.76,1.39.94-.55.89-1.86.58-2.73-1.77-4.87-.85-9.87-.81-14.81.03-3.26-1.34-5.03-4.37-5.61-11.89-2.29-11.03-8.35-6.7-17.08,1.24-1.07,2.26-.42,3.26.41,1.31,1.85,3.04,3.66.88,6-.99,1.08-2.29,2.07-1.22,3.75,1.31,2.05,2.85.56,4.3.15,2.19-.58,3.42.7,4.47,2.31,1.06,1.62,2.3,2.39,4.08.98,1.64-1.3,1.63-2.68.33-4.25-2.45-2.96-2.26-5.09,2-5.77.83-.15,1.47-.58,2.08-1.16,1-.97,2.04-2.66,3.58-1.49,1.19.91,1.02,2.58.11,3.92Z"/>
      <path class="cls-14" d="m103.89,248.71c-1-.31-1.99-.63-2.99-.94,6.14-7.98,17.58-8.19,23.88-.41,1.37,1.7,1.74,3.52-.03,5.26-.05-1.09.52-2.6-.51-3.15-1.51-.81-1.69,1-2.16,1.82-.81,1.4-1.95,1.48-3.28,1.29-.37-.93.07-1.74.34-2.57.36-1.25.25-2.34-1.2-2.73-1.77-.49-2.7.75-3.62,1.93-1.84,2.12-3.84,3.04-6.03.52-1.27-1.46-2.78-1.35-4.4-1Z"/>
      <path class="cls-110" d="m152.8,337.49c-.09-3.44.57-6.73,1.96-9.88,1.37,4.16,1.52,8.54,2.16,12.83,0,0-.33.35-.33.36-1.85-.43-3.18-1.45-3.8-3.3Z"/>
      <path class="cls-171" d="m395.45,334.6c1.6.29,2.18,1.76,3.18,2.75-.39,2.19-2.31,5.43,2.78,3.66,1.02-.35,2.43.45,3.67.72,3.03,5.94,2.52,6.78-4.68,7.74-.23,2.23,2.84,2.32,2.86,4.38-.43,2.97-2.53,3.99-5.16,4.33-2.77.36-2.88-1.64-3.54-3.6-.61-1.82-2.13-3.53-4.51-2.51-4.51,1.94-5.53-.53-5.71-4.26.24-1.96,1.56-3.04,3.14-3.92,2.07-.52,3.57-1.11,3.05-4-.63-3.5,1.48-5.19,4.92-5.29Z"/>
      <path class="cls-37" d="m387.53,344.58c-1.06,1.07-2.13,2.15-3.19,3.22-.46-.96-1.94,2.76-1.79-.33.11-2.26,2.86-3.55,2.65-6.06.99-1.04,1.11-2.4,1.34-3.71,4.58-2.26,4.19,2.45,4.8,4.11,1.3,3.52-2.78,1.38-3.8,2.76Z"/>
      <path class="cls-98" d="m391.12,380.56c-.37-.05-.74-.1-1.11-.16-.29-1.57-2.06-1.64-2.81-2.74.01-1.15.05-2.3,1.09-3.09,1.3.07,1.74,2.32,3.27,1.49,1.24-.68.53-2.08.55-3.15.1-4.07.08-8.14.1-12.2,1.28.47,1.94,1.78,1.71,2.73-1.36,5.65.63,11.84-2.82,17.13Z"/>
      <path class="cls-195" d="m403.25,353.84c-.99-.57-2.14-.76-3.14-1.16-2.68-1.09-2.09-2.33.28-3.22,1.54.44,3.08.88,4.63,1.31,1.21.34,1.4,1.29,1.17,2.27-.22.91-.54,2.26-1.17,2.5-.9.35-.47-1.78-1.77-1.7Z"/>
      <path class="cls-219" d="m391.92,357.82c-1.32-.46-3.12-.37-3.3-2.29-.11-1.12.82-1.76,1.85-1.88,1.91-.21,2.58,1,2.68,2.67.05.84,0,1.67-1.23,1.5Z"/>
      <path class="cls-49" d="m332.53,382.57c2.92-.28,5.85-.8,8.76-.74,1.42.03,3.57.53,3.33,2.75-.2,1.9-2.07,2.26-3.45,1.83-3.02-.94-8.2,2.89-8.72-3.78,0,0,.07-.07.07-.07Z"/>
      <path class="cls-217" d="m322.1,383.46c1.42.24,3.76-.71,4.08,1.51.36,2.54-2.12,2.38-3.84,2.82-2.06.53-4.13,1.63-6.08-.12-.68-.61-.63-1.5-.12-2.27,1.44-2.16,3.72-1.82,5.96-1.94Z"/>
      <path class="cls-179" d="m237.78,390.53c-1.43,0-2.43.07-3.42-.02-1.51-.13-2.6-.94-2.4-2.55.19-1.55,1.63-1.38,2.76-1.46.82-.06,1.67-.07,2.48.05,1.95.3,5.17-.82,5.04,2.36-.11,2.86-3.21,1.11-4.46,1.62Z"/>
      <path class="cls-51" d="m218.22,395.59c4-3.55,7.93-.38,11.93-.29-3.93,2.6-7.92.96-11.93.29Z"/>
      <path class="cls-137" d="m387.53,344.58c.35-1.81,4.05-.12,3.14-2.53-.65-1.71-.7-4.92-4.13-4.34.33-2.86,2.13-4.36,4.72-5.14,1.62.22,3.7-.52,4.19,2.03-2.71,1.75-5.11,2.99-3.35,7.48,1.36,3.48-2.61,2.29-4.57,2.5Z"/>
      <path class="cls-29" d="m113.94,358.55c4.15-.02,8.3-.1,12.44-.02,1.35.03,3.36-.39,3.22,1.96-.1,1.66-1.57,1.99-2.95,2.01-3.48.05-6.97.1-10.45.01-2.59-.07-3.69-1.29-2.42-3.88,0,0,.17-.09.17-.09Z"/>
      <path class="cls-16" d="m388.3,374.57c0,1.16.07,2.34-1.09,3.09-2.96-2.04-5.92-4.08-8.88-6.12q-1.86-2.93-.22-3.76c2.68,1.61,5.36,3.23,8.04,4.84.71.65,1.43,1.29,2.14,1.94Z"/>
      <path class="cls-31" d="m295.57,390.44c1.13,0,1.96-.02,2.78,0,1.42.05,2.82.37,2.75,2.11-.06,1.72-1.56,1.91-2.91,2.01-.83.06-1.68.2-2.48.05-1.87-.35-5.12,1.16-5.03-2.19.1-3.33,3.37-1.42,4.88-1.98Z"/>
      <path class="cls-28" d="m157.96,386.37c-.8-1.06-1.7-2.16-.76-3.54.87-1.29,2.12-1.16,3.51-.85,3.66.83,7.36,1.5,11.05,2.24,1.54,2.77-.65,2.43-2.12,2.42-3.89-.02-7.78-.17-11.67-.27Z"/>
      <path class="cls-100" d="m96.83,171.02c-.03,1.21-.05,2.43-.08,3.64-.58.43-1.16.87-1.74,1.3-2.35,1.14-6.2-.31-6.77,3.91-1.52,1.45-.82,2.69.38,3.88-1.4,1.97-2.84.9-4.19-.02-1.23-.84-1.58-1.91-.78-3.39,1.37-2.54.62-3.65-2.37-3.29-1.86.22-4.17.77-4.46-2.24-.28-2.96,1.83-3.02,3.89-3.08,3.02-.09,3.72-1.48,2.56-4.19-.68-1.59-1.11-3.31,1.52-3.63,1.79,2.63,4.26,5.07,2.32,8.8,2.78-3.91,1.47-6.73-2.11-8.96,3.41-1.77,5.82-1.29,6.03,3.04.19,3.99,3.92,2.77,5.81,4.23Z"/>
      <path class="cls-99" d="m92.82,185.71c-4.6,4.69-2.01,11.25-4.29,16.54.45.18.89.35,1.34.53.08,1.16-.37,2-1.61,1.89-.97-.09-1.41-1.07-1.17-1.84,1.54-4.87-.15-10.15,1.91-14.93,1.3-.69,2.08-2.26,3.81-2.19Z"/>
      <path class="cls-106" d="m87.75,180.05c-.92-3.43-.24-5.41,3.9-4.46,1.09.25,2.24.26,3.36.38-2.65,1.51-2.56,5.18-5.25,6.65-1-.6-2-1.19-2-2.57Z"/>
      <path class="cls-218" d="m87.75,180.05c.7.83,2.13,1.1,2,2.57-.38.38-.76.76-1.14,1.14-1.39-.1-3.16.15-3.42-1.71-.24-1.67,1.21-1.95,2.56-2Z"/>
      <path class="cls-57" d="m64.8,212.86c-1.23-3.35-2.5-6.69-3.66-10.06-.37-1.08-.57-2.37.39-3.27,1.03-.96,2.18-.29,3.23.16,2.4,1.02,4.79,2.08,7.18,3.12.96.74,1.91,1.47,2.87,2.21,2.42.95,3.99,2.73,4.96,5.1.41.7.76,1.45,1.24,2.1.56.75,1.06,1.93,2.2,1.57,1.5-.47.42-2.03.93-2.98.52-.35,1.31-.59,1.5-1.06.53-1.33.48-3.18,2.64-2.8,2.46.43,1.27,2.63,1.76,4.02,1.1,1.82-.26,3.1-.98,4.52-.33.73-1.04,1.78-.34,2.23,4.08,2.62,1.04,4.21-.73,6.02l-.06.09c-1.53,1.94-.75,4.06-.55,6.17.14,1.44.38,3.24-1.79,3.38-2.17.14-2.51-1.68-2.05-3.07,1.72-5.17-1.21-8.71-3.95-12.37-4-3.87-6.82-8.9-12.25-12.41,1.44,5.13,5.87,7.28,7.78,11.17.45,1.28.86,2.68-.7,3.41-1.08.5-2.22.13-3.19-.66-1.65-1.35-2.87-3.13-4.49-4.5-.64-.69-1.28-1.38-1.92-2.07Z"/>
      <path class="cls-6" d="m88.07,214.87c1.02-1.12,1.92-2.3,1.95-3.91,2.6-3.98,4.11-8.68,7.97-11.82.76-.62,1.41-1.7,2.48-.99.94.62.76,1.75.34,2.71-1.73,3.9-2.13,8.36-5.02,11.76-.85,2.03-2.69,3.24-4.04,4.85-.88,1.04-2.01,2.23-3.26,1.55-1.72-.94-1.41-2.64-.41-4.14Z"/>
      <path class="cls-108" d="m88.07,214.87c.17,1.1-.56,2.58.57,3.22,1.22.69,2.06-.61,2.87-1.37,1.45-1.34,2.85-2.73,4.26-4.1.25,2.16-1.74,2.97-2.65,4.43-1.71,2.75,1.04,1.29,1.76,1.75-1.88,2.25-4.26,3.8-6.94,4.93-.59-1.48,4.65-3.44-.5-4.78-1.05-.27-1.26-2.92.61-4.09Z"/>
      <path class="cls-108" d="m80.07,216.75c2.92,3.91,6.42,7.6,4.06,13.19-.43,1.02-.35,2.65,1.3,2.59,1.61-.06,1.49-1.58,1.22-2.71-.53-2.23-1.83-4.54,1.26-5.99,0,2.27-.06,4.54.02,6.8.09,2.84-1.13,4.29-4.04,4.14-1.39-2.18-.94-4.62-1.02-7-.05-1.64.98-3.55-.93-4.86-6.43-.07-12-1.79-15.22-7.98,2.35.59,3.32,2.88,5.13,4.14.83.57,1.78,1.09,2.58.23.83-.89-.29-1.74-.43-2.62,2.04-1.4,4.03,1.71,6.06.06Z"/>
      <path class="cls-44" d="m78.9,227.93c-.19,1.07.14,2.58-1.39,2.79-3.23.44-6.48.72-9.74.94-.97.07-2.11-.26-2.05-1.53.05-.93,1.01-1.16,1.84-1.31,3.71-.64,7.42-1.29,11.21-1.07,0,0,.12.17.12.17Z"/>
      <path class="cls-121" d="m80.84,238.66c-4.07.13-8.16.8-12.95-.46,3.4-3.77,7.65-2.35,11.15-3.04,1.69-.33,1.75,1.99,1.8,3.48,0,0,0,0,0,0Z"/>
      <path class="cls-187" d="m79.75,210.12c-1.65-1.7-3.31-3.4-4.96-5.1,3.85-.44,4.47,2.27,4.96,5.1Z"/>
      <path class="cls-118" d="m156.92,340.44c-3.32-3.84-1.83-8.48-2.16-12.83,0-2,0-4,0-5.99-1.06-8.39-.41-16.82-.4-25.22,0-8.9-.66-17.82.42-26.7.02-10.62.03-21.24.05-31.85,2.85,1.36,1.91,3.98,1.92,6.16.05,28.56.04,57.11.02,85.67,0,2.69-.07,5.3,2.33,7.26.86.7,1.8,1.87,1.08,3-.7,1.11-2.11.57-3.25.51Z"/>
      <path class="cls-19" d="m473.05,221.21c.22-1.66-.24-3.97,1.99-3.98,2.55,0,2.14,2.42,2.16,4.15.02,1.61.14,3.87-1.96,3.88-2.55.02-1.96-2.47-2.19-4.05Z"/>
      <path class="cls-60" d="m466.24,223.48c.22,2.01.94,3.93-1.68,4.17-2.52.23-2.54-1.62-2.44-3.32.12-2.01-.79-5.11,2.24-5.17,2.94-.06,1.38,3.06,1.87,4.32Z"/>
      <path class="cls-110" d="m146.82,190.83c2.47,4.53,1.12,9.31.93,14.01-1.97-4.56-.5-9.35-.93-14.01Z"/>
      <path class="cls-36" d="m124.86,204.74c-1.51-4.69-.78-5.76,3.87-5.71.33,0,.69-.07.99.04,2.51.92,7.13-.56,6.73,3.8-.35,3.78-4.29,1.44-6.61,1.84-1.6.28-3.29.05-4.95.05,0,0-.04-.02-.04-.02Z"/>
      <path class="cls-135" d="m97.33,225.66c1.14.32,3.25-.52,3.04,1.39-.22,2.07-2.48,1.72-4.05,1.75-1.17.02-3.21.59-3.01-1.32.22-2.07,2.42-1.7,4.01-1.82Z"/>
      <path class="cls-211" d="m432.23,188.86c-1.98.03-3.96.1-5.95.08-.94,0-2.15.22-2.51-1.01-.33-1.12.64-1.82,1.36-2.43,1-.85,2.04-1.77,3.23-2.27,2.31-.97,5.26-3.53,7.11-1.13,2.27,2.96-1.5,4.71-3.2,6.72,0,0-.04.02-.04.02Z"/>
      <path class="cls-163" d="m456.03,141.64c-.06.39-.05,1.26-.33,2.02-.54,1.46-.28,3.8-2.46,3.83-2.2.03-2.84-1.93-3.1-3.85-.09-.66-.04-1.37-.29-1.96-1.05-2.46-.27-4.58,1.3-6.42.36-.42,1.74-.45,2.31-.1,2.2,1.37,2.74,3.59,2.57,6.48Z"/>
      <path class="cls-110" d="m154.78,269.7c0,17.31-.01,34.61-.02,51.92-1.23-.98-.97-2.37-.97-3.66-.01-14.87-.01-29.74,0-44.61,0-1.29-.25-2.68.99-3.65Z"/>
      <path class="cls-68" d="m118.22,295.64c-1.75.08-2.82-.9-1.94-2.4,3.29-5.69,6.32-11.62,11.96-15.52.67-.46,1.4-1.18,2.13-.36.37.42.54,1.29.39,1.85-1.84,6.82-6.35,11.75-11.59,16.15-.23.19-.62.2-.94.29Z"/>
      <path class="cls-192" d="m109.84,294.61c-.1,2.1-1.21,2.44-2.94,1.43-6.03-3.52-10.14-8.81-13.52-14.75-.44-.78-.5-1.71.31-2.21.45-.28,1.36-.25,1.83.03,5.96,3.57,9.64,9.41,14.14,14.43.18.21.12.64.18,1.07Z"/>
      <path class="cls-122" d="m103.89,248.71c1.32-3.08,3.61-2.98,4.8-.49,1.81,3.77,3.23,1.9,4.98.34.17.14.35.29.53.43.61,3.01-1.8,3.67-3.65,4.93-1.43.97-4.23,1.05-3.21,4.03.33.26.57.59.71.98-1.77,2.22-3.63,2.16-5.31,0-1.45-1.85-1.48-3.91.84-4.97,3.76-1.7-.19-3.55.31-5.25Z"/>
      <path class="cls-122" d="m120.02,250.86c-.41.57-.82,1.14-1.22,1.72-2.68.12-3.56,1.23-1.34,3.18,2.8,2.46,2.87,4.61-.11,6.85-3.08,2.32-4.82.76-6.07-2.14-.64-1.48-1.77-1.84-3.24-1.55-.12-.15-.23-.3-.35-.45.68-2.86,2.31-2.67,4.33-1.38,1.2.77,1.43,2.62,3.51,2.88.18-3.41-4.8-7.25.57-10.12.95-.21,1.9-.2,2.83.09.45.19.81.5,1.07.91Z"/>
      <path class="cls-122" d="m113.68,248.55c.76-3.07,3.07-3.4,5.39-2.5,2.33.9,2.47,2.83.95,4.81,0,0-.28-.25-.28-.25-1.16-1.47-2.39-2.72-4.47-1.57-.45.11-.88.04-1.28-.19l-.31-.29Z"/>
      <path class="cls-188" d="m84.99,163.76c1.94.46,4.69-.29,4.82,2.98.12,2.93.79,6.09-2.37,8.06-.51.32-1.28.69-1.76.52-.9-.32-1.13-1.54-.69-2.07,2.46-2.94,1.59-5.44-.63-7.96-.17-.19.26-.9.41-1.37,0,0,.21-.16.21-.16Z"/>
      <path class="cls-45" d="m80.07,216.75c-.07,1.87-.21,3.68-2.76,1.94-1.07-.73-1.78-2.03-3.3-2-2.93-2.67-5.54-5.62-7.7-8.94-.68-1.05-1.69-2.44-.5-3.54,1.1-1.01,2.03.37,2.95.96,4.66,3,7.62,7.65,11.32,11.58Z"/>
      <path class="cls-21" d="m113.99,248.85c.28-.09.57-.13.86-.13,1.13.15,2.24.32,2.05,1.9-3.32,1.73-2.72,4.13-.63,6.17,1.86,1.82,2.06,3.34.08,4.85-2.4,1.83-2.82-.18-3.63-1.95-1.04-2.27-2.53-4.17-5.01-1.22-1.24.1-2.83.83-3.5-.67-.84-1.86,1.58-1.66,2.04-2.52,1.74-3.27,7.23-1.87,7.75-6.44Z"/>
      <path class="cls-175" d="m116.89,250.62c-.68-.63-1.36-1.27-2.05-1.9.69-1.5,1.84-2.22,3.44-1.66,1.72.6,1.75,2.04,1.45,3.54-.95,0-1.9,0-2.85.01Z"/>
    </g>
  </g>
</svg>