<?xml version="1.0" encoding="UTF-8"?>
<svg id="Calque_2" data-name="Calque 2" xmlns="http://www.w3.org/2000/svg" viewBox="0 0 586 810">
  <defs>
    <style>
      .cls-1 {
        fill: #2b4e9c;
      }

      .cls-1, .cls-2, .cls-3, .cls-4, .cls-5, .cls-6, .cls-7, .cls-8, .cls-9, .cls-10, .cls-11, .cls-12, .cls-13, .cls-14, .cls-15 {
        stroke-width: 0px;
      }

      .cls-2 {
        fill: #fefefe;
      }

      .cls-3 {
        fill: #fdfefe;
      }

      .cls-4 {
        fill: #fafafc;
      }

      .cls-5 {
        fill: #2b4f9c;
      }

      .cls-6 {
        fill: #fafbfc;
      }

      .cls-7 {
        fill: #244899;
      }

      .cls-8 {
        fill: #244799;
      }

      .cls-9 {
        fill: #c41625;
      }

      .cls-10 {
        fill: #f4f7fd;
      }

      .cls-11 {
        fill: #f5f7fd;
      }

      .cls-12 {
        fill: #fdfcfd;
      }

      .cls-13 {
        fill: #fdfdfd;
      }

      .cls-14 {
        fill: #234798;
      }

      .cls-15 {
        fill: #f5f8fd;
      }
    </style>
  </defs>
  <g id="Calque_1-2" data-name="Calque 1">
    <g>
      <path class="cls-2" d="m.09,404.5C.09,271.2.11,137.9,0,4.59,0,.84.84,0,4.59,0,196.86.11,389.14.11,581.41,0c3.75,0,4.59.84,4.59,4.59-.1,266.94-.1,533.88,0,800.81,0,3.75-.84,4.59-4.59,4.59-192.27-.11-384.54-.11-576.82,0-3.75,0-4.6-.84-4.59-4.59.11-133.64.09-267.27.09-400.91Z"/>
      <path class="cls-10" d="m18.09,34.09c.33-1.77.67-3.55,1-5.32.69-3.69,1.71-7.19,6.16-7.83,3.19-.46,3.31-4.13,6.57-5.32,4.72-1.72,9.62-1.98,14.26-3.52,1.73-.91,3.6-.46,5.4-.46,158.35-.02,316.7-.02,475.05,0,1.8,0,3.67-.45,5.4.46,6.54-.63,13.06.16,19.1,2.37,4.89,1.78,9.24,5.05,13.79,7.72,1.45.85,1.29,2.33.7,3.55-1.42,2.93-.25,5.97,1.6,7.3,4.2,3.01,3.89,7.41,4.57,11.41.83,4.87,1.17,9.88,1.18,14.84.07,80.11.15,160.22-.09,240.33-.03,9.09-1.31,18.24-.81,27.35,2.12,38.75.9,77.54.68,116.29-.09,15.93-.7,31.89-.65,47.84.02,9.61,1.22,19.2.97,28.85-.27,10.45-1.28,20.86-1.17,31.35.1,9.14,1.64,18.19,1.15,27.35-1.5,28.09-.92,56.2-1.06,84.31-.05,10.8,1.41,21.52,1.13,32.35-.25,9.79-1.77,19.53-1.12,29.35.36,5.45.14,10.89.75,16.39.58,5.16.77,10.37-2.03,15.84-2.17,4.25-.15,10.48-.81,15.73-.91,7.18-1.99,14.62-10.89,16.87-1.67.42-2.69,1.57-3.07,3.52-.72,3.67-3.26,5.04-6.93,4.95-5.66-.13-11.32-.03-16.99-.03-1.73.91-3.6.46-5.39.46-118.13.02-236.27.02-354.4.02-40.56,0-81.11,0-121.67-.02-1.79,0-3.66.45-5.39-.46-2.4-2.4-5.46-2.05-8.44-1.99-3.9.07-7.37-.57-8.68-4.98-.37-1.25-1.48-1.69-2.42-2.37-.93-.68-2.48-1.59-2.45-2.35.42-9.94-8.57-16.29-8.41-26.99.87-57.44.46-114.91.36-172.37-.02-8.45-1.65-16.89-.9-25.35,1.78-20.1.54-40.22.97-60.33.18-8.31-1.7-16.53-1.02-24.85,1.59-19.42.86-38.88,1-58.33-.79-4.67-.79-9.33,0-14,0-120.3,0-240.61,0-360.91.95-3.02-.28-6.76,3-9Z"/>
      <path class="cls-11" d="m531.93,12.09c-161.95,0-323.9,0-485.85,0,1.48-1.63,3.43-.97,5.18-.97,158.49-.03,316.99-.03,475.48,0,1.75,0,3.71-.66,5.18.97Z"/>
      <path class="cls-15" d="m172.04,797.91c119.96,0,239.92,0,359.89,0-1.65,1.72-3.78.96-5.68.96-118.07.04-236.14.03-354.2.03-.33-.22-.44-.44-.33-.66.11-.22.22-.33.33-.33Z"/>
      <path class="cls-15" d="m172.04,797.91v1c-40.43,0-80.86.01-121.28-.03-1.9,0-4.03.76-5.68-.96,42.32,0,84.64,0,126.96,0Z"/>
      <path class="cls-15" d="m15.09,404c0,4.67,0,9.33,0,14-1.61-4.67-1.61-9.33,0-14Z"/>
      <path class="cls-10" d="m18.09,34.09c-1,3-2,6-3,9-.3-3.43-1.6-7.2,3-9Z"/>
      <path class="cls-2" d="m545.92,406.27c0,120.29,0,240.57,0,360.86q0,6.78-6.68,6.78c-163.92,0-327.84,0-491.77,0q-6.38,0-6.39-6.57c0-240.91,0-481.81,0-722.72q0-6.53,6.43-6.53c163.92,0,327.84,0,491.77,0q6.63,0,6.64,6.82c0,120.45,0,240.91,0,361.36Z"/>
      <path class="cls-14" d="m159.04,699.62c0,11.15.06,22.31-.02,33.46-.07,9.46-9.48,21.53-18.54,23.68-1.88.44-3.97-.02-5.96-.01-20.3.04-40.61.39-60.91-.03-8.18-.17-12.94-6.63-17.17-12.8-2.17-3.16-3.46-7.01-3.45-10.84.03-22.3-1.17-44.65.5-66.89,1.96-26.06,22.66-46.09,48.8-48.52,24.83-2.31,47.92,14.22,55.17,39.17,2.15,7.41,1.4,14.85,1.55,22.3.14,6.82.03,13.65.03,20.48Z"/>
      <path class="cls-14" d="m412.95,699.35c0,10.32-.2,20.65.05,30.97.26,10.83-5.05,18.08-13.73,23.67-3.17,2.04-6.2,2.9-10.06,2.86-20.47-.22-40.94.21-61.41-.12-8.49-.14-13.22-6.72-17.54-13.01-2.17-3.16-3.39-7.02-3.37-10.86.08-22.3-1.16-44.65.53-66.89,2.02-26.44,24.63-47.57,50.51-48.36,27.24-.83,50.98,18,54.54,44.82,1.61,12.1.27,24.6.27,36.91.07,0,.14,0,.21,0Z"/>
      <path class="cls-8" d="m179.04,105.47c0-10.66.2-21.32-.06-31.97-.28-11.39,9.45-25.25,24.49-25.24,18.65.01,37.3-.1,55.95.03,15.89.11,25.99,13.28,25.78,26.45-.34,21.64,1.07,43.33-.66,64.91-2.08,25.91-25.02,47.06-50.63,47.74-27.3.73-51.13-18.32-54.44-44.98-1.51-12.13-.26-24.61-.26-36.93-.06,0-.12,0-.18,0Z"/>
      <path class="cls-14" d="m432.96,105.73c0-10.66-.01-21.32,0-31.98.02-13.84,10.76-25.25,24.5-25.43,18.65-.24,37.31-.3,55.95,0,14.93.25,24.77,10.01,25.36,23.66.96,22.26,1.41,44.65-.27,66.9-2.01,26.52-24.5,47.63-50.4,48.5-27.22.91-50.95-17.82-54.63-44.73-1.66-12.09-.28-24.6-.28-36.92-.08,0-.15,0-.23,0Z"/>
      <path class="cls-14" d="m159.04,385.01c0,10.32,0,20.64,0,30.96-.01,14.3-10.64,25.61-24.81,25.79-18.8.24-37.62.25-56.42,0-13.25-.18-24.53-10.62-24.74-23.96-.36-22.29-1.26-44.63.45-66.87,2.03-26.36,24.76-47.51,50.61-48.22,27.27-.75,51.05,18.19,54.45,44.91,1.56,12.28.27,24.93.27,37.41.07,0,.13,0,.2,0Z"/>
      <path class="cls-14" d="m52.09,206.55c0-10.49,0-20.97,0-31.46.01-14.3,10.64-25.61,24.81-25.8,18.8-.24,37.62-.25,56.42,0,13.25.18,24.53,10.62,24.75,23.96.36,22.29,1.26,44.63-.45,66.87-2.03,26.36-24.76,47.52-50.61,48.23-27.27.75-51.03-18.18-54.46-44.9-1.55-12.11-.26-24.59-.26-36.91-.07,0-.13,0-.2,0Z"/>
      <path class="cls-14" d="m412.95,384.44c0,10.65.01,21.31,0,31.96-.02,13.87-10.79,25.17-24.75,25.35-18.8.25-37.62.24-56.42,0-13.27-.17-24.57-10.55-24.8-23.9-.39-22.28-1.26-44.63.44-66.87,2.02-26.39,24.69-47.53,50.55-48.29,27.25-.79,50.99,18.06,54.5,44.85,1.59,12.11.27,24.59.27,36.91.07,0,.14,0,.21,0Z"/>
      <path class="cls-14" d="m306,201.33c0-10.49,0-20.97,0-31.46.02-14,10.58-25.34,24.52-25.56,18.97-.3,37.95-.29,56.92,0,13.02.2,24.23,10.49,24.5,23.66.47,22.28,1.27,44.63-.4,66.87-1.96,26-22.75,46.09-48.85,48.46-24.86,2.26-47.89-14.26-55.13-39.21-2.29-7.9-1.33-15.85-1.54-23.79-.17-6.32-.03-12.65-.03-18.97Z"/>
      <path class="cls-14" d="m286,594.35c0,10.65.01,21.31,0,31.96-.02,13.89-10.75,25.21-24.7,25.4-18.8.26-37.61.24-56.42,0-13.28-.16-24.6-10.5-24.84-23.86-.41-22.28-1.27-44.63.43-66.87,2.02-26.42,24.64-47.55,50.51-48.34,27.23-.83,50.95,17.97,54.54,44.8,1.62,12.1.27,24.59.27,36.9.07,0,.14,0,.21,0Z"/>
      <path class="cls-14" d="m531.92,281.46c0,10.65.01,21.31,0,31.96-.02,13.87-10.78,25.17-24.74,25.36-18.8.25-37.62.24-56.42,0-13.27-.17-24.57-10.54-24.81-23.9-.39-22.28-1.26-44.63.44-66.87,2.02-26.4,24.68-47.54,50.54-48.3,27.24-.8,50.98,18.04,54.51,44.84,1.59,12.1.27,24.59.27,36.91.07,0,.14,0,.21,0Z"/>
      <path class="cls-14" d="m285.99,283.51c0,10.49,0,20.97,0,31.46-.01,14.31-10.63,25.62-24.8,25.81-18.8.25-37.62.24-56.42,0-13.25-.17-24.54-10.6-24.76-23.95-.37-22.28-1.26-44.63.45-66.87,2.03-26.37,24.74-47.52,50.59-48.24,27.26-.76,51.02,18.15,54.47,44.89,1.56,12.11.26,24.59.26,36.91.07,0,.13,0,.2,0Z"/>
      <path class="cls-14" d="m424.97,415.67c0-10.65-.01-21.31,0-31.96.02-13.93,10.69-25.25,24.64-25.45,18.8-.27,37.61-.23,56.42-.02,13.29.15,24.63,10.43,24.89,23.8.43,22.28,1.27,44.63-.42,66.87-2.01,26.45-24.58,47.57-50.45,48.39-27.21.87-50.91-17.86-54.58-44.74-1.65-12.09-.28-24.59-.28-36.9-.07,0-.15,0-.22,0Z"/>
      <path class="cls-8" d="m284.75,414.67c0,11.31.73,22.68-.15,33.92-1.88,24.17-19.61,43.29-43.23,47.78-23.26,4.42-45.95-6.79-56.88-28.38-3.47-6.85-5.57-14.13-5.51-22.03.17-20.8.05-41.61.07-62.42.01-13.83,10.85-25.12,24.81-25.29,18.8-.24,37.62-.26,56.42,0,14.05.2,24.8,11.66,24.9,25.96.07,10.15.01,20.31.01,30.46-.15,0-.3,0-.45,0Z"/>
      <path class="cls-14" d="m411.7,516.65c0,11.31.73,22.68-.15,33.92-1.88,24.17-19.61,43.29-43.22,47.78-23.26,4.42-45.95-6.79-56.88-28.38-3.47-6.85-5.57-14.13-5.51-22.03.17-20.8.05-41.61.07-62.42.01-13.83,10.84-25.12,24.81-25.29,18.8-.24,37.62-.26,56.42,0,14.05.2,24.8,11.66,24.9,25.96.07,10.15.01,20.31.01,30.46-.15,0-.3,0-.45,0Z"/>
      <path class="cls-14" d="m52.08,517.35c0-10.49,0-20.97,0-31.46.02-14.03,10.52-25.41,24.44-25.64,18.97-.32,37.95-.29,56.92-.01,13.23.19,24.44,10.76,24.63,24.08.32,22.12,1.23,44.3-.44,66.37-1.97,26.07-22.6,46.06-48.77,48.54-24.8,2.35-47.93-14.19-55.19-39.12-2.3-7.89-1.36-15.85-1.56-23.79-.16-6.32-.03-12.65-.03-18.97Z"/>
      <path class="cls-8" d="m531.92,594.67c0,10.49,0,20.97,0,31.46-.02,14-10.58,25.34-24.53,25.56-18.97.3-37.95.29-56.92,0-13.02-.2-24.23-10.49-24.5-23.67-.46-22.28-1.27-44.63.4-66.87,1.96-26,22.75-46.09,48.85-48.46,24.86-2.26,47.89,14.26,55.13,39.21,2.29,7.9,1.33,15.85,1.54,23.79.17,6.32.03,12.65.03,18.97Z"/>
      <path class="cls-7" d="m478.77,756.89c-10.82,0-21.67.43-32.46-.14-8.19-.44-13-6.6-17.07-12.95-2.16-3.38-3.4-7.33-3.42-11.37-.07-13.16-.25-26.32.21-39.47.46-13.02,11.19-23.54,24.3-23.76,18.99-.32,37.99-.29,56.98-.01,12.65.18,24.13,9.31,24.56,26.04.33,12.82.33,25.67-.05,38.48-.27,9.07-5.9,15.12-13.05,20.04-3.55,2.44-7.17,3.28-11.51,3.11-9.48-.36-18.99-.11-28.48-.11,0,.05,0,.09,0,.14Z"/>
      <path class="cls-7" d="m232.76,756.9c-10.82,0-21.7.72-32.43-.25-7.49-.68-12.88-6.28-16.87-12.59-2.24-3.54-3.55-7.61-3.57-11.83-.07-12.98-.27-25.98.21-38.95.5-13.45,11.15-23.89,24.48-24.08,18.98-.28,37.97-.31,56.95.01,12.86.22,24.19,9.7,24.44,26.65.17,11.49-.2,22.99.09,34.47.26,10.43-4.73,17.66-12.9,23.22-3.58,2.43-7.34,3.59-11.94,3.35-9.47-.5-18.98-.15-28.47-.15,0,.05,0,.1,0,.15Z"/>
      <path class="cls-7" d="m359.74,135.9c-9.15,0-18.31.12-27.46-.03-13.76-.22-24.98-10.73-25.38-24.43-.39-13.13-.36-26.3.2-39.42.53-12.45,10.17-23.62,24.3-23.72,18.8-.14,37.61-.36,56.41.06,15.04.34,24.95,11.09,25.14,26.69.14,11.65.03,23.3.01,34.95-.02,14.75-10.91,25.74-25.76,25.89-9.15.09-18.3.02-27.46.02Z"/>
      <path class="cls-7" d="m108.56,48.25c8.63.46,19.33-.97,29.91.63,10.54,1.59,18.14,9.73,19.62,20.31,2.1,15.04,1.01,30.17.71,45.24-.22,11.17-12.3,21.27-24.49,21.41-18.82.22-37.64.24-56.45,0-13.46-.17-24.49-10.92-24.88-24.43-.38-12.97.1-25.97.04-38.95-.05-10.59,10.04-24.38,25.57-24.21,9.32.1,18.65.02,29.98.02Z"/>
      <path class="cls-13" d="m156.7,699.86c0,10.32.12,20.65-.03,30.97-.21,13.6-9.96,23.24-23.41,23.27-18.15.04-36.3.04-54.44,0-13.81-.03-23.45-10.51-23.27-24.31.24-19.14-.28-38.29-.06-57.44.26-21.55,9.92-37.81,29.39-47.25,32.73-15.88,71.05,7.88,71.89,44.29.23,10.15.04,20.31.04,30.47-.03,0-.07,0-.1,0Z"/>
      <path class="cls-13" d="m410.61,699.97c0,10.32.13,20.65-.03,30.97-.21,13.55-10.02,23.13-23.52,23.16-18.15.04-36.3.05-54.44,0-13.76-.04-23.32-10.53-23.15-24.42.23-19.14-.31-38.29-.06-57.44.28-21.55,10-37.77,29.49-47.18,32.73-15.81,71.01,8.03,71.78,44.45.22,10.15.03,20.31.03,30.47-.04,0-.07,0-.11,0Z"/>
      <path class="cls-13" d="m282.47,104.48c-.16,11.64.8,23.31-.3,34.94-2.47,26.1-25.62,46.13-52.45,45.44-25.77-.67-47.74-22.36-48.33-48.54-.47-20.97-.2-41.96.05-62.93.15-12.89,10.22-22.43,23.17-22.47,18.31-.05,36.63-.06,54.94,0,13.46.04,23.33,10.65,22.96,24.1-.27,9.81-.05,19.64-.05,29.46Z"/>
      <path class="cls-13" d="m536.42,104.56c-.2,11.48.8,22.98-.3,34.44-2.57,26.65-25.47,46.61-52.55,45.86-25.77-.71-47.7-22.44-48.26-48.62-.45-20.97-.19-41.96.06-62.93.16-12.65,10.19-22.33,22.75-22.38,18.65-.08,37.29-.09,55.94,0,12.81.07,22.77,10.92,22.41,23.67-.28,9.98-.06,19.97-.06,29.96Z"/>
      <path class="cls-13" d="m156.69,385.17c0,10.32.14,20.65-.03,30.97-.22,13.49-10.07,23.02-23.64,23.04-17.98.03-35.96.03-53.94,0-14.14-.03-23.69-10.37-23.53-24.55.22-19.14-.32-38.29-.06-57.44.29-21.33,9.9-37.49,29.15-46.9,33.15-16.2,71.64,7.92,72.14,44.91.14,9.99.02,19.98.02,29.97-.04,0-.08,0-.11,0Z"/>
      <path class="cls-13" d="m54.43,205.89c0-10.32-.14-20.65.03-30.97.22-13.49,10.07-23.02,23.64-23.04,17.98-.03,35.96-.03,53.94,0,14.14.03,23.69,10.37,23.53,24.55-.22,19.14.32,38.29.06,57.44-.29,21.33-9.9,37.49-29.15,46.9-33.15,16.2-71.64-7.92-72.14-44.91-.14-9.99-.02-19.98-.02-29.97.04,0,.08,0,.11,0Z"/>
      <path class="cls-13" d="m410.62,384.93c0,10.16.12,20.31-.03,30.47-.2,14.27-9.81,23.75-23.92,23.77-17.98.02-35.96.04-53.94,0-13.81-.04-23.44-10.51-23.27-24.31.24-19.14-.28-38.29-.06-57.44.26-21.55,9.93-37.81,29.4-47.25,32.73-15.88,71.05,7.88,71.88,44.29.23,10.15.04,20.31.04,30.47-.03,0-.07,0-.1,0Z"/>
      <path class="cls-13" d="m409.42,199.67c-.15,11.81.84,23.64-.28,35.44-2.52,26.53-25.63,46.55-52.67,45.72-25.97-.79-47.78-22.84-48.17-49.25-.3-20.64-.13-41.29.09-61.94.14-13.19,10.14-22.73,23.4-22.76,18.15-.04,36.3-.04,54.44,0,13.81.04,23.61,10.51,23.23,24.32-.26,9.48-.05,18.98-.05,28.46Z"/>
      <path class="cls-13" d="m283.65,595.1c0,10.32.14,20.65-.03,30.97-.22,13.5-10.06,23.03-23.62,23.06-17.98.03-35.96.03-53.94,0-14.15-.03-23.71-10.37-23.55-24.53.22-19.14-.33-38.29-.06-57.44.31-21.54,10.07-37.73,29.58-47.12,32.73-15.76,70.97,8.15,71.7,44.59.2,10.15.03,20.31.03,30.47-.04,0-.07,0-.11,0Z"/>
      <path class="cls-13" d="m529.58,281.91c0,10.32.12,20.65-.03,30.97-.21,13.83-9.97,23.3-23.87,23.32-17.98.03-35.96.04-53.94,0-13.83-.03-23.49-10.5-23.32-24.27.24-19.31-.34-38.63-.04-57.93.34-21.34,10.07-37.43,29.34-46.78,32.73-15.89,71.06,7.83,71.92,44.23.24,10.15.04,20.31.04,30.47-.03,0-.07,0-.1,0Z"/>
      <path class="cls-13" d="m283.65,284.18c0,10.32.14,20.65-.03,30.97-.22,13.5-10.07,23.02-23.63,23.05-17.98.03-35.96.03-53.94,0-14.14-.03-23.7-10.37-23.53-24.54.22-19.14-.32-38.29-.06-57.44.29-21.33,9.9-37.5,29.14-46.9,33.15-16.2,71.64,7.91,72.15,44.9.14,9.99.02,19.98.02,29.97-.04,0-.08,0-.11,0Z"/>
      <path class="cls-13" d="m427.3,414.81c0-10.16-.12-20.31.03-30.47.2-13.92,9.9-23.49,23.67-23.51,17.98-.03,35.96-.03,53.94,0,14.14.03,23.67,10.36,23.5,24.57-.22,19.14.33,38.29.06,57.44-.3,21.33-9.92,37.49-29.17,46.89-32.95,16.09-71.4-7.76-72.11-44.44-.2-10.15-.03-20.31-.03-30.47.04,0,.07,0,.11,0Z"/>
      <path class="cls-12" d="m181.39,414.75c0-10.32-.14-20.65.04-30.97.22-13.25,10.06-22.91,23.22-22.95,18.31-.05,36.63-.06,54.94,0,13.46.05,23.14,10.66,22.97,24.12-.25,19.31.31,38.63.03,57.93-.31,21.34-9.97,37.47-29.22,46.85-32.94,16.06-71.38-7.85-72.06-44.53-.19-10.15-.03-20.31-.03-30.47.04,0,.07,0,.11,0Z"/>
      <path class="cls-13" d="m409.42,515.55c-.16,11.81.85,23.64-.28,35.44-2.55,26.76-25.98,46.9-53.13,45.76-26.01-1.09-47.45-23.21-47.74-49.69-.22-20.14-.09-40.29.09-60.44.13-14.5,9.8-23.8,24.37-23.82,17.81-.01,35.63-.03,53.44.01,13.83.03,23.66,10.5,23.28,24.27-.26,9.48-.05,18.98-.05,28.46Z"/>
      <path class="cls-13" d="m155.52,515.73c-.18,11.81.82,23.64-.3,35.44-2.5,26.41-25.79,46.5-52.8,45.59-25.77-.87-47.53-22.7-48.01-48.88-.38-20.81-.16-41.63.07-62.44.15-12.93,10.15-22.58,23.02-22.62,18.48-.06,36.96-.08,55.44,0,13.11.06,23,10.81,22.63,23.94-.27,9.65-.05,19.31-.05,28.96Z"/>
      <path class="cls-13" d="m529.58,594.87c0,10.32.13,20.65-.03,30.97-.21,13.83-9.98,23.27-23.89,23.29-17.98.02-35.96.04-53.94,0-13.82-.03-23.46-10.5-23.29-24.29.24-19.31-.35-38.63-.04-57.93.34-21.34,10.09-37.42,29.36-46.76,32.73-15.88,71.06,7.86,71.9,44.27.24,10.15.04,20.31.04,30.47-.03,0-.07,0-.1,0Z"/>
      <path class="cls-6" d="m478.44,754.11c-8.99,0-17.99.04-26.98-.01-13.47-.08-23.43-10.71-23.06-24.07.32-11.65.38-23.31.16-34.96-.23-12.16,9.09-23.06,21.15-23.24,19.65-.29,39.31-.31,58.96.02,11.51.19,20.9,11.32,20.67,22.73-.24,11.98.32,23.97.21,35.95-.13,14.18-9.87,23.55-24.11,23.58-8.99.02-17.99,0-26.98,0Z"/>
      <path class="cls-4" d="m232.95,671.75c9.49,0,18.99-.1,28.48.03,12.68.17,22.18,10.77,21.92,23.5-.24,11.81.36,23.63.26,35.45-.12,13.86-9.94,23.36-23.81,23.38-17.99.03-35.98.04-53.97,0-13.82-.03-23.73-10.57-23.36-24.26.31-11.48.37-22.98.16-34.46-.23-13.29,9.43-23.53,22.82-23.62,9.16-.06,18.32-.01,27.48,0Z"/>
      <path class="cls-4" d="m359.5,133.26c-9.16,0-18.32.06-27.48-.02-13.08-.12-22.95-10.89-22.59-24.04.31-11.65.38-23.31.16-34.96-.23-12.18,9.07-23.08,21.12-23.26,19.65-.3,39.31-.31,58.96.02,11.71.2,20.9,11.31,20.66,23.21-.24,11.81.35,23.63.25,35.45-.12,14.18-9.87,23.58-24.09,23.61-8.99.02-17.99,0-26.98,0Z"/>
      <path class="cls-4" d="m106.06,133.26c-9.16,0-18.32.04-27.48-.01-13.47-.08-23.43-10.71-23.07-24.07.32-11.65.38-23.31.16-34.96-.23-12.16,9.09-23.07,21.14-23.24,19.65-.29,39.31-.31,58.96.02,11.51.19,20.9,11.32,20.67,22.73-.24,11.98.32,23.97.21,35.95-.13,14.18-9.87,23.56-24.11,23.59-8.83.02-17.66,0-26.49,0Z"/>
      <path class="cls-5" d="m105.88,749.12c-8.98,0-17.98.27-26.95-.07-10.13-.39-17.81-8.23-18.04-18.38-.26-11.64-.24-23.3-.03-34.95.19-10.44,7.82-18.42,18.33-18.62,17.97-.33,35.95-.34,53.92,0,10.13.19,17.77,7.45,18.25,17.66.57,12.28.53,24.63-.09,36.91-.51,10.1-8.26,17.07-18.43,17.41-8.97.31-17.97.06-26.95.06,0-.01,0-.03,0-.04Z"/>
      <path class="cls-9" d="m106.48,670.14c-12.49,0-24.98.02-37.46,0-6.55-.01-8.34-2.25-7.03-8.67,4.3-21.13,22.92-36.19,44.7-36.13,21.62.05,40.28,15.48,44.33,36.65,1.12,5.85-.66,8.13-6.57,8.15-12.65.05-25.31.01-37.96.01Z"/>
      <path class="cls-1" d="m360.17,749.14c-8.98,0-17.98.26-26.95-.07-10.5-.38-18.2-8.16-18.42-18.53-.24-11.65-.25-23.3-.01-34.95.21-10.42,7.91-18.32,18.45-18.5,17.8-.31,35.62-.3,53.42-.02,10.38.17,18.15,7.4,18.64,17.82.57,12.12.53,24.3-.06,36.42-.51,10.41-8.19,17.43-18.61,17.79-8.81.3-17.64.06-26.45.06,0,0,0-.02,0-.03Z"/>
      <path class="cls-9" d="m359.98,670.14c-12.49,0-24.98.03-37.46-.01-5.97-.02-7.75-2.23-6.7-8.09,3.81-21.32,23.07-36.96,45.21-36.71,21.77.25,40.69,16.37,44.07,37.55.77,4.83-1.13,7.21-6.15,7.24-12.99.08-25.97.03-38.96.02Z"/>
      <path class="cls-5" d="m232.15,55.84c8.82,0,17.65-.25,26.45.07,10.79.39,18.43,8.2,18.61,18.86.19,11.48.21,22.97,0,34.45-.19,10.45-7.78,18.46-18.29,18.66-17.97.34-35.95.34-53.92,0-10.13-.19-17.8-7.43-18.28-17.62-.58-12.28-.54-24.63.08-36.91.51-10.12,8.24-17.1,18.39-17.45,8.97-.31,17.97-.06,26.95-.06Z"/>
      <path class="cls-9" d="m232.02,134.86c12.49,0,24.98-.03,37.46.01,5.97.02,7.75,2.23,6.7,8.09-3.81,21.32-23.07,36.96-45.21,36.71-21.77-.25-40.69-16.37-44.07-37.55-.77-4.83,1.13-7.21,6.15-7.24,12.99-.08,25.97-.03,38.96-.02Z"/>
      <path class="cls-5" d="m486.45,55.87c8.82,0,17.65-.27,26.45.07,10.39.4,18.03,8.31,18.22,18.72.21,11.48.21,22.97.02,34.45-.18,10.68-7.88,18.63-18.67,18.81-17.64.29-35.28.26-52.92.02-10.64-.15-18.47-7.39-18.96-18.05-.55-11.95-.51-23.97.05-35.92.5-10.68,8.17-17.74,18.86-18.1,8.98-.3,17.97-.06,26.95-.06,0,.02,0,.04,0,.06Z"/>
      <path class="cls-9" d="m485.11,134.86c12.65,0,25.31-.02,37.96,0,6.36.01,8.15,2.16,7.01,8.26-3.96,21.21-22.89,36.63-44.85,36.54-21.8-.1-40.67-15.94-44.34-37.22-.9-5.2.94-7.54,6.26-7.56,12.65-.07,25.31-.02,37.96-.02Z"/>
      <path class="cls-1" d="m105.97,434.2c-8.98,0-17.98.27-26.95-.07-10.37-.39-17.97-8.35-18.15-18.79-.19-11.48-.21-22.97-.01-34.45.18-10.46,7.74-18.49,18.25-18.7,17.97-.35,35.95-.34,53.92-.01,10.14.18,17.83,7.4,18.32,17.58.59,12.28.54,24.63-.07,36.91-.5,10.13-8.23,16.92-18.35,17.56-.66.04-1.33.13-1.99.13-8.32,0-16.64,0-24.96,0,0-.05,0-.11,0-.16Z"/>
      <path class="cls-9" d="m106.11,355.21c-12.49,0-24.98.03-37.46-.01-6-.02-7.79-2.21-6.76-8.04,3.77-21.31,23.02-36.98,45.16-36.76,21.78.22,40.68,16.29,44.12,37.5.81,5.03-1.14,7.27-6.59,7.3-12.82.05-25.64.02-38.46.02Z"/>
      <path class="cls-5" d="m105.2,156.85c8.98,0,17.98-.27,26.95.07,10.14.38,17.84,8.21,18.07,18.34.27,11.64.24,23.3.03,34.95-.18,10.45-7.78,18.46-18.29,18.66-17.97.34-35.95.34-53.92,0-10.13-.19-17.8-7.43-18.28-17.63-.58-12.28-.54-24.63.08-36.91.51-10.12,8.25-16.88,18.39-17.51.66-.04,1.33-.13,1.99-.13,8.32,0,16.64,0,24.96,0,0,.06,0,.11,0,.17Z"/>
      <path class="cls-9" d="m104.99,235.84c12.49,0,24.98-.02,37.46.01,6.01.02,7.81,2.21,6.78,8.02-3.75,21.31-23,36.99-45.15,36.77-21.78-.22-40.68-16.27-44.13-37.48-.82-5.04,1.12-7.29,6.57-7.31,12.82-.05,25.64-.02,38.46-.02Z"/>
      <path class="cls-1" d="m360.03,434.21c-8.98,0-17.98.26-26.95-.07-10.43-.39-18.09-8.26-18.28-18.66-.22-11.48-.2-22.97-.02-34.45.17-10.7,7.84-18.69,18.61-18.87,17.8-.29,35.62-.3,53.42,0,10.17.17,17.81,7.31,18.47,17.46.8,12.44.88,24.97-.06,37.41-.74,9.81-8.36,16.78-18.23,17.12-8.97.31-17.97.07-26.95.06Z"/>
      <path class="cls-9" d="m360.45,355.21c-12.65,0-25.31.03-37.96-.01-5.96-.02-7.73-2.24-6.67-8.12,3.84-21.34,23.09-36.94,45.23-36.68,21.77.26,40.7,16.41,44.05,37.58.76,4.81-1.15,7.18-6.18,7.21-12.82.07-25.64.02-38.46.02Z"/>
      <path class="cls-5" d="m358.84,151.84c8.98,0,17.98-.27,26.95.07,10.68.4,18.24,8.36,18.38,19.08.16,11.32.17,22.64,0,33.95-.16,10.72-7.77,18.76-18.53,18.95-17.8.31-35.62.3-53.42,0-10.37-.17-18.11-7.44-18.59-17.87-.56-12.12-.52-24.3.08-36.42.51-10.39,8.22-17.38,18.66-17.74,8.81-.3,17.64-.06,26.45-.06,0,.01,0,.02,0,.04Z"/>
      <path class="cls-9" d="m358.99,230.84c12.49,0,24.98-.03,37.46.01,5.97.02,7.75,2.23,6.7,8.1-3.82,21.33-23.07,36.95-45.21,36.7-21.77-.25-40.7-16.38-44.07-37.56-.77-4.83,1.13-7.2,6.16-7.23,12.99-.08,25.97-.03,38.96-.02Z"/>
      <path class="cls-5" d="m233.13,644.16c-8.98,0-17.98.27-26.95-.07-10.66-.4-18.21-8.38-18.36-19.11-.15-11.32-.18-22.64,0-33.95.16-10.72,7.79-18.74,18.56-18.92,17.8-.3,35.62-.3,53.42,0,10.18.17,17.85,7.27,18.52,17.41.82,12.44.87,24.97-.05,37.41-.73,9.83-8.33,16.83-18.18,17.17-8.97.31-17.97.07-26.95.07Z"/>
      <path class="cls-9" d="m233.38,565.16c-12.49,0-24.98.02-37.46,0-6.5-.01-8.29-2.29-6.96-8.73,4.35-21.14,22.97-36.16,44.74-36.07,21.63.08,40.27,15.52,44.28,36.7,1.11,5.82-.69,8.07-6.64,8.09-12.65.04-25.31.01-37.96.01Z"/>
      <path class="cls-5" d="m479.07,331.24c-8.98,0-17.98.27-26.95-.07-10.68-.4-18.23-8.36-18.38-19.08-.16-11.32-.17-22.64,0-33.95.16-10.72,7.78-18.76,18.53-18.94,17.8-.31,35.62-.3,53.42,0,10.36.17,18.1,7.45,18.58,17.88.56,12.12.52,24.3-.08,36.42-.51,10.39-8.22,17.38-18.66,17.74-8.81.3-17.64.06-26.45.06,0-.01,0-.02,0-.04Z"/>
      <path class="cls-9" d="m478.93,252.23c-12.49,0-24.98.03-37.46-.01-5.97-.02-7.74-2.24-6.69-8.1,3.82-21.33,23.07-36.95,45.21-36.7,21.77.25,40.7,16.38,44.07,37.56.77,4.83-1.14,7.2-6.16,7.23-12.99.08-25.97.03-38.96.02Z"/>
      <path class="cls-1" d="m232.94,333.23c-8.98,0-17.98.27-26.95-.07-10.37-.39-17.98-8.35-18.16-18.78-.2-11.48-.21-22.97-.01-34.45.18-10.47,7.73-18.5,18.23-18.71,17.97-.36,35.95-.34,53.92-.02,10.14.18,17.84,7.39,18.33,17.57.59,12.28.54,24.63-.06,36.91-.5,10.14-8.22,16.94-18.34,17.57-.66.04-1.33.13-1.99.13-8.32,0-16.64,0-24.96,0,0-.05,0-.11,0-.16Z"/>
      <path class="cls-9" d="m233.43,254.23c-12.49,0-24.98.02-37.46,0-6.54-.01-8.33-2.26-7.02-8.68,4.31-21.14,22.92-36.18,44.7-36.12,21.62.06,40.28,15.49,44.33,36.65,1.12,5.85-.66,8.12-6.58,8.14-12.65.05-25.31.01-37.96.01Z"/>
      <path class="cls-5" d="m477.62,437.95c-8.32,0-16.64.1-24.96-.02-11.94-.16-19.87-7.6-20.24-19.49-.34-10.97-.34-21.98,0-32.95.38-11.99,8-19.57,19.96-19.76,16.97-.27,33.95-.29,50.92,0,12.49.21,19.82,8.17,19.87,20.75.04,10.49.06,20.97,0,31.46-.07,11.85-7.78,19.76-19.59,19.98-8.65.16-17.31.03-25.96.04Z"/>
      <path class="cls-9" d="m477.73,444.79c12.49,0,24.98-.02,37.46,0,6.28.02,8.05,2.22,6.88,8.37-4.06,21.25-22.97,36.58-44.94,36.43-21.63-.15-40.25-15.68-44.17-36.84-1.07-5.78.73-7.94,6.81-7.96,12.65-.04,25.31-.01,37.96-.01Z"/>
      <path class="cls-5" d="m231.8,365.78c8.98,0,17.98-.26,26.95.07,10.51.38,18.22,8.14,18.44,18.5.25,11.65.25,23.3.02,34.95-.21,10.42-7.88,18.34-18.42,18.53-17.8.32-35.62.3-53.42.02-10.39-.16-18.17-7.37-18.66-17.79-.58-12.12-.53-24.3.05-36.42.5-10.42,8.18-17.46,18.58-17.82,8.81-.3,17.64-.06,26.45-.06,0,0,0,.02,0,.03Z"/>
      <path class="cls-9" d="m231.52,444.79c12.65,0,25.31-.03,37.96.01,5.98.02,7.76,2.23,6.71,8.08-3.81,21.32-23.06,36.96-45.2,36.71-21.77-.24-40.69-16.36-44.08-37.54-.77-4.84,1.12-7.21,6.14-7.24,12.82-.08,25.64-.03,38.46-.02Z"/>
      <path class="cls-5" d="m358.97,467.77c8.98,0,17.98-.27,26.95.07,10.42.39,18.06,8.28,18.25,18.7.21,11.48.2,22.97.02,34.45-.17,10.69-7.86,18.66-18.65,18.83-17.64.29-35.28.26-52.92.03-10.65-.14-18.49-7.37-18.98-18.02-.56-11.95-.52-23.97.04-35.92.5-10.69,8.15-17.76,18.84-18.12,8.81-.3,17.64-.06,26.45-.06,0,.02,0,.04,0,.05Z"/>
      <path class="cls-9" d="m358.47,546.77c12.65,0,25.31-.03,37.96.01,5.98.02,7.76,2.23,6.71,8.08-3.8,21.32-23.06,36.96-45.2,36.71-21.77-.24-40.69-16.35-44.08-37.54-.77-4.84,1.12-7.21,6.14-7.24,12.82-.08,25.64-.03,38.46-.02Z"/>
      <path class="cls-5" d="m104.95,467.77c8.98,0,17.98-.27,26.95.07,10.67.4,18.22,8.37,18.37,19.1.15,11.32.18,22.64,0,33.95-.16,10.72-7.79,18.74-18.55,18.93-17.8.31-35.62.3-53.42,0-10.18-.17-17.85-7.26-18.52-17.4-.83-12.44-.87-24.97.05-37.41.73-9.84,8.33-16.61,18.17-17.25.83-.05,1.66-.15,2.49-.15,8.15-.01,16.31,0,24.46,0,0,.05,0,.1,0,.16Z"/>
      <path class="cls-9" d="m104.55,546.77c12.65,0,25.31-.03,37.96.01,5.98.02,7.76,2.23,6.72,8.08-3.8,21.32-23.05,36.96-45.19,36.72-21.77-.24-40.69-16.35-44.08-37.54-.78-4.84,1.11-7.22,6.13-7.25,12.82-.08,25.64-.03,38.46-.03Z"/>
      <path class="cls-5" d="m479.3,644.15c-9.15,0-18.31.27-27.45-.07-10.13-.38-17.83-8.21-18.07-18.34-.27-11.64-.24-23.3-.03-34.95.19-10.45,7.79-18.45,18.3-18.65,17.97-.34,35.95-.34,53.92,0,10.13.19,17.79,7.43,18.27,17.63.58,12.28.54,24.63-.08,36.91-.51,10.11-8.25,16.88-18.4,17.51-.66.04-1.33.13-1.99.13-8.15,0-16.31,0-24.46,0,0-.06,0-.11,0-.17Z"/>
      <path class="cls-9" d="m479.3,565.16c-12.49,0-24.98.02-37.46,0-6.5-.01-8.29-2.29-6.96-8.73,4.35-21.14,22.97-36.16,44.74-36.08,21.63.08,40.27,15.53,44.29,36.7,1.11,5.82-.69,8.08-6.64,8.1-12.65.04-25.31.01-37.96.01Z"/>
      <path class="cls-1" d="m479.17,749.14c-8.99,0-17.98.26-26.96-.07-10.51-.38-18.14-8.15-18.45-18.52-.33-11.14-.53-22.28-.51-33.42.01-11.61,7.3-19.86,18.81-20.4,17.95-.85,35.94-.7,53.9-.04,11.21.41,18.18,8.86,18.64,19.63.47,10.96.21,21.97-.14,32.95-.39,12.22-8.04,19.65-20.32,19.97-8.32.22-16.65.04-24.97.04,0-.05,0-.09,0-.14Z"/>
      <path class="cls-5" d="m233.08,749.13c-8.99,0-17.99.26-26.96-.07-10.43-.39-18.01-8.27-18.29-18.68-.3-10.97-.5-21.95-.51-32.92,0-11.99,7.15-20.21,18.98-20.75,17.95-.82,35.94-.73,53.9-.01,11.02.44,18.07,8.86,18.49,19.78.43,10.97.21,21.98-.17,32.95-.41,12-8.02,19.29-19.98,19.82-.5.02-1,.03-1.5.03-7.99,0-15.98,0-23.97,0,0-.05,0-.11,0-.16Z"/>
      <path class="cls-5" d="m359.47,128.27c-8.82,0-17.65.27-26.46-.07-10.39-.39-17.95-8.33-18.22-18.74-.29-10.97-.5-21.95-.51-32.92,0-11.96,7.17-20.15,19.05-20.69,17.95-.81,35.94-.74,53.9,0,10.95.45,18.01,8.87,18.43,19.84.41,10.8.17,21.64-.14,32.45-.36,12.49-8.01,19.94-20.58,20.24-8.49.2-16.98.04-25.47.04,0-.05,0-.1,0-.16Z"/>
      <path class="cls-5" d="m105.92,128.26c-8.99,0-17.99.27-26.96-.07-10.14-.38-17.75-8.22-18.07-18.37-.35-11.3-.56-22.61-.51-33.92.05-11.25,7.45-19.5,18.67-20.02,18.12-.84,36.27-.8,54.4,0,11,.48,17.78,8.84,18.26,19.45.51,11.13.26,22.31-.16,33.45-.44,11.94-8.13,19.27-20.17,19.59-8.48.23-16.98.04-25.47.04,0-.05,0-.1,0-.16Z"/>
      <path class="cls-3" d="m107.07,694.93c7.82,0,15.63.09,23.45-.05,2.57-.04,3.51.72,3.48,3.38-.12,10.14-.1,20.29-.03,30.43.02,2.35-.82,3.23-3.19,3.22-16.3-.06-32.59-.06-48.89,0-2.33,0-3.27-.79-3.26-3.17.07-10.14.12-20.29-.04-30.43-.05-3.18,1.56-3.42,4.03-3.4,8.15.08,16.3.03,24.45.03Z"/>
      <path class="cls-3" d="m360.21,694.93c7.99,0,15.98.11,23.96-.06,2.78-.06,3.8.71,3.75,3.62-.15,9.98-.13,19.97-.02,29.95.03,2.6-.86,3.48-3.46,3.47-16.14-.09-32.28-.09-48.42,0-2.6.01-3.49-.91-3.47-3.48.08-10.15.11-20.3-.05-30.45-.05-3.03,1.54-3.09,3.75-3.08,7.99.06,15.97.02,23.96.02Z"/>
      <path class="cls-3" d="m231.73,110.07c-7.98,0-15.97-.11-23.95.06-2.83.06-3.75-.81-3.71-3.66.15-9.98.13-19.96.02-29.93-.03-2.62.9-3.46,3.48-3.45,16.13.08,32.26.08,48.39,0,2.58-.01,3.51.87,3.49,3.46-.09,9.98-.12,19.96.03,29.93.04,2.93-1.08,3.68-3.8,3.64-7.98-.13-15.96-.05-23.95-.05Z"/>
      <path class="cls-3" d="m485.77,110.07c-7.65,0-15.31-.18-22.95.08-3.56.12-5-.59-4.86-4.57.32-9.3.23-18.63.04-27.94-.07-3.35.73-4.65,4.38-4.6,15.46.2,30.93.16,46.4.02,3.32-.03,4.73.69,4.64,4.37-.24,9.47-.21,18.96,0,28.44.07,3.29-.89,4.36-4.2,4.27-7.81-.21-15.63-.07-23.45-.07Z"/>
      <path class="cls-3" d="m106.32,380.01c7.99,0,15.98.11,23.96-.06,2.83-.06,3.76.8,3.72,3.66-.15,9.98-.13,19.97-.02,29.95.03,2.64-.94,3.45-3.5,3.43-16.14-.08-32.28-.09-48.42,0-2.64.01-3.46-.99-3.44-3.52.08-10.15.11-20.3-.05-30.45-.05-3.07,1.61-3.05,3.79-3.04,7.99.05,15.98.02,23.96.02Z"/>
      <path class="cls-3" d="m104.57,211.04c-7.98,0-15.97-.08-23.95.05-2.55.04-3.53-.68-3.5-3.36.13-10.14.1-20.29.03-30.43-.02-2.33.78-3.24,3.17-3.24,16.3.07,32.59.08,48.89,0,2.8-.02,3.29,1.29,3.28,3.67-.07,9.81-.14,19.63.04,29.44.05,3.11-1.01,4-4.01,3.94-7.98-.17-15.96-.06-23.95-.06Z"/>
      <path class="cls-3" d="m360.45,416.95c-7.99,0-15.98-.12-23.96.06-3.1.07-4-1.04-3.96-4.03.14-9.82.16-19.64-.03-29.45-.06-3.03,1.1-3.58,3.78-3.57,15.97.09,31.95.11,47.92,0,2.82-.02,3.76.78,3.72,3.65-.15,9.82-.17,19.64,0,29.45.05,3.1-.98,4.02-4.01,3.96-7.82-.18-15.64-.06-23.46-.06Z"/>
      <path class="cls-3" d="m358.69,206.04c-7.98,0-15.97-.11-23.95.06-2.84.06-3.74-.82-3.7-3.67.15-9.98.13-19.96.02-29.93-.03-2.62.91-3.46,3.48-3.45,16.13.08,32.26.08,48.39,0,2.59-.01,3.51.88,3.48,3.46-.09,9.98-.12,19.96.03,29.93.04,2.94-1.09,3.68-3.81,3.63-7.98-.13-15.96-.05-23.95-.05Z"/>
      <path class="cls-3" d="m233.23,626.91c-7.82,0-15.64-.15-23.45.07-3.33.09-4.28-1.05-4.22-4.28.18-9.64.13-19.29.01-28.94-.03-2.68.61-3.87,3.59-3.85,16.13.12,32.26.11,48.39,0,2.66-.02,3.43.87,3.4,3.45-.12,9.98-.14,19.96,0,29.93.04,2.89-1.01,3.71-3.78,3.66-7.98-.14-15.96-.05-23.95-.05Z"/>
      <path class="cls-3" d="m479.18,277.03c7.98,0,15.97.1,23.95-.06,2.77-.06,3.8.7,3.76,3.61-.15,9.98-.12,19.96-.02,29.93.03,2.56-.79,3.51-3.43,3.5-16.13-.09-32.26-.11-48.39,0-3.04.02-3.56-1.34-3.53-3.93.09-9.81.12-19.63-.03-29.44-.04-2.88.97-3.74,3.76-3.69,7.98.14,15.96.05,23.95.05Z"/>
      <path class="cls-3" d="m233.43,279.03c7.82,0,15.64.11,23.46-.06,2.9-.06,4.14.57,4.08,3.81-.2,9.81-.15,19.64-.03,29.45.03,2.74-.74,3.82-3.65,3.8-15.97-.11-31.95-.11-47.92,0-2.76.02-3.84-.79-3.8-3.67.12-9.98.12-19.97-.03-29.95-.04-2.67.84-3.45,3.43-3.41,8.15.13,16.31.05,24.46.05Z"/>
      <path class="cls-3" d="m477.72,419.99c-7.98,0-15.97-.1-23.95.05-2.75.05-3.82-.66-3.77-3.59.16-9.98.12-19.96.02-29.93-.03-2.54.75-3.53,3.41-3.52,16.13.09,32.26.11,48.39,0,3.03-.02,3.58,1.3,3.55,3.91-.09,9.81-.12,19.63.02,29.44.04,2.86-.93,3.76-3.74,3.71-7.98-.14-15.96-.05-23.95-.05Z"/>
      <path class="cls-3" d="m231.66,420c-7.82,0-15.63-.1-23.45.05-2.8.05-4.23-.38-4.16-3.72.21-9.81.19-19.62.01-29.43-.06-3.16,1.11-3.92,4.06-3.9,15.8.12,31.6.13,47.39,0,3.12-.03,3.98,1.07,3.94,4.05-.14,9.64-.2,19.29.03,28.94.08,3.49-1.31,4.15-4.39,4.08-7.81-.17-15.63-.06-23.45-.06Z"/>
      <path class="cls-3" d="m358.72,521.97c-7.99,0-15.98-.11-23.96.06-2.82.06-3.76-.78-3.72-3.65.15-9.98.13-19.97.02-29.95-.03-2.64.93-3.45,3.49-3.44,16.14.08,32.28.09,48.42,0,2.64-.01,3.46.98,3.44,3.51-.08,10.15-.11,20.3.05,30.45.05,3.06-1.6,3.06-3.78,3.04-7.99-.05-15.97-.02-23.96-.02Z"/>
      <path class="cls-3" d="m104.85,521.97c-7.82,0-15.64-.15-23.45.07-3.22.09-4.37-.71-4.3-4.1.21-9.64.17-19.29.02-28.94-.05-2.97.77-4.07,3.91-4.05,15.8.14,31.6.12,47.39.01,2.94-.02,4.14.75,4.09,3.9-.16,9.81-.14,19.62,0,29.43.04,2.85-.91,3.77-3.73,3.72-7.98-.15-15.96-.05-23.95-.05Z"/>
      <path class="cls-2" d="m479.24,589.96c7.98,0,15.97.11,23.95-.06,2.84-.06,3.74.82,3.7,3.67-.15,9.98-.13,19.96-.02,29.93.03,2.63-.91,3.46-3.48,3.44-16.13-.08-32.26-.08-48.39,0-2.59.01-3.51-.89-3.48-3.46.09-9.98.12-19.96-.03-29.93-.04-2.94,1.09-3.68,3.81-3.63,7.98.13,15.96.05,23.95.05Z"/>
      <path class="cls-2" d="m479.43,731.88c-7.83,0-15.66-.11-23.49.05-3.03.06-4.53-.51-4.47-4.05.17-9.66.09-19.33-.15-28.99-.08-3.38,1.17-4.21,4.36-4.18,15.49.14,30.99.08,46.48.05,2.3,0,4.18-.12,4.18,3.23,0,9.98.21,19.96.53,29.93.1,3.04-.86,4.09-3.96,4.01-7.83-.19-15.66-.06-23.49-.06Z"/>
      <path class="cls-2" d="m233.52,731.88c-8,0-16-.12-23.99.06-3.11.07-4-1.04-3.96-4.04.1-9.66.07-19.33-.17-28.99-.08-3.36,1.13-4.23,4.34-4.2,15.49.14,30.99.08,46.48.05,2.29,0,4.19-.15,4.2,3.21,0,9.98.21,19.96.53,29.93.1,3.02-.82,4.1-3.94,4.03-7.83-.19-15.66-.06-23.49-.06Z"/>
      <path class="cls-2" d="m360.18,111.02c-7.83,0-15.66-.1-23.49.05-2.86.05-4.22-.57-4.18-3.82.13-9.83.05-19.66-.15-29.49-.07-3.17,1.19-3.91,4.13-3.89,15.66.12,31.32.1,46.98.02,2.62-.01,3.9.51,3.9,3.53,0,9.81.19,19.63.54,29.43.12,3.3-.96,4.32-4.25,4.24-7.82-.21-15.66-.07-23.49-.07Z"/>
      <path class="cls-2" d="m106.27,111.02c-7.83,0-15.66-.09-23.49.05-2.85.05-4.23-.54-4.19-3.81.13-9.83.05-19.66-.15-29.49-.06-3.16,1.17-3.93,4.12-3.9,15.66.12,31.32.1,46.98.02,2.61-.01,3.91.48,3.91,3.52,0,9.81.19,19.63.54,29.43.12,3.29-.94,4.34-4.24,4.25-7.82-.21-15.66-.07-23.49-.07Z"/>
    </g>
  </g>
</svg>