<svg xmlns="http://www.w3.org/2000/svg" viewBox="0 0 586 810"><g xmlns="http://www.w3.org/2000/svg" transform="matrix(-1 0 0 -1 586 810)"><defs><style>      .cls-1 {        fill: #690b0d;      }      .cls-1, .cls-2, .cls-3, .cls-4, .cls-5, .cls-6, .cls-7, .cls-8, .cls-9, .cls-10, .cls-11, .cls-12, .cls-13, .cls-14, .cls-15, .cls-16, .cls-17, .cls-18, .cls-19, .cls-20, .cls-21, .cls-22, .cls-23, .cls-24, .cls-25, .cls-26, .cls-27, .cls-28, .cls-29, .cls-30, .cls-31, .cls-32, .cls-33, .cls-34, .cls-35, .cls-36, .cls-37, .cls-38, .cls-39, .cls-40, .cls-41, .cls-42, .cls-43, .cls-44, .cls-45, .cls-46, .cls-47, .cls-48, .cls-49, .cls-50, .cls-51, .cls-52, .cls-53, .cls-54, .cls-55, .cls-56, .cls-57, .cls-58, .cls-59, .cls-60, .cls-61, .cls-62, .cls-63, .cls-64, .cls-65, .cls-66, .cls-67, .cls-68 {        stroke-width: 0px;      }      .cls-2 {        fill: #c23f49;      }      .cls-3 {        fill: #fefefe;      }      .cls-4 {        fill: #531615;      }      .cls-5 {        fill: #0c0f12;      }      .cls-6 {        fill: #afa5a7;      }      .cls-7 {        fill: #070a0a;      }      .cls-8 {        fill: #0e1114;      }      .cls-9 {        fill: #100306;      }      .cls-10 {        fill: #5f0c0d;      }      .cls-11 {        fill: #f3f6f7;      }      .cls-12 {        fill: #6a0c10;      }      .cls-13 {        fill: #c01721;      }      .cls-14 {        fill: #cc5e59;      }      .cls-15 {        fill: #e8afaf;      }      .cls-16 {        fill: #d35766;      }      .cls-17 {        fill: #4f5259;      }      .cls-18 {        fill: #0b0f12;      }      .cls-19 {        fill: #d1221e;      }      .cls-20 {        fill: #eef5f8;      }      .cls-21 {        fill: #0b0503;      }      .cls-22 {        fill: #0c1013;      }      .cls-23 {        fill: #6c6f73;      }      .cls-24 {        fill: #0e0404;      }      .cls-25 {        fill: #0b0d11;      }      .cls-26 {        fill: #ae191d;      }      .cls-27 {        fill: #d01815;      }      .cls-28 {        fill: #d41b1d;      }      .cls-29 {        fill: #1a1d20;      }      .cls-30 {        fill: #f7dde3;      }      .cls-31 {        fill: #eef2fb;      }      .cls-32 {        fill: #54060a;      }      .cls-33 {        fill: #0c1011;      }      .cls-34 {        fill: #f3f3ed;      }      .cls-35 {        fill: #10141b;      }      .cls-36 {        fill: #05060b;      }      .cls-37 {        fill: #07090a;      }      .cls-38 {        fill: #0f1117;      }      .cls-39 {        fill: #6d0b0c;      }      .cls-40 {        fill: #0c0d13;      }      .cls-41 {        fill: #06090e;      }      .cls-42 {        fill: #781112;      }      .cls-43 {        fill: #e71f27;      }      .cls-44 {        fill: #cb2433;      }      .cls-45 {        fill: #d01d1b;      }      .cls-46 {        fill: #cf1a16;      }      .cls-47 {        fill: #04070a;      }      .cls-48 {        fill: #eaeef0;      }      .cls-49 {        fill: #c00f0f;      }      .cls-50 {        fill: #cc1b1b;      }      .cls-51 {        fill: #f0f0f2;      }      .cls-52 {        fill: #680a0b;      }      .cls-53 {        fill: #f5f6f8;      }      .cls-54 {        fill: #42454c;      }      .cls-55 {        fill: #e9b4ba;      }      .cls-56 {        fill: #76100d;      }      .cls-57 {        fill: #cb6164;      }      .cls-58 {        fill: #eaafae;      }      .cls-59 {        fill: #989c9e;      }      .cls-60 {        fill: #0d1114;      }      .cls-61 {        fill: #c1c5c8;      }      .cls-62 {        fill: #f1f2f7;      }      .cls-63 {        fill: #7b0c0d;      }      .cls-64 {        fill: #871111;      }      .cls-65 {        fill: #d5191a;      }      .cls-66 {        fill: #d21f1e;      }      .cls-67 {        fill: #101318;      }      .cls-68 {        fill: #f3f5f6;      }    </style></defs><g id="Calque_1-2" data-name="Calque 1"><g><path class="cls-3" d="m585.91,405c0,133.47-.02,266.94.09,400.41,0,3.74-.84,4.59-4.59,4.59-192.28-.11-384.55-.11-576.83,0C.84,810,0,809.16,0,805.41.1,538.47.1,271.53,0,4.59,0,.84.84,0,4.58,0c192.28.11,384.55.11,576.83,0,3.74,0,4.59.84,4.58,4.59-.11,133.47-.09,266.94-.09,400.41Z" /><path class="cls-3" d="m100.5,7.08c13.64,0,27.28.25,40.91-.09,8.16-.2,16.19,1.34,24.32,1.1,11.6-.35,23.17-1.11,34.8-1.14,10.63-.03,21.22,1.53,31.8,1.04,38.71-1.78,77.43-.81,116.13-.72,12.74.03,25.52.82,38.29.81,4.8,0,9.59.32,14.22-1.68,3.24-1.4,6.46.81,9.8.75,9.81-.19,19.62-.02,29.44-.08,12.28-.07,24.54.7,36.8.8,12.58.1,25.21-.38,37.78-.97,13.07-.61,25.58,3.06,38.51,3.47,8.82.27,17.1,11.43,17.78,20.33.42,5.51,1.95,11.01,3.67,16.29.68,2.11,1.16,4.07,1.17,6.21,0,15.81,0,31.62,0,47.43v547.65c0,31.03,0,62.07,0,93.1,0,7.28.15,14.57-2.73,21.52-.53,1.29-.65,3.17-.12,4.41,2.65,6.14-1.16,11.7-1.34,17.56-.02.7-.75,1.47-1.32,2.04-2.78,2.79-5.6,5.69-8.56,8.13-3.8,3.13-9.32,3.48-14.12,3.72-16.37.82-32.73,1.89-49.12,2.52-19.23.73-38.43.48-57.64.56-54.55.24-109.11-.02-163.66.18-9.57.04-19.06-2.35-28.58-1.02-13.02,1.81-26.06.4-39.08.93-7.98.33-15.76-1.81-23.69-1.99-1.49-.03-3.19-.3-4.43.3-9.55,4.57-19.43,2.73-29.27,1.78-.66-.06-1.33-.07-1.99-.09-8.61-.27-17.33-.95-25.8-.65-17.9.65-35.81.56-53.7.87-6.59.11-13.44-.83-20.17-1.34-9.41-.71-18.64-2.54-26.76-7.93-1.25-.83-2.71-1.36-3.25-2.91-2.21-6.33-6.03-11.83-8.2-18.4-2.4-7.28-1.12-13.46-.41-20.18.16-1.48.09-2.99.09-4.49,0-33.12.08-66.23-.04-99.35-.04-9.84.87-19.64-.7-29.56-1.04-6.57-.48-13.51.57-20.33.9-5.85-.27-11.88-.68-17.83-.54-7.92.03-15.88.74-23.83.84-9.42-.19-18.89-.88-28.32-.69-9.48,1.64-18.87.97-28.33-2.14-30.06-.79-60.16-.76-90.24.01-11.4-.21-22.82,0-34.19,1.9-109.62.18-219.25.84-328.87.03-4.28.49-8.6,1.13-12.84,1.05-7,5.59-11.73,11.01-15.75,5.3-3.93,11.09-6.17,17.54-8.16,5.79-1.78,11.19-2.05,16.79-2.15,13.97-.24,27.94-.08,41.91-.08Z" /><path class="cls-31" d="m101.23,11.08c11.31,0,22.63.27,33.93-.08,10.48-.32,20.89,1.6,31.3.97,15.76-.95,31.53-1.27,47.28-.73,8.94.3,17.89,1.27,26.82.76,36.54-2.07,73.11-.75,109.65-.7,13.74.02,27.52.75,41.29.76,3.26,0,6.42.2,9.63-1.57,3.17-1.74,6.73.71,10.24.67,16.3-.19,32.61-.47,48.89.08,8.27.28,16.62,1.59,24.81.65,10.47-1.21,20.91-.2,31.33-.86,12.19-.78,23.89,3.18,36.02,3.37,3.87.06,7.15,2.95,10.13,6.8,5.93,7.69,5.34,16.64,7.27,25.03,4.77,20.77,1.71,41.94,1.78,62.91.03,8.89.27,17.8.27,26.7.1,123.15.07,246.3.07,369.45v138.04c0,31.87.01,63.73,0,95.6,0,7.58.35,15.17-2.77,22.42-.73,1.69-.47,4.01-.1,5.93,1.59,8.29-.17,14.75-6.53,21.25-4.77,4.87-10.19,5.78-15.39,6.11-16.19,1-32.37,2.11-48.62,2.5-73.48,1.78-146.96.07-220.43.85-10.05.11-20.04-2.45-30.02-.97-13.84,2.05-27.69.35-41.52.83-7.77.27-15.35-2.49-23.19-1.93-1.32.09-2.86-.23-3.93.34-8.49,4.53-17.35,2.71-26.17,1.75-.49-.05-.99-.08-1.49-.09-8.94-.22-17.9-.58-26.82-.75-18.05-.35-36.2,2.04-54.15.87-13.11-.86-26.91.27-39.36-5.6-3.8-1.79-7.21-4.05-9.7-8.38-3.53-6.15-4.26-13.02-6.98-19.3-1.1-2.54-.24-6.22.5-9.19.91-3.64.79-7.25.8-10.89.02-33.78,0-67.57.03-101.35,0-3.97-.18-7.91.81-11.88.85-3.39-1.09-6.74-1.5-10.03-.81-6.53-.84-13.27.07-19.89.87-6.28.61-12.5.04-18.81-.6-6.6-.85-13.33-.22-19.91.95-9.79.93-19.44-.04-29.23-.87-8.74.94-17.62.59-26.31-1.12-28.09-.63-56.17-.73-84.26-.03-8.11-.47-16.22.81-24.36,1.17-7.39-.96-14.88-.81-22.31,2.14-102.14.36-204.28.93-306.42.06-10.09-.49-20.23.27-30.27.59-7.76,3.72-14.83,10.93-19.24,4.97-3.04,10.29-4.95,15.76-6.98,10.12-3.75,19.92-1.65,29.79-2.26,9.45-.58,18.95-.12,28.43-.12Z" /><path class="cls-27" d="m111.75,335.7c-18.2-16.23-31.84-35.82-41.44-58.1-5.1-11.84-8.58-24.39-9.18-37.37-.72-15.39-1.92-30.92,2.31-46.01,1.7-6.07,1.58-12.9,6.27-17.96-.4-1.76.15-3.14,1.66-4.13,6.59-3.03,13.8-4.84,19.34-9.98,4.21-3.91,4.34-7.82,0-11.79-1.59-1.46-3.24-2.85-4.57-4.57-.45-.58-.76-1.23-.84-1.97,1.27-6.07,5.32-10.16,9.88-13.89,2.45-1.37,4.14-3.57,6.09-5.5,1.37-1.35,2.54-3.61,5.17-2.27,1.82,2.84.76,5.83.2,8.68-.52,2.64-.4,4.33,2.6,5.33,3.12,1.04,4.11,3.64,3.39,6.83-1.24,5.51.57,10.85,1.05,16.25.34,3.86,4.08,5.39,6.54,7.76,1.44,1.39,3.03,2.57,4.7,3.65,2.44,1.49,4.56,4.21,7.92,1.76,3.73-2.72,5.39-8.56,3.89-14.61-2.29.34-2.63,2.78-4.13,3.87-1.6,1.19-3.27,2.7-5.34,1.49-2.16-1.26-1.24-3.41-1.05-5.37.62-6.36,3.43-12,5.63-17.85.77-2.03,2.62-2.87,4.44-3.68,6.28-2.38,9.07-12.23,4.45-17.07-2.91-3.05-2.91-5.74-1.58-9.4,2.55-7.04,2.35-7.12-2.23-10.41-1.05-1.91.42-2.75,1.67-3.39,1.81-.93,3.16-2.27,4.3-3.89,1.88-2.16,4.09-3.79,6.97-4.35,7.73-2.13,15.23-4.98,22.81-7.59.99-.32,2.02-.47,3.06-.52,2.91.03,5.6-1,8.37-1.68,1.35-.26,2.69-.43,3.97.29,2.29.89,4.6.2,6.89.01,44-3.71,82,10.06,114.54,39.5,3.67,3.32,6.64,7.41,9.94,11.14,6.41,8.43,13.03,16.72,17.74,26.29,7.93,16.11,13.89,32.73,15.42,50.89.53,6.23-.11,12.6,1.62,18.74.89,3.16-.72,6.2-.93,9.34-1.21,18.15-5.33,35.58-13.46,51.96-.82,1.64-1.94,3.1-3,4.57-.17.28-.41.53-.52.84-5.9,15.51-17.38,26.74-28.71,38.21-6.2,6.28-13.76,10.79-20.11,16.8l.05.06c-8.8,4.53-17.13,9.96-26.48,13.43-7.9,2.93-15.94,5.3-24.18,7.16-15.89,3.59-31.98,3.49-47.97,2.09-9.1-.8-18.16-3.1-26.97-6.1-16.92-5.77-32.51-13.84-46.4-25.16-1.13-.92-2.43-1.73-3.81-2.34Z" /><path class="cls-18" d="m329.79,314.85c.22-1.65.45-3.3.67-4.95,1.1-1.62-1.5-4.31,1.54-5.37,1.41,1.21,2.57,1.7,3.84-.38,1.96-3.2,5.25-5.47,6.4-9.31.48-1.6,1.99-2.59,3.54-3.31,4.3-.77,8.62,0,12.93-.28,7.91-.21,15.84.71,23.72-.81,2.66-.51,5.24.39,7.77,1.17,2.8.87,5.51,1.06,8-.88,1.97-1.3,4.12-1.5,6.38-1.1,4.52,1.8,9.53.2,14.11,2.09,1.43.59,2.71-1.73,4.45-1.83,15.44-1.52,30.97-.19,46.43-1.48,7.6-.64,8.25.49,9.75,8,.82,4.07,1.85,8.09.72,12.26-1.29,2.52-3.24,1.91-5.02.82-2.44-1.49-4.65-1.37-6.86.33,5.32-1.41,7.35.33,8.34,7.16.12,5.78-.03,11.54.03,17.31.08,1.2.07,2.4.01,3.6.22,21.35-.1,42.7.05,64.05.06,8.32-5.24,14.83-14.69,18.53-4.87,2.32-10.28,3.08-15.43,3.74-6.93.89-13.48,3.24-20.4,4.21-5.6.78-11.37,2.02-16.92,3.58-4.71,1.32-9.38,2.05-14.24,1.91-13.61-.38-27.2-1.05-40.73-2.67-4.81-.57-9.63-.16-14.44-.35-3.7-.15-4.96,1.59-4.93,5.12.07,7.14.16,14.29-.07,20.8-.53,1.24.67.93,0,.89-.15,0-.16-.17-.02-.49,2.97-6.69,6.94-12.85,10.43-19.27,1.35-2.48,3.83-3.85,6.76-3.12,2.92.72,5.02,2.57,5.6,5.71.4,2.14.27,4.31.28,6.47,0,25.61,0,51.22,0,76.83,0,3.01-.03,6,1.86,8.61,1.86,2.56,3.88,4.59,7.48,3.37,1.89-.64,3.66-.2,5.01,1.3,1.58,1.76,2.19,3.91-.7,4.54-2.6.57-3.3,2.51-4.57,4.15-.73.81-1.62,1.38-2.65,1.73-.48.1-.97.17-1.46.21-1.25-.21-2.79.66-3.7-.93.9-1.6-.82-1.51-1.41-2.13-1-1.05-2.46-2.06,0-3.11,1.28-.41,2.6.6,4.62-.47-9.35-4.89-9.41-13.36-9.37-22.01.1-21.63.01-43.25.05-64.88,0-3.51-.34-6.97-1-10.41-.21-1.11-.25-2.53-1.65-2.77-1.34-.23-2.04.97-2.65,1.93-3.64,5.77-6.92,11.75-10.19,17.73-.56,1.02-.98,2.12-1.68,3.06-1.03,1.39-2.28,2.64-4.15,2.15-2.41-.63-1.36-2.58-1.31-4.14.32-9.48-.39-18.94-.57-28.41-.1-5.14,1.23-6.65,6.26-6.25,7.79.62,15.6.6,23.39.01,5.36-.4,10.62.61,15.85,1.24,15.22,1.84,30.01.34,44.86-3.25,11.25-2.72,22.69-4.7,34.02-7.12,11.45-2.44,18.61-6.83,18.61-21.17,0-21.63-.07-43.25.04-64.88.02-4.52-.67-8.95-1.06-13.41-.09-.97-.04-2.11-1.29-2.4-1.14-.26-1.83.6-2.48,1.34-3.39,3.94-5.56,8.67-8.12,13.11-15.96,27.6-31.56,55.4-47.52,83-.33.58-.62,1.18-.84,1.81-.22.53-.51,1-.87,1.44-.79.83-1.7,1.5-2.6,2.21-8.26,5.13-16.98,8.08-26.87,5.95-1.93-.41-4,.08-5.96-.21-4.58-.67-9.95.17-12.07-5.75-.16-.45-.68-.74-1.13-.94-7.58-3.42-8.99-10.02-8.99-17.36,0-21.27,0-42.54,0-63.82,0-6.14.09-12.27-.77-18.37-.13-.93.4-2.15-.91-2.51-1.44-.39-2.02.76-2.55,1.83-4.01,7.46-8.61,14.57-12.64,22.01-.39.73-.86,1.42-1.4,2.05-1.09,1.27-2.23,2.73-4.15,1.9-1.78-.77-2.13-2.53-1.86-4.23,1.3-8.22-.25-16.55,1.06-24.75Z" /><path class="cls-40" d="m338.58,600.29c3.46-4.24,5.05-9.51,7.69-14.2.55-.98.54-2.66,1.96-2.46,1.75.25,1.37,1.98,1.37,3.26.06,23.78.21,47.57.11,71.35-.03,7.02,2.75,12.1,8.69,15.64,1.52.91,3.52,1.74,4.57.49,1.49-1.78-.73-3.05-1.94-3.79-4.53-2.78-5.75-7.03-5.77-11.87-.1-28.44-.16-56.88-.28-85.32,0-1.85,1.12-4.44-1.37-5.28-2.65-.9-3.61,1.57-4.69,3.46-4.82,8.44-10.05,16.67-13.38,25.87-.37,1.03-.85,2.03-1.95,1.86-1.52-.23-1.37-1.69-1.36-2.81.04-8.82.14-17.63.19-26.45.03-4.99.45-10.03-.12-14.96-.55-4.76,1.46-4.97,5.33-4.97,15.64.01,31.12,2.77,46.77,2.55,5.81-.08,11.64.12,17.45.32,7.26.25,13.98-2.49,20.93-3.83,11.35-2.19,22.6-4.91,33.8-7.79,11.38-2.93,17.76-7.29,17.64-20.76-.21-24.11-.17-48.23-.36-72.35-.02-2.36,1.28-5.6-2.63-6.61-3.99-1.03-5.71,1.72-7.36,4.43-.56.93-.58,2.19-.85,3.29-3.77,9.82-10.05,18.27-15.17,27.34-10.19,18.05-20.88,35.82-30.94,53.94-.89,1.6-1.75,3.23-3.59,3.97-.5.06-.96-.08-1.36-.38-1.42-4.2,1.88-6.99,3.58-9.87,8.93-15.17,17.55-30.52,26.46-45.69.43-.73,1.07-1.26,1.74-1.94-1.29.68-1.98,1.78-2.84,2.73-2.64,2.93-6.88,2.95-9.57.12-2.88-3.04-3.82-9.7-1.92-13.59.96-1.96,2.35-3.41,4.69-2.76,3.42.94,5.07-.73,6.79-3.42,1.79-2.8,4.62-4.62,8.2-4.74,1.45,1.43,1.14,2.96.24,4.5q-2.52,4.31-1.66,9.86c4.35-8.34,8.8-15.72,12.79-23.35,2.52-4.82,6.07-8.09,11.74-8.5,1.63.46,2.8,1.5,3.72,2.87.62,1.02,1,2.11,1.05,3.31-.74,22.75-.13,45.51-.32,68.26-.03,3.32-.29,6.67.04,9.96.78,7.8-2.36,13.87-7.74,19.1-.65.65-1.46.94-2.35,1.03-9.07,1.82-18.19,3.58-27.03,6.27-22.01,6.68-44.43,8.11-67.28,7.39-10.78-.34-21.36-2.5-32.15-2.43-3.43.02-4.4,1.03-4.38,4.17.06,9.32.03,18.63.02,27.95,0,2.32.05,4.64-1.08,7.02,3.07-8.11,7.53-15.25,11.64-22.58,2.87-5.12,8.11-8.17,11.64-12.79,1.32-1.72,3.71-2.23,5.92-.96,1.39.8,2.72,1.12,4.22.27,1.84-1.04,3.62-1.05,4.58,1.12.92,2.08-.23,3.62-1.98,4.52-3.51,1.82-3.37,4.35-1.87,7.65,2.52-6.47,2.52-6.3,9.7-6.5,4.23-.12,8.65.23,12.25-3.09,1.67-1.53,4.01-1.39,6.17-.57,2.23,1.43,1.79,3.25.74,5.15-1,1.41-2.38,2.54-4.04,2.69-5.18.47-8.96,3.71-13.35,5.88-6.01,2.97-9.22,7.76-12.36,13-2.07,3.46-5.01,6.21-7.69,9.12-1.86,2.01-2.58,4.02-2.59,6.66-.06,11.61.64,23.2.45,34.8-.12,7.14-.47,14.21.42,21.36,1.11,8.84,7.3,15.14,16.3,15.41,6.97.21,13.95.15,20.92-.02,1.3-.03,2.67-.36,3.81.64.59,3.45-1.97,4-4.26,4.03-8.46.09-16.97.85-25.37-.47-2.78-.44-5.24.59-7.88.6-11.97.04-23.94.14-35.9-.05-4.73-.07-9.3-1.72-12.68-4.89-6.79-6.38-6.23-12.89-2.14-21.98,6.5-14.46,14.49-28.22,22.24-42.08,1.69-3.02,2.84-6.35,4.96-9.14Z" /><path class="cls-11" d="m407.32,676.99c-.92,3.2-3.78,3.16-6.07,3.02-10.4-.65-20.77.52-31.18.38-10.81-.15-21.65-.56-32.48-.26-2.17.06-5.42-1.01-5.84,2.15-.44,3.24-1.77,6.98,1.05,9.92,5.72,5.95,12.72,8.91,21.02,8.89,17.12-.06,34.23-.02,52-.02-4.09,5.62-3.05,10.67.29,15.71,3.09,4.65,7.19,7.36,12.44,9.56,6.78,2.84,13.55,2.29,20.43,2.77,11.72.81,20.53-4.6,27.5-13.04,2.21-2.68,1.22-7.5.24-11.06-.78-2.84-4.22-2.87-6.83-2.89-13.3-.09-26.61-.04-39.91-.05-.81,0-1.62,0-2.42,0-.02-.33-.04-.66-.07-1,1.42,0,2.85,0,4.27,0,16.46,0,32.93.11,49.39-.04,9.48-.08,15.86-7.09,15.48-17.25-.25-6.73-1.06-13.64-.1-20.62.61-4.48.64-9.42.55-14.16-.33-16.94-.43-33.91-.3-50.83.16-22.1-.01-44.21.31-66.31.15-10.04.56-20.12-.13-30.12-.68-9.79-1.35-19.59-.67-29.32.58-8.18.77-16.51.34-24.47-.7-12.98.5-25.87-.14-38.86-1.27-25.56-.39-51.23-.34-76.85,0-1.34-.69-2.98,2.13-4.87-1.72,5.52-.16,10-.17,14.59-.03,8.15.15,16.31-.04,24.46-.68,30.09,1.17,60.14,1.09,90.22-.2,74.62-.11,149.25.04,223.87.01,5.47-1.17,10.39-3.12,15.32-.39.98-1.35,2.11-.21,3.22,1.1,1.07,2.28.15,3.25-.18,2.26-.79,5.08-.93,5.78-4.01l-.08.04c5.04-.55,10.9-7.19,11.23-12.74.07-1.16.01-2.33.01-3.49,0-82.69.02-165.39-.04-248.08,0-7.45-1.8-14.89-.88-22.33,1.18-9.6.48-19.14-.03-28.71-.07-1.32-.76-3.43,1.38-3.67,1.87-.21,2,1.84,2.57,3.16,1.69,3.9,1.14,7.84-.02,11.69-1.2,3.99-.66,7.77.41,11.67,1.21,4.38.98,8.96.25,13.35-.69,4.16-.64,8.14-.05,12.3.77,5.41.79,10.91-.09,16.37-.21,1.3-.66,2.67-.47,3.92,1.73,11.08-.96,22.22.22,33.17.81,7.44-2.14,14.84.8,22.24,1.41,3.55-1.67,7.42-1.03,11.21,1.9,11.39-1.62,22.78.66,34.31,1.29,6.55-.44,13.67-.57,20.54-.05,2.78.81,5.57.82,8.35.08,16.31.04,32.61.04,48.92,0,13.73.02,27.45,0,41.18-.01,6.31-.1,12.62-.22,18.93-.01.56-.37,1.42-.8,1.61-5.32,2.32-7.85,8.15-13.17,10.46-.56.24-1.23.81-1.37,1.35-1.08,4.19-3.81,3.99-6.95,2.72-2.84-1.14-4.84-.66-5.55,2.65-.19.87-.76,1.64-1.64,1.65-1.05.01-1.22-.95-1.21-1.81.02-1.82-.7-2.78-2.66-2.73-2.11.05-3.96,1.13-4.08,2.98-.52,7.99-5.33,13.76-9.77,19.71-1.85,2.49-5.04,3.72-6.64,6.58-.24.42-1.63.59-2.26.33-6.92-2.91-14.23-.48-21.3-1.52-1.53-.22-6.47-2.16-3.86,3.37.09.18-.49.86-.87,1.04-.94.43-1.44-.34-2.07-.89-4.32-3.72-9.46-4.87-15.01-4.51-1.07.07-1.66.87-2.18,1.81-2.2,3.96-3.46,4.06-6.22.18-.8-1.12-2.85-1.39-2.4-3.59,2.39-.46,3.69,3.05,6.13,1.95,1.97-.89,2.92-3.85,5.86-2.93.16.05.8-.69.8-1.06,0-.36-.62-1.09-.81-1.04-4.59,1.16-5.35-2.75-6.92-5.34-1.02-1.68-1.75-1.63-2.93-.34-.57.62-1.4,1.25-2.14.59-.81-.73-.82-2.1-.17-2.76,3.96-4.02.23-8.15-.08-12.07-.2-2.52-4.11-1.8-6.14-1.34-4.79,1.11-9.59.98-14.36.79-11.31-.45-22.67-.08-33.93-1.84-2.71-.42-5.56-.31-8.38.55-2.67.82-4.5.12-4.01-3.5.41-3.07-1.7-5.78-3.15-8.1-1.78-2.84-2.72-5.04-.88-7.95.5-.79.54-1.54-.18-2.22-.53-.51-1.33-.83-1.77-.31-3.99,4.7-5.78-.1-8.14-1.94-.66-.52-2.45-1.06-1.09-2.63,1.07-.41,2.04,0,3,.4,3.6,1.16,7.31.43,10.97.63,1.38,0,2.76,0,4.15,0,3.15,0,6.31,0,9.46,0,1.16,0,2.32,0,3.49,0,3.53,0,7.05,0,10.58,0,1.2,0,2.39,0,3.59,0,7.87-.46,15.73.27,23.6,0,.84,0,1.68,0,2.51,0,3.06-.12,6.14.26,9.19-.24,2.95-1.71,6.03-3.24,8.35-5.86.39-.27.81-.47,1.26-.62.97-.19,1.88-.13,2.67.55.43,2.56-1.48,3.7-3.05,5.05Z" /><path class="cls-54" d="m353.33,283.58c-.83-.06-1.65-.12-2.48-.17-1.29-.07-3.07.24-3.26-1.46-.22-1.97,1.85-1.5,2.96-1.84,9.82-2.99,19.88-4.84,30.11-5.5,8.29-.53,16.61-.73,24.91-.83,3.33-.04,4.41-1.53,4.37-4.56-.39-28.94-.77-57.88-1.12-86.82-.29-23.78-.53-47.56-.84-71.35-.05-4.15-.22-8.31-.49-12.45-.24-3.71.67-6.22,5.01-6.27,10.3-.13,20.61-.34,30.91-.53,3.32-.06,3.58,2.08,3.58,4.68.02,14.97.08,29.94.19,44.91.29,41.75.61,83.5.93,125.25.05,6.34.79,6.78,6.9,6.6,10.96-.32,21.94-.53,32.9-.4,7.9.1,13.8,5.8,14.44,13.76,1.21,14.94.48,29.93.55,44.89.24,50.07.07,100.15.63,150.21.73,65.53,1.18,131.07,1.26,196.6,0,7.07-2.74,12.8-9.68,15.77-.36-.4-.54-.87-.53-1.41,1.36-3.75,5.13-5.93,6.35-9.78,1.06-2.39.72-4.92.72-7.39.02-20.6.73-41.22-.15-61.78-1.38-32.2-.4-64.39-.84-96.59-.02-1.33.01-2.66-.33-3.96-.24-.9-.28-1.81-.17-2.73.85-4.9.92-9.8-.21-14.68-.5-23.12-.26-46.24-.31-69.36-.11-44.92-.03-89.85-.03-134.77,0-1.83.1-3.66-.29-5.46-.44-1.94-.84-3.89-2.2-5.47-1.5-1.58-3.25-2.79-5.31-3.56-7.76-1.93-15.58-1.36-23.4-.54-.59.17-1.18.27-1.78.32-4.16.21-8.31.14-12.46.1-7.47-.06-9.26-1.88-9.35-9.55-.08-6.98-.02-13.95-.02-20.93,0-15.95,0-31.89,0-47.84,0-2.33.03-4.65-.72-6.9-.38-18.78-.38-37.57-.35-56.36.02-11.81-.11-23.62-.07-35.43.01-3.95-1.36-5.74-5.56-5.6-7.45.25-14.92-.25-22.34.96-2.75.45-4.8,1.11-4.58,4.53,1.23,19.61.11,39.25.73,58.87,1.13,36.09.67,72.18.85,108.28.02,3.15.32,6.39-2.19,8.93-2.24,1.45-4.78.97-7.22,1.05-9.05.3-18.13-.56-27.16.51-4.42.71-8.65,2.6-13.26,2.09-2.23.14-4.51-.34-6.27.25.54-.25,1.59-.21,2.63-.24,3.22-.11,6.45.21,9.66-.24,29.3-.41,58.6-.06,87.9-.19,2.47-.01,4.97.25,7.4-.47,5.62-1.13,11.24,0,16.64,1.02,6.06,1.16,9.18,5.97,10.25,11.99.75,3.73-.18,7.63,1.11,11.31.63,4.32.29,8.67.31,13.01-.05,70.4-.01,140.79-.01,211.18,0,1.82-.12,3.67.5,5.44-1.21,8.29,1.42,16.58.06,24.88-.6,1.59-.57,3.26-.57,4.92-.02,23.41-.02,46.83,0,70.24,0,1.66-.07,3.33.54,4.92.55,2.77.5,5.55.1,8.33-1.22,8.47-.83,16.96-.23,25.45.26,1.11.28,2.24.11,3.36-.9,3.62-.82,7.27-.19,10.92.15.8.14,1.59.02,2.39-.84,1.99-.26,5.15-3.92,4.86,2.41-6.43,1.35-13.13,1.35-19.7.07-64,.09-128-.09-192-.14-47.2-.59-94.4-.94-141.6-.11-14.28-.27-28.57-.52-42.85-.07-3.73.24-7.73-3.42-10.34-.3-.1-.59-.2-.89-.3-3.35-2.45-7.07-3.2-11.23-3.19-35.04.1-70.08.11-105.11,0-4.65-.02-9.16,1.82-13.84.8-.3-.08-.61-.16-.91-.24Z" /><path class="cls-22" d="m463.17,456.45c1.3-.6,1.96-1.7,2.44-2.99.47-1.27.21-3.51,2.42-2.92,1.5.4,1.07,2.21,1.06,3.51-.1,22.44-.19,44.87-.3,67.31-.04,7.82-2,10.98-9.28,12.91-10.85,2.88-21.79,5.5-32.79,7.79-4.65.97-8.97,3.69-14.18,2.86.9-4.18,5.61-6.17,5.94-10.53,4.77-10.77,10.94-20.81,16.87-30.92,7.89-13.44,15.58-26.98,23.38-40.47,1.32-2.29,2.49-4.68,4.44-6.54Z" /><path class="cls-20" d="m175.74,80.75c-.94.63-1.94.56-2.97.24-7.74,2.36-15.58,4.4-22.95,7.83-2.03,1.31-4.07,2.63-6.1,3.94-.99,1.05-2.32,1.53-3.6,2.08-2.19.36-4.45.58-5.84,2.69-7.38,6.18-15.45,11.43-22.93,17.5-5.86,4.75-10.61,10.36-15.69,15.75-4.74,3.35-7.06,8.57-10.21,13.16-.99,1.73-2.67,2.29-4.26,1.52-4.65-2.26-9.99-2.46-14.49-5.14-3.77-2.24-4.9-5.18-2.27-8.61,4.27-5.57,9.1-10.61,16.44-12.13,3.43-.32,6.83-3.75,10.31-.14,1.36,1.23.28,4.54,2.34,4.38,2.86-.22,1.8-3.37,2.26-5.31.46-1.92.73-3.88.86-5.88.21-3.21-.64-5.82-3.27-7.83-2.13-1.63-3.88-3.61-4.55-6.32-.98-5.36-4.96-2.82-7.9-2.99-.41.16-.84.29-1.26.41-2.75,1.28-5.81,1.87-8.25,3.82-1.53,1.46-3.39,2.29-5.35,2.97-2.27.33-3.7,2.76-6.21,2.49-1.68-1.65-3.06-1.02-4.52.43-1.11,1.11-1.17,3.17-3.14,3.47-.67-.3-1.27-1.61-1.86-.98-1.03,1.11.27.62.68.61.49,0,.92.1,1.28.44.65.82.69,1.75.48,2.72-.22.71-.65,1.27-1.25,1.7-3.29,1.71-6.38,3.55-5.03,8.14.33.9.42,1.8,0,2.69-.16.17-.31.34-.47.51-1.02.67-2.03,1.33-3.05,2-.54.56-.84,1.61-1.97.98,1.74-7.97,2.14-16.03,2.02-24.16-.1-6.91,4.84-11.64,11.64-11.82,7.91-.21,15.82.92,23.73-.85,4.9-1.09,9.86.62,14.8,1,3.14.24,2.95,3.26,3.55,5.32.79,2.72,1.22,4.88,4.28,1.63,1.55-1.64,3.45-1.83,4.89.5,1.24,2.01,2.62,1.81,2.82-.44.44-4.92,2.59-4.65,5.84-2.42,1.06.73,2.67-.2,4.04,1.38-5.05,1.75-6.39,6.96-10.12,9.9.76,1.51,2.02,1.12,2.63.68,5.04-3.67,9.09-8.56,14.56-11.71.4-.23.92-.72.92-1.1.11-10.23,9.34-7.48,14.67-10.05,1.99-.96,4.34-1.57,6.22-2.8,3.16-2.07,2.8-4.5-.63-6.09-4.33-2.01-5.19-4.34-2.96-8.63,1.89-3.63,4.25-1.82,7.06-.92,6.48,2.07,12.63,5.82,19.91,4.71,1.61-.25,3.25-.12,4.55,1.36,2.67,3.02,6.18,1.31,9.34,1.32.99,0,1.74-.98,1.71-2.12-.04-1.33-1.06-1.54-2.1-1.56-1.83-.04-3.66.09-5.48-.07-1.32-.12-3.56.85-3.64-1.32-.08-2.25,1.92-2.73,3.97-2.66,2.49.09,4.98.02,7.48.02,5.65,0,11.3-.06,16.95.05,1.24.02,3.45-.89,3.39,1.44-.04,1.52-1.68,2.4-3.32,2.45-2.49.08-4.99-.1-7.47.1-1.7.13-4.33-1.08-4.9.97-.64,2.34,2.53,2.47,4.16,4.04-2.37,1.58-5.02,1.59-7.44,2.24-1.44.88-2.97,1.05-4.59.62-2.44,1.2-5.38.34-7.75,1.84Z" /><path class="cls-45" d="m266.59,624.21c3.29-.91,6.58-.93,9.87.04,2.47.58,4.49,2.06,6.63,3.28,1.39.79,2.45,1.82,2.01,3.59-.46,1.87-2.02,2.02-3.56,2-6.03-.05-11.08,2.75-16.17,5.46-1.29.69-2.86,1.1-2.71,3.09.16,2.16,2.01,1.84,3.3,2.34,4.46,1.73,9.15,2.8,13.53,4.83,10.85,5.02,12.94,14.67,7.99,26.27-5.89,13.81-17.83,21.74-32.12,25.92-1.31.38-2.37,1.16-3.63,1.57-4.51,1.48-7.06.44-8.91-4.01-1.03-2.48-2.77-4.15-4.97-5.37-2.73-1.52-3.55-3.64-3.06-6.65.64-3.91,1.25-7.83,1.88-11.75.26-1.63.95-2.98,2.7-3.09,2.01-.13,2.26,1.64,2.61,3.06,1.46,5.93,2.07,6.26,7.55,3.87,6.68-2.92,13.34-5.93,18.13-11.71,3.03-3.65,2.41-6.09-1.89-8.22-5.2-2.57-10.79-4.07-16.32-5.71-5.46-1.62-10.27-7.12-10.71-12.49-.16-1.91,1.06-3.08,2.17-4.3,3.33-3.66,7.66-5.89,12.12-7.65,4.41-1.73,8.72-3.92,13.56-4.39Z" /><path class="cls-48" d="m410,416.3c2.91-8.11,7.98-15.07,12.11-22.52,9.74-17.55,19.86-34.9,29.88-52.3,4.85-8.42,9.79-16.8,14.77-25.15,1.06-1.78,2.66-3.19,4.95-2.45,2.01.65,1.73,2.46,1.74,4.18.12,26.42.26,52.85.47,79.27.12,15.23-8.34,19.72-19.95,22.27-11.47,2.52-23.15,4.13-34.5,7.04-13.67,3.51-27.41,4.93-41.35,3.28-14.4-1.7-28.86-1.42-43.28-2.08-3.04-.14-4.24,1.07-4,4.12.82,10.25,1.31,20.52.42,30.8-.08.88-.71,2.19.66,2.55,1.54.41,2.65-.76,3.12-1.93,3.02-7.52,7.42-14.26,11.49-21.19,1.1-1.87,1.6-4.46,4.36-3.86,2.93.64,2.63,3.39,2.8,5.71,1.51,21.26.6,42.55.92,63.82.09,6.15.02,12.3.03,18.46,0,5.76,2.12,10.27,7.47,13.02,1.52.78,3.87,1.87,2.48,4.01-1.24,1.92-3.29.76-4.83-.33-1-.71-2.03-1.09-3.25-.89-.28-.02-.57-.04-.85-.06-6.07-3.77-7.59-9.75-7.62-16.27-.09-22.06-.02-44.11-.06-66.17,0-1.62.37-3.29-.35-4.86-.05-.1-.28-.18-.41-.16-.15.02-.29.15-.44.26-.26.39-.51.74-.77,1.1-8.62,15.19-16.52,30.77-25.64,45.67-1.57,1.68-2.04,4.44-4.81,4.95-.11-1.2-.6-2.21-1.45-3.08-.55-.56-1.47-1.18-.9-2.07.71-1.11,1.52-.69,2.44.04,1.32,1.05,1.42-.29,1.94-1.11,6.74-10.72,12.69-21.88,18.64-33.04-1.72-1.17-2.31.43-3.31.72-2.96.86-5.05-.36-4.39-3.31,2.46-10.93-1.11-21.74-.27-32.64.33-4.28,1.42-5.9,5.79-5.72,6.96.29,13.93.1,20.9.08,1.37,0,3.35.56,2.45-2.13,4-2.84,8.4-1.05,12.47-.64,8.98.92,17.91,1.96,26.9.37-.22,3.12-.21,3.18-3.43,3.36-5.75.32-11.45-.41-16.3-.64,22.15,3.08,43.9-4.11,66.02-8.23,1.56-1.08,3.34-1.65,5.18-1.42,5.43.69,10.12-1.53,14.65-3.89,5.24-2.72,8.03-7.37,8.2-13.29.19-6.63.05-13.27.04-19.9,0,6.3.09,12.61-.03,18.91-.14,7.13-3.47,12.11-10.09,15.13-4.01,1.83-7.95,3.2-12.4,2.85-2.05-.16-3.94.39-5.61,1.64-5.85,1.7-11.93,2.28-17.86,3.61-4.78,1.07-9.51,2.72-14.51,3-2.73.15-4.15-.6-4.22-3.4-.19-1.78,1.07-2.97,1.81-4.37.62-.41,1.24-.82,1.86-1.23,2.2,1.48,2.52-.77,3.16-1.78,5.36-8.58,10.64-17.22,15.35-26.17,6.79-12.92,14.58-25.27,21.63-38.05,3.76-6.82,7.46-13.69,11.88-20.13.76-1.11,1.13-3.52,3.52-1.97.89,2.17-.33,3.93-1.3,5.6-15.81,27.11-30.56,54.83-47.17,81.48-.97,1.56-2.34,2.8-3.7,5.21,4.35-1.71,8.34-1.95,12.17-2.84,9.06-2.11,18.16-3.94,27.33-5.47,10.69-1.78,14.84-6.9,14.85-17.67.01-20.27.03-40.54-.03-60.82,0-2.16.91-4.88-2.36-5.79-1.98-1.79-.68-3.28.51-4.69,1.05-1.26,2.45-2.24,3.4-5.06-5.2,6.47-8.2,12.95-11.73,19.02-8.82,15.15-17.49,30.39-26.12,45.65-5.78,10.22-11.25,20.62-17.65,30.48-.89,1.37-.92,4.09-3.81,3.09Z" /><path class="cls-66" d="m143.66,610.38c-.89,11.25-1.79,22.49-2.65,33.74-.19,2.45-.58,4.81,2.12,6.59,2.07,1.37.97,3.9,1.06,6.01.39,9.12-5.59,14.57-11.39,20.05-2.26,2.13-5.11,3.63-7.65,5.47-1.14.83-2.26,1.42-3.65.72-1.52-.77-1.18-1.94-1.01-3.37.68-5.52-.14-6.39-5.64-6.78-10.15-.72-11.32-2.65-10.13-12.87,1.05-9.02,5.08-15.73,12.31-21.03,4.77-3.5,9.73-6.93,13.35-11.75,1.83-2.44,2.47-5.41,2.52-8.43.1-5.34,2.6-9.49,6.22-13.13,1.04-1.04,1.94-2.63,3.64-2.08,1.92.62,1.13,2.5,1.22,3.89.06.99-.09,1.99-.14,2.98-.06,0-.12,0-.17-.01Z" /><path class="cls-18" d="m369.8,286.78c30.26-.15,60.52-.3,90.78-.47,4.32-.02,8.64-.3,12.96-.22,7.43.13,10.94,3.54,11.04,11.11.2,14.47.15,28.94.2,43.41.39,103.48.81,206.95.36,310.43-.05,10.65-.41,21.32.23,31.93.75,12.45-7.5,16.49-17.44,16.59-14.62.15-29.25-.51-43.88-.65-24.44-.23-48.87.05-73.3-.81-6.63-.23-12.53-1.64-16.3-7.71-1.23-1.99-2.56-4.12-1.51-6.51,1.06-2.4,3.47-1.5,5.34-1.5,23.76.05,47.51.21,71.27.22,9.22,0,17.97-2.85,26.67-5.39,9.95-2.91,19.57-6.92,29.48-10,6.1-1.9,7.76-6.65,7.95-11.76.5-13.46.4-26.94.47-40.42.07-15.47.07-30.94.07-46.41,0-1.73.67-3.88-1.94-4.45-2.31-.5-2.91,1.13-3.91,2.85-4.95,8.49-10.15,16.84-15.26,25.24-.73.22-1.16-.05-1.31-.79.28-6.17,4.5-10.55,7.31-15.5,2.12-3.73,4.93-7.08,6.9-10.94,1.33-2.59,3.36-4.18,6.41-3.73,3.29.49,4.09,3.14,4.44,5.85.69,5.28.04,10.61-.05,15.89-.39,22.62.05,45.24-.17,67.86-.02,2.33.17,4.67-.12,6.98-.82,6.58-4.21,11.6-10.72,12.92-7.88,1.6-15.07,4.95-22.54,7.56-14.23,4.98-28.59,7.88-43.85,7.31-18.92-.7-37.9-.17-56.85-.09-1.75,0-4.29-.62-4.91,1.32-.69,2.18,1.36,3.7,3.01,5.19,2.29,2.07,4.78,2.55,7.74,2.55,26.27-.02,52.55-.67,78.79.26,12.76.45,25.56.74,38.31.96,12.35.21,16.86-1.29,16.83-15.72-.09-35.7.73-71.39.33-107.09-.19-16.8.05-33.6-.02-50.4-.1-25.43-1.66-50.85-.96-76.28.78-28.38.27-56.76-.34-85.1-.43-19.95-.4-39.9-.68-59.85-.02-1.17-.06-2.33-.17-3.49-.78-8.01-2.19-9.45-10.19-9.27-30.89.69-61.78.37-92.67.45-2.31,0-4.67.27-6.86-.84-.56-.36-.88-.87-.95-1.53Z" /><path class="cls-28" d="m201.72,636.17c-1.67.54-2.01,3.81-4.21,2.67-2.32-1.21-.68-3.59-.48-5.41.25-2.26.47-4.53,1.85-6.6,3.2-4.79,6.39-5.62,10.95-2.37,2.82,2.01,5.55,4.18,8.22,6.39,2.51,2.08,4.02,4.59,3.9,8.14-.14,3.96.35,7.94.52,11.91.15,3.67-1.01,7.87,4.31,9.21.67.17,1.13,1.55,1.49,2.44.24.58.18,1.31.15,1.96-.53,10.87-.57,10.71-11.54,13.23-5.26,1.21-6.64,6.43-9.21,10.35-2.61,3.14-6.68,4.02-9.84,6.35-1.59,1.18-3.93,1.08-5.71.02-2.08-1.24-.95-3.19-.57-4.93.28-1.31.75-2.54,1.22-3.78,1.17-3.07,1.32-5.75-.94-8.78-3.52-4.73-1.85-10.08-.12-15.06.57-1.64,2.42-3.32,4.12-3.32,6.06.02,7.14-4.49,8.42-8.74.95-3.17,2.08-6.28,3.14-9.4.81-2.37,1.45-4.81-.65-6.35-2.12-1.56-3.36,1.28-5.04,2.07Z" /><path class="cls-60" d="m435.17,704.41c8.3,0,16.61-.13,24.91.05,5.64.12,7.31,2.84,5.21,8.13-2.33,5.86-6.59,10.04-12.44,12.12-11.54,4.1-23.38,3.54-34.72-.29-6.49-2.19-11.75-6.99-12.63-14.65-.57-4.95.83-6.26,5.77-6.23,7.97.04,15.94.01,23.91.01,0,.29,0,.57,0,.86Z" /><path class="cls-65" d="m182.42,638.55c-.39,8.42-2.27,16.69-1.73,25.25.31,4.88-10.95,12.05-16.29,11.19-3.64-.59-6.98-2.17-9.95-4.15-7.23-4.83-8.41-8.75-4.06-18.29,3.59-7.88,7.49-15.82,14.11-21.85,1.09-.99,2.25-2.03,3.56-2.63,9.57-4.3,14.25-.86,14.36,10.48Z" /><path class="cls-62" d="m329.79,314.85c1.32,7.73.47,15.5.33,23.25-.02.99-.29,1.97-.34,2.96-.06,1.03.15,2.14,1.22,2.47,1.22.38,1.65-.75,2.15-1.6,4.74-8.1,9.48-16.21,14.22-24.31,1.16-1.29,1.92-3.59,4.13-2.82,2.48.87.83,3.14,1,4.79,1.96,19.15.47,38.38,1.19,57.57.33,8.72.28,17.51.2,26.27-.05,5.57,1.49,10.46,6.78,13.33,1.12.61,2.94.66,2.53,2.41-.35,1.47-2.01,1.46-3.32,1.58-.83.07-1.65-.02-2.47-.18-.57-.13-1.1-.35-1.61-.63-4.47-3.9-6.91-8.63-6.83-14.77.17-13.06-.7-26.13-.69-39.16,0-11.69-1.58-23.39.71-35.74-3.29,1.3-3.93,3.39-4.35,5.63-5.52,11.44-11.82,22.46-18.29,33.38-3.7,4.05-5.26,9.41-8.48,13.74-.95,1.27-.9,3.71-3.44,3.43-3.65-4.99-1.85-10.38-1-15.62.3-1.86,2.13-2.74,3.89-2.07,3.45,1.32,3.69-.75,4.37-3.26.99-3.67,1.85-7.05,5.47-9.94,3.27-2.6,1.36-8.16,1.02-12.32-.34-4.2-1.71-8.27.14-12.46.37-.83.47-2.28-.01-2.91-3.74-4.88-.48-8.85,1.47-13.01Z" /><path class="cls-68" d="m407.33,543.31c1.15-.42,2.31-.83,3.49-1.26.26,1.18-.54,1.63-1.04,2.23-.74.88-1.81,1.72-.78,2.98.97,1.2,2.32,1.17,3.65.72,6.53-2.2,13.4-3.28,19.92-5.16,5.94-1.71,12.3-2.02,17.99-4.93,3.42-1.75,7.64-.52,11.53-2.31,5.9-2.71,8-7.06,8.03-12.88.08-21.8.02-43.59.05-65.39,0-2.25-.49-4.7,1.99-6.46,1.61,1.49.94,3.41.95,5.06.05,20.8-.12,41.6.08,62.39.15,15.24-7.91,19.11-19.39,22.04-7,1.79-14.05,3.65-21.08,4.89-10.48,1.85-20.46,6.13-31.33,6.12-11.62-.01-23.21-.23-34.79-1.05-1.58-.11-3.06-.09-3.28-2.15-.31-.22-.4-.41-.27-.58.12-.16.24-.24.36-.24h0c2.97-1.31,5.93-1.1,9.15-.78,8.4.83,16.86.36,25.3.24,1.71-.02,3.1-1.02,4.53-1.87,1.51-.91,2.93-2.28,4.97-1.61Z" /><path class="cls-58" d="m266.59,624.21c-6.45,2.91-13.45,4.53-19.53,8.3-3.34,2.07-7.43,3.83-7.09,8.65.38,5.3,4.68,9.53,9.94,11.16,5.53,1.72,11.06,3.55,16.39,5.81,4.98,2.12,5.69,5.32,2.22,9.35-5.81,6.74-13.75,10.27-21.84,13.23-3.43,1.25-5.09-1.24-5.38-4.65-.12-1.39.06-3.45-2.05-3.32-1.57.1-1.49,1.91-1.73,3.2-.45,2.45-.92,4.89-1.48,7.32-1.01,4.38-.89,8.19,3.97,10.42,1.78.82,3.5,2.2,3.69,4.41.44,5.07,4.01,4.93,7.23,3.91,12.58-4.01,23.97-9.83,32.3-20.78,5.43-7.14,6.62-14.98,4.61-23.04-1.58-6.33-7.9-8.48-13.5-10.58-3.4-1.28-6.93-2.19-10.43-3.2-1.4-.4-2.44-1-2.53-2.62-.09-1.46.29-2.56,1.8-3.16,6.23-2.44,11.81-6.78,19-6.42,1.01.05,2.07-.07,2.32-1.33.23-1.14-.45-1.84-1.36-2.41-2.24-1.38-4.46-2.8-6.68-4.2,4.21-1.03,6.59,2.32,9.53,4.17.98.62,1.61,2.2.93,3.6-.93,1.92-2.66,2.36-4.62,2.17-5.9-.59-10.78,2.39-15.78,4.74-1.06.5-3.21,1-2.67,3.04.43,1.65,2.22,1.15,3.4,1.53,4.99,1.62,9.95,3.23,14.62,5.74,5.72,3.06,8.33,7.83,8.62,14.06.47,10.18-4.47,17.75-11.18,24.93-7.83,8.38-17.98,11.95-28.26,15.4-3.48,1.17-7.17,1.28-8.73-3.78-.79-2.58-2.85-4.75-5.41-6.29-2.82-1.71-3.83-4.14-2.88-7.65.94-3.49,1.18-7.18,1.49-10.81.21-2.41,1-4.56,3.45-4.75,2.64-.2,3.57,1.98,3.62,4.38.11,4.89,2.56,5.03,6.26,3.33,6.6-3.03,13.09-6.18,18.06-11.71,2.82-3.13,1.85-5.25-1.69-6.89-5.67-2.64-11.73-4.15-17.62-6.14-4.48-1.52-9.89-8.69-9.9-13.18,0-1.68.94-3,1.97-3.9,7.71-6.77,16.3-11.7,26.92-12.04Z" /><path class="cls-68" d="m463.17,456.45c-1.72,6.61-6.11,11.86-9.27,17.7-7.72,14.28-16.01,28.26-24.4,42.17-3.64,6.03-6.14,12.78-11.02,18.06-2.08.5-2.35,2.49-3.26,3.96-.51.83-1.02,1.9-2.16,1.45-1.08-.42-.71-1.65-.82-2.57-.63-1.31.22-2.1,1.04-2.89,9.32-16.31,18.61-32.63,27.95-48.92,6.6-11.5,13.26-22.97,19.95-34.43.39-.66,1.22-1.06,1.85-1.58.86-.45,1.71-.9,2.88-1.5-.97,3.04-1.86,5.8-2.74,8.55Z" /><path class="cls-59" d="m314.44,386.43c4.06-5.71,6.23-12.59,11.02-17.86,1.58,2.7-.17,4.82-1.4,6.86-4.29,7.12-7.83,14.64-11.94,21.86-1.4,2.45-2.68,4.98-3.47,7.71-2.32,7.93,1.67,14.69,9.81,14.85,11.45.23,22.85,1.34,34.29,1.29,1.51,0,3.06.13,3.7-1.72h6.22c-.93-2.58-3.66-2.02-5.06-3.55-3.53-3.84-4.4-8.38-4.45-13.3-.27-25.02-.61-50.04-.78-75.06-.02-3.46-.67-6.85-.42-10.36.23-3.25-1.63-1.69-2.93-.55-.48.42-1.09.69-1.64,1.02.46-2.66,2.01-4.38,4.71-3.79,2.76.6,1.52,3.03,1.67,4.94,1.23,15.41.45,30.85.78,46.27.26,12.45.16,24.9.13,37.35-.02,6.75,1.3,12.56,8.88,14.67.58.16,1.51.77,1.48,1.11-.47,5.83,4.24,4.68,7.15,4.85,8.83.53,17.72,2.5,26.53-.64,3.45-1.23,6.3-3.38,9.51-4.94-.41,1.28-.82,2.56-1.23,3.84-2.79,2.44-5.89,3.92-9.72,3.13-6.28,2.22-12.76,1.13-19.15.97-6.91-.17-13.82-.68-20.72-1.04-7.83-1.78-15.79-.39-23.66-1.03-7.02-.57-14.19,1.45-21.08-1.49-6.68-2.85-10.16-11.24-7.04-17.72,2.85-5.93,5.87-11.78,8.81-17.67Z" /><path class="cls-17" d="m80.55,120.8c-5.96,2.31-10.97,5.9-14.83,11.03-2.74,3.65-2.24,5.7,2.09,7.49,5.66,2.34,11.23,5.17,17.65,4.61.38.4.77.79,1.15,1.18-.68,2.84-3.15,2.22-4.67,1.77-5.4-1.58-11.05-2.47-16.06-5.21-4.54-2.49-5.6-7.24-2.43-11.34,6.13-7.92,14.61-12.39,23.83-15.64,4.12-1.45,5.62,1.42,6.6,4.66,3.67-9.46-3.17-14.66-7.79-20.72-.91-1.2-2.37-1.25-3.67-.73-12.02,4.79-23.65,10.25-30.54,22.02-3.5,5.98-5.73,12.36-2.98,19.49,1.15,2.97,2.77,5.34,5.64,6.63,5.45,2.44,10.99,4.7,16.96,5.55,2.66.38,4.97.99,5.38,4.13.39,3.01-1.56,4.21-3.86,5.65-5.39,3.37-11.09,5.96-18.15,8.04,3.68,2,6.57,3.02,9.98,2.61,2.05-.25,4.31-1.16,5.92,1.13.26,1.25-.66,2.1-1.07,3.11-.96-.96-1.94-1.84-3.47-1.34-6.06,1.97-10.35-1.98-15.03-4.56-.87-.48-1.59-1.31-1.29-2.45.36-1.38,1.43-1.6,2.72-1.56,7.9.21,13.61-5.09,20.23-8.11,1-.46,1.32-1.57.94-2.58-.56-1.48-1.98-1.59-3.32-1.68-6.02-.39-11.5-2.47-16.76-5.26-7.91-4.19-11.2-12.84-8.17-21.38.27-.76.32-1.6.47-2.4,0,0,0,.02,0,.02,1.88-8.7,7.34-14.75,14.51-19.51,1.75-1.17,3.19-2.82,5.27-3.49,1.83-.82,3.86-1.3,5.16-3.03,2.81-1.82,6.32-1.99,9.11-3.86l-.11.05c7.02-1.53,8-1.22,9.86,3.12.22,2.29,1.61,4.04,3.39,5.03,5.07,2.82,4.79,7.35,4.26,12.01-.2,1.78-1.01,3.49-.58,5.33.66,2.81-.69,4.81-3.2,5.07-2.98.32-2.25-2.51-2.53-4.32-.07-.48-.21-.96-.32-1.44-1.73-3.08-4.25-1.74-6.34-.82-1.31.58-2.54,1.35-3.96,1.72Z" /><path class="cls-4" d="m452.2,591.97c.31.05.61.15.89.3-1.49,5.33-5.23,9.42-7.76,14.18-.62,1.17-1.62,2.12-1.28,3.6,0,.24,0,.49-.01.73-7.85,15.33-16.95,29.96-25.44,44.93-1.64,2.89-2.96,5.95-4.81,8.71-1.13,1.69-1.82,4.1-4.63,3.84-3.31-2.03-7.1-2.28-10.79-2.94-1.91-.34-4.17-.26-4-3.21,2.54-1.91,5.48-1.58,8.08-.71,3.59,1.19,5.77-.07,7.43-2.98,5.5-9.62,11.02-19.24,16.68-28.77,6.17-10.39,11.75-21.12,17.88-31.54,3.04-5.16,3.11-6.4-.46-11.14-1.03-1.36-1.93-2.68-1.86-4.47.04-.75.24-1.44.68-2.06,3.74-.38,3.5,3.85,5.86,5.06,1.79,1.82,3.06,3.94,3.55,6.48Z" /><path class="cls-6" d="m407.32,676.99c.06-2.28,2.11-3.22,3.24-4.78,4.35-7.95,9.11-15.66,13.81-23.4,2.49-4.11,4.63-8.39,6.78-12.67,2.38-3.74,3.85-8.04,6.98-11.32.57-.63.96-1.38,1.29-2.15.98-1.91,2.24-3.66,3.07-5.66.39-.82.78-1.63,1.19-2.43,4.33-6.65,7.81-13.79,11.9-20.57,1-1.67,1.85-3.56,3.7-4.58.36-.69.71-1.38,1.07-2.07,1.43-4.34,2.64-8.82,7.5-10.77,2.52.7,2.63,2.81,2.63,4.8,0,24.11.33,48.22-.15,72.32-1.5,4.75-4.04,8.72-8.63,11.04-1.75.88-3.56,1.97-5.58.57-3.01.92-6.03,1.85-9.04,2.77-2.71,4.27-7.57,4.51-11.66,5.56-6.15,1.58-11.98,4.4-18.44,4.83-.97.06-1.9.45-2.82-.12-2.37-.03-4.82.39-6.85-1.35Z" /><path class="cls-53" d="m456.13,665.3c6.47-.63,9.72-5.3,12.76-10.21,1.28-.8.75-2.09.75-3.16.03-23.7.03-47.4,0-71.09,0-2.22.63-5.28-3.48-3.52-1.42,3.64-3.43,6.94-5.81,10.03-2.1-1.52-.61-2.76.24-4.18,3.29-5.51,6.51-11.06,9.7-16.62.38-.66.81-1.11,1.49-1.03.98.13,1.51.99,1.27,1.81-2.57,8.81,2.08,17.8-.66,26.59-1.1,3.53.68,6.86.77,10.33.47,16.94-1.35,33.83-1.29,50.77.01,4.07-1.09,9.67-7.59,10.32-2.18.22-3.36,3.13-6.13,2.82-2.05-.23-3.41-.43-2.02-2.86Z" /><path class="cls-16" d="m335.35,290.74c4.73-7.37,7.57-15.49,10.57-23.7,4.5-12.31,5.78-25.03,7.09-37.78.62-6.03-.48-12.24-.73-18.36-.46-11.51-2.92-22.75-6.51-33.54-4.17-12.52-9.85-24.47-17.54-35.44-2.99-4.26-7.45-7.61-8.79-12.99,7.41,6.11,12.09,14.34,16.63,22.49,11.7,20.99,17.75,43.57,18.68,67.66.49,12.72-1.87,25.01-3.44,37.46-.58,8.35-3.21,16.13-6.62,23.68-.74,1.63-1.47,3.37-2.99,4.52-.59,2.56,1.62,1.58,2.65,2.1.29.4.3.81.04,1.24-1.87,1.7-3.06,4.02-5.06,5.63-1.25.74-2.66,1.93-3.95.68-.92-.88-.66-2.42-.03-3.65Z" /><path class="cls-11" d="m485.32,286.51c2.31,4.79,1.85,9.86,1.41,14.95-1.16-3.76.15-7.96-2.41-11.53-2.16-3.01-4.48-5.26-8.42-5.26-18.77.02-37.54-.11-56.31.05-22.96.2-45.92.63-68.88.95-.73.01-1.46-.1-2.54-.17,1.69-1.58,4.08.12,5.17-1.91,0,0-.04.04-.04.04,8.88-1.16,17.84-1.26,26.75-1.32,31.39-.24,62.78-.04,94.17-.15,4.46-.02,8.1,1.24,11.12,4.44v-.07Z" /><path class="cls-14" d="m111.75,335.7c6.18,1.55,10.13,6.61,15.29,9.79,12.99,8.02,26.54,14.53,41.26,18.72,18.89,5.38,38.16,6.68,57.42,4.09,19.81-2.66,38.86-8.48,55.93-19.48,1.82-1.17,3.56-2.49,5.91-2.2-6.68,5.52-14.54,8.91-22.3,12.53-24.36,11.35-50.31,13.86-76.36,10.93-28.96-3.26-55.14-14.6-77.15-34.39Z" /><path class="cls-61" d="m389.23,679.06h-1.84c-8.37-.8-16.74-.79-25.11,0-.96,0-1.91.01-2.87.02-3.7-.79-7.4-.77-11.1-.02-.95,0-1.89,0-2.84,0-3.39-.8-6.78-.77-10.16-.02h-3.78c-3.95-1.3-8.14.4-12.09-.97-.63-.34-1.26-.68-1.89-1.02-7.55-3.07-10.96-10.51-9.16-18.67,2.75-12.47,10.5-22.49,15.97-33.62,3.33-6.78,6.86-13.46,10.47-20.1.9-1.66,1.62-3.69,3.75-4.39-3.25,8.69-8.39,16.42-12.57,24.63-4.78,9.4-10.43,18.38-14.43,28.15-1.88,4.6-2.5,9.63-1.13,14.65,1.43,5.27,6.78,9.08,14.49,8.99,13.91-.15,27.78.85,41.75-.18,9.14-.67,18.55.19,27.83.35,2.25.04,4.32-.04,5.82-2,1.99-1.57,3.74-3.7,6.75-2.96-1.4,3.64-4.67,4.94-7.88,6.33-3.27.98-6.73-.39-9.98.82Z" /><path class="cls-15" d="m37.87,52.7c-1.42-11.35,8.29-20.47,20.95-20.64,11.29-.15,20.24,9.32,20.19,21.25-.05,11.19-9.71,21.26-20.65,20.46-9.53-.7-21.79-7.84-20.49-21.07Z" /><path class="cls-55" d="m201.72,636.17c1.03-2.77,3.35-4.16,5.8-3.06,2.21,1,1.52,3.86,1.06,5.88-1.32,5.82-3.4,11.41-5.81,16.86-.77,1.74-1.92,2.89-3.96,3.34-6.52,1.43-10.98,11.32-6.64,16.53,4.05,4.87,2.02,8.76.57,13.22-.54,1.65-2.06,3.55-.07,4.93,1.54,1.07,3.51.54,5.19-.39,3.27-1.8,6.54-3.59,9.81-5.39-2.48,5.53-7.78,6.86-12.84,7.87-3.5.7-5.86-1.2-4.47-5.37.52-1.56.15-3.29,1.16-4.78,1.89-2.8,1.49-5.27-.53-8.14-5.62-7.99-1.86-18.04,7.49-20.65,1.98-.55,3.01-1.77,3.61-3.66,1.3-4.09,2.62-8.19,4.14-12.19.78-2.06,2.06-4.12.27-6.01-1.85-1.95-2.97,1.63-4.79,1.02Z" /><path class="cls-11" d="m341.71,284.75c-.68-3.36,2.44-5.21,3.21-8.09,1.82-6.79,4.23-13.42,6.4-20.12.02.5-.15,1.13.09,1.47,4.28,5.93,1.36,11.28-1.71,16.72,8.26-.4,15.79-4.07,23.78-2.31-6.64,2.18-13.02,5.11-20.25,4.33-4.29-.46-7.38,1.28-7.65,6.27-.15,2.77-2.19,2.01-3.87,1.71Z" /><path class="cls-2" d="m335.35,290.74c-.42,3.93,1.39,3.59,3.84,2,.71.41.82,1.06.74,1.79-.29,1.16-.98,2.07-1.82,2.88-2.15,1.94-3.57,4.46-5.24,6.78-.19.12-.38.23-.58.34-2.25,1.23.04,4.02-1.84,5.37-2.08-3.86-3.21-1.47-4.63.59-10.01,14.51-22.94,26.01-37.35,35.94-.24.17-.64.09-.97.13,1.73-5.24,7.23-6.38,10.76-9.68,6.48-6.05,13.46-11.55,19.27-18.34,3.33-3.89,5.54-8.88,9.14-12.12,4.96-4.46,5.43-10.7,8.67-15.7Z" /><path class="cls-23" d="m363.39,547.33c.05.28.02.56-.08.82-9.41-.77-18.82-1.82-28.25-2.2-5.93-.24-11.88.78-17.82-.5-5.79-1.24-9.4-5.9-10.04-11.8-.95-8.75,3.6-15.62,6.98-22.92.63-1.36,1.58-2.54,1.39-4.15,1.31-1.73,2.61-3.45,3.91-5.18.83.81.87,1.8.67,2.86-2.51,5.85-5.54,11.46-7.88,17.39-2.09,4.76-3.5,9.61-1.92,14.84,1.32,3.13,3.88,4.87,6.87,6.14,4.43.61,8.87.35,13.29.23,8.06-.23,16.04.49,24.04,1.32,1.69.43,3.42.77,4.62,2.21,1.41.31,2.82.63,4.22.94Z" /><path class="cls-57" d="m538.24,735.72c9.19,3.14,13.72,16.45,8.99,26.4-3.58,7.52-11.89,11.61-22.1,10.88-5.74-.41-12.42-6.34-14.37-12.75.16-.17.32-.35.49-.52,2.6.07,3.48,2.29,4.8,3.9,4.45,5.43,11.45,7.98,17.2,6.21,6.18-1.91,12.98-9.43,13.1-15.55.1-5.06-2.06-9.66-5.56-13.46-1.11-1.21-2.56-2.15-3.04-3.85-.07-.51.1-.93.5-1.25Z" /><path class="cls-53" d="m414.16,678.34c8.12-2.37,16.18-4.99,24.39-6.99,3.06-.75,5.55-2.58,8.54-3.27,2.08,0,4.15,0,6.23,0,.06.42.12.84.19,1.26-14.25,4.82-28.21,10.67-43.88,11.15.88-2.34,3.52-.59,4.54-2.14Z" /><path class="cls-57" d="m510.75,760.24c-3.5-6.44-1.14-15.96,3.58-20.67,7.39-7.39,14.59-8.49,23.91-3.84-.15.2-.31.4-.46.6-2.15,1.53-4.45.69-6.71.4-10.02-1.28-18.52,6.17-18.7,16.3-.04,2.27.49,4.66-1.02,6.73-.2.16-.4.32-.59.49Z" /><path class="cls-23" d="m413.27,534.32c.62,1.31-.72,1.92-1.04,2.9-1.63,2.03-3.27,4.06-4.9,6.09-4.78,4.18-10.4,5.11-16.58,4.91-9.12-.29-18.26-.07-27.36-.9.66-.34,1.31-.69,1.97-1.03,5.72-2.61,11.76-1.59,17.6-1.04,10.54.99,20.25.46,26.85-9.44.55-.83,1.42-1.38,2.45-1.58.34.03.69.05,1.03.08Z" /><path class="cls-53" d="m459.28,589.41c-4.94,8.65-9.88,17.3-14.82,25.95q-2.48-1.31-.4-5.31s-.02-.01-.02-.01c4.89-3.6,5.58-9.88,9.15-14.31,1.84-2.28,2.12-6.09,6.09-6.32Z" /><path class="cls-2" d="m344.43,287.2s-.08-.35-.08-.35c8.49-.36,16.97-.81,25.45-.07.3.17.4.43.28.77-.73,2.48-2.86,2.34-4.76,2.45-3.74.22-7.45-.3-11.18-.48-3.1-1.37-7.12,1.11-9.72-2.32Z" /><path class="cls-29" d="m494.86,692.98c.08.38.16.75.24,1.13-.16.24-.26.51-.28.79,0,0,.08-.04.08-.04-1.25-.22-2.23.33-3.11,1.13-1.02.92-2.18,1.84-3.38.5-1.07-1.19-.46-2.44.52-3.49,2.87-.58,1.67-3.59,3.03-5.06,1.57,1.33,1.62,3.53,2.89,5.03Z" /><path class="cls-3" d="m41.01,127.91c.66-.33,1.31-.65,1.97-.98,0,3.75,0,7.49,0,12.61-3.49-4.45-.66-8.32-1.97-11.63Z" /><path class="cls-68" d="m469.43,443.48c1.51-.08,2.52.33,2.71,2.09.19,1.71-.49,2.26-2.1,2.49-2.18.31-1.82-1.46-2.28-2.51-.7-1.62.32-2.03,1.67-2.07Z" /><path class="cls-3" d="m549.97,746.99q2.82,2.66,1.41,11.44c-.93-4.11.5-7.95-1.41-11.44Z" /><path class="cls-11" d="m486.36,319.35v-10.67c.17,0,.33,0,.5,0v10.72c-.17-.01-.33-.03-.5-.04Z" /><path class="cls-3" d="m536.85,774.31c-2.09,2.12-3.53,1.75-5.67.51,1.96-1.19,3.41-.87,5.67-.51Z" /><path class="cls-5" d="m70.78,173.15c-4.14-1.42-8.45,1.71-12.66-.65-1.98-1.11-4.24-1.7-6.15-4.13,8.39-.69,14.75-5.38,21.75-8.63,1.93-.89,2.27-2.23,2.13-3.99-.16-2.03-1.49-2.94-3.36-2.95-6.47-.03-12.1-2.9-17.82-5.3-6.27-2.63-9.49-10.16-8.13-16.91,2.84-14.11,12.22-22.63,24.22-28.95,3.35-1.77,6.85-3.26,10.35-4.73,3.13-1.32,6.01-2.09,7.34,2.59.5,1.78,2.16,3.31,3.51,4.75,1.42,1.52,4.08,2.07,4.05,4.68-.05,4.15-.3,8.3-.59,12.44-.03.42-.88,1.06-1.39,1.1-1.11.09-1.04-.97-1.3-1.73-2.15-6.46-2.23-6.62-8.4-3.74-7.21,3.36-14.31,6.94-19.42,13.43-3.39,4.31-2.97,8.38,2.07,10.26,6.29,2.34,12.33,6.45,19.64,4.42,3.2,3.28,7.93,5.22,8.58,10.71.28,2.36.02,3.96-1.75,5.67-6.41,6.19-14.35,9.24-22.66,11.65Z" /><path class="cls-24" d="m214.55,156.77c-1.06.23-1.79.8-1.99,1.93-5.22,4.82-8.84,10.19-9.14,17.83-.17,4.28-2.76,8.38-5.84,11.74-1.26,1.38-2.72,1.84-4.46,1.07-1.75-.78-1.72-2.35-1.41-3.83,2.32-10.9-.4-22.14,2.29-33.06.81-3.28.69-6.62-2.98-9.2-2.68-1.89-2.66-5.58-1.53-8.72.67-1.86,1.62-3.62,2.01-5.58.12-.65.24-1.3.36-1.95,5.33-4.57,9.11-10.67,14.68-15.02,1.29-1.96,3.17-2.52,5.21-1.7,2.46.98,1.91,3.17,1.57,5.15-.57,3.3.94,4.64,4.14,4.49,1.33-.06,2.66-.04,3.99,0,5.85.19,8.47,3.84,8.65,9.75.37,12.4-6.32,20.39-15.55,27.08Z" /><path class="cls-9" d="m184.82,128.83c.23.08.46.13.7.17,2.8,5.95-1.29,10.68-2.81,15.86l-.15-.1c-2.57,4.02-5.18,8.05-7.3,12.28-1.71,3.42-4.44,5.69-6.9,8.27-2.92,3.07-6.99,3.36-10.61,2.11-3.67-1.27-4.36-5.42-4.74-8.65-.54-4.53-.68-9.23.23-13.82.79-4.07,1.61-8.14.74-12.31-.28-1.34-.18-2.66.79-3.76h0c2.69-2.69,5.31-5.4,8.47-7.6,2.65-1.84,5.9-2.2,8.04-1.02,4.65,2.55,10.47,3.49,13.53,8.57Z" /><path class="cls-26" d="m182.7,144.86c.18-5.42,3.95-10.21,2.81-15.86q2.79,4.94,5.99-.05c.61,2.23-.24,4.33-.84,6.34-1.07,3.55-.77,6.19,2.42,8.74,3.37,2.69,1.9,6.97,1.42,10.32-.93,6.47-.69,12.93-.74,19.38-.03,3.86-.88,7.57-1.2,11.36-.1,1.24-.93,2.75.83,3.48,1.65.69,2.95-.13,3.89-1.4,2.78-3.74,5.15-7.59,5.48-12.51.47-6.93,3.03-12.8,9.79-15.97-1.75,4.93-7.26,7.98-7.57,13.37-.26,4.48-1.54,8.33-3.57,12.12-.16.29-.27.6-.42.9-1.78,3.64-4.41,8.21-8.29,7.01-3.67-1.14-2.23-6.4-1.55-9.84.62-3.15.43-6.26.54-9.38.24-7.07-.56-14.18,1.72-21.16.84-2.57.78-5.66-2.74-7.1-.75-.31-1.23-1.48-1.66-2.34-.68-1.34.12-3.99-2.19-3.76-1.73.17-1.65,2.58-2,4.1-.3,1.27-.65,2.2-2.11,2.25Z" /><path class="cls-64" d="m214.55,156.77c2.77-4.66,7.52-7.51,10.73-11.83,2.68-3.61,4.7-16.81,2.51-20.79-1.26-2.29-3.34-3.1-5.74-3.24-1.98-.12-3.97.08-5.94-.06-3.24-.23-4.77-1.97-4.19-5.29.27-1.52,1.6-3.28-.55-4.32-1.99-.96-3.4.29-4.57,1.81-.74.49-1.45.45-2.13-.12,1.37-2.13,2.79-4.08,5.76-4.06,3.33.02,5.67.59,4.41,4.86-1.12,3.8.29,5.69,4.48,5.18,1.8-.22,3.67-.18,5.47.03,4.17.49,6.97,2.94,6.64,7.15-.47,6.05-.33,12.35-3.06,17.98-2.91,5.98-8.28,9.49-13.83,12.71Z" /><path class="cls-42" d="m124.82,171.95c-11.81-6.8-15.88-15.6-13.35-29.25.59-3.21-.14-5.38-3.59-5.61-3.75-.25-3.26-2.79-2.77-4.97.75-3.4,1.39-6.74.78-10.21-.25-2.81,1.73-3.52,3.85-4.09,1.45-.21,2.92-.12,4.38-.21,3.59-.32,5.31-2.83,6.73-5.71,2.03-2.22,3.19-5.86,7.39-4.59-.89,6.75-7.4,13.87-13.78,14.91-2.24.37-4.6.76-4.88,3.37-.31,2.92-2.32,6.28,1.16,8.7,2.78,1.93,3.52,4.64,3.48,7.81-.04,2.82-.04,5.65.03,8.47.14,6.3,2.01,11.71,7.57,15.38,1.65,1.09,3.2,2.42,3.58,4.59,0,.55-.19,1.03-.56,1.43Z" /><path class="cls-44" d="m109.92,118.75c-1.93.3-3.13,1.53-4.04,3.15-4.06,2.21-5.66,7.25-10.22,8.88,2.49-6.15,7.7-10.17,12.3-14.36,7.95-7.25,16.74-13.58,25.85-19.39,1.68-1.62,3.93-2.1,5.96-3.03,1.39-.17,2.37-1.65,3.94-1.23-.82,3.68-5.34,3.38-6.84,6.34.22,1.28-.76,2.09-1.21,3.11-1.58,2.31-3.7,3.7-6.54,3.87-6.77.58-10.68,5.84-15.48,9.6-1.26.98-2.16,2.44-3.74,3.07Z" /><path class="cls-52" d="m153.85,144.98c.31,5.72-1.16,11.59,1.11,17.14,2.25,5.49,7.59,6.84,12.18,2.89,2.38-2.05,4.89-4.22,6.24-7.2,1.88-4.16,5.74-7.19,6.65-11.92.22-1.13,1.53-1.05,2.52-1.13-2.86,8.34-7.08,15.77-13.88,21.59-3.21,2.75-6.95,2.88-10.81,2.52-4.06-.37-4.18-3.96-4.85-6.66-2.74-11.12-.3-22.17.78-33.23,2.05,5.33,1,10.66.06,16Z" /><path class="cls-12" d="m135.19,101.21c-.17-1.29,1.18-1.36,1.69-2.1,4.9.86,6.29,3.02,4.75,7.24-.56,1.53-.64,3.32-1.47,4.66-2.06,3.31-.7,5.21,1.84,7.55,3.98,3.67,1.99,8.74,1.48,13.03-.33,2.75-2.55,5.8-6.52,5.51-.13-.2-.26-.41-.39-.61.29-2.14,2.09-3.33,3.14-4.99,2.75-4.34,2.63-8.12-1.05-11.62-3.3-3.15-3.62-6.41-1.72-10.32,1.53-3.14,2.53-6.35-1.76-8.34Z" /><path class="cls-32" d="m184.82,128.83c-3.04-2.6-6.88-3.8-10.23-5.84-5.39-3.27-9.69-2.89-14.02,1.76-1.69,1.81-3.51,3.24-5.79,4.13,3.05-5.78,7.07-10.19,14.27-10.04,5.16.11,14.21,5.86,15.78,9.99Z" /><path class="cls-12" d="m136.97,137.09c-2.46,1.14-3.81,2.83-4.79,5.6-1.85,5.23-4.05,10.31-4.79,15.88-.17,1.28-1.04,2.74.1,3.71,1.58,1.35,2.59-.52,3.81-1.14.44-.22.92-.35,1.38-.51.13.25.27.5.4.75-.75,3.97-3.39,5.36-6.95,4.27-3.62-1.11-3.12-4.08-2.33-7.03,1.38-5.13,2.95-10.21,4.22-15.38,1.54-6.27,3.89-7.82,8.62-6.58.1.14.21.28.31.42Z" /><path class="cls-63" d="m124.82,171.95c.02-.43.05-.86.07-1.29.85-.75,1.87-.75,2.73-.26,2.87,1.62,4.68.33,5.92-2.16,1.21-2.45,2.82-5.08-.62-7.19,0,0-.23-.41-.23-.42.7-2.43,2.02-5.43,4.48-4.86,2.33.54,1.47,3.93,1.59,6.18.14,2.37-.47,4.6-1.37,6.71-2.83,6.62-6.7,7.59-12.58,3.29Z" /><path class="cls-10" d="m204.68,112.93c.71.04,1.42.08,2.13.11-5.71,3.87-8.05,11.36-14.95,13.96,3.4-5.49,7.04-10.76,12.82-14.07Z" /><path class="cls-31" d="m149.83,88.82c6.89-4.83,14.75-6.82,22.95-7.83-7.34,3.52-15.09,5.83-22.95,7.83Z" /><path class="cls-32" d="m153.85,144.98c-.33-5.33,1.1-10.67-.06-16,.31-.14.63-.17.96-.08.83,5.43,1.84,10.86-.91,16.09Z" /><path class="cls-31" d="m175.74,80.75c1.91-3.46,5.23-.97,7.75-1.84-2.31,1.78-5.01,1.9-7.75,1.84Z" /><path class="cls-18" d="m412.24,534.25c-1.01,1.5-1.86,3.15-3.07,4.48-4.03,4.45-8.15,8.12-15.05,8.05-9.59-.09-19.19-.44-28.78-.48.55-.83,1.62-1.69,1.56-2.47-.26-3.72.24-5.81,4.32-2.87.19.14,1-.22,1.24-.56.65-.89-.06-1.53-.65-2.09-.94-.89-1.99-2.5-3.27-1.7-2.43,1.53-4.59,2.72-7.05.3-3-2.95-5.24-6.02-5.21-10.74.18-27.6,0-55.2.19-82.8.03-4.27-1.65-7.07-5.34-7.57-3.09-.42-4.62,2.21-6.04,5.33-3.17,6.94-7.41,13.39-11.63,20.78,0-10.43,0-20.22,0-30.02,0-2.05,1.33-2.39,2.99-2.42,9.78-.22,19.49,1.04,29.21,1.38,14.9.51,29.71,3.7,44.9-.48,6.64-1.83,14.02-3,20.93-4.41,9.87-2.01,20.03-3.27,29.68-6.48,6.14.34,9.73-3.35,12.54-8.11,1.24-2.09,1.82-4.67,4.67-5.32,1.44.37,2.08,1.49,2.55,2.76.71,2.72-.5,5.35-.39,8.05-.12,3.01.05,6.03-.12,9.04-.07.79-.3,1.53-.7,2.21-3.69.92-6.54,2.73-7.46,6.78-.26,1.16-1.03,2.15-2.29,2.43-7.72,1.71-10.4,8.15-13.41,14.26-.58,1.18-1.1,2.4-1.48,3.69-.44,1.5-1.34,2.9-3.17,2.47-1.92-.44-1.53-2.24-1.72-3.69-.22-1.64.89-3.05.86-4.5-1.14,1.75-.21,4.17-1.86,5.89-3.01,2.24-7.38,2.76-8.47,7.46-.4,1.73-2.6,2.5-4.56,2.33-1.64-.14-3.26-2.46-4.87-.23-1.49,2.05-2.65,5.09-1.79,6.93,1.33,2.85,1.33,6.7,5.52,8.23,2.49.91,3.49.63,4.89-1.16,1.39-1.78,3-3.39,5.5-6.16-.71,5.94-3.47,9.77-5.82,12.92-4.98,6.65-7.78,14.4-12.3,21.24-5.29,8.01-9.84,16.51-14.64,24.84-.38.66-.28,1.61-.4,2.42Z" /><path class="cls-47" d="m479.12,428.46c0-.66,0-1.33,0-1.99,1.8-3.33.38-6.66,0-9.98l.99-7.99c-.66-.67.72-3.39-2-1.99-3.59,3.89-4.41,9.82-9.82,12.51-2.58,1.28-4.62,2.16-7.14.47,8.57-3.66,14.56-9.11,14.17-21.58-.62-20.07-.11-40.18-.07-60.27,1.71-1.17,2.46-.04,3.12,1.2-.44-1.78.41-4.6-3.13-4.25,0-6.31-.02-12.62-.03-18.93,1.28-.98,2.08-.33,2.74.81.08-2.32-.68-4.8,1.16-6.82.66-5.34-.85-10.49-1.46-15.7-.31-2.66-1.6-4.52-4.93-4.31-8.92.55-17.85.79-26.77,1.36-1.33.08-2.53.08-3.85-.13-4.54-.72-9.09-1.55-13.57.54-2.14,1-4.2-.4-6.3-.72-2.17,1.73-4.4,1.14-6.88.63-3.28-.67-6.77.45-10.1-.63-2,.32-4.23-.81-5.99.99-3.17,1.26-6.35,1.38-9.61.26-1.23-.42-2.54-.85-3.86-.74-9.14.75-18.31.73-27.45,1.48-4.33,0-8.65,0-12.98,0-1.17.63-2.32.91-3.37-.25-.6-3.1.93-4.32,3.81-4.21,2.96.11,5.94-.4,8.87.33,2.67-1.91,5.38.33,8.1-.07,2.42-.35,4.99.41,7.29-.92,33.93.05,67.86.1,101.78.15,7.55.01,9.49,1.76,10.21,9.28.06.66.04,1.33.03,2-.7,34.92,1.2,69.81,1.23,104.73,0,11.21-.05,22.49.28,33.74.24,7.99-.61,16.23-.43,24.32,1.3,59.63.98,119.27.73,178.9-.04,10.42.07,20.88-.55,31.33-.26,4.32,1.16,8.79.17,13.26-2.12,9.56-9.56,14.36-19.26,12.39-1.45-.29-2.94-.51-4.41-.55-36.88-1.01-73.76-1.37-110.65-.89-6.62.09-10.51-2.96-13.83-7.76-1.88-2.71-1.21-4.34,2.33-4.33,7.48.02,14.97,0,22.45,0,15.8,0,31.61-.2,47.4.08,8.88.16,17.14-2.03,25.58-4.35,8.98-2.47,17.53-5.94,26.16-9.26,2.59-1,5.35-.47,8.11-1.78,5.64-2.67,7.67-6.97,7.68-12.63.07-22.8.04-45.6.04-68.4,0-7.2.02-14.39.02-21.59,0-2.01-.5-3.63-2.9-3.89-2.27-.25-3.94.63-4.89,2.64-3.69,7.79-9.33,14.38-13.3,21.98-.83,1.58-1.27,3.36-1.9,5.04-2.05-1.43-2.43-4.03-4.04-5.77-.76-.99-.42-1.77.44-2.47,3.88-.67,5.52-3.22,5.75-6.93.16-.44.38-.84.66-1.22,3.57-2.81,6.21-6.34,8.11-10.46.76-1.64,1.54-3.28,2.76-4.68,3.11-3.55,5.13-3.72,8.83-.86,1.68,1.29,2.9,3.14,4.91,4.06,1.36-1.2.22-2.51.33-3.72-.12-2.22-.18-4.44.12-6.65.07-.49.18-.97.3-1.44.72-4.06-2.23-7.93-.62-12.04.04-1.71.02-3.41.02-5.11-.18-3.07.77-6.08.25-9.27-.9,2.37-1.17,4.92-1.88,7.35-.87,3.19-2.38,6.09-4.46,8.6-1.98,2.38-3.27,2.26-5.53-.08-.12-1.79.69-2.88,2.06-4.15,3.06-2.82,5.02-6.25,5-10.78-.11-25.37-.03-50.74-.08-76.11,0-2.68.25-5.27,1-7.82,1.7-.24,3.77.04,3.66-2.67.08-1.17.04-2.33-.05-3.5.33-2.65-2.79-5.03-.63-7.82Z" /><path class="cls-41" d="m359.17,546.39c-1.35-.02-2.68-.13-3.81-1-8.12-2.14-16.42-1.45-24.67-1.63-5.13-.11-10.27.51-15.38-.39-2.3-1.65-5-2.9-5.9-5.94-.89-2.25-.27-4.59-.4-6.89-.06-.95-.2-2.16,1.11-2.44,1.53-.32,2.1.88,2.3,2.03.54,3.03,1.48,5.82,4.14,7.66,3.22,2.22,6.57,3.47,9.9.29,1.64-1.56,2.66-.91,4.22.22,4.34,3.15,6.82,2.2,8.39-2.92.5-1.64,1.14-3.49,3.1-3.37,2.96.18,2.13,3.22,3.62,5.89-7.12-22.18-1.16-43.9-3.54-65.26-.09,3.22-2.26,5.68-3.99,8.24-7.81,11.57-14.35,23.79-19.63,36.7-.88,2.15-1.78,4.33-3.52,5.96-.86.81-1.88,1.61-3.11,1.02-1.64-.78-1.03-2.18-.64-3.44,1.9-5.95,4.65-11.5,7.88-16.82,6.24-13.05,14.14-25.19,20.78-38.02,1.87-3.61,4.18-7.03,5.22-11.04l-.04.11c1.23-.74,1.25-2.77,3.2-2.92,1.19,3.12-.1,6.22-.1,9.29.02,22.15.65,44.3.55,66.45-.03,6.13,2.3,10.88,7.69,13.99,0,0-.03-.03-.03-.03,1.2,1.02,2.53,1.93,3.56,3.09,1.18,1.34-.52.82-.91,1.15Z" /><path class="cls-37" d="m342.4,292.66c1,0,1.99,0,2.99,0-3.15,4.36-5.54,9.27-9.42,13.11-.83.82-.4,3.05-2.31,2.56-1.94-.5-.94-2.5-1.36-3.79,0,0,0,.06,0,.06,1.1-3.01,4.01-4.84,5.11-7.85.51-.74,1.02-1.47,1.54-2.21,1.33-.29,1.48-2.75,3.44-1.88Z" /><path class="cls-37" d="m479.12,309.64v6.74c-1.64,1.09-2.52-1.19-3.9-.73-1.25-5.4-2.33-5.97-7.11-3.62-.96.47-1.93.82-2.59-.21-.61-.96-.17-2.15.74-2.54,2.96-1.26,5.85-4.35,9.23-.79,1,1.06,2.28,1.2,3.62,1.15Z" /><path class="cls-37" d="m358.37,292.66c.12-.12.23-.33.35-.34,10.42-.46,20.8-2.7,31.25-1.17,3.14.46,6.21.3,9.31.51-1.97,2.38-4.89,2.65-7.24,1.82-5.15-1.83-10.13-1.52-15.43-.97-6.02.63-12.16.15-18.25.15Z" /><path class="cls-37" d="m475.25,334.58c2.39.11,1.28-2.81,3.39-3.58v9.38c-.96-.85-1.37-2.97-3.38-2.75,0-1.01,0-2.03-.01-3.05Z" /><path class="cls-37" d="m405.27,290.67c5.66,0,11.32,0,16.97,0-1.54,2.7-3.13,3.56-6.28,1.62-3.11-1.91-7.39.99-10.69-1.62Z" /><path class="cls-25" d="m449.18,584.23c-.8.43-.97,1.17-1.03,1.98-2.73-1.02-2.87-4.25-4.97-5.81-3.4.5-5.43-3.05-8.7-2.93-5.01-2.49-9.96-5.07-15.41-6.57-12.52-3.45-23.84.18-34.86,5.7-4.65.67-7.74,3.49-10.05,7.36-.28.37-.61.68-.97.95-3.38,1.63-4.87,4.38-4.83,8.07-.23,1.33-.71,2.58-1.38,3.73-7.06,12.15-5.73,24.87-1.06,37.02,3.7,9.62,10.24,17.77,19.47,23.2,2.39,2.34,5.53,3.31,8.48,4.63.16.17.32.34.47.52,3.53,3.49,8.7,3.52,12.52,3.14,4.08-.4,1.72,2.12,2.64,2.88.34,1.99-1.15,2.88-2.36,3.94l-.09-.13c-2.65.09-3.82,3.53-6.75,2.96-8.77.07-17.54.27-26.31.18-8.89-.09-15.6-7.67-16.86-16.34-1.28-8.75-.23-17.4-.65-26.09-.54-11.02.06-22.09-.22-33.12-.12-4.6,3.92-5.92,6.09-8.28,3.58-3.89,5.86-8.5,8.88-12.66,1.6-2.21,2.73-4.31,5.73-4.78,1.4-.22,3.13-.93,3.93-2,2.92-3.91,7.04-4.98,11.47-5.35,1.97-.17,3.36-1.25,4.9-2.18,6.89-2.82,13.55-4.02,21.02-.97,5.28,2.15,10.7,4.24,16.22,5.93,6.71,2.06,10.64,7.62,14.86,12.71.54.64.4,1.57-.21,2.29Z" /><path class="cls-25" d="m397.29,560.27c-2.92.06-5.27.24-7.91,2.73-3,2.82-8.14,1.9-12.25,1.52-3.82-.35-6.1-.38-5.99,4.34.03,1.4-.21,3.9-2.12,4.03-2.62.17-1.26-2.5-1.86-3.83-1.72-3.79-2.29-7.15,3.31-8.01,1.02-.16,1.7-1.06,1.74-2.18.04-.88-.35-1.63-1.15-2.05-1.14-.6-2.02.11-2.55.91-1.58,2.38-2.73,2.92-4.57.02-2.05-3.21-4.92-.62-5.69.79-2.97,5.4-9,7.93-11.76,13.46-4.05,8.09-8.37,16.05-12.87,24.09,1.35-7.55.71-15.16.79-22.76.06-6.15.05-12.31,0-18.46-.02-2.38.43-3.71,3.37-3.37,17.75,2.09,35.54,3.52,53.45,2.81,3.82-.15,7.65-.14,11.47,0,8.87.35,16.93-2.81,25.27-5.14,5.63-1.57,11.73-1.72,17.26-3.81,5.81-2.19,12.5-.87,17.83-4.8.89-.66,2.28-.41,3.1.74.74,5.04-3.11,5.52-6.41,6.08-3.1.53-6.32.35-9.26,2.25.22,1.27,1.52.79,2.21,1.23,1.14.72,2.48,1.31,2.47,2.84-.01,1.52-1.29,2.42-2.51,2.81-2.53.82-4.35,1.88-4.78,4.92-.29,2.03-2.28,3.2-4.2,2.37-3.47-1.48-7.58-1.99-10.1-5.12-2.96-3.68-6.69-4.19-10.77-3.09-6.4,1.74-12.89,3.05-19.32,4.64-2.06.51-4.13,1.54-6.21.03Z" /><path class="cls-18" d="m397.29,560.27c9.12-2.09,18.24-4.23,27.37-6.26,3.74-.83,6.97-.28,9.33,3.36,2.42,3.73,7.22,3.48,10.68,5.6,1.34.82,2.54-1.21,2.45-2.86-.15-2.79.06-4.76,3.84-4.09,1.06.19,2.43-1.37,3.81-2.22-1.6-1.82-3.16-2.81-5.37-2.13-.82.25-1.68.55-1.99-.59-.3-1.12.29-2.03,1.27-2.4,3.21-1.23,6.28-2.74,9.97-2.48,3.48.25,6.59-.84,7.49-4.91h2c2.23,1.87,3.85,1.04,5.04-1.21,1.36-2.57,2.63-5.18,3.93-7.78,2.41-1.49,2.94.77,3.99,2v5.99c-3.36,8.25-8.79,11.77-17.66,11.43-1-.04-2-.11-2.92.31-.88.4-1.98.86-1.41,2.14.37.82,1.51,1.23,2.11.77,3.86-3,9.22-1.88,13.11-5.2,3.39-2.89,5.77-1.72,6.76,2.54-.63,2.66-2.01,5.32,0,7.99.27.95.59,1.89.81,2.85.24,1.06-.06,2-1.03,2.57-1.11.65-1.86-.1-2.58-.8-1.17-1.14-2.26-2.38-3.48-3.47-4.48-3.95-6.87-3.47-9.57,1.97-2.48,4.98-4.41,10.38-10.07,12.85q-1.26-3.61,2.07-7.86c-2.73,1.16-4.96,2.41-7.26.46-1.02-.87-2.4-1.41-3.53-.07-.77.91-.17,1.88.28,2.76,1.37,2.65,1.81-.16,2.64-.48,1.39-.54,2.17.23,2.95,1.14,1.09,1.25,1.56,2.94,2.83,4.06-.04,4.13.12,8.4-5.99,7.97-4.73-5.94-8.88-11.98-17.17-14.34-5.63-1.6-11.35-3.79-16.87-6.14-3.63-1.54-7.22-2.21-10.98-.03-2.07,1.2-4.58.4-6.88.55.04-1.33.97-2.66,0-3.99Z" /><path class="cls-37" d="m479.12,428.46c-.4,2.93,2.41,5.06,2,8-2.61,1.19-2.67-3.95-5.07-2.24-1.49,1.06-1.68,3.63-3.91,4.23-5.15,1.08-8.5,4.02-10.92,8.83-4.23,8.4-9.07,16.49-14.23,24.61.83-4.24-5.45-8.96,1.37-12.76,1.33-.74.72-2.42.83-3.7.18-2.27.53-4.54.48-6.81-.03-1.21-.49-2.62,1.19-2.46,1.41.14,2.05,1.38,1.54,3.02-.53,1.71-.92,3.49-1.16,5.27-.12.88-.34,2.2.99,2.43,1.21.2,1.61-.86,1.86-1.85,1.2-4.7,3.76-8.66,6.31-12.73,1.42-2.26,2.63-4.06,5.21-4.55,3.91-.74,6.16-3.25,7.16-6.83,1.09-3.88,3.3-4.05,6.35-2.44Z" /><path class="cls-25" d="m356.41,590.31c0-7.36-.02-14.73.01-22.09,0-1.99,1.34-3.09,3.11-3.26,1.87-.19,2.01,1.66,2.05,2.81.27,7.83-.08,15.58-3.82,22.67-.45-.04-.9-.09-1.36-.13Z" /><path class="cls-18" d="m472.13,438.44c.16-.28.31-.57.48-.85q3.96-6.28,8.5-1.14c0,1.33,0,2.66,0,3.99-1.99,4.06-3.99.77-5.99,0-1-.67-2-1.34-3-2Z" /><path class="cls-37" d="m475.13,440.45c.75-1.07,1.78-.97,2.28-.02,1.33,2.55,2.48.52,3.71.02-.84,2.71-1.7,5.38-4.99,2-.8-.43-.97-1.18-1-2Z" /><path class="cls-18" d="m437.38,472.52c1.2.13,1.74.63,1.65,1.59-.1,1.06-.66,1.89-1.77,1.91-1.11.02-1.82-.7-1.69-1.84.13-1.12,1.09-1.46,1.81-1.66Z" /><path class="cls-31" d="m407.17,672.05c.02-1.77,1.91-2.42,2.35-3.94,7.69-11.01,13.43-23.17,20.46-34.58,4.79-7.77,8.59-16.13,14.08-23.48.51,1.74-2.19,3.72.4,5.31-.4.64-.8,1.28-1.21,1.91-2.04,1.42-3.37,3.23-3.11,5.87-.32.66-.64,1.33-.97,1.99-4.12,2.54-6.15,6.4-6.93,11.04-3.33,8.44-8.48,15.87-13.11,23.58-2.6,4.32-4.21,9.35-8.58,12.46-1.13-.05-2.26-.1-3.38-.15Z" /><path class="cls-31" d="m362.27,679.06c8.37-1.42,16.74-1.29,25.11,0-8.37,0-16.74,0-25.11,0Z" /><path class="cls-31" d="m319.44,678.08c4,.67,8.17-.71,12.09.97-4.02-.42-8.2,1.13-12.09-.97Z" /><path class="cls-31" d="m348.31,679.06c3.7-1.3,7.4-1.16,11.1.02-3.7,0-7.4-.01-11.1-.02Z" /><path class="cls-31" d="m335.3,679.05c3.39-1.24,6.78-1.29,10.16.02-3.39,0-6.78-.01-10.16-.02Z" /><path class="cls-31" d="m389.23,679.06c3.22-1.6,6.66-.44,9.98-.82-3.21,1.72-6.66.5-9.98.82Z" /><path class="cls-36" d="m494.86,692.98c-4.27.23-2.19-3.2-2.89-5.03.01-.6.03-1.19.04-1.78-.64-3.71-.64-7.42,0-11.14,0-.95,0-1.9,0-2.85-.67-8.7-.66-17.41,0-26.11,0-2.61,0-5.23,0-7.84-.12-.31-.34-.62-.34-.93-.09-26.39-.09-52.78,0-79.17,0-.31.22-.62.34-.93.54-7.94-1.67-15.87,0-23.81-.78-1.93-.38-3.95-.38-5.92-.02-68.66-.01-137.31-.05-205.97,0-1.95.54-3.99-.51-5.86-.01-4.31-.03-8.61-.04-12.92-1.28-3.57.64-7.45-1.07-10.97-2.93-8.66-5.76-10.71-15.39-11.26-3.12-.18-6.23-.48-9.34-.72-1.76.76-3.6.38-5.4.38-28.69.03-57.37.01-86.06.03-1.81,0-3.65-.31-5.43.32-3.29.03-6.58.06-9.88.09.39-2.68,2.82-.64,3.92-1.69,4.52.53,8.45-2.32,12.89-2.29,9.88-.93,19.78-.12,29.67-.44,1.74-.06,3.63.71,5.22-.67.98-2.34,1.19-4.77,1.18-7.29-.09-27.96.44-55.93-.34-83.87-.73-25.78-.24-51.55-.78-77.32-.05-2.47-.51-4.94-.86-7.4-.52-3.62.48-5.68,4.64-5.73,9.12-.11,18.25-.4,27.37-.82,3.13-.15,4.02.98,3.97,3.99-.15,8.15-.03,16.31-.03,24.46,0,23.39-.03,46.77-.04,70.16.32.6.43,1.23.43,1.91,0,27.12.02,54.24-.02,81.35-1.28,1.72-2.14.45-3.06-.43-.32-.58-.66-1.21-.65-1.86.09-12.44-1.75-24.85-1.01-37.26.41-6.8.56-13.58.72-20.37,1.03-7.4-1.42-14.68-.81-22.06,1.01-7.6,1.8-15.2-.53-22.73-.3-.96-.45-2.03-.12-2.96,2.85-8.07-.1-16.18.29-24.18.49-10.2-.18-20.34.22-30.49.16-4.08-.69-7.92-1.21-11.85-.17-1.31-1.05-2.12-2.35-2.18-5.62-.29-11.17-1.82-16.87-.56-3.61.8-5.57,2.7-5.48,6.51.26,11.46-.52,22.92.68,34.39.97,9.26,0,18.61.24,27.92.43,16.62-.37,33.24-.01,49.86.19,8.8-1.17,17.56-1.03,26.39.15,9.33,1.24,18.57,1.67,27.86.19,4.18,2.04,5.61,5.89,5.25,7.71-.08,15.43.65,23.1-.66,7.6.84,15.2,1.19,22.81.11l-.03.02c8.41-.66,16.79-.76,25.11.98,2.34.05,3.1,2.41,4.86,3.31.65,1.25.98,2.65-.1,3.66-1.25,1.17-2.46.02-3.58-.61-1.43-.8-2.69-1.98-4.81-2.15.28,1.44,1.41,2.12,2.1,3.05,2.57,3.4,4.08,7.05,4.07,11.49-.21,88.19-.06,176.37-.15,264.56,0,4.85,1.18,9.59,1.01,14.42-.79,21.59-1.01,43.19-1.06,64.8-.03,13.46,1.22,26.92.08,40.38-.1,1.13-.14,2.33.72,4.04.35-5.35,1.14-9.99.57-14.88-.8-6.93-.8-13.95.16-20.91.41-2.98.46-5.97.44-8.96-.21-25.1.25-50.2-.17-75.29-.21-12.76-.87-25.59-.34-38.27.44-10.47.04-20.92-.06-31.31-.11-10.42.85-20.89-.17-31.31-.49-4.98-.47-10-.17-14.96.45-7.47.08-14.91.04-22.37-.23-43.26-.12-86.52-.11-129.78,0-2.83.1-5.66.6-8.45.3-1.65.61-3.52,3.12-2.47.96,3.18.85,6.46.86,9.73.03,46.76.07,93.52.08,140.28,0,20.54-.04,41.09-.07,61.63.71,4.75.7,9.5,0,14.26,0,.57,0,1.14,0,1.71.78,1.58.4,3.27.41,4.9.05,7.14.07,14.28.01,21.42-.36,41.99.91,83.98.44,125.98-.08,6.88,1.5,13.87-.89,20.66-1.15,3.35-4.12,5.24-6.24,7.82Z" /><path class="cls-7" d="m500.26,284.6c-3.02,2.1-1.98,5.42-2.07,8.14-.29,8.97-.11,17.96-.11,26.95,0,35.1-.33,70.21.2,105.31.16,10.91-1.31,21.87-.01,32.66,1.35,11.23.04,22.43.23,33.58.18,10.24,2.47,20.75-.33,31.06-.85,3.14,1.22,6.26.84,9.33-1.9,15.41.87,30.77.14,46.17-.39,8.39.32,16.83-.18,25.21-.48,8.1-.04,16.15.2,24.21.34,11.15-1.26,22.2-1.06,33.31.13,7.58.57,15.16.81,22.73.07,2.13-1.45,3.76-3.11,3.98-2.08.27-1.71-1.95-1.7-3.33,0-5.43-.02-10.85.77-16.28.41-2.85-.74-5.88-.75-8.83-.08-20.46-.02-40.93-.05-61.39-.01-6.96,1.25-13.82,1.07-20.81-2.36-92.61-.5-185.24-.93-277.87-.03-7.27-1.12-13.31-7.63-17.38-.89-.56-1.56-1.36-.87-2.47.63-1.03,1.55-.96,2.61-.62,2.54.81,5.12,1.62,7.11,3.45,3.64,3.37,2.29-.4,2.65-1.77.73,1.55,1.46,3.1,2.19,4.65Z" /><path class="cls-7" d="m501.1,685.16c0-57.65.02-115.3.03-172.96,1.33,1.78.8,3.86.81,5.8.09,24.63-.33,49.27.3,73.88.73,28.6.69,57.2.81,85.8.01,2.68.17,5.36-1.94,7.47Z" /><path class="cls-29" d="m491.07,315.64c1.27.97,1,2.37.99,3.67-.01,71.36-.03,142.72-.06,214.08-1.03-1.31-.7-2.86-.71-4.32-.09-71.14-.16-142.29-.23-213.43Z" /><path class="cls-31" d="m485.33,286.58c-4.47-3.32-9.48-4.02-14.98-3.98-29.42.19-58.85-.14-88.27.22-9.59.12-19.18,1.15-28.8.8,3.51-1.99,7.44-1.47,11.16-1.5,36.98-.32,73.97-.49,110.95-.72,4.25-.03,7.7,1.38,9.93,5.18Z" /><path class="cls-7" d="m445.19,275.69c.02-28,.04-56.01.06-84.01,1.23,1.81.69,3.87.7,5.82.08,23.25.11,46.49.16,69.74.02,7.74.76,8.43,8.59,8.4,4.48-.02,8.96,0,13.44.01-7.64,1.9-15.29,1.43-22.94.05h0Z" /><path class="cls-29" d="m368.34,280.51c1.09-1.04,2.47-.81,3.78-.81,31.04.02,62.08.04,93.11.07-.98.81-2.17.73-3.32.73-31.19,0-62.38.01-93.57.01Z" /><path class="cls-29" d="m492.01,557.2c0,27.01,0,54.02,0,81.03-.94-1.15-.7-2.52-.7-3.83-.01-24.46-.02-48.92-.01-73.37,0-1.31-.22-2.68.71-3.83Z" /><path class="cls-29" d="m410.15,275.5c-.96,1.69-2.61,1.15-4.02,1.15-10.29.02-20.58-.02-30.87-.04,4.81-1.62,9.76-.56,14.64-.76,6.74-.28,13.5-.25,20.25-.35Z" /><path class="cls-7" d="m493.21,276.64c-8.37-.33-16.74-.65-25.11-.98,8.43-1.17,16.86-2.54,25.11.98Z" /><path class="cls-29" d="m492.01,646.07c0,8.7,0,17.41,0,26.11-1.23-8.7-1.2-17.41,0-26.11Z" /><path class="cls-7" d="m501.14,510.49c0-4.75,0-9.5,0-14.25,1.26,4.75,1.28,9.5,0,14.25Z" /><path class="cls-29" d="m492.02,675.03c0,3.71,0,7.42,0,11.13-1.11-3.71-1.17-7.42,0-11.13Z" /><path class="cls-29" d="m489.96,291.75c2.35,3.46.68,7.32,1.07,10.97-1.85-3.51-.18-7.37-1.07-10.97Z" /><path class="cls-29" d="m362.38,278.9c-.99,1.31-3.01.21-3.92,1.69-1.08.01-2.21.47-3.29-.45,2.17-2.05,4.77-1.18,7.21-1.24Z" /><path class="cls-31" d="m65.8,101.95c-8.21,6.28-15.77,13.11-19.78,23-.03-1.04-.06-2.07-.1-3.11-1.47-4.76,3.02-6.13,5.05-8.9.34-.34.68-.69,1.03-1.03,1.25-1.85,2.16-3.92,3.57-5.67,1.16-1.43,2.32-2.8,4.36-1.33,2.04-.83,3.15-3.5,5.87-2.96Z" /><path class="cls-3" d="m59.92,104.9c-2.74-.66-2.88,2.1-4.19,3.28-1.3,1.17-1.98,2.98-3.74,3.73,0-.99,0-1.98,0-2.97h0c1.1-2.08,1.99-4.2,4.09-5.68,2.53-1.79,3.46-.99,3.85,1.65Z" /><path class="cls-31" d="m55.4,101.7c-1.35.15-2.57-.18-2.12-1.4.77-2.04,3.11-2.06,4.85-2.67,1.22-.43,2.52.96,2.29,1.9-.68,2.83-3.86.51-5.03,2.16Z" /><path class="cls-3" d="m50.97,112.94c-.25,3.78-5.52,4.71-5.04,8.9-3.63-1.85-.55-3.74.15-5.38.85-2,2.49-3.42,4.9-3.52Z" /><path class="cls-31" d="m102.01,112.99c1.47.09,2.59.7,2.67,2.3.07,1.3-.96,1.67-2,1.55-1.25-.15-2.87-.22-2.98-1.86-.09-1.28.93-2.01,2.31-1.98Z" /><path class="cls-31" d="m51.99,108.93c-1.15.81-2.31,1.62-4.14,2.91.83-2.72.29-5.49,2.87-6.07,1.35-.3,1.18,1.92,1.27,3.16h0Z" /><path class="cls-31" d="m80.55,120.8c2.24-1.21,4.22-2.87,6.85-3.36,2.13-.39,3.53-.1,3.45,2.46-3.72-3.02-6.79,1.48-10.3.9Z" /><path class="cls-31" d="m89.82,98.22c-1.99-5.14-6.24-3.14-9.86-3.12,5.94-2.59,9.13-1.59,9.86,3.12Z" /><path class="cls-31" d="m80.07,95.05c-2.39,2.82-5.94,2.9-9.11,3.86,2.55-2.43,5.72-3.41,9.11-3.86Z" /><path class="cls-31" d="m139.78,94c-1.82,1.34-3.33,3.3-5.96,3.03.8-3.35,3.46-3.04,5.96-3.03Z" /><path class="cls-8" d="m465.29,327.85c.9-.8.99-2.82,2.82-2.18,1.35.47,1.11,1.79,1.1,2.98-.15,22.43-.46,44.86-.32,67.29.07,11.51-5.97,16.14-15.11,17.37-11.84,1.59-23.23,5.44-35.11,6.66-2.81.29-5.69,4.61-7.85,1.62-1.26-1.74,3.37-3.73,4.79-6.09,10.85-18.05,21.33-36.3,31.45-54.78,5.59-10.21,11.66-20.16,17.53-30.22.51-.87,1.06-1.69.74-2.77l-.03.12Z" /><path class="cls-51" d="m465.32,327.73c-6.96,8.44-11.25,18.51-16.92,27.75-5.31,8.67-10.15,17.64-15.17,26.49-4.36,7.69-8.6,15.45-13.06,23.09-2.88,4.93-5.39,10.18-10.04,13.87-1.29-1,.2-1.85-.05-2.72,0,0-.09.09-.09.09,4.82-5.39,8.26-11.76,11.61-18.03,7.68-14.37,16.17-28.28,24.08-42.51,6.17-11.1,12.59-22.06,18.93-33.06,1.07-1.87,2.24-3.68,3.49-5.44.54-.76,1.4-1.76,2.44-.97.88.66.77,1.93.21,2.75-1.11,1.61-1.74,3.64-3.68,4.59-1.81.89-2.11,2.42-1.8,4.21,0,0,.03-.12.03-.12Z" /><path class="cls-31" d="m397.28,424.4c3.32-.78,6.22-2.89,9.72-3.13,1.99,6.19,6.69,2.12,9.38,1.67,8.93-1.47,17.48-5.19,26.81-4.47-1.1,2.34-3.5,2.45-5.5,2.84-11.91,2.35-23.83,4.63-35.79,6.72-5.74,1.01-11.65.88-17.35.08-3.39-.48-6.88-.18-10.2-1.65,5.94,0,11.88,0,17.82,0,1.97,0,4.1.34,5.1-2.07Z" /><path class="cls-18" d="m356.55,542.16c-5.11-1.79-8.01-5.49-8.17-10.44-.33-10.41-.6-20.86-.64-31.23-.06-13.35-1.16-26.71-.33-40.06.14-2.28.59-4.54.94-7.15-1.19.78-2.17,1.42-3.14,2.06.23-.61.41-1.25.72-1.82.59-1.09.63-3.11,2.34-2.72,1.95.45,1.23,2.44,1.22,3.84-.03,23.6-.06,47.21-.19,70.81-.04,6.7,2.09,12.33,7.25,16.71Z" /><path class="cls-31" d="m443.23,418.47c1.68-3.83,5.15-2.97,8.2-2.94,6.62.05,11.77-2.89,15.84-7.8,2.03-2.45,3-5.4,2.94-8.77-.17-8.23-.05-16.47-.05-24.93,1,.32,1.52.39,1.53.51.89,9.27,1,18.63.12,27.83-.83,8.71-10.49,15.77-20.14,16.09-2.82.09-5.65.01-8.45.01Z" /><path class="cls-35" d="m345.24,455.24c.91,3.16-1.46,5.12-2.63,7.59-4.51,9.51-9.62,18.71-15.09,27.66-2.8,4.58-4.51,9.82-8.27,13.81.08-.96.16-1.93.24-2.89,8.59-15.39,17.17-30.78,25.76-46.17Z" /><path class="cls-31" d="m470.49,351.65v-21.33c.55,0,1.1,0,1.64,0-.26,7.11.63,14.22-1.64,21.32Z" /><path class="cls-31" d="m370.71,426.4c-2.22,1.32-4.44,1.32-7.79.13,3.26-1.45,5.51-1.13,7.79-.13Z" /><path class="cls-31" d="m470.67,364.85c-.77-2-.8-3.82.11-5.76q1.55,2.79-.11,5.76Z" /><path class="cls-34" d="m128.05,642.57c-.81,2.39-1.65,5.23-2.75,7.96-.75,1.88-2.54,1.96-4.22,1.57-2.16-.49-2.37-2.34-1.89-3.92,1.07-3.55,3.43-6.48,6.36-8.51,2.48-1.71,2.38.78,2.5,2.9Z" /><path class="cls-30" d="m173.62,652.22c-.09,1.18-.35,3.8-3.21,3.54-3.02-.27-6.09-1.89-6.28-5.28-.19-3.32,3.01-4.26,5.6-4.4,3.18-.16,4.09,2.24,3.88,6.14Z" /><path class="cls-38" d="m356.44,419.42c.9.64,1.79,1.28,2.73,1.95-1.32,1.98-3.09,1.05-4.61,1.02-10.8-.23-21.6-.99-32.38-.68-15.62.44-18.48-11.08-13.15-21.51,4.52-8.84,9.5-17.44,14.29-26.14.96-1.74,2.1-3.39,2.12-5.48,5.96-10.67,11.93-21.35,17.89-32.02.65-1.85,1.16-3.75,2.48-5.31.65-.76,1.15-1.85,2.28-1.5,1.09.33,1.28,1.52,1.12,2.49-.35,2.15-.37,4.3-.36,6.46.03,12.44.31,24.88.37,37.32.04,9.62.46,19.24.17,28.87-.18,6.01,2.11,10.93,7.01,14.55h.03Z" /><path class="cls-59" d="m356.41,419.41c-6.53-3.01-8.03-8.91-7.94-15.15.36-24.03-1.07-48.05.12-72.08.03-.57-.23-1.16-.43-2.06-2.54,1.81-3.29,4.42-4.82,6.42-.87-3.44,1.66-5.66,3.32-7.91,1.69-2.3,2.71-.17,3.23,1.45.86,2.64-.43,5.21-.4,7.86.29,22.97.5,45.94.64,68.91.03,5.31,3.68,8.62,6.28,12.55Z" /><path class="cls-46" d="m385.35,658.09c-4.18-2.9-8.47-5.53-11.82-9.62-6.8-8.3-11.45-17.28-12.29-28.19-.77-10.05.94-19.4,6.11-28.07.89-3.48,3.59-5.61,5.96-7.99h0c2.5-3.67,5.93-6.19,9.93-7.98,12.66-8.25,26.06-10.14,40.52-5.32,4.08,1.36,7.36,4.09,11.39,5.39,1.89,3.04,6.39,2.65,7.96,6.09.02,1.19.27,2.24,1.11,3.2,5.22,6.01,5.04,7.1.99,13.82-5.62,9.32-10.82,18.9-16.21,28.36-6.05,10.62-11.99,21.31-18.28,31.79-1.57,2.62-3.54,5.57-8,3.2-2.26-1.2-5.53-.51-8.34-.67,0,0-.08-.03-.08-.03-3.02-1.23-5.95-2.66-8.94-3.97Z" /><path class="cls-1" d="m443.11,582.39c-2.48-2.25-7.17-1.62-7.96-6.09,3.31.13,5.46,2.53,8.04,4.09-.03.67-.05,1.33-.08,2Z" /><path class="cls-33" d="m467.01,579.3c1.75,1.3,1.43,2.54,1.43,3.65-.08,21.29-.39,42.59-.17,63.87.08,7.87-4.26,15.17-13.05,17.29-10.54,2.53-20.69,6.61-31.05,9.91-3.76,1.2-7.91.92-11.45,3.09-.49.3-1.79-.02-2.25-.5-.66-.69.1-1.45.59-2.14,15.71-21.92,27.63-46.09,41.14-69.31,4.96-8.52,9.8-17.1,14.81-25.86Z" /><path class="cls-31" d="m466.16,577.31c4.86-2.91,3.94,1.12,3.95,3.47.07,18.95.04,37.9.04,56.85,0,4.32.05,8.64-.03,12.96-.03,1.56.66,3.4-1.23,4.49,1.06-10.91.39-21.85.51-32.78.15-13.42.07-26.85.05-40.27,0-2.27.42-4.98-3.3-4.73Z" /><path class="cls-53" d="m432.25,636.17c-1.32-.98-1.42-2.47-.6-3.5,1.87-2.34,3.21-4.96,4.7-7.52.74-1.27,1.87-1.16,2.82-.02-2.31,3.68-4.62,7.36-6.93,11.04Z" /><path class="cls-53" d="m440.14,623.14c-1.16-3.96-.28-5.6,3.11-5.87-.32,2.34-1.84,4.03-3.11,5.87Z" /><path class="cls-18" d="m342.4,292.66c-1.15.63-2.29,1.25-3.44,1.88.08-.6.16-1.2.24-1.8,2.07-1.54,2.14-4.97,5.23-5.55,3.34,1.1,7.07-.84,10.27,1.33-2.74.05-5.48.18-8.22.12-2.83-.07-4.26,1.1-4.08,4.01Z" /><path class="cls-50" d="m58.9,33.89c10.12-.91,18.97,10.56,18.76,18.71-.29,11.16-8.08,18.57-19.63,18.58-10.85,0-19.23-7.88-18.84-18.23.41-10.94,7.56-19.18,19.72-19.07Z" /><path class="cls-18" d="m337.42,296.75c.11,3.8-3.3,5.3-5.11,7.85.2-3.6,2.86-5.59,5.11-7.85Z" /><path class="cls-35" d="m311.36,521.12c.21.93-.19,2.2.86,2.67,1.11.5,1.96-.47,2.4-1.29,1.64-3.04,3.99-6.04,4.5-9.3.95-6.16,5.29-10.43,7.66-15.76,3.79-8.54,9.12-16.35,14.88-23.76,1.19-1.53-.48-3.27,2.3-5.77,0,12.94.74,24.67-.23,36.26-.8,9.61-.24,18.83,2.09,28.07.56,2.23.9,4.51,1.32,6.77.16.86.14,1.71-.9,1.97-1,.25-1.51-.34-1.74-1.26-.33-1.28-.62-2.57-1.02-3.83-.35-1.1.64-3.13-1.45-3.05-1.62.06-1.47,1.95-1.92,3.15-.67,1.79,2.05,5.28-2.23,5.18-3.38-.08-7.8,2.12-9.5-4.35-1.1,5.47-4.61,4.81-7.5,4.37-6.83-1.03-9.61-5.86-10.37-12.47-1.55,2.92-.73,5.88-1.09,8.69-2.02-5.75-.85-11.13,1.95-16.3Z" /><path class="cls-35" d="m315.31,543.37c10.72-.02,21.45-.07,32.17-.05,2.78,0,5.52.37,7.88,2.07-11.24-.9-22.49-1.24-33.76-1.11-2.1.02-4.34.36-6.29-.91Z" /><path class="cls-49" d="m511.35,759.75c-1.21-8.26-.4-15.57,7.13-21.17,4.12-3.07,8.26-3.72,12.94-3.25,2.13.21,4.25.65,6.37.99,3.73,3.28,6.6,6.89,8.64,11.73,4.15,9.85-3.64,18.33-10.59,22.33-5.85,3.36-16.02.25-20.85-5.92-1.22-1.56-2.41-3.14-3.62-4.7Z" /><path class="cls-13" d="m206.84,150.31c.39-6.21,3.1-9.93,6.9-9.68,2.1.14,2.99,1.13,2.89,3.12-.14,2.68-6.45,10.19-8.23,9.75-1.65-.41-1.65-1.83-1.56-3.19Z" /><path class="cls-56" d="m159.85,143c-.04-2.96.17-5.88,4.12-5.93,3.33-.04,7.98,4.66,7.84,7.64-.19,3.89-3.25,5.23-6.17,5.86-3.09.67-5.81-3.25-5.79-7.57Z" /><path class="cls-21" d="m132.92,161.05c2.62-1,4.36-.88,3.46,2.67-.4,1.59-.59,3.27-1.25,4.75-2.37,5.31-6.16,4.55-10.24,2.19-.78-.85-1.4-1.97-2.36-2.51-8.57-4.82-9.86-12.77-9.78-21.58.04-4.57,1.98-9.72-4.91-12.43-2.28-.9.26-6.32.37-9.69.06-1.88,1.75-3.75,4.12-3.43,6.07.83,9.13-2.92,11.51-7.48,1.2-2.3,4.04-3.62,3.91-6.66.07-.92.55-1.51,1.41-1.82,2.66-.27,4.68-1.55,6.04-3.87,4.43-.97,5.45,1.23,4.33,4.95-.51,1.69-.56,3.49-1.83,5.07-1.6,1.98-1.28,4.37.37,6.38,6.84,8.32,6.56,12.19-1.4,19.07-5.86-.66-6.87,4.09-7.63,7.85-1.01,5.03-2.83,9.79-3.99,14.76-.47,2.02-1.56,4.01.76,5.15,1.95.96,4.21,1.06,5.59-1.43.39-.72,1.01-1.31,1.53-1.95Z" /><path class="cls-27" d="m129.15,105.07c-.47.61-.94,1.21-1.41,1.82-2.35,1.65-4.92,3.08-6,6-2.72,1.5-5.58,2.82-6.92,5.93-1.64-.02-3.27-.04-4.91-.07,3.45-5.87,9.2-9.13,14.52-12.9,1.51-1.07,3.08-.91,4.72-.78Z" /><path class="cls-44" d="m114.82,118.82c-.58-5.36,3.32-5.47,6.93-5.93-1.6,2.8-3.27,5.52-6.93,5.93Z" /><path class="cls-37" d="m479.13,416.48c.54,3.33,3.8,6.66,0,9.98,0-3.33,0-6.66,0-9.98Z" /><path class="cls-37" d="m478.12,406.5c.7-1.07,1.54-3.03,2.72-2.23,2,1.34-.52,2.76-.73,4.23-.67-.66-1.33-1.33-2-1.99Z" /><path class="cls-25" d="m448.48,694.06c-11.78.43-23.66-1.9-35.19-.97-10.46.85-20.77-.86-31.25.51-9.72,1.27-19.81-.32-29.73-.75-1.12-.05-2.26-.83-3.32-.01-4.41,3.37-5.95-1.77-8.67-3.1-1.45-.71-.12-2.08,1.04-2.42,1.73-.51,4-1.6,5.25-.94,4.21,2.21,8.01.02,11.98-.24,2.26-.15,4.63-.49,6.7,1.17.68.54,1.92.78,2.79.6,11.5-2.29,23.31-2.97,34.67-1.15,11.75,1.89,22.21-.64,32.86-4.3.47-.16,1.04-.44,1.44-.3,3.85,1.39,6.47-.67,9.63-2.57,5.91-3.56,12.46-5.66,19.43-6.81,4.98-.82,8.08-5.16,10.77-9.32.49-.75.31-2.26,1.73-1.84.62.18,1.14,1.12,1.45,1.83,1.17,2.71,2.43,5.25.42,8.37-1.51,2.35-1.74,5.35-1.21,8.22.83,4.51-1.81,8.31-2.57,12.5-.25,1.35-1.72.89-2.88,1.03-8.44,1.06-16.9.14-25.33.48Z" /><path class="cls-25" d="m481.12,552.28c-1.68-3.72-3.67-4.21-6.69-1.1-1.59,1.64-3.42,3.45-6.48,2.36-1.73-.61-3.5.85-4.72,2.22-1.67,1.88-3.23,1.13-4.81.07-.79-.53-1.99-1.25-1.56-2.26.72-1.7,2.39-3.76,4.01-3.11,5.24,2.12,9.14-1.92,13.74-2.55,3.41-.47,4.21-5.11,6.5-7.62-.11,2.66-1.62,5.32.71,7.94.8.9.73,2.89-.7,4.04Z" /><path class="cls-25" d="m482.11,593.97c.42,3.89-1.82,7.64-.47,11.66.29.87-.52,2.89-2.12,2.82-1.39-.07-1.51-1.63-1.36-2.75.66-5.04-1.32-10.05-.1-15.09.32-1.3-.38-3.4,2.04-3.07,1.86.25,1.99,1.93,2,3.47.01.99,0,1.98,0,2.97Z" /><path class="cls-37" d="m481.03,393.8c0,1.42.16,2.45-.04,3.4-.28,1.33-1.04,2.76-2.55,2.55-1.34-.18-1.31-1.71-1.31-2.89,0-4.15-.01-8.3.04-12.44.01-.98.21-2.2,1.49-2.14,1.24.06,1.57,1.24,1.28,2.24-1,3.43,2.32,6.3,1.09,9.28Z" /><path class="cls-25" d="m479.91,627.14c-.45,7.72,2.38,15.52-1.94,24.48v-24.45c.65-.01,1.29-.02,1.94-.03Z" /><path class="cls-25" d="m481.12,534.31c-1.38-.56-2.25-2.14-3.99-2,.33-2.24.69-4.48.99-6.72.19-1.37-.3-3.35,2.06-2.96,1.8.3,2.14,1.98,1.87,3.48-.48,2.72-1.22,5.39-.93,8.2Z" /><path class="cls-37" d="m478.03,373.29v-20.63l1.34.02c-2.22,6.89,3.59,13.85-1.34,20.61Z" /><path class="cls-25" d="m482.08,577.63c-.42,1.26-.45,3.26-2.31,3.12-1.43-.11-2.64-1.5-2.46-3.19.17-1.57,1.21-2.88,2.83-2.89,1.68-.02,1.9,1.49,1.94,2.97Z" /><path class="cls-37" d="m478.8,319.68c.21,2.8.72,5.62-.45,9.41-2.13-4.1-.54-6.73.45-9.41Z" /><path class="cls-25" d="m481.11,560.27c-4.28-2.67-.91-5.33,0-7.99,0,2.66,0,5.33,0,7.99Z" /><path class="cls-39" d="m383.25,576.24c-2.67,3.45-6.82,5.07-9.93,7.98,1.73-4.63,4.3-8.21,9.93-7.98Z" /><path class="cls-39" d="m373.31,584.21c-.67,3.65-4.19,5.16-5.96,7.99-.25-4.33,1.73-7,5.96-7.99Z" /><path class="cls-4" d="m385.35,658.09c3.65-.2,6.37,1.72,8.94,3.97-3.78.48-6.38-1.7-8.94-3.97Z" /><path class="cls-25" d="m455.17,576.26c-3.03.02-2.99-3.21-4.68-4.58-2.08.52-.74,2.85-2.11,3.61-.29,0-.82.03-.83,0-.32-2.77-5.19-4.17-2.52-7.7.98-1.3,3.3-2.15,4.48-.88,2.46,2.64,4.39,3,6.82.16.67-.78,2-.75,2.52.37.6,1.31.4,3.05-1,3.44-3.26.91-2.64,3.32-2.68,5.58,0,0,0,0,0,0Z" /><path class="cls-25" d="m455.06,562.02c.06,1.12-.32,1.97-1.52,2.11-1.33.15-2.24-.38-2.23-1.88,0-1.15.58-1.82,1.76-1.87,1.14-.04,1.86.44,1.99,1.63Z" /><path class="cls-67" d="m443.19,214.79c-1.14,19.97.1,39.93,0,59.9-1.1,1.25-2.61,1.35-4.08,1.23-5.74-.44-11.22,1.57-16.88,1.76-1.66,0-3.32.04-4.98-.04-1.43-.07-2.63-.56-2.64-2.31-.09-15.18-2.33-30.32-1.31-45.51,1.5-22.13.63-44.29.94-66.43.28-19.68-1.47-39.33-1.07-59.02.09-4.5,1.35-6.57,6.09-7.82,6.91-1.83,13.48,1.51,20.22.09,1.33-.28,1.76,1.35,1.67,2.56-.39,5.64,2.72,11.04.24,16.97-1.69,4.03,2.65,8.02,1.88,12.54-.39,2.26-.29,4.53-1.27,6.76-2.24,5.07.53,10.07.69,15.12.16,5.39,1.75,10.78-1.14,15.98-.49.89-.49,2.41-.09,3.38,3.14,7.55,1.88,15.2.73,22.87-1.41,7.4.45,14.66.99,21.97Z" /><path class="cls-7" d="m422.23,277.68c6.91-1.51,13.63-4.36,20.96-2.99.67.33,1.34.67,2,1,0,0,0,0,0,0-1.06,2.33-3.17,1.99-5.13,1.99-5.94,0-11.89,0-17.83,0Z" /><path class="cls-7" d="m443.19,214.79c-1.73-7.26-2.91-14.55-.99-21.97-.49,7.36,1.71,14.6.99,21.97Z" /><path class="cls-19" d="m528.74,768.79c-4.57,1.55-6.67-2.42-9.46-4.41-5.19-3.7-8.02-11.99-4.77-15.56,4.25-4.66,6.74-13.38,16.48-9.3,1.99.83,5.5-1.76,7.41.65,2.29,2.9,4.22,6.22,5.26,9.88,1.1,3.84-1.69,12.67-5.31,14.54-3.11,1.6-5.29,5.55-9.6,4.2Z" /><path class="cls-43" d="m165.69,140.77c2.27.47,4.14,1.57,3.97,4.16-.17,2.58-2.36,3-4.38,2.81-2.87-.28-2.94-2.95-3.15-4.9-.29-2.63,2.04-1.85,3.57-2.06Z" /></g></g></g></svg>