<?xml version="1.0" encoding="UTF-8"?>
<svg id="Calque_2" data-name="Calque 2" xmlns="http://www.w3.org/2000/svg" viewBox="0 0 586 810">
  <defs>
    <style>
      .cls-1 {
        fill: #06090d;
      }

      .cls-1, .cls-2, .cls-3, .cls-4, .cls-5, .cls-6, .cls-7, .cls-8, .cls-9, .cls-10, .cls-11, .cls-12, .cls-13, .cls-14, .cls-15, .cls-16, .cls-17, .cls-18, .cls-19, .cls-20, .cls-21, .cls-22, .cls-23, .cls-24, .cls-25, .cls-26, .cls-27, .cls-28, .cls-29, .cls-30, .cls-31, .cls-32, .cls-33, .cls-34, .cls-35, .cls-36, .cls-37, .cls-38, .cls-39, .cls-40, .cls-41, .cls-42, .cls-43, .cls-44, .cls-45, .cls-46, .cls-47, .cls-48, .cls-49, .cls-50, .cls-51, .cls-52, .cls-53, .cls-54, .cls-55, .cls-56, .cls-57, .cls-58, .cls-59, .cls-60, .cls-61, .cls-62, .cls-63, .cls-64, .cls-65, .cls-66, .cls-67, .cls-68, .cls-69, .cls-70, .cls-71, .cls-72, .cls-73, .cls-74, .cls-75, .cls-76, .cls-77, .cls-78, .cls-79, .cls-80, .cls-81, .cls-82, .cls-83, .cls-84, .cls-85, .cls-86, .cls-87, .cls-88, .cls-89, .cls-90, .cls-91, .cls-92, .cls-93, .cls-94, .cls-95, .cls-96, .cls-97, .cls-98, .cls-99, .cls-100, .cls-101, .cls-102, .cls-103, .cls-104, .cls-105, .cls-106, .cls-107, .cls-108, .cls-109, .cls-110, .cls-111, .cls-112, .cls-113, .cls-114, .cls-115, .cls-116, .cls-117, .cls-118, .cls-119, .cls-120, .cls-121, .cls-122, .cls-123, .cls-124, .cls-125, .cls-126, .cls-127, .cls-128, .cls-129, .cls-130, .cls-131, .cls-132, .cls-133, .cls-134, .cls-135, .cls-136, .cls-137 {
        stroke-width: 0px;
      }

      .cls-2 {
        fill: #0d1013;
      }

      .cls-3 {
        fill: #208eb9;
      }

      .cls-4 {
        fill: #fefefe;
      }

      .cls-5 {
        fill: #d5e1bc;
      }

      .cls-6 {
        fill: #1a95e1;
      }

      .cls-7 {
        fill: #04060b;
      }

      .cls-8 {
        fill: #1b88b5;
      }

      .cls-9 {
        fill: #1f96e3;
      }

      .cls-10 {
        fill: #2289b5;
      }

      .cls-11 {
        fill: #1090e2;
      }

      .cls-12 {
        fill: #b5e3f6;
      }

      .cls-13 {
        fill: #1687ad;
      }

      .cls-14 {
        fill: #33865f;
      }

      .cls-15 {
        fill: #3b8950;
      }

      .cls-16 {
        fill: #a1d4ef;
      }

      .cls-17 {
        fill: #ede5b2;
      }

      .cls-18 {
        fill: #69a646;
      }

      .cls-19 {
        fill: #afdef7;
      }

      .cls-20 {
        fill: #75a84d;
      }

      .cls-21 {
        fill: #73b1ac;
      }

      .cls-22 {
        fill: #deecc5;
      }

      .cls-23 {
        fill: #979ca2;
      }

      .cls-24 {
        fill: #348451;
      }

      .cls-25 {
        fill: #b2c712;
      }

      .cls-26 {
        fill: #1f96e5;
      }

      .cls-27 {
        fill: #56ade3;
      }

      .cls-28 {
        fill: #d0eaf5;
      }

      .cls-29 {
        fill: #468c5d;
      }

      .cls-30 {
        fill: #1c86b4;
      }

      .cls-31 {
        fill: #1b95e5;
      }

      .cls-32 {
        fill: #2195dc;
      }

      .cls-33 {
        fill: #1a96e5;
      }

      .cls-34 {
        fill: #72757c;
      }

      .cls-35 {
        fill: #d3e0b2;
      }

      .cls-36 {
        fill: #3297dd;
      }

      .cls-37 {
        fill: #1998e6;
      }

      .cls-38 {
        fill: #2c8fb9;
      }

      .cls-39 {
        fill: #3499cb;
      }

      .cls-40 {
        fill: #1c97e5;
      }

      .cls-41 {
        fill: #070a0d;
      }

      .cls-42 {
        fill: #d1dead;
      }

      .cls-43 {
        fill: #ebf5f8;
      }

      .cls-44 {
        fill: #369eda;
      }

      .cls-45 {
        fill: #2396e0;
      }

      .cls-46 {
        fill: #d9e4c1;
      }

      .cls-47 {
        fill: #5daee8;
      }

      .cls-48 {
        fill: #5bb2e9;
      }

      .cls-49 {
        fill: #deecd7;
      }

      .cls-50 {
        fill: #1f99e6;
      }

      .cls-51 {
        fill: #268ece;
      }

      .cls-52 {
        fill: #9fc4d8;
      }

      .cls-53 {
        fill: #2e9ee5;
      }

      .cls-54 {
        fill: #81c4ea;
      }

      .cls-55 {
        fill: #379ad4;
      }

      .cls-56 {
        fill: #7fc0e8;
      }

      .cls-57 {
        fill: #409495;
      }

      .cls-58 {
        fill: #1e97e1;
      }

      .cls-59 {
        fill: #06080b;
      }

      .cls-60 {
        fill: #eef2fb;
      }

      .cls-61 {
        fill: #f0f5f6;
      }

      .cls-62 {
        fill: #a0a6ab;
      }

      .cls-63 {
        fill: #3193c7;
      }

      .cls-64 {
        fill: #94c9dd;
      }

      .cls-65 {
        fill: #070a0e;
      }

      .cls-66 {
        fill: #5c5f63;
      }

      .cls-67 {
        fill: #494d52;
      }

      .cls-68 {
        fill: #1b8cbb;
      }

      .cls-69 {
        fill: #8ecbe8;
      }

      .cls-70 {
        fill: #1d7f8a;
      }

      .cls-71 {
        fill: #1c9ae4;
      }

      .cls-72 {
        fill: #469238;
      }

      .cls-73 {
        fill: #2c8da8;
      }

      .cls-74 {
        fill: #c2c5cd;
      }

      .cls-75 {
        fill: #1591e3;
      }

      .cls-76 {
        fill: #e8e7aa;
      }

      .cls-77 {
        fill: #9fd1f7;
      }

      .cls-78 {
        fill: #199def;
      }

      .cls-79 {
        fill: #1e95e2;
      }

      .cls-80 {
        fill: #5ea765;
      }

      .cls-81 {
        fill: #3290cd;
      }

      .cls-82 {
        fill: #78ae46;
      }

      .cls-83 {
        fill: #b6ca18;
      }

      .cls-84 {
        fill: #1b88c9;
      }

      .cls-85 {
        fill: #d8dce2;
      }

      .cls-86 {
        fill: #e8f6f9;
      }

      .cls-87 {
        fill: #06090e;
      }

      .cls-88 {
        fill: #070a10;
      }

      .cls-89 {
        fill: #e2e5e9;
      }

      .cls-90 {
        fill: #49931b;
      }

      .cls-91 {
        fill: #080a0d;
      }

      .cls-92 {
        fill: #7eb6bd;
      }

      .cls-93 {
        fill: #eceef2;
      }

      .cls-94 {
        fill: #cae9e2;
      }

      .cls-95 {
        fill: #b2dff5;
      }

      .cls-96 {
        fill: #b1c612;
      }

      .cls-97 {
        fill: #138edd;
      }

      .cls-98 {
        fill: #1695e2;
      }

      .cls-99 {
        fill: #0b0d14;
      }

      .cls-100 {
        fill: #1e97e4;
      }

      .cls-101 {
        fill: #b8d20b;
      }

      .cls-102 {
        fill: #d6e1c2;
      }

      .cls-103 {
        fill: #05080e;
      }

      .cls-104 {
        fill: #1f97e1;
      }

      .cls-105 {
        fill: #1893e4;
      }

      .cls-106 {
        fill: #1292e3;
      }

      .cls-107 {
        fill: #05060c;
      }

      .cls-108 {
        fill: #aad8ef;
      }

      .cls-109 {
        fill: #5f9a24;
      }

      .cls-110 {
        fill: #070a0f;
      }

      .cls-111 {
        fill: #308dc3;
      }

      .cls-112 {
        fill: #05080b;
      }

      .cls-113 {
        fill: #9ea2a7;
      }

      .cls-114 {
        fill: #a5d7c9;
      }

      .cls-115 {
        fill: #2097e6;
      }

      .cls-116 {
        fill: #318a84;
      }

      .cls-117 {
        fill: #2b95c5;
      }

      .cls-118 {
        fill: #c0ebf9;
      }

      .cls-119 {
        fill: #f2f7ee;
      }

      .cls-120 {
        fill: #eef5f7;
      }

      .cls-121 {
        fill: #8dbedc;
      }

      .cls-122 {
        fill: #1a8bc1;
      }

      .cls-123 {
        fill: #318488;
      }

      .cls-124 {
        fill: #309341;
      }

      .cls-125 {
        fill: #24846a;
      }

      .cls-126 {
        fill: #f7f9f3;
      }

      .cls-127 {
        fill: #b5d10b;
      }

      .cls-128 {
        fill: #399db1;
      }

      .cls-129 {
        fill: #05080c;
      }

      .cls-130 {
        fill: #1f8abb;
      }

      .cls-131 {
        fill: #f2f6fa;
      }

      .cls-132 {
        fill: #2198e4;
      }

      .cls-133 {
        fill: #3293bb;
      }

      .cls-134 {
        fill: #15171e;
      }

      .cls-135 {
        fill: #f3f6fa;
      }

      .cls-136 {
        fill: #4ca06c;
      }

      .cls-137 {
        fill: #03060a;
      }
    </style>
  </defs>
  <g id="Calque_1-2" data-name="Calque 1">
    <g>
      <path class="cls-4" d="m.09,405C.09,271.53.11,138.06,0,4.59,0,.84.84,0,4.58,0c192.28.11,384.55.11,576.83,0,3.74,0,4.59.84,4.58,4.59-.1,266.94-.1,533.88,0,800.83,0,3.74-.84,4.59-4.58,4.59-192.28-.11-384.55-.11-576.83,0-3.74,0-4.59-.84-4.58-4.59.11-133.47.09-266.94.09-400.41Z"/>
      <path class="cls-4" d="m10.07,411.46c0-119.65-.08-239.29.18-358.94.02-7.56-.89-15.74,3.52-22.72,2.18-3.46,4.02-6.68,4.87-10.98.94-4.78,6.8-5,10.8-6.63,16.65-6.79,34.18-5.08,51.5-5.09,149.85-.04,299.7-.02,449.54-.02,11.23,0,21.09,5.12,31.32,8.7,2.14.75,4.31,2.93,4.97,5.37,3.02,11.14,7.35,21.89,7.27,33.86-.29,42.6-.11,85.2-.11,127.8v359.92c0,40.02.03,80.04-.02,120.05-.01,7.97,1.13,15.96.82,23.83-.83,21.26-.2,42.54-1.08,63.77-.33,7.88.08,15.85-.92,23.63-.62,4.79-1,10.43-6.35,13.33-.66.36-1.37,1.19-1.49,1.9-1.11,6.55-5.54,7.41-11.04,6.74-.9-.11-2.45.14-2.74.71-3.83,7.66-11.09,6.09-17.34,6.13-34.06.2-68.13.1-102.2.1h-171.46c-71.46,0-142.91.06-214.37-.07-9.84-.02-17.94-4.38-24.4-11.93-2.89-3.38-6.84-5.45-8.61-10.29-1.18-3.24-2.68-6.14-2.68-9.72.04-119.81.03-239.63.03-359.44Z"/>
      <path class="cls-60" d="m292.93,11.08c79,0,158-.01,237.01.03,6.33,0,12.35,1.69,18.05,4.37,4.28,2.02,9.65,1.49,13.04,5.56.73.88,1.89,1.65,2.13,2.65,2.61,10.65,6.97,20.8,6.9,32.17-.27,43.6-.11,87.2-.11,130.8,0,82.45,0,164.91,0,247.36,0,37.69,0,75.38,0,113.07,0,40.19,0,80.37,0,120.56,0,6.3,1.05,12.67.76,18.83-.99,20.77.06,41.56-1.09,62.27-.44,7.88-.2,15.75-.83,23.57-.33,4.07-.41,9.03-5.72,10.84-1.32.45-1.41,1.9-1.6,2.93-.92,4.9-3.81,6.11-8.56,6.02-3.95-.07-8.42-.5-10.85,4.72-1.08,2.32-4.93,2.11-7.81,2.11-34.59-.03-69.19-.02-103.78-.02-27.02,0-54.04,0-81.07,0-28.77,0-57.55,0-86.32,0-71.6,0-143.19.05-214.79-.06-9.67-.01-17.2-4.99-24.36-11.23-3.98-3.47-5.56-8.3-8.99-11.91-.79-.83-.9-1.77-.84-2.75.67-10.64-1.51-21.22-.95-31.82,2.07-39.22.74-78.47.68-117.7-.02-12.91-1.35-25.91-.59-38.8,1.17-19.77.4-39.53.88-59.29.21-8.49-1.73-16.85-1.06-25.34,1.21-15.25,1.36-30.54.9-45.8-.45-15.04-1.6-30.1-.76-45.12.79-14.28.6-28.54.94-42.81.17-7.01-1.35-13.88-1.06-20.84,2.17-53.03.77-106.09.76-159.13,0-16.08-1.4-32.23-.6-48.29,1.02-20.27.67-40.53.76-60.79.03-7.61-.58-15.23-.95-22.84-.1-2.04,0-4.13,1.06-5.81,1.91-3.05,2.09-5.98,1.09-9.42-1-3.45,1.37-6.07,3.64-8.22,1.45-1.37,2.48-2.56,2.21-4.61-.76-5.82,3.25-7.86,7.68-9.2,6.86-2.07,13.8-3.92,20.75-5.68,1.89-.48,3.95-.39,5.93-.39,79.17-.02,158.34-.01,237.5-.01Z"/>
      <path class="cls-25" d="m214.18,214.23c.12,10.25.3,20.5.35,30.75.05,9.13-.07,18.27-.04,27.4,0,1.72-.75,3.69,1.17,4.99,2.35-1.64,5.06-1.29,7.65-1.22,6.39.18,12.82-.69,19.17.6,3.45,2.38,3.99,6.42,4.83,9.91,1.63,6.76,4.29,13.08,6.97,19.42,1.01,5.71,5.65,9.63,7.42,14.96,4.23,9.04,10.56,16.52,17.46,23.59,4.22,4.29,7.69,9.28,12.45,13.05.52.41,1.01.87,1.49,1.33,1.57,1.5,3.47,2.54,5.26,3.74.38.24.73.52,1.07.81,2.71,1.93,4.71,5.01,8.49,5.22.43.18.81.43,1.16.75,3.44,4.87,9.08,6.52,13.85,9.44,2.8,1.56,5.46,3.46,8.89,3.35,2.84.56,5.37,2.09,8.24,2.57,1.13.62,2.07,1.46,2.94,2.39.7.88.92,1.88.74,2.98,1.02,2.91,3.77,3.18,6.08,3.44,3.67.41,7.11,1.71,10.7,2.21,3.85.54,5.36,2.82,5.93,6.27.44,2.64.41,5.3.41,7.96,0,24.94.25,49.87-.11,74.8-.16,11.17,2.25,22.49-1.35,33.61.72-2.34,1.02-4.71,2.04-6.93,1.05-2.28.36-4.92.38-7.39.06-8.81.22-17.63-.01-26.43-.6-22.61,1.51-45.17,1.08-67.77-.1-5.39.02-10.69-4.17-14.88-.49-.49-.41-1.22-.06-1.86,3.6-1.55,6.99-2.35,8.95,2.35.44,1.97.35,3.97.35,5.96.01,39.77.01,79.53,0,119.3,0,2.64.31,5.35-.98,7.83-2.85,1.43-4.22-1.92-6.91-2.05-5.82-.3-11.59.53-17.38.15-2.48-.16-4.99.19-7.42-.58-2.78-1.43-3.47-4.13-4-6.85-.34-1.76-.45-3.55-1.66-4.99-3.84-8.01-6.1-16.71-10.39-24.54-.4-.73-.81-1.42-1.34-2.05-3.49-3.45-4.98-8.17-7.63-12.16-2.65-3.99-5.19-7.98-8.67-11.3-.59-1.97-1.9-3.29-3.74-4.13-1.81-1.04-3.26-2.43-4.2-4.31-1.15-2.77-3.32-4.42-6-5.52-5.16-4.22-10.14-8.66-15.57-12.55-11.98-8.55-25.23-14.36-39.34-18.35-6.78-2.5-13.72-4.27-20.96-4.71-1.49-.09-2.95-.38-3.98-1.65-1.16-1.57-1.29-3.36-1.23-5.23,1.13-34.59.82-69.19.3-103.77-.41-27.4-.73-54.8-.74-82.2,0-2.67-.84-5.75,2.08-7.7Z"/>
      <path class="cls-132" d="m300.42,455.68c1.31,1.26,2.62,2.51,3.92,3.77,1.28,1.42,2.48,2.93,3.96,4.16,7.51,6.44,10.92,15.71,16.27,23.64,1.2,4.76,3.81,8.91,5.75,13.36,1.08,2.48,2.13,4.82-.33,7.07-2.48.28-3.07-1.63-3.56-3.33-.65-2.24-1.66-4.31-2.58-6.42-.29-.68-.5-1.38-.7-2.08-5.23-9.85-5.11-9.73-12.9-2.1-15.3,15-30.97,29.61-46.48,44.38-5.62,5.34-11.52,10.49-16.38,16.64-2.48,3.14-6.17,4.98-8.99,7.84-16.31,16.57-33.13,32.61-50.07,48.54-2.52,2.37-4.43,5.43-7.88,6.72-3.35.41-5.75,1.99-7.52,5.01-2.19,3.72-5.66,6.58-9.04,8.99-6.34,4.53-11.74,10.18-16.94,15.66-5.71,6.02-12.82,10.78-17.28,18-.78,1.26-1.92,2.37-3.51,2.61-2.78.41-3.88,2.15-4.22,4.75-.27,2.08-1.43,3.32-3.72,3.1-8.84-4.96-16.08-11.91-23.31-18.86-6.14-6.09-11.03-13.2-16.3-20-.89-1.16-1.86-2.37-1.78-4-.88-2.28-1.08-4.39,2.03-4.87,2.72-.42,4.94.2,5,3.49.16-.66.18-1.53-.09-2.27q-2.27-6.13,2.89-10.3c4.85-3.93,9.01-8.64,13.54-12.83,8.17-7.54,15.32-16.14,24.16-22.98,5.71-4.42,9.6-10.75,15.17-15.48,2.95-2.51,6.76-4.34,8.46-8.2.27-.4.6-.73,1-1,2.46-.69,4.59-1.77,5.67-4.34.59-1.39,1.58-2.62,2.91-3.32,9.34-4.89,14.56-14.3,22.44-20.55,7.7-6.11,12.36-15.15,21.22-20,4.94-2.7,7.59-7.97,10.64-12.6.23-.42.54-.77.93-1.05,5.18-2.21,10.6-4.14,12.32-10.44.29-1.06,1.05-1.85,2.08-1.9,3.49-.17,4.56-2.84,5.78-5.38,2.32-2.97,5.73-4.75,8.21-7.61,1.36-1.56,2.23-3.11,2.47-5.1.15-.45.37-.85.66-1.23,5.71-4.51,10.74-9.72,15.52-15.2.39-.61.9-1.08,1.53-1.44,2.27-.97,4.35-2.25,6.13-3.95,1.77-1.69,3.77-2.47,6.32-2.03-.78-1.71-1.93-3.41-.38-5.03,1.62-1.7,3.55-1.21,5.39-.22,5.11,3.21,10.05,6.62,13.91,11.36.35.42,1.08.53,1.64.78,1.47,2.6,4.73,3.46,6.02,6.23Z"/>
      <path class="cls-115" d="m466.25,129.75c.94-.01,1.72.22,1.9,1.31,2.7,5.68,8.57,8.06,12.82,12.12,5.49,5.24,10.78,10.61,15.55,16.5,1.15,1.42,2.39,2.72,3.82,3.87,1.43,3.14,3.63,5.84,5.12,8.91.86,1.78,2.67,3.53,1.24,5.86-15.08,15.44-30.79,30.25-46.17,45.38-17.76,17.47-36.1,34.36-53.58,52.09-19.23,19.5-39.75,37.7-58.25,57.92-.22.24-.51.42-.79.6-6.31,4.05-10.8,10.06-16.12,15.16-2.96,2.84-5.73,5.88-8.73,8.69-3.71,3.97-8.81,6.65-11.16,11.9-1.26.59-2.41.42-3.46-.49h0c-2.61-1.74-5.26-3.44-7.47-5.72-2.28-2.82-4.66-5.46-8.6-5.84-4.06-4.93-8.88-9.11-13.35-13.65-1.23-1.36-2.47-2.72-3.39-4.32-2-2.63-3.02-5.99-6.01-7.87-.36-.32-.64-.69-.85-1.11-.05-3.6-4.13-5.83-3.31-9.73.58-.48,1.27-.72,2-.85,4.01.06,7.83-.13,8.2-5.52.05-.65.45-1.39,1.03-1.63,6.67-2.72,9.18-9.99,14.82-13.67,6.17-4.03,9.34-11.12,15.82-14.69,4.95-2.99,7.96-8.21,12.85-11.27.33-.28.69-.54,1.04-.79,1.59-1,1.91-2.72,2.43-4.33,6.03-2.92,7.84-9.99,13.14-13.55,10.7-7.18,18.05-18.13,28.75-25.34,2.89-1.94,3.78-5.82,6.39-8.2,7.41-6.21,14.5-12.74,20.89-20.01,4.08-4.04,8.69-7.57,11.96-12.41,4.48-2.84,8.04-6.66,11.44-10.68,2.21-2.63,5.01-4.68,7.32-7.23,1.2-2.24,2.79-3.89,5.22-5.02,3.65-1.69,4.52-5.98,7.19-8.67,7.32-5.32,13.86-11.5,19.74-18.35,1.46-1.71,3.34-2.62,4.99-3.95,2.74-.91,2.44-4.94,5.56-5.45Z"/>
      <path class="cls-102" d="m324.53,497.21c2.79,2.87,1.97,7.53,5.08,10.24,2.66,2.5,3.49,5.82,4.28,9.21,1.87,8,3.33,16.08,4.61,24.2.83,16.97,1.23,33.91-3.86,50.41-.69,2.24-.21,4.67-1.33,6.81-6.54-.28-13.07-.78-19.61-.8-30.77-.09-61.53-.05-92.3-.05-1.16,0-2.34-.1-3.49.04-5.62.68-6.74,2.84-5.77,8.31.73,4.12-.18,8.42.01,12.7.22,4.99.29,10.07.25,15.07-.06,6.14.84,12.45-1.1,18.54-1.1,3.43,1.46,6.49.74,10.38-1.21,6.55-.23,13.48-.46,20.24-.15,4.62,1.49,6.71,6.35,6.61,8.78-.19,17.59.33,26.31-1.11,2.09-.34,4.08-1.26,6.11-1.92.5,3.09-1.96,3.69-3.91,3.92-5.99.71-11.55,3.06-17.4,4.25-15.07,3.08-30.35,3.71-45.62,2.9-7.25-.38-14.33-2.81-21.43-4.54-12-2.92-23.32-7.61-33.94-13.98-6.59-3.95-6.67-5.96-.81-10.79,6.14-5.06,11.16-11.3,16.9-16.81,11.11-10.66,22.24-21.3,33.37-31.94.86-.82,2.04-1.12,2.89-1.93,13.22-12.7,26.34-25.49,39.69-38.05,8.51-8.01,16.78-16.28,25.31-24.28,8.35-7.82,16.31-16.13,24.67-24.01,11.67-10.99,23.17-22.17,34.72-33.29,3.44-3.31,6.93-6.58,10.16-10.08,2.27-2.46,3.93-2.04,5.41.53,1.37,2.39,2.53,4.9,3.78,7.36-2.6,2.49-2.39,4.73-.37,7.79,2.6,3.93,4.37,8.37,4.02,13.41-.36,5.28.19,10.48,3.14,15.9-1.5-10.76-2.06-20.97-6.84-30.24-.82-1.59-1.24-3.49.44-5.03Z"/>
      <path class="cls-131" d="m243.44,278.01c-9.26-.21-18.52-.42-27.77-.64,0-18.78-.01-37.56,0-56.34,0-6.74.26-6.9,6.67-4.49.62.23,1.36.24,1.89.59,1.01.68,3.17.19,2.92,2.03-.21,1.51-1.68,2.29-3.31,2.59-1.43.26-3.98-.88-3.85,1.73.14,2.82,2.81,2.24,4.71,2.26,9.61.05,14.68-7.57,10.74-16.05-.49-1.05-1.09-1.61-2.28-.9-3.82,2.3-4.38.24-4.65-3.14-.16-2.06-1.32-4.06-2.09-6.06-.16-.42-.85-1.07-.91-1.03-4.51,3.07-4.59-1.52-6.21-3.52-1.2-1.48-2.97-1.24-4.63-1.24-4.76,0-9.51,0-14.29-.5,2.43-2.42,5.45-1.56,8.1-1.38,4.07.28,8.62-1.9,12.15,2.01.65.72,1.67.12,2.22-.44.96-.99.21-1.93-.59-2.49-3.64-2.54-2.6-5.67-1.42-9,2.82-7.99-.88-13.14-9.26-13.17-8.63-.03-17.27.03-25.89-.27-1.83-.06-2.73.62-3.82,1.63-.85.78-1.71,2.09-2.64,2.15-6.44.44-3.5,3.72-1.99,6.41.89,1.57,2.12,2.95,3.28,4.35.83.99,1.39,1.96.28,3.02-.56.54-1.38,1.25-2,1.18-1.35-.14-.92-1.49-1.07-2.4-.19-1.11-.16-2.77-1.78-2.26-1.66.52-1.24,2.11-.58,3.36,1.01,1.9,2.21,3.71,3.11,5.65.29.63.16,1.71-.21,2.33-.56.95-1.44.25-2.18-.04-2.97-1.17-3.12-4.54-5.1-6.55-2.61-2.65-.62-4.51,1.46-6.59,2.34-2.34-1.98-11.15-5.68-12-.54-1.98.69-3.11,2.02-4.19,2.92,1.85,5.36,2.04,8.02-.92,1.58-1.77,4.77-.99,6.9-2.38.74-.14,1.41-.02,1.97.51,1.11.48,1.5,2.61,3.19,1.62,1.37-.8.29-2.02.21-3.1-.35-4.26-.63-8.5-2.22-12.57-.43-1.09-.85-3.42,1.33-3.57,1.78-.12,2.52,1.69,2.09,3.2-.52,1.81.11,2.87,1.43,3.8.77.54,1.56.49,2.21-.24,1.34-1.49.43-2.7-.46-3.97-.88-1.26-.36-2.26.93-2.74,1.46-.55,2.34.27,2.25,1.68-.23,3.91,1.11,7.99-.84,11.68-.66,1.24-.8,2.15-.11,3.14,1.59,2.28.69,3.94-1.38,5.86,6.84-2.69,13.42-5.1,20.2-.33,1.45-5.45,1.11-10.96,1.17-16.44.06-4.72,5.67-8.31,9.97-6.46.96.41.94,1.25.96,2.06.04,1.82.04,3.65.05,5.47.96.83,1.13,1.98,1.31,3.14.94,5.98,1.35,6.38,7.15,6.42,7.65.05,15.29.07,22.94-.02,2.37-.03,5.72.63,5.77-2.99.06-4.03-3.54-3.05-6-3.19-3.15-.17-6.32.09-9.47-.16-1.72-.13-3.69-.61-3.81-2.53-.14-2.34,2.01-2.8,3.88-2.95,3.65-.29,7.31-.17,10.96-.12,3.31.05,4.9-1.2,3.46-4.49-1.04-2.38-.75-4.24.4-6.55,2.33-4.66.04-8.09-5.07-8.16-4.15-.06-8.31-.03-12.46-.06-1.81-.01-3.7.19-5.13-1.34-1.73-3.08-.6-4.07,2.67-4.04,9.75.1,19.51.03,29.26.03h0c-.12,2.46.81,4.6,3.32,4.75,2.84.16,3.16-2.96,4.47-4.73.59-.8-.27-2.79,1.56-2.5,1.77.28.82,1.84.73,2.87-.95,10.8,1.06,21.68-.94,32.43-.49,2.62,1.76,4.52,1.52,7.04-.02.2,1.35.89,1.6.71,2.45-1.83,3.76-1.53,5.2,1.46.86,1.81,2.83,1.13,3.59-.98,1.42-3.99,3.98-3.91,7.04-1.95,2.69,1.73,6.51-.04,8.92,3.4.88,1.26,2.05-.91,1.78-2.28-.35-1.73-.27-2.8,1.8-3.23,14.89-3.14,15.34-15.33,12.97-25.09-.98-4.02-8.56-8.01-12.97-7.93-7.15.13-14.3.06-21.45.02-1.61,0-3.8.22-3.65-2.18.12-1.91,2.1-1.77,3.58-1.77,6.82-.02,13.63,0,20.45-.02,3.27,0,6.19-.14,9.3-2.25,4.36-2.96,1.6,3.4,4.38,3.56,4.6-2,4.58-1.8,14.44-1.03,3.44.27,7.29.63,10.21-2.27,1.38-3.04,3.83-3.39,6.71-2.67,4.79,1.68,9.78.65,14.65.84,6.12.24,8.15,1.35,8.02,7.28-.35,17.07.4,34.14-.47,51.22-.42,8.23.03,16.53.61,24.78.46,6.46-.43,7.67-6.79,7.87-.83.03-1.66,0-2.48.11-3.34.97-6.54,1.52-10.2.72-3.81-.83-7.67,1.35-11.73,1.3-11.74-.14-23.27-3.34-35.1-2.15-3.29.33-6.55.29-9.79,1.35-3.68,1.21-7.61,1.14-11.32.19-11.14-2.86-22.45-.92-33.66-1.39-2.87-.12-3.92,1.9-4.86,4.18-.58,1.4-1.27,3.66-3.23.96-.69-1.45-.3-3.27-1.59-4.99-2.16,2.07-3.11,4.62-3.46,7.05-2.53,17.53-4.49,35.11-1.25,52.78.33,1.8.63,3.6.04,5.41-.21.53-.56.94-1.04,1.24Z"/>
      <path class="cls-96" d="m122.5,433.38c1.07-4.93.44-9.93.44-14.89.04-44.35-.04-88.7-.08-133.06,0-6.82,1.13-7.22,7.93-7.15,17.42.17,34.84-.22,52.26-.39.83,0,1.65,0,2.48,0,2.6,2.77,1.49,6.03,1.22,9.19-.8,2.42-.62,4.92-.62,7.41,0,35.53,0,71.06,0,106.6,0,1.83.03,3.65-.02,5.48-.19,6.53-2.39,8.57-8.93,8.29-1.33-.06-2.66-.1-3.83-.86-1.37-2.65.63-3.22,2.41-3.43,4.27-.48,5.92-2.81,5.85-6.96-.03-1.98.12-3.99.11-5.98-.17-21.44-.17-42.9.17-64.33.25-15.59.09-31.17.37-46.75-.37,15.11-.25,30.22-.33,45.33-.09,16.45-.61,32.9-.24,49.36.14,6.15.06,12.31.01,18.47-.07,8.15-2.09,10.36-10.01,11.27-6.27.72-12.41,2.1-18.49,3.8-5.63,1.58-9.7,6.3-15.45,7.69-.88.21-1.6,1.18-1.51,2.35.11,1.11-.18,2.09-.91,2.93-3.64,2.49-7.35,4.88-11.57,6.32-.5-.08-.93-.3-1.27-.68Z"/>
      <path class="cls-41" d="m185.67,287.12c-.04-3.08-.09-6.16-.13-9.24,1.44-13.07.26-26.19.72-39.28.22-6.3.02-12.62.04-18.92.02-6.7.11-6.78,6.58-6.87,5.47-.08,10.95-.11,16.42-.21,1.84-.03,3.7-.27,4.89,1.62-.43,22.05-.54,44.09.02,66.15.27,10.73.21,21.53.19,32.3-.08,30.05-.05,60.1.03,90.15,0,3.57-1.53,7.27.66,10.72.32,1.6-.53,2.45-1.9,2.96-8.62.81-17.27.34-25.9.27-3.16-.03-4.87-1.35-2.73-4.68,1.08-1.68.65-3.56.65-5.36.02-33.77-.02-67.53.05-101.3.01-6.1.5-12.2.4-18.31Z"/>
      <path class="cls-42" d="m356.33,119.97c-2.42-.68-3.95,1.36-5.95,1.94-1.64,0-3.29-.02-4.93-.02-1.7-1.37-3.39-1.41-5.08.01-1.84-.04-2.59-2.42-4.58-2.14-.63-2.16,1.07-2.51,2.42-2.98,14.49-5.08,29.33-8,44.76-8.33,17.62-.38,34.71,2.12,51.25,8.15,7.97,2.9,15.64,6.52,23.06,10.63,4.24,2.35,4.41,3.8,1.59,7.75-7.56,6.93-14.72,14.29-22.06,21.46-1.24.73-2.13,2.16-3.84,1.96-.48-.13-.82-.42-1.03-.86-.16-.6-.28-1.38-1.17-.64-3.63,2.98-7.09,6.06-11.13,8.65-2.76,1.78-5.39,5.55-7.89,8.59-5.7,6.93-11.85,13.44-18.8,19.1-2.77,2.25-4.51,5.31-7.11,7.6-1.45,1.27-2.97,3.11-5.18,2.1-2.11-.96-1.34-3.13-1.34-4.89,0-18.99,0-37.97.02-56.96,0-3.64.07-7.24.8-10.89,1.51-7.57-.89-9.55-8.61-9.58-5.04-.02-10.21,1.08-15.2-.64Z"/>
      <path class="cls-135" d="m114.02,130.06c-1.7.97-1.13,2.63-1.14,4.03-.05,7.82.13,15.64-.08,23.45-.13,4.82,1.95,6.79,6.57,6.3,2.79-.3,5.56-.74,8.34-1.12,1.45-.2,3.44-1.96,3.96.84.42,2.28.04,4.78-2.25,6.07-1.05.59-2.99.96-3.78.39-4.32-3.13-8.97-.49-13.4-1.13-3.72-.54-5.26,2.01-5.26,5.1,0,6.63-.87,13.31.51,19.87.46,2.16-.39,3.95-.73,5.82-.71,3.92.92,5.54,4.43,5.05,6.38-.89,10.4,1.79,12.86,7.54-1.21.9-3.18.83-3.46-.09-1.46-4.76-4.69-3.46-7.95-2.85-2.5.47-4.31-1.45-6.37-2.4-2.14-.99-3.91-1.42-4.34,1.64-.33,2.33-1.95,2.93-3.85,3.13-1.76.18-2.59-.87-3.23-2.46-1.34-3.3-3.21-2.93-5.73-.91-3.87,3.1-8,5.87-12.09,8.7-.6.42-1.79.76-2.28.46-3.34-2.07-7.06-1.5-10.65-1.89-1.22-.14-2.9-.63-2.82-2.29.1-1.96,1.91-1.54,3.11-1.47,3.29.2,6.56.8,9.84.81,1.48,0,3.98-.2,4.09-1.95.15-2.37-2.67-1.92-4.2-2.59-.72-.32-1.95.13-2.79.56-1.93,1-3.44.49-3.89-1.44-.48-2.09,1.37-2.4,2.89-2.37,3.47.08,6.95-.4,10.42.37,5.44,1.21,9.08-1.89,9.07-7.58-1.23-1.26-1.12-2.8-.46-4.14,2.39-4.91,3.06-10.42,5.49-15.29,1.14-2.36,5.02-4.37.95-7.4-.45-.13-.88-.29-1.32-.44-3.71-.27-7.42-.42-11.11.16-3.45,2.8-2.29,7.32-3.99,10.79-.62,1.26-.69,2.88-1.04,4.33-.39,1.58-.48,3.67-2.73,3.5-2.24-.16-2.76-2.14-2.92-4.04-.27-3.17-1.29-6.09-2.27-9.1-1.3-3.95-3.78-4.94-7.53-4.84-2.57.07-5.35.7-7.66-1.2-1.8-.94-4.43,2.08-5.35-.34-1.12-2.96,3.47-2.9,4.14-5.4.09-.35,1.96-.62,2.79-.32,5.82,2.12,11.58-.91,17.37-.08,1.76.25,3.43.01,5.13,1.25,3.32,2.42,5.95-.76,8.53-2.01,2.16-1.05,3.56-1.25,5.28.33,5.02,4.61,11.52,1.44,17.2,3.07,2.09.6,1.27-2.82.95-3.85-2.9-9.25-1.27-18.58-.8-27.88.19-3.73,2.11-7.96-4.84-7.02-3.13.42-3.58-3.21-3.22-5.09.53-2.77,2.97-3.24,5.47-1.7,3.27,1.75,6.81,1.72,10.38,1.67,1.92-.03,3.92-.23,5.65.98,1.98,3.66.2,5.16-3.27,5.58-1.94.23-3.94.05-5.81.8-.27.04-.55.08-.82.11Z"/>
      <path class="cls-31" d="m465.9,678.21c-2.73,0-4.23-.1-5.71.02-3.14.27-4.96-.74-5.47-4.18-.33-2.24-1.61-4.33-2.33-6.53-.46-1.39-1.04-2.45-2.71-2.31-1.74.15-1.96,1.62-2.3,2.85q-2.76,9.97-13.1,10.08c-9.41.09-9.9-.39-8.74-9.85.51-4.14.65-8.22.04-12.38-.41-2.74-.83-6.05,1.98-7.71,2.95-1.75,6.47-1.09,9.68-.29,1.58.39,2.07,2.02,1.99,3.65-.07,1.49-.25,2.99-.18,4.48.09,1.9-.83,4.84,1.41,5.27,2.76.52,2.65-2.75,3.45-4.61.25-.59.19-1.3.28-1.96.51-3.45,1.58-6.91,5.55-7.2,4.34-.31,5.15,3.31,5.69,6.73.1.65.33,1.28.51,1.92.58,2.08,1.14,5.02,3.6,4.63,2.92-.46,1.54-3.54,1.42-5.45-.44-7.13,4.72-10.77,11.28-7.68,2.45,1.16,2.85,3.69,2.61,6.01-.62,6.13-.1,12.25-.29,18.34-.15,4.75,1.61,6.89-8.65,6.17Z"/>
      <path class="cls-50" d="m237.44,105.23c-.89-3.16.3-6.46-.04-9.75-.42-4.13,1.3-5.63,5.48-5.36,7.24.48,14.5.61,21.76.76,9.57.2,14.42,4.71,14.65,13.79.21,8.45-6,15.51-14.19,16.29-7.94.76-15.86.71-23.81.23-3.1-.19-3.98-1.54-3.87-4.37.14-3.81.03-7.63.03-11.6Z"/>
      <path class="cls-103" d="m300.42,159.72c-4.93,0-8.91-.08-12.89.03-3.03.08-4.05-1.22-3.96-4.22.23-6.97.21-13.94.24-20.92.01-2.7.4-5.42,3.8-5.2,9.09.6,18.24-.84,27.29.93,5.36,1.05,9.24,3.83,10.17,9.44,1.09,6.57-.17,12.36-5.9,16.75-6.09,4.67-13.06,2.61-18.75,3.18Z"/>
      <path class="cls-1" d="m282.16,678.11c-3.82,0-7.64.09-11.46-.02-7.1-.2-11.74-3.98-12.63-10.13-1.26-8.68,2.33-15.41,8.94-18.01,9.7-3.8,19.72-1.37,29.57-2.03,2.28-.15,3.1,1.54,3.1,3.66-.01,7.63-.06,15.27-.01,22.9.02,2.86-1.52,3.8-4.06,3.8-4.48,0-8.97,0-13.45,0v-.17Z"/>
      <path class="cls-55" d="m148.72,559.21c.19,1.87-.2,3.04-1.99,4.47-5.08,4.06-10.35,8.21-14.23,13.32-3.18,4.18-6.95,7.8-10.84,10.72-4.14,3.11-7.62,6.75-10.93,10.44-4.68,5.21-10.64,9.04-14.67,15.07-2.38,3.57-7.06,5.57-10.59,8.41-2.01,1.62-4.16,2.97-1.23,6.23,1.85,2.06.78,5.55.36,8.61-3.55-1.45.93-7.99-5.24-7.36-2.86.29-2.24,2.31-2.51,3.99-7.71-10.34-12.4-22.07-16.26-34.28-4.54-14.38-6.72-29.07-6.46-44.08.44-25.35,6.56-49.04,19.94-70.92,5.91-9.67,12.34-18.77,19.81-27.21.52-.58,1.3-.94,1.95-1.4,1.06,2.54-.8,4.05-2.15,5.6-8.08,9.37-14.88,19.62-20.8,29.72,1.66-1.08,1.18-5.52,5.43-4.63.62,2.36-.74,4.21-1.75,6.06-6.51,11.89-11.4,24.43-13.73,37.76-3.34,19.05-4.38,38.08.6,57.21,2.95,11.31,6.59,22.22,11.84,32.62,2.24,4.42,3.2,4.52,6.81,1.04,20.42-19.7,40.69-39.55,61.08-59.28,1.49-1.44,2.98-3.34,5.56-2.11Z"/>
      <path class="cls-100" d="m378.47,701.7c0-2.66-.07-5.32.02-7.97.09-2.56-.93-6.04,2.26-6.97,3.37-.98,7.12-1.5,10.57.66,3.81,2.39,5.85,6.24,8.39,9.69.83,1.13,1.2,3.1,3.19,2.38,1.48-.54,1.3-2.12,1.37-3.46q.53-10.82,11-9.64c2.34.26,3.08,1.7,2.78,3.83-1.09,7.6-.79,15.22-.26,22.83.14,2-.63,3.18-2.38,3.83-5.34,1.98-12.87-.28-16.19-4.95-1.14-1.61-2.05-3.39-2.99-5.14-.62-1.16-1.54-1.83-2.8-1.6-1.54.29-1.27,1.69-1.37,2.81-.03.33,0,.66,0,1,.06,8-2.43,9.89-10.36,7.93-2.54-.63-3.41-2.33-3.38-4.77.04-3.49.01-6.97.01-10.46.05,0,.1,0,.14,0Z"/>
      <path class="cls-38" d="m524.02,208.75c4.05,8.56,4.91,17.95,5.78,27.05,2.49,26.21-1.85,51.49-13.15,75.39-10.89,23.05-26.76,41.99-47.51,56.82-.52.37-.87.98-1.29,1.48-1.16.87-1.77,2.34-3.17,2.95-7.35,5.22-15.43,8.95-23.9,11.93-1.25.44-2.4,1.13-3.79,1.05-2.47-.76-5.24-.06-7.57-1.52-.36-3.64,2.89-3.6,4.87-4.27,14.82-5.08,27.96-13.21,39.87-23.1,23.43-19.45,38.79-44.05,46.02-73.84,2.53-10.41,3.68-20.92,4.31-31.45.58-9.55-1.06-19.1-2.91-28.52-.22-.47-.37-.97-.5-1.47.09-3.86-2.2-7.45-1.38-11.41,1.22-1.26,2.62-1.76,4.33-1.09Z"/>
      <path class="cls-63" d="m180.4,617.18c-4.36,6.33-10.86,10.52-16.07,16.01-10.6,11.15-22.66,20.82-32.76,32.5-1.39,1.6-3.34,2.7-4.94,4.12-4.03,3.57-3.93,4.09.71,6.95,15.59,9.6,32.72,14.92,50.59,17.98,17.87,3.06,35.61,1.19,53.24-2.38,4.99-1.01,9.6-3.54,14.87-3.49,1.83.02,3.57-.79,4.32-2.78,2,.26,5.14-1.24,5.67,1.23.46,2.12-2.75,3-4.64,3.82-11.98,5.18-24.69,7.67-37.56,8.97-16.42,1.66-32.83,1.03-48.93-3.01-15.11-3.79-29.48-9.44-42.61-17.98-1.11-.72-2.25-1.4-3.38-2.09-.62-.45-1.56-.71-1.11-1.82,2.38.07,3.11-1.17,3.08-3.43-.04-2.8,1.02-4.41,4.33-4.82,3.53-.44,5.38-3.86,7.34-6.47,2.36-3.16,3.92-6.96,8.42-7.75.41-.07.92-.57,1.07-.98,2.07-5.48,8.12-7.41,10.87-12.27,1.55-2.74,4.72-3.64,6.88-5.9,2.79-2.93,5.96-5.86,9.37-8.23,1.51-1.05,2.16-2.18,2.95-3.64,1.72-3.19,4.07-5.69,8.28-4.54Z"/>
      <path class="cls-97" d="m301.76,121.11c-4.15,0-8.31-.05-12.46.01-3.19.05-5.01-1.08-4.96-4.62.09-7.14.48-14.27-.3-21.41-.33-3.02,1.39-5.07,4.8-4.96,8.94.28,17.88.56,26.83.02,3.25-.2,3.8,1.82,3.8,4.49,0,2.84-.67,5.03-4.01,5.06-3.96.04-7.93-.1-11.89-.07-1.58.01-3.83-.42-3.92,1.91-.11,2.64,2.29,2.39,4.05,2.42,3.65.07,7.31,0,10.96,0,1.98,0,4.48-.33,4.51,2.52.03,2.82-2.3,3.29-4.63,3.28-3.82-.01-7.64-.08-11.46-.02-1.6.03-3.81-.21-4.01,1.96-.23,2.59,2.29,2.47,3.95,2.75,4.11.7,8.25-.69,12.41.06,2.19.4,3.95.94,3.93,3.52-.02,2.79-2.03,3.04-4.17,3.04-4.49,0-8.97,0-13.46,0v.03Z"/>
      <path class="cls-91" d="m289.77,605.65c3.16,0,6.32-.02,9.48,0,1.49.01,3.29-.14,3.64,1.77.36,1.9.92,4.09-.45,5.75-1.13,1.37-2.82.55-4.19.04-3.38-1.27-6.92-.67-10.37-.96-1.69-.14-3.09.82-3.16,2.51-.09,2.07,1.81,2.1,3.25,2.19,2.32.13,4.65-.03,6.98.07,5.8.27,9.37,3.49,9.76,8.7.34,4.58-3.93,10.11-8.65,10.82-7.41,1.1-14.82,1.59-22.33.55-3.51-.49-4.53-1.91-4.13-5.2.46-3.78,2.84-3.41,5.47-2.94,3.28.58,6.59,1.09,9.88.21,1.25-.33,2.77-.91,2.41-2.62-.28-1.34-1.68-1.49-2.85-1.53-1.83-.07-3.66.01-5.48-.04-6.73-.18-10.14-2.76-10.63-8-.46-4.91,3.87-10.1,9.42-11.09,1.95-.35,3.97-.3,5.96-.36,1.99-.06,3.99-.01,5.99-.01v.13Z"/>
      <path class="cls-26" d="m286.88,717.09c-3.99,0-7.98-.04-11.96,0-2.83.03-5.28.02-5.38-3.99-.1-4.24,2.13-5,5.63-4.88,3.65.13,7.31.04,10.96-.06,1.63-.04,3.82.01,3.81-2.18-.01-2.19-1.99-2.8-3.99-2.78-4.15.03-8.31.08-12.46.08-1.74,0-3.54-.21-3.66-2.43-.14-2.5,1.78-2.93,3.71-3,4.31-.14,8.63-.06,12.92-.36,1.22-.08,3.6.39,3.39-1.83-.16-1.73-1.89-2.58-3.77-2.58-3.99,0-7.98-.1-11.96-.02-2.35.05-4.44-.03-4.6-3.08-.16-3.06,2.08-3.58,4.29-3.62,8.78-.13,17.57-.15,26.36-.09,2.97.02,4.49,1.71,4.55,4.76.15,7.3-.53,14.6.42,21.91.37,2.85-1.47,4.18-4.32,4.15-4.65-.04-9.3-.01-13.96-.02Z"/>
      <path class="cls-99" d="m201.03,171.3c3.99,0,7.98.15,11.96-.05,3.55-.18,5.42,1.09,5.28,4.79-.14,3.58-1.61,4.93-5.46,4.23-3.56-.65-7.28-.42-10.93-.45-1.77-.02-3.61.65-3.75,2.57-.19,2.54,2.08,2.09,3.63,2.12,3.99.09,7.98.06,11.97.05,1.97,0,3.81.26,3.91,2.75.1,2.59-1.79,2.84-3.74,2.82-3.99-.05-7.98-.15-11.97-.2-1.83-.02-4-.28-4.11,2.36-.13,2.91,2.16,2.9,4.2,2.9,3.99.01,7.98,0,11.97-.07,2.07-.03,3.71.4,3.68,2.91-.03,2.4-1.23,3.67-3.72,3.65-9.14-.08-18.28-.15-27.43-.19-2.54-.01-3.57-1.28-3.54-3.73.09-7.48.15-14.96.18-22.45.01-3.36,1.42-4.7,4.93-4.44,4.3.31,8.64.07,12.96.07,0,.11,0,.22,0,.33Z"/>
      <path class="cls-102" d="m464.82,371.75c.67-1.21,1.54-2.16,3.02-2.27-.23,5.71-.64,11.42-.65,17.13-.07,42.43-.06,84.87-.04,127.3,0,1.81.18,3.65.53,5.42,1.15,5.84-.49,7.91-6.66,7.94-17.13.06-34.26.06-51.39.09-7.07.01-8.36,1.29-8.36,8.29,0,19.8-.13,39.61.09,59.41.05,4.8-1.41,6.56-6.26,6.28-6.13-.35-12.32-.41-18.45,0-5.03.34-6.36-1.83-6.34-6.38.12-19.8.08-39.6.04-59.41,0-1.94.99-4.67-.77-5.64-2.47-1.36-6.2-3-8.25-2.04-5.68,2.63-11.47-.87-16.96,1.34-1.4.56-3.43-.4-4.17,1.79-1.58.42-1.47-.92-1.84-1.77-.17-1.3-.1-2.57.62-3.73.38-.43.84-.54,1.37-.33,8.9.83,17.82.19,26.73.12,2.89-.02,4.23.94,4.91,3.45,2.47,1.98,1.86,4.82,1.87,7.37.08,17.76.03,35.52.04,53.28q0,9.24,9.51,9.25c3.15,0,6.3-.03,9.46-.03,3.31,0,4.73-1.51,4.84-4.83.17-5.46-.56-10.96.64-16.38,1.1-4.92.4-9.91.51-14.87.24-11.43-.32-22.87.31-34.3.14-.64.38-1.23.71-1.79,2.02-2.95,5.16-2.66,8.11-2.67,15.61-.07,31.21,0,46.82-.04,8.26-.02,8.76-.5,8.76-8.73.02-34.38.03-68.77,0-103.15-.01-9.93,1.25-19.85.12-29.82-.38-3.39-.31-6.98,1.14-10.29Z"/>
      <path class="cls-81" d="m457.33,134.91c3.59-3.65,3.57-4.57-.77-6.67-13.45-6.51-26.84-13.12-41.79-15.7-16.02-2.76-31.94-3.32-48.19-1.28-10.07,1.26-19.35,4.89-29.11,6.88-.84.17-1.48.71-1.68,1.62-1.11.33-2.21.71-3.34.97-1.64.39-3.69,1.94-4.64-.71-.78-2.2,1.09-3.35,2.7-4.17,7.4-3.76,15.43-5.9,23.42-7.73,16.91-3.86,34.1-4,51.31-2.17,6.08.21,11.93,1.85,17.8,3.14,4.55.99,9.13,2.36,13.26,4.74,10.59,4.15,21.17,8.33,29.93,15.92-1.64,2.08-1.52,5.61-5.04,6.16-1.4.09-2.83.27-3.88-1Z"/>
      <path class="cls-110" d="m430.32,636.31c-4.31,0-8.63-.17-12.92.05-3.28.17-4.61-1.09-4.34-4.31.24-2.87-.61-6.86,4.03-6.29,4.96.62,5.74-1.64,5.44-5.65-.22-2.97.03-5.98-.28-8.94-.47-4.5,1.6-6.05,5.78-5.66.99.09,1.99,0,2.98,0,6.82-.06,6.97.1,6.67,6.96-.08,1.82-.14,3.65-.16,5.47-.06,6.31.4,6.92,6.59,6.61,2.38-.12,2.94.95,3.08,2.79.11,1.49-.05,3,.1,4.47.37,3.49-1.02,4.73-4.56,4.47-4.12-.3-8.28-.07-12.42-.07,0,.03,0,.06,0,.1Z"/>
      <path class="cls-59" d="m145.38,192.32c.07-1.66.14-3.31.22-4.97.17-3.35-1.22-5.2-4.73-4.48-5.74,1.17-4.74-2.89-4.87-6.08-.14-3.53.24-5.87,5.15-5.54,7.91.53,15.91.27,23.84-.18,4.3-.25,5.02,1.65,5.11,5.22.09,3.37.08,6.06-4.49,5.54-4.25-.49-5.52,1.79-5.18,5.73.28,3.29.12,6.62.23,9.93.06,1.96-.97,3.57-2.61,3.74-3.59.37-7.24.33-10.85.1-1.37-.09-2.03-1.52-2-3.04.04-1.99,0-3.98,0-5.97.06,0,.12,0,.18,0Z"/>
      <path class="cls-28" d="m151.79,88.95c3.16,0,6.95-1.12,9.34.24,5.02,2.84,9,1.59,13.94-.04,8.35-2.75,14.82.17,17.86,9,.26.77.82,1.59,1.82,1.3,1.12-.31.72-1.26.64-2.06-.72-6.79.07-8.19,4.75-8.44,11.45-.62,12.49,0,12.52,7.68.03,6.99-.07,13.97.06,20.96.08,4.39-1.9,5.96-6.22,6.45-7.52.85-12.31-2.26-15.65-8.67-1-1.93-2.62-3.54-4.94-4.76.41,2.36.76,4.73,1.23,7.08.91,4.49-.29,6.08-4.94,6.23-2.49.08-4.99.03-7.48.04-1.49,1.02-3.07,1.02-4.68.38-1.6-.63-3.19-.84-4.71.14-2.12,1.37-4.31,1.35-6.58.47-1.09-.42-2.16-.45-3.35-.25-5.72.96-6.19.61-7.88-5.02-.12-1.19-.13-2.37-.15-3.57.04-7.62-.27-15.24.1-22.85.12-2.48-.14-5.91,4.31-4.3Z"/>
      <path class="cls-104" d="m58.8,146.12c0-3.49,0-6.99,0-10.48,0-.66-.2-1.42.04-1.98,2.41-5.68,7.67-1.87,11.45-3.23,2.35-.84,3.61,1.66,3.61,4.16,0,3.83.16,7.66-.02,11.48-.18,3.74,1.53,5.17,5.07,4.91,1.16-.08,2.34,0,3.49-.14,4.06-.49,5.75,1.22,5.72,5.35-.03,3.86-1.11,5.9-5.44,5.72-5.98-.24-11.99-.32-17.95.08-5.04.34-6.5-1.76-6.09-6.4.28-3.14.05-6.32.05-9.48.02,0,.04,0,.07,0Z"/>
      <path class="cls-71" d="m530.09,663.19c0,2.49.11,4.99-.03,7.47-.14,2.37,1.41,5.71-1.34,6.83-3.65,1.48-7.82,1.24-11.67,0-1.6-.52-1.88-2.23-1.8-3.79.11-2.15.38-4.3.49-6.45.42-8.25-.6-9.32-8.61-9.21-4.61.06-6.31-1.73-6.06-6.2.16-2.76,1.42-4.39,4.27-4.42,6.97-.07,13.94-.05,20.92-.12,2.72-.03,3.95,1.27,3.94,3.94-.02,3.99,0,7.97,0,11.96-.03,0-.06,0-.09,0Z"/>
      <path class="cls-52" d="m526.04,772.93c-13.2,1.09-21.36-11.37-21.73-20.53-.47-11.51,9.77-22.27,20.52-22.36,10-.08,22.9,10.87,22.29,22.96-.53,10.57-9.9,19.9-21.08,19.93Z"/>
      <path class="cls-121" d="m58.77,79.04c-12.2-.29-20.16-10.64-19.76-25.69.21-8.02,10.67-17.48,18.89-17.07,13.21.64,23.27,10.01,23.12,21.47-.15,11.56-12.78,22.39-22.26,21.29Z"/>
      <path class="cls-11" d="m108.08,145.89c0,3.49-.17,7,.04,10.47.26,4.2-1.58,5.56-5.61,5.46-9.45-.21-9.43-.09-9.4-9.76.02-5.66.03-11.32-.16-16.97-.13-3.76,1.58-5.18,5.13-4.82.33.03.68.05.98.18,2.65,1.09,5.95-1.91,8.03.72,2.08,2.62.57,6.12.84,9.22.16,1.82.03,3.66.03,5.49.04,0,.08,0,.11,0Z"/>
      <path class="cls-99" d="m474.45,620.73c0,3.49-.25,6.99.07,10.45.38,4.08-1.3,5.16-5.14,5.03-10.38-.37-10.09,2.3-10.17-10.14-.03-5.31.25-10.63,0-15.93-.16-3.57,1.4-4.83,4.64-4.81,2.32.01,4.64-.08,6.96-.05,2.59.04,3.91,1.13,3.76,4.01-.21,3.8-.05,7.63-.05,11.44h-.08Z"/>
      <path class="cls-53" d="m419.35,662.79c0,3.81-.07,7.61.02,11.42.07,2.98-1.29,4.08-4.21,4.09-9.42.05-9.49.12-10.03-9.18-.33-5.75-.4-11.51-.56-17.27-.09-3.3,1.42-4.71,4.84-4.66,10.23.14,10.23.06,10.04,10.64-.03,1.65,0,3.31,0,4.96h-.09Z"/>
      <path class="cls-79" d="m424.29,702.06c0-3.49-.02-6.97.01-10.46.01-1.15-.26-2.62.33-3.4,3.03-4.05,7.42-.58,11.14-1.69,2.12-.63,3.35,1.73,3.29,4-.2,7.79-.44,15.57-.68,23.36-.06,1.97-1.08,3.06-3.06,3.2-.33.02-.66,0-.99.03q-10.04.7-10.1-9.57c-.01-1.83,0-3.65,0-5.48h.06Z"/>
      <path class="cls-85" d="m225.82,604.24c8.35,0,16.71-.09,25.06.04,3.47.05,5.96,2.07,5.44,5.61-.73,4.95-.31,9.74-.09,14.66.16,3.62-.21,7.59-.6,11.02-.72,6.37-7.12,3.97-11.48,3.44-7.44-.91-14.82-1-22.2.28-2.78.48-4.22-1.91-4.67-3.49-.66-2.3-3.45-5.35.23-7.49,2.51-1.46,2.72-2.73.86-4.89-.65-.76-.96-2.31-.68-3.28.92-3.21,1.25-5.85-1.56-8.66-1.61-1.61,2.2-6.71,5.21-7.17,1.46-.22,2.99-.04,4.48-.04,0,0,0-.02,0-.03Z"/>
      <path class="cls-88" d="m108.72,186.35c0-3.49.07-6.97-.02-10.46-.08-3.24.92-4.82,4.62-4.65,9.85.46,9.87.32,9.9,10.58.02,5.15-.1,10.3,0,15.44.06,3.14-1.15,4.43-4.41,4.47-9.86.13-9.86.23-9.92-9.91-.01-1.83,0-3.65,0-5.48-.06,0-.11,0-.17,0Z"/>
      <path class="cls-108" d="m240.6,127.92c6.15,0,12.3,0,18.46.04,1.91.02,4.29-.7,5.25,1.72,1.09,2.75,2.51,5.88.28,8.5-1.75,2.06-1.53,3.32-.33,5.54,2.27,4.2.91,6.14-3.87,6.21-4.16.06-8.31-.06-12.47-.03-1.11,0-2.63,0-2.49,1.63.09,1.16,1.38,1.27,2.39,1.28,3.82.02,7.65-.05,11.47,0,3,.04,6.37-.27,6.28,4.29-.09,4.42-3.08,4.86-6.55,4.83-7.98-.07-15.96-.02-23.94-.06-7.1-.03-8.32-1.28-8.37-8.48,0-.83-.03-1.66-.04-2.49,1.75-4.89,1.52-10.09,1.26-15.04-.38-7.17-.21-7.96,6.71-7.95,1.99,0,3.98,0,5.97,0Z"/>
      <path class="cls-48" d="m136.72,135.95c-.02.33-.12.68-.05.99.41,1.95-.76,5.17,2.13,5.3,2.47.11,2.63-2.91,2.96-5.02,1.09-7.06,1.65-7.5,8.89-7.42,2.98.03,5.97-.07,8.96-.09,3.22-.02,4.81,1.53,4.99,4.82.41,7.28-1.11,14.49-.24,21.84.49,4.14-2.57,5.41-9.19,5.37-4.15-.02-5.69-1.95-5.48-5.83.08-1.49.09-2.99.04-4.48-.04-1.3.04-3.02-1.7-3.07-1.66-.05-1.85,1.72-2.06,2.94-.4,2.28-.53,4.55-1.75,6.67-1.32,2.28-2.66,4.46-5.67,3.83-2.98-.62-4.83-2.67-5.5-5.68-.11-.48-.04-.99-.08-1.49-.2-2.07-.8-4.52-3.12-4.23-1.99.25-.89,2.79-1.06,4.31-.26,2.38.91,5.78-2.01,6.58-3.57.97-7.6,1.44-11.23.04-1.8-.7-1.76-3.02-1.75-4.87.07-8.8.15-17.59.22-26.39,0,0-.1-.03-.1-.03,5.84-1.98,11.96-1.61,17.94-1.59,3.49.01,3.99,3.86,4.87,6.66,0,.28,0,.57,0,.85Z"/>
      <path class="cls-118" d="m123.84,123.94c-3.44,0-6.89-.11-10.32.03-2.57.1-4.48-.69-5.62-3.05.66-8.32.5-16.63.11-24.95-.2-4.31,3.26-7.69,7.1-6.88,6.62,1.38,13.15,1.02,19.72-.12,3.91-2.31,7.68-2.03,11.33.6,1.65,3.04.83,6.33.97,9.52-1.12,3.65,1.09,7.16.52,10.79-.36,1.27-.58,2.58-1.05,3.83-.99,2.68-2.66,4.14-5.71,3.21-1.59-.49-3.29-.42-4.89-.76-4.34-.95-7.7-.9-8.09,4.94-.11,1.64-1.26,3.99-4.07,2.86Z"/>
      <path class="cls-66" d="m235.2,647.11c4.32,0,8.65.17,12.95-.05,3.57-.19,5.26,1.07,5.24,4.75-.03,7.64.1,15.28.14,22.92.01,2.81-1.37,4.35-4.26,4.34-9.64-.02-19.27-.02-28.91-.06-3.96-.02-3.7-2.89-3.8-5.63-.1-2.91.95-4.33,4.03-4.22,3.98.14,7.97.13,11.96.05,1.5-.03,3.79.61,3.66-2.01-.09-1.95-1.94-1.95-3.46-1.93-3.32.04-6.65.07-9.96.18-2.63.09-5.53,0-5.63-3.29-.11-3.52,2.82-3.38,5.45-3.27,3.15.14,6.31.16,9.46.14,1.58-.01,4,.41,3.84-1.87-.15-2.16-2.53-1.47-4.11-1.45-3.49.04-6.98.09-10.46.18-3.45.1-4.7-1.69-4.65-4.96.05-3.18,1.85-3.86,4.56-3.82,4.65.08,9.3.02,13.95.02,0,0,0-.01,0-.02Z"/>
      <path class="cls-16" d="m343.87,656.66c-1.45-2.1-3.25-1.47-4.81-1.52-3.48-.1-6.97.03-10.45-.1-2.76-.11-4.11-1.72-4.26-4.5-.17-3.04,1.54-4.23,4.2-4.34,2.48-.1,5.01-.22,7.45.13,7.04,1.01,14.06.22,21.07-.06,3.04-.12,4.36.92,4.36,3.87,0,8.3-.03,16.6.02,24.9.02,2.96-1.36,4.18-4.26,4.15-9.79-.08-19.58-.17-29.37-.07-3.11.03-3.67-1.63-3.44-4.08.26-2.71-1.36-6.58,3.41-6.86,3.62-.21,7.27-.17,10.91.4,1.66.26,4.3.26,4.32-1.95.02-2.32-2.58-1.38-4.04-1.45-3.48-.15-6.97-.01-10.45,0-2.51.02-4.24-.87-4.16-3.72.07-2.57,1.55-4.01,3.99-4.22,1.97-.17,4.1-.37,5.94.18,3.24.97,6.17.35,9.57-.77Z"/>
      <path class="cls-74" d="m333.82,627.19c-3.96-1.79-8.35-.52-12.36-2.4-4.29-2.02-7.44-4.41-6.94-9.64.47-4.86,5.18-9.99,9.63-10.87,8.09-1.59,16.17-.49,24.24-.07,2.03.1,4.16.92,4.69,3.09.49,2.02.96,4.46-.73,6.18-1.62,1.65-3.7,2.03-5.93.79-3.09-1.72-6.52-.76-9.8-1.02-1.01-.08-2.11.19-1.95,1.58.12,1.04,1.06,1.15,1.9,1.16,2.33.03,4.66,0,6.98.06,6.18.16,9.68,3.24,9.94,8.71.33,6.88-3.23,11.52-9.16,12.59-7.44,1.34-14.9.89-22.36.7-4.98-.13-7.01-2.41-6.43-6.71.66-4.84,3.78-4.41,7.43-3.62,3.54.77,7.2.64,10.83-.51Z"/>
      <path class="cls-135" d="m148.7,119.93c.51,3.3,2.01,4.82,5.71,4.08,4.07-.82,8.35,1.25,12.47-1.86,2.09-1.58,4.81,2.62,7.84,1.79-.69,1.57-2,1.92-3.59,2-2.68.14-3.34,1.61-2.35,3.99,2.1,5.33,2.28,10.64-.11,15.94-2.18,2.45.2,5.83-1.88,8.81-1.36-1.76-2.2-3.37-1.7-5.39,1.34-5.39.4-10.85.62-16.28.12-2.92-.93-4.44-4.28-5.42-3.25-.95-5.75-3.12-8.93.09-.74.75-2.58.42-3.76-1.19-2.73-3.75-4.34-3.44-6.6.62-1.28,2.29-1.42,4.68-1.39,7.18.01,1.1.42,2.45-.8,3.17-1.69.99-2.09-1.15-3.25-1.5,0,0,.03.01.03.01-.49-1.04-1.21-1.95-1.43-3.13-.6-3.17-2.06-5.49-5.67-5.85-1.33-.13-2.66-.85-2.92-2.31-.28-1.6.68-2.74,1.96-3.7,3.79-2.85,7.49-5.32,12.43-2.13,2.21,1.43,5.27-1.03,7.57,1.08Z"/>
      <path class="cls-131" d="m199.24,203.8c4.67.3,10.56-.54,16.16,1.73,1.07.43,1.81-.24,2.48-1.12,1.28-1.69,3.03-2.43,4.56-.59,1.58,1.89,2.02,4.5.48,6.46-1.14,1.46-3.45,3.07-5.24,2.22-7.31-3.47-14.94-.88-22.36-1.7-1.31-.14-2.66.04-3.98-.04-5.89-.37-6.56.24-6.62,6.36-.03,2.33,0,4.65-.02,6.98-.01,1-.01,2.15-1.26,2.39-1.36.26-2.08-.62-2.56-1.82-3.75-9.47,3.76-20.87,13.77-20.87,1.16,0,2.32,0,4.6,0Z"/>
      <path class="cls-39" d="m339.04,529.24c.39.59.78,1.18,1.17,1.76.12,1.27-.1,2.68,1.3,3.48,1.11,3.41-.35,7.02.81,10.42.49,14.41-.24,28.75-3.07,42.89-.77,3.86-.38,8.94-5.92,10.29-.97-1.84-1.33-3.8-.64-5.76,5.42-15.32,4.89-31.22,4.72-47.1-.02-1.65-.01-3.31-.02-4.96-1.18-3.09.09-6.32-.52-9.47-.23-1.17.65-2.13,2.17-1.56Z"/>
      <path class="cls-23" d="m96.03,177.8c-1.93,6.66-4.93,12.98-6.2,19.84-1.98,5.11-5.73,6.76-11.04,6.14-3.11-.36-6.33-.26-9.45.11-4.15.48-6.22-1.62-7.34-5.13-2.51-7.88-4.9-15.8-7.46-23.66-.62-1.92-.63-3.55.68-5.12,3.46-.01,6.93-.04,10.39-.03,6.07.01,5.73,5.47,7.36,9.04.92,2.01.69,4.54,1.03,6.82.17,1.14.39,2.51,1.91,2.4,1.3-.1,1.19-1.43,1.2-2.35.04-4.71,2.83-8.83,2.88-13.48.02-1.98,1.71-2.24,2.5-3.38,4.4,1.16,9.01-.55,13.39.95l-.06-.03c4.78,2.5,1.9,5.21.21,7.89Z"/>
      <path class="cls-95" d="m460.97,719.04c-4.15,0-8.31-.06-12.46.02-4.75.09-5.22-3.12-5.32-6.68-.1-3.58,1.1-5.7,5.21-5.39,3.3.25,6.64.1,9.97.07.94,0,2.26.18,2.29-1.21.02-1.15-1.09-1.62-2.11-1.64-3.32-.08-6.64-.11-9.97-.06-1.75.02-3.74.99-4.79-1.28-1.22-2.65-.7-5.2.84-7.55,1.23-1.88,2.99-2.69,5.15-1.85,1.94.75,3.93.47,5.9.64,3.94.34,7.12-.14,6.54-5.32-.02-.16,0-.35.09-.49,3.34-5.96,8.95-2.48,13.5-3.04,3.28-.41,4.35,2.24,4.32,5.34-.07,7.26-.04,14.53,0,21.8.03,4.54-2.19,6.71-6.7,6.67-4.15-.03-8.31,0-12.46,0Z"/>
      <path class="cls-34" d="m382.67,637.1c-4.65,0-9.3-.05-13.95.02-3.45.05-5.22-1.31-5.23-5-.01-3.72,1.73-5.03,5.22-4.93,3.65.11,7.31.07,10.96-.04,1.68-.05,4.29.71,4.32-1.94.03-2.57-2.44-2.05-4.23-2.03-3.49.05-6.98.17-10.46.08-2.32-.06-5.1-.14-5.03-3.41.06-3.01,2.49-3.56,5.01-3.54,3.99.03,7.97.08,11.96.07,1.29,0,3.17.2,3.23-1.47.07-2.05-1.93-1.86-3.38-1.85-3.82.02-7.64.13-11.46.16-2.87.03-5.48-.44-5.49-4.14,0-3.74,2.52-4.06,5.47-4.04,8.97.07,17.94.06,26.91,0,2.93-.02,4.68.61,4.54,4.19-.31,7.8-.44,15.61-.29,23.41.07,3.58-1.18,4.73-4.64,4.55-4.47-.23-8.97-.06-13.45-.06,0-.01,0-.03,0-.04Z"/>
      <path class="cls-51" d="m78.03,485.47c-3.41,1.74-3.72,6-7.07,8.87.12-5.77,4.46-8.56,6.22-12.62,3.64-8.42,10.39-14.71,15.85-21.89,1.11-1.46,2.29-2.8,2.79-4.6,7.72-8.71,17.6-14.8,26.67-21.86.39.04.79.08,1.18.12.83,1.36-.16,2.94.52,4.33-1.06,3.42-4.8,3.96-6.83,6.35-11.61,8.54-21.56,18.79-30.65,29.93-3.66,2.95-5.4,7.32-8.12,10.97-.19.13-.38.26-.57.39Z"/>
      <path class="cls-135" d="m146.77,109.9c.68-3.42-2.97-6.42-.93-9.97.73-3.32.87-6.64-.07-9.96-3.51-1.9-7.31-.6-10.95-1.01-5.92-2.22-12.05-.6-18.07-.91-2.55-.13-3.53-.57-2.96-3.34.5-2.43.86-3.4,3.36-1.53,2.46,1.84,5.46,1.15,8.4,1.31,5.56.31,11.49-1.67,16.75,1.69.88.56,1.87.81,2.73-.04,4.81-4.81,10.73-.25,15.97-1.82,1.01-.3,3.41.81,3.19,2.46-.27,2-2.43.95-3.77,1.18-2.86.48-5.94-1.01-8.63,1-2.91-.22-3.04,1.67-3.03,3.83.02,8.05-.04,16.1-.06,24.15-2.31,2.36-3.18.73-2.87-1.38.27-1.87.08-3.88.95-5.66Z"/>
      <path class="cls-67" d="m507.98,604.52c11.38-.76,11.35-.65,14.42,11.02,1.3,4.94,3.12,9.76,4.94,14.54,1.88,4.93.77,6.61-4.46,6.19q-11.09-.88-13.1-11.98c-.15-.82-.24-1.65-.48-2.44-.41-1.37-.52-3.45-2.33-3.28-1.88.17-1.32,2.31-1.65,3.67-.94,3.85-1.91,7.69-2.91,11.53-.42,1.63-1.54,2.6-3.2,2.65-3.48.09-6.96.1-10.44.04-2.47-.04-3.2-1.52-2.49-3.69,2.71-8.31,5.4-16.62,8.27-24.88.83-2.4,2.84-3.51,5.5-3.39,2.47.11,4.96.02,7.92.02Z"/>
      <path class="cls-27" d="m198.73,150.98c0-1.66-.07-3.32.02-4.97.16-3.01-1.25-4.01-4.19-4.06-5.38-.08-6.17-1.45-5.8-8.16.27-4.87,3.62-5.06,7.06-4.64,7.76.95,15.51.81,23.25.04,2.91-.29,5.31.29,5.3,3.5-.01,3.44,2.03,8.72-3.77,9.1-5.5.36-6.29,3.07-5.96,7.42.06.82-.02,1.66-.02,2.49q-.06,9.02-8.46,9.95c-5.99.66-7.38-.59-7.4-6.69,0-1.33,0-2.65,0-3.98h-.02Z"/>
      <path class="cls-81" d="m524.02,208.75c-1.17.69-2.39,1.19-3.79,1.02-2.81.17-1.95-1.83-1.96-3.31,3.09-5.18-.66-9.28-2.51-13.42-4.52-10.09-9.64-19.89-15.69-29.18-1.15-.03-2.33.05-3.01-1.22-3.35-6.24-8.83-10.83-13.62-15.71-3.53-3.6-7.38-7.64-12.25-9.94-2.64-1.25-3.45-3.23-3.04-5.93,9.55,4.71,16.72,12.41,23.75,19.98,12.57,13.53,22.19,29.11,28.9,46.37,1.42,3.64,2.16,7.55,3.21,11.33Z"/>
      <path class="cls-54" d="m318.42,689.05c2.94-3.8,7.45-3.28,11.37-3.65,5.59-.53,11.27-.17,16.91-.16,4.03.01,6.02,1.77,5.87,6.11-.24,6.8-.25,13.61-.04,20.41.15,4.84-2,6.46-6.61,6.31-8.6-.29-17.22.03-25.81-.87-5.93-.62-12.99-9.26-11.24-15.2,1.54-5.23,1.94-11.93,9.53-12.94.57,1.78-.65,2.84-1.71,3.82-2.92,2.67-3.85,6.09-4.05,9.85-.36,6.76,2.74,10.82,9.55,11.56,7.59.82,15.23.32,22.86.24,2.37-.02,3.71-1.23,3.79-3.66.2-6.14.14-12.27.04-18.41-.04-2.71-1.63-3.92-4.15-3.85-6.92.2-13.92-1.09-20.72,1.28-1.91.67-3.93.76-5.6-.84Z"/>
      <path class="cls-16" d="m399.24,667.2c3.33,2.98,1.58,6.88,1.02,10.01-.5,2.79-4.14,1.9-6.57,1.91-7.64.03-15.29-.07-22.93.05-3.88.06-6.43-.85-6.46-5.44-.05-7.24.39-8.34,5.74-8.48,3.54-.1,4.25-2.1,4.17-4.81-.08-2.79.01-5.59-.11-8.35-.22-5.11,2.09-6.47,6.62-5.93,1.46.17,3.05.19,4.46-.18,4.37-1.13,5.76,1.42,6.11,4.93.27,2.8.25,5.67,0,8.47-.42,4.47.82,7.17,5.89,6.68.86-.08,1.63.23,2.04,1.1-7.15,3.11-10.95.89-11.3-6.63-.09-1.99-.08-3.98-.06-5.97.04-3.24-1.33-4.92-4.72-4.94-3.38-.02-5.92.84-6.23,4.75-.13,1.66-.16,3.32-.1,4.97.16,4.66-.43,8.7-6.28,9.41-2.32.28-2.67,2.17-2.49,4.16.2,2.18,1.79,2.62,3.54,2.66,7.62.17,15.24-.02,22.86.15,2.26.05,3.26-1.21,3.39-3.38.1-1.81.07-3.68,1.43-5.15Z"/>
      <path class="cls-56" d="m480.09,662.79c0-3.82.06-7.64-.02-11.45-.07-2.92,1.24-4.34,4.15-4.29.33,0,.66,0,1-.02q11.25-.37,11.46,10.93c.1,5.31.26,10.61.4,15.92.09,3.48-1.56,5.28-5.08,5.24-12.7-.15-12.13.75-11.86-11.34.04-1.66,0-3.32,0-4.98-.02,0-.03,0-.05,0Z"/>
      <path class="cls-135" d="m168.75,164.85c.14,1.73-1.41,2.6-1.99,3.96-9.61,0-19.22.07-28.83-.02-1.46-.01-3.64,1.14-3.75-2.26-.12-3.61,2.14-2.49,3.87-2.67,1.31-.14,3,.31,3.88-.35,5.12-3.87,8.89.63,13.12,1.95.82.26,1.34,1.53,2.42.48,3.15-3.08,7.55-2.72,11.31-4.13.15.17.3.35.46.52.35.94.32,1.81-.5,2.51Z"/>
      <path class="cls-19" d="m168.68,145.87c.04-5.31.07-10.63.11-15.94.35-.34.65-.76,1.06-1.01,2.05-1.27,11.86-.53,13.85,1.01-2.44,2.04-5.37,1.3-8.11,1.33-3.16.03-4.48,1.39-4.45,4.52.06,6.45.06,12.91,0,19.36-.03,3.65,2.02,4.47,5.12,4.34,3.1-.13,6.84.58,6.96-4.13.14-5.44.56-10.9-.38-16.33-.53-3.07-1.26-6.23.87-9.07,1.86,1.3,1.98,3.27,1.98,5.26,0,8.88,0,17.75-.01,26.63-.66.03-1.31.07-1.96.1-4.98,1.39-9.97,3.13-14.92-.11,0,0,.01,0,.01,0-.04-5.32-.08-10.63-.12-15.95Z"/>
      <path class="cls-69" d="m117.81,675.21c.37.61.74,1.21,1.1,1.82-5.73-2.21-10.52-5.93-14.68-10.26-3.1-3.22-8.16-4.59-9.31-9.66,6.21,3.65,10.75,9.36,16.7,13.35,2.16,1.45,4.13,3.16,6.19,4.75Z"/>
      <path class="cls-77" d="m436.31,113.83c-10.35-2.63-20.71-5.25-31.06-7.88,10.58-.59,20.38,2.61,30.07,6.28.47.18.67,1.05.99,1.6Z"/>
      <path class="cls-131" d="m281.4,102.75c-.87-4.29-1.55-7.18-4.12-9.23-1.08-.86-1.11-2.7.46-3.23,1.57-.53,4.12-1.17,4.5,1.25.51,3.21.89,6.63-.84,11.21Z"/>
      <path class="cls-131" d="m272.54,123.91c-.2-4.91,3.83-5.91,6.92-7.77-.9,3.89-3.19,6.5-6.92,7.77,0,0,0,0,0,0Z"/>
      <path class="cls-131" d="m212.42,182.56h-11.69c0-.17,0-.33,0-.5h11.71c0,.17-.01.33-.02.5Z"/>
      <path class="cls-131" d="m281.85,108.1c.83,2.07,1,3.66-.72,6.46-.56-2.93-1.19-4.55.72-6.46Z"/>
      <path class="cls-102" d="m342.31,544.9c-1.36-3.39-.72-6.94-.81-10.43,1.83,3.36.57,6.95.81,10.43Z"/>
      <path class="cls-131" d="m340.37,121.9c1.69-3.11,3.38-3,5.08-.01-1.69,0-3.39,0-5.08.01Z"/>
      <path class="cls-7" d="m399.8,575.97c-.09,6.64-.3,13.27-.22,19.91.03,3.02-1.05,4.15-4.07,4.09-6.64-.13-13.28-.19-19.91.05-4.21.15-3.44-2.68-3.44-5.02,0-20.1.07-40.19.09-60.29,0-1.99-.16-3.97-.25-5.96.07-18.25.17-36.5.22-54.74.07-26.23.12-52.46.18-78.69.64-1.88,1.84-3.08,3.94-3.07,7.21.04,14.44-.66,21.63.44,1.57.7,2.67,1.85,3.29,3.46.84,2.75.63,5.59.62,8.41-.18,30.39.29,60.77-.22,91.16-.13,7.78.15,15.6.24,23.4.03,2.7-.31,5.29-1.5,7.74-.11.42-.23.83-.34,1.25-.62,15.96-.15,31.92-.25,47.88Z"/>
      <path class="cls-127" d="m364.44,393.41c5.79,3.58,6,9.21,5.94,15.2-.31,33.38-1.63,66.74-1.02,100.13.08,4.17-3.19,7.8-1.61,12.35.5,1.42-1.37,1.85-2.7.62-2.85-2.65-2.35-5.66-.5-8.39,1.34-1.97,1.86-3.63,1.06-5.97-.51-1.5-.25-3.29-.25-4.94-.01-31.59,0-63.18-.02-94.76,0-1.82-.03-3.66-.29-5.45-.42-3-1.69-4.24-5.26-4.98-5.62-1.18-11.53-1.38-16.91-3.75-1.24-.54-2.01-1.41-2.06-2.53-.08-1.79,1.57-1.22,2.59-1.47,3.7-2.33,6.56,1.28,9.92,1.39,3.15,2.49,7.19.45,10.52,2.04.2.18.39.35.58.53Z"/>
      <path class="cls-133" d="m278.85,437.31q-5.68.34-2.8,4.78c.48.74.58,1.55.17,2.31-.43.79-1.08.51-1.61.06-2.87-2.4-4.62-.27-6.66,1.46-1.78,1.51-3.39,3.51-6.11,3.42-.43-3.96,3.28-4.95,5.28-7.09,3.58-3.83,3.63-3.61-.67-6.24-13.06-7.99-27.33-12.58-42.2-15.69-2.02-.42-5.32.48-5.61-3.27,4.91-2.67,9.79-.63,14.52.44,2.19.5,4.3,1.14,6.56,1.12,14.24,3.73,27.55,9.41,39.14,18.69Z"/>
      <path class="cls-128" d="m339.04,529.24c-1.6,3.52-1.58,7.28-1.65,11.03-1.69-7.82-3.67-15.6-4.93-23.5-.53-3.33-3-5.9-2.84-9.32,2.34-5.27-1.81-8.97-3.43-13.18-.91-2.35-2.09-4.43-1.61-7.02,2.97,3.48,4.47,7.75,6.22,11.86,1.99,4.68,3.77,9.45,5.64,14.19,1.88,3.8-.17,8.57,2.96,12.06-.12,1.29-.23,2.59-.35,3.88Z"/>
      <path class="cls-29" d="m253.3,306.66c-4.89-9-6.8-19.02-9.86-28.65.11-.3.31-.51.61-.63,2.49-1.36,4.01.05,5.39,1.88,3.11,7.57,4.8,15.64,8.05,23.17.16,1.01.1,1.98-.43,2.89-.2.26-.63.56-.71.46-1.81-2.4-2.14.27-3.06.88Z"/>
      <path class="cls-14" d="m253.3,306.66c.18-1.4.36-2.8.54-4.22,2.2.12,1.25,2.6,2.69,3.14,2.35,2.22,3.57,5.27,5.65,7.69,1.06,2.75,3.22,5.07,3.23,8.24,1.34,3.36,4.6,5.91,4.2,10-2.3.58-2.51-1.54-3.37-2.7-1.81-2.46-3.17-5.28-5.7-7.17-1.68-5.35-6.61-9.12-7.25-14.97Z"/>
      <path class="cls-116" d="m398.11,393.5c-6.96.08-13.91.24-20.87.17-1.92-.02-3.54.17-4.84,1.64-2.05-3.18-5.25-1.49-7.96-1.89,0,0-.01.04-.01.04-2.71-1.11-5.69-.61-8.46-1.36-1.61-1.27-3.48-1.48-5.45-1.72-1.67-.21-4.33-.42-2.57-3.49,2.37-1.08,4.94-1.08,7.27-.38,6.43,1.95,13.16,2.15,19.63,3.79,6.01,1.52,12.14.48,18.2.87,1.92.12,4.48-.8,5.06,2.34Z"/>
      <path class="cls-123" d="m239.71,418.61c-2.38,1.63-4.66.64-7.08-.08-4.59-1.37-9.31-1.66-14.07-1.04-4.37,2.16-8.7,2.43-12.97-.25,2.17-2.88,5.35-.32,7.85-1.45.55-.75,1.1-1.5,1.65-2.24,8.6-.23,16.8,1.5,24.62,5.07Z"/>
      <path class="cls-90" d="m260.55,321.63c4.26,0,4.08,4.57,6.56,6.46,1.08.83.93,2.79,2.51,3.41,0,0,.01.05.01.05,3.21,1.93,3.54,6.24,6.74,8.17,1.06,1.29,2.12,2.58,3.18,3.88.61,1.12-.3,1.47-.99,1.92-7.4-6.91-13.37-14.9-18.02-23.88Z"/>
      <path class="cls-72" d="m278.57,345.52c.33-.64.66-1.28.99-1.92,4.65,4.31,9.99,7.96,12.96,13.84.25,1.02.01,1.55-1.15,1.18-5.48-3.18-8.49-8.77-12.79-13.1Z"/>
      <path class="cls-24" d="m308.44,369.58c1.33.03,2.65.06,3.98.08.23.03.46.06.69.08,3.66,2.72,8.11,4.24,11.41,7.51.48,1.07,0,1.83-.79,2.5-.48.22-.9.14-1.29-.21-5.21-2.56-11.52-3.56-14-9.97Z"/>
      <path class="cls-124" d="m301.6,363.49c2.44,1.85,5.73,2.76,6.84,6.11-5.16,1.04-7.2-3.07-9.95-6.02,1.01-.93,2.06-.77,3.11-.08Z"/>
      <path class="cls-80" d="m339.39,525.36c-2.37.13-3.05-1.15-2.97-3.32.1-2.91.02-5.83.01-8.74,2.74,3.48,1.9,8.15,3.93,11.87-.32.06-.65.13-.97.2Z"/>
      <path class="cls-82" d="m347.21,387.58c1.06,1.78,2.82,1.93,4.62,2,1.75.07,3.63-.15,4.53,1.93-.95.91-1.96.81-3,.17-3.63.67-6.36-2.69-9.95-2.23-.34-.63-.68-1.26-1.02-1.89.98-1.16,2.24-1.17,3.57-.89.51.17.92.47,1.24.91Z"/>
      <path class="cls-70" d="m301.6,363.49c-1.04.03-2.08.06-3.11.08h0c-1.72-1.79-3.77-3.06-6.06-3.98-.35-.32-.71-.65-1.06-.97.39-.39.77-.78,1.16-1.18,4.85-.74,7.02,2.58,9.08,6.04Z"/>
      <path class="cls-116" d="m340.21,385.71c-3.29.93-5.67-1.8-8.64-2.17-.7-.39-.78-1.01-.61-1.71.21-.41.52-.72.93-.94,1.31-.49,2.65-.45,3.99-.14.43.12.84.3,1.24.51,1.29,1.1,3.49,1.18,3.8,3.38-.07.46-.31.81-.7,1.06Z"/>
      <path class="cls-109" d="m331.21,381.78c.12.59.24,1.17.37,1.76-3.77.33-6.49-1.75-9.13-4,.38-.09.76-.18,1.14-.26,3.34-1.61,5.76-.4,7.63,2.5Z"/>
      <path class="cls-136" d="m300.42,455.68c-2.4-1.69-5.53-2.68-6.02-6.23,2.87,1.24,5.63,2.59,6.02,6.23Z"/>
      <path class="cls-116" d="m346.48,387.49c-1.36.03-2.72.05-4.08.08-1.23-.03-1.95-.66-2.19-1.86,0,0,.28-.28.28-.28,4.47-1.73,5.11-1.51,5.99,2.06Z"/>
      <path class="cls-124" d="m292.42,359.59c3.16-.42,5.21.87,6.06,3.98-2.65-.37-4.31-2.23-6.06-3.98Z"/>
      <path class="cls-136" d="m308.3,463.61c-2.58-.19-3.61-1.84-3.96-4.16,2.31.44,3.69,1.77,3.96,4.16Z"/>
      <path class="cls-46" d="m205.53,416.66c4.27,1.43,8.66.87,13.02.83,7.45,1.96,14.89,4,22.37,5.87,10.64,2.66,19.98,8.24,29.61,13.14,2.44,1.24,1.67,2.8.06,4.27-3.01,2.76-6.45,5.1-8.78,8.56-.46.35-.92.7-1.38,1.05-5.16,5.14-10.48,10.12-15.73,15.16-.18.23-.24.48-.17.76-2.3,4.33-6.25,7.13-9.71,10.37-2.05,1.92-3.9,4.02-5.84,6.04-4.95,3.04-7.91,8.21-12.49,11.67-1.29.98-2.46,2.14-3.87,2.97v-.02c-9.42,9.82-19.25,19.22-28.88,28.82-9.98,9.95-20.84,18.98-30.23,29.52-1.36,1.53-3.19,2.35-4.78,3.55,0,0-.04-.01-.04-.01-7.09,3.61-11.76,10.05-17.33,15.35-15.1,14.37-29.72,29.24-45.02,43.41-2.06,1.9-3.89,4.04-5.85,6.05-2.06,2.11-3.69,1.79-5-.84-5.38-10.79-9.52-21.97-12.85-33.63-5.03-17.56-3.94-35.19-2.59-52.83.65-8.5,3.49-16.8,6.13-25.01,2.96-9.21,8.19-17.36,11.83-26.24,0,0-.03,0-.03,0,2.51-4.1,5.16-8.12,7.98-12.02,8.98-11.33,18.87-21.74,30.83-30.01,5.1-1.83,8.13-6.61,12.91-8.98,10.46-5.19,21.11-9.62,32.48-12.63,8.97-2.38,17.98-4.05,27.13-5.28,5.41-.57,10.82-1.19,16.21.12Z"/>
      <path class="cls-117" d="m148.75,559.23c4.77-6.57,11.09-11.63,16.81-17.26,14.4-14.16,28.93-28.19,43.41-42.27,1.06-1.03,1.97-2.3,3.66-2.36-1.31,6.7-6.02,11.01-11.19,14.54-2.47,1.69-5.02,3.31-6.57,5.67-2.21,3.38-7.08,4.46-7.65,9.21-.08.69-1.34,1.54-2.2,1.78-2.46.68-3.57,2.7-5.27,4.23-7.19,6.46-12.28,15.34-21.68,19.33-1.25.53-2.04,2.01-2.62,3.49-1.16,2.98-3.43,4.34-6.71,3.62Z"/>
      <path class="cls-17" d="m324.53,497.21c-.71,3.86,1.19,7.36,2.75,10.33,4.27,8.11,3.02,17.08,5.1,25.47.18.75-.07,1.6-.16,3.07-4.63-4.47-5.71-9.75-5.68-15.1.04-6.98-.46-13.48-5.24-19.19-2.68-3.21-1.58-5.81,2.83-6.43.13.61.26,1.23.4,1.84Z"/>
      <path class="cls-3" d="m212.64,497.36c4.73-5.62,9.57-11.12,15.96-14.98,1.3-1.65,2.58-3.34,5.06-2.98-.78,3.22-1.28,6.67-6,6.03-1.82-.25-1.37,1.48-1.71,2.41-1.8,4.92-8.03,9.42-13.3,9.52Z"/>
      <path class="cls-111" d="m233.65,479.4c-1.69.99-3.37,1.99-5.06,2.98,4.21-6.46,10.21-11.14,15.95-16.07,1.34,4.67-3.06,6.17-5.12,8.84-1.41,1.82-3.82,2.86-5.78,4.25Z"/>
      <path class="cls-92" d="m244.72,465.55c4.14-6.2,9.73-10.9,15.73-15.16.21,4.13-4.4,4.26-6.01,7.17-1.48,2.68-5.22,3.85-6.49,7.22-.41,1.08-2.1.66-3.23.77Z"/>
      <path class="cls-5" d="m518.89,205.87c.15,1.4-.3,3,1.33,3.9.48,4.01,2.16,7.82,1.92,11.94-3.04,0-2.13-3.26-3.44-4.31-.53,14.57,6.19,28.8,2.91,43.78,1.19-3.55,1.24-14.68.52-19.68-.69-4.74-1.59-9.48-1.49-14.3.04-1.96-.19-4.03,1.49-5.56,3.26,3.99,1.87,8.97,2.5,13.43,2.17,15.41.91,30.74-2.71,45.89-3.16,13.23-7.59,25.95-14.41,37.78-12.21,21.2-28.7,38.12-49.57,50.98-9.2,5.67-19.31,9.18-28.95,13.79-6.89,4.64-15.16,4.37-22.8,6.15-15.58,3.63-31.31,1.63-46.69-1.45-7.76-1.55-15.93-2.51-23.02-6.69h0c-1.73-1.26-4-.91-5.8-1.96-.44-.16-.86-.35-1.27-.56-5.78-2.94-11.72-5.61-17.04-9.4,0,0,.04.08.04.08-.88-1.66-.72-3.03.84-4.3,3.14-2.55,6.2-5.2,9.29-7.81,6.1-1.74,8.45-7.66,12.72-11.44,1.48-1.31,2.71-2.83,4.67-3.59,4.05-1.57,3.98-1.66,5.09-6.45.27-1.18,1.65-1.58,2.33-2.52,8.26-9.92,18.12-18.25,27.08-27.48,9.99-10.3,20.72-19.81,30.65-30.18,10.52-10.99,22.05-21.01,32.96-31.63,16.73-16.29,33.29-32.75,49.96-49.11,5.86-5.75,11.81-11.41,17.71-17.12,2.83.29,3.54,2.72,4.52,4.71,2.87,5.87,6.08,11.59,8.11,17.85.56,1.74,1.11,3.44.54,5.28Z"/>
      <path class="cls-30" d="m372.39,221.84c-2.33,5.83-6.97,9.64-11.53,13.63-5.7,4.99-11.96,9.35-16.2,16-1.93,3.02-6.72,3.25-9.29,6.24-.43.5-1.63.44-1.78,1.42-.79,5.07-4.35,7.46-8.67,9.2-.31.12-.36.88-.53,1.34-1.5.96-1.87,2.74-2.94,4.01h-.01c-1.36.9-2.8,1.27-4.38.68-2.22-2.67.52-3.88,1.79-5.17,11.52-11.61,22.75-23.53,35.1-34.29.62-.54,1.17-1.17,1.77-1.74,4.38-3.22,8.14-7.11,12.01-10.9,1.3-1.27,2.37-3.38,4.85-2.45.37.71.34,1.38-.2,2.01Z"/>
      <path class="cls-68" d="m308.46,285.66c-3.52,2.82-6.63,5.94-9.6,9.45-3.44,4.05-8.51,6.78-12.1,10.99-2.63,3.08-4.5,7.05-9.12,7.88-.42.08-1.01.99-.99,1.5.25,7.17-4.75,6.24-9.26,6.07-.24-2.56,1.85-3.72,3.29-5.17,7.04-7.14,14.12-14.24,21.31-21.23,3.45-3.72,6.97-7.4,10.78-10.74,1.66-1.45,3.3-3.84,6.21-2.33.62,1.31.27,2.49-.52,3.6Z"/>
      <path class="cls-38" d="m518.89,205.87c-3.46-9.72-7.18-19.32-13.17-27.84.74-4.14-2.43-6.68-4.26-9.65-.94-1.53-1.43-2.85-1.4-4.52,4.61,4.61,7.6,10.4,10.78,15.92,3.74,6.48,6.38,13.61,9.37,20.51.88,2.03,2.24,4.47-1.32,5.59Z"/>
      <path class="cls-10" d="m457.33,134.91c1.35.11,2.88-.47,3.88,1-6.88,6.68-13.8,13.32-20.62,20.06-1.26,1.25-2.54,2.05-4.31,2-.68-.66-.62-1.32-.03-2,6.54-7.5,13.67-14.42,21.08-21.05Z"/>
      <path class="cls-94" d="m347.37,333.55c.2,1.63-2.06,2.45-.9,4.81.87,1.78-1.62,4.37-3.51,4.69-5.87,1.01-8.29,5.77-11.63,9.58-2.36,2.69-4.33,5.99-8.78,4.92,7.52-7.71,15.02-15.44,22.59-23.11.52-.52,1.47-.61,2.23-.9Z"/>
      <path class="cls-130" d="m372.39,221.84c-.02-.68-.03-1.35-.05-2.03-.51-3.59,2.91-4.63,4.68-6.39,4.48-4.48,8.42-9.69,14.37-12.53.79.06,1.47.31,1.97.96-1.81,4.28-5.55,6.89-8.71,10-2.91,2.87-6.54,5-8.68,8.67-.73,1.26-2.24,1.24-3.57,1.31Z"/>
      <path class="cls-8" d="m424.22,171.82c-6.27,6.04-11.04,13.67-18.96,17.97-.69-.53-1.88-.14-2.26-1.22,2.2-4.32,6.82-6.56,9.21-10.71.33-.32.7-.6,1.08-.87,3.11-1.53,4.66-5.23,8.3-6.05,1-.08,1.93.05,2.63.88Z"/>
      <path class="cls-114" d="m292.52,295.66c-5.88,7.37-13.28,13.24-19.63,20.14-1.79,1.95-3.66,3.83-5.49,5.75-.66-.01-1.32-.02-1.98-.04-1.96-2.32-2.93-5.17-4.22-7.86.6-.42,1.38-.52,1.82-.05,3.73,4,6.62,1.79,9.46-1.17,4.78-4.98,9.67-9.85,14.69-14.59,1.43-1.35,2.69-3.63,5.35-2.19Z"/>
      <path class="cls-122" d="m308.46,285.66c0-1.34-.02-2.67-.02-4.01.04-4.42,3.34-7.71,8.01-7.97,1.66,0,3.33,0,4.99,0-4.32,3.99-8.65,7.98-12.97,11.96Z"/>
      <path class="cls-73" d="m424.22,171.82l-3.12-.04c2.08-6.35,7.78-9.52,12.15-13.86,1-.65,2-1.3,2.99-1.96.01.67.02,1.33.03,2-2.22,4.06-3.34,8.94-8.95,10.22-1.25.29-2.08,2.37-3.1,3.63Z"/>
      <path class="cls-13" d="m403.54,188.82c.74.03,1.38.24,1.72.97-2.7,5.28-7.23,8.75-11.92,12.06-.73-.03-1.45-.06-2.18-.09-.18-.46-.39-1.06-.11-1.4,3.54-4.51,7.16-8.96,12.48-11.53Z"/>
      <path class="cls-14" d="m276.38,339.72c-4.37-.97-4.67-5.31-6.75-8.17,4.45.9,4.67,5.31,6.75,8.17Z"/>
      <path class="cls-122" d="m321.45,273.69c-.09-2.12-.2-4.25,2.94-4.01-.29,1.84-.57,3.69-2.94,4.01Z"/>
      <path class="cls-35" d="m316.45,273.69c-3.41,1.91-6.47,4.18-8.01,7.97-6.24,3.6-10.14,9.87-15.92,14-5.75,2.57-9.01,7.98-13.52,11.96-2.72,2.4-5.17,5.11-7.78,7.65-2.75,2.69-5.43,3.76-7.97-.33-.38-.61-1.35-.86-2.05-1.28-2.18-2.33-3.72-5.02-4.67-8.07.04-.93.09-1.86.13-2.8,1.29-2.66.56-5.13-.77-7.51-2.11-3.78-3.74-7.47-2.85-12.16.85-4.46-2.31-7.27-5.79-9.53-1.72-3.7-1.89-7.73-2.04-11.65-.42-11.57-.56-23.18,1.22-34.66.63-4.09-.11-9.18,5.04-11.44.05.16.06.37.16.46.2.18.45.3.68.45-.14-8.76,6.22-6.88,11.36-6.91,6.47-.04,12.99.46,19.41-.15,4.84-.46,8.94,2.82,13.53,1.96,11.24-2.1,22.56-2.02,33.89-1.74,6.17.15,12.11,2.78,18.45,1.85,2.86-.42,5.95.67,8.5-1.67.48-.44,1.89-.57,2.37-.2,3.58,2.75,7.03.85,10.52-.07,2.17,1.13,4.06,2.5,4.41,5.18-4.32,5.98-9.9,10.74-15.34,15.62-1.09.98-2.18,1.93-3.11,3.06-10.01,9.87-20.06,19.69-30,29.63-3.37,3.37-7.16,6.36-9.85,10.38Z"/>
      <path class="cls-2" d="m346.8,201.65c-4.32,0-8.64-.03-12.96.01-3.35.03-5.21-.8-4.88-4.91.56-7.12.6-14.29.62-21.43,0-3.42,1.24-4.77,4.72-4.64,8.47.32,16.94.54,25.42.51,3.6-.01,4.69,1.52,4.54,4.82-.15,3.33-1.37,4.76-4.99,4.27-3.6-.49-7.29-.29-10.94-.44-1.84-.07-3.56.28-3.65,2.41-.11,2.52,2.02,2.17,3.62,2.18,3.99.03,7.98.05,11.96-.07,2.05-.06,3.7.14,3.85,2.67.17,2.82-1.58,3.3-3.85,3.22-3.98-.13-7.96-.21-11.95-.32-2.01-.05-3.81.33-3.75,2.84.06,2.3,1.9,2.43,3.61,2.44,4.15,0,8.31.04,12.46-.1,2.2-.07,3.56.5,3.61,2.94.04,2.38-.97,3.87-3.46,3.91-4.65.06-9.31.02-13.96.02,0-.11,0-.22,0-.33Z"/>
      <path class="cls-134" d="m244.94,203.42c-2.98-.15-6-.07-8.94-.51-2.89-.43-5.02-2.15-4.6-5.41.41-3.12,2.99-2.43,5.1-2.37,3.64.1,7.29.19,10.93.24,1.53.02,3.33,0,3.09-2.17-.19-1.69-1.62-2.49-3.31-2.28-2.84.35-5.61-.28-8.4-.41-5.16-.24-7.5-3.04-8.16-7.66-.59-4.14,2.3-8.33,6.54-10.1,5.04-2.11,10.31-2.36,15.65-2.14,2.82.11,5.64.2,8.46.25,3.46.06,4.67,2.42,4.8,5.23.15,3.55-2.68,3.08-4.99,3.04-3.48-.07-6.96-.17-10.45-.23-1.86-.03-3.37.45-3.23,2.74.12,1.97,1.54,2.36,3.16,2.38,2.49.03,4.98-.04,7.47.02,5.38.14,8.39,2.43,8.92,6.67.59,4.78-2.28,9.23-6.9,10.69-1.89.59-3.75,1.5-5.68,1.67-3.13.28-6.3.08-9.45.08,0,.09,0,.19,0,.28Z"/>
      <path class="cls-65" d="m300.12,170.65c2.99,0,5.98.11,8.96-.03,3.62-.16,4.48,1.92,4.53,4.98.05,3.61-2.47,3.33-4.82,3.32-3.32-.02-6.64-.18-9.96-.1-1.61.04-3.64.14-3.41,2.57.19,2.05,1.85,2.58,3.65,2.6,2.32.02,4.65.03,6.97-.05,4.08-.15,7.28,1.19,8.27,5.45,1.19,5.1-1.09,9.72-5.51,11.43-8.34,3.21-17.01,2.32-25.6,1.68-2.54-.19-3.64-2.19-3.38-4.68.27-2.66,2.05-2.9,4.34-2.73,3.8.27,7.63.28,11.45.3,1.38,0,2.88-.4,2.85-2.1-.03-1.48-1.2-2.28-2.7-2.4-3.31-.25-6.61-.66-9.92-.7-4.85-.07-6.82-3.24-7.4-7.22-.59-4.05,1.47-7.4,4.82-9.62,5.14-3.42,11.09-2.89,16.88-2.69Z"/>
      <path class="cls-22" d="m374.22,214.78c-1.3-1.65-2.59-3.31-3.89-4.96,1.5-.02,2.99-.08,4.49-.04,3.37.11,4.21-.81,4-4.7-.39-7.19-1.14-14.35-.78-21.68.82-16.86.29-33.78.31-50.67,0-2.5-.1-5,.03-7.48.12-2.29-.81-3.63-3.08-3.46-4.38.32-8.74-1.3-13.08-.27-2.38.57-4.22.09-5.89-1.55,5.81-.02,11.62-.07,17.43-.06,6.55,0,9.87,2.97,8.15,9.05-2.74,9.73-.9,19.47-1.57,29.18-.49,7.09-.8,14.36-.46,21.27.35,7.06,1.04,13.97.16,21.06-.29,2.35,1.44,2.19,3.32.89,3.8-2.63,5.58-6.99,9.39-9.75,8.96-6.5,14.93-16.16,23.39-23.25.6-.51.77-1.75,1.38-1.98,1.36-.5-2.12-8.23,3.71-2.6.17.17,4.84-4.19,7.3-6.57,1.64-1.58,2.79-3.86,5.75-3.16.47,1.86-1.63,2.24-2.04,3.56-3.92,6.02-9.63,10.38-14.42,15.6-1.46,1.59-3.06,3.06-4.55,4.62l-.03.02c-8.5,8.05-16.61,16.5-24.94,24.72-4.44,4.38-8.61,9.05-14.08,12.22Z"/>
      <path class="cls-36" d="m251.48,215.84c-4.31,6.03-3.75,13.22-4.32,20-1.05,12.63-1.68,25.34,1.44,37.85,1.44,1.98,1.72,3.95-.05,5.9-1.08-1.59-2.62-2.26-4.5-2.2-3.14-11.67-2.94-23.61-2.43-35.48.42-9.87,1.06-19.81,4.92-29.16.65-1.58.19-4.14,2.86-3.76,2.39.34,2.12,2.55,2.08,4.38-.02.83,0,1.66,0,2.48Z"/>
      <path class="cls-113" d="m364.56,128.82c4.58,1.43,2.69,5.2,2.47,7.95-.22,2.78-2.81,3.31-5.34,3.18-3.79-.2-7.59-.33-11.38-.57-1.26-.08-2.58-.07-2.53,1.46.04,1.25,1.43,1.13,2.39,1.13,3.81-.01,7.62-.15,11.42-.09,2.69.04,5.02.76,4.9,4.18-.1,3.12-2.3,3.75-4.78,3.8-4.76.08-9.52.03-14.28.03-1.31.62.44,3.01-1.79,3.09-1.63-4.01-.73-5.73,3.49-6.34,3.92-.57,7.94.23,12.44-.69-1.88-1.88-3.65-1.26-5.29-1.05-2.82.36-5.63.7-8.4-.2-1.85-.6-3.3-1.69-3.29-3.88.01-2.4,1.5-3.57,3.66-4.05,1.97-.43,3.97-.28,5.96-.31,1.99-.04,4,.14,5.97-.24,1.34-.26,2.77-.67,2.69-2.38-.07-1.66-1.51-2.01-2.85-2.27-1.31-.25-2.65-.21-3.98-.21-5.99-.01-11.97.02-17.96-.02-2.14-.02-4.34.22-6.34-.9-.52-.38-.67-.87-.43-1.46l.16-.13c11.02-.68,22.04-.66,33.06-.01Z"/>
      <path class="cls-62" d="m331.34,128.96c.08.42.16.83.24,1.25,2.13,3,1.12,6.44,1.24,9.69.17,4.65.04,9.32.06,13.98,0,2.74.95,4.68,4,4.45,7.78-.58,15.55-1.28,23.35-.33.61.07,1.29-.3,1.81-1.3-2.41-2.27-5.49-.96-8.19-1.41-2.59-.43-5.78,1.15-7.53-2.18.14-1.16-.16-2.47,1.13-3.23-.44,2.77,1.31,2.95,3.34,2.88,3.32-.11,6.66.02,9.95-.32,3.27-.33,6.02.49,6.3,3.89.29,3.53-2.3,5.46-5.75,5.42-4.8-.05-9.59-.6-14.39-.67-3.97-.06-7.95-.31-11.91.58-2.88.64-5.28-.45-5.35-3.56-.19-8.95-.02-17.9.05-26.85,0-1.05.61-1.88,1.65-2.28Z"/>
      <path class="cls-60" d="m168.78,161.81c4.97.56,9.94.89,14.92.11-2.91,2.7-7.36,2.45-10.15,5.99-1.37,1.73-3.26-1.76-4.8-3.06,0-1.01.02-2.02.03-3.04Z"/>
      <path class="cls-62" d="m364.56,128.82c-11.02,0-22.04,0-33.06.01,4.43-1.8,9.06-.81,13.56-.74,6.5.11,13.06-1.02,19.5.72Z"/>
      <path class="cls-101" d="m136.04,425.59c-1.6-.36-4.8.22-1.29-2.77,2-1.71,3.45-4.02,6.63-3.39,1.19.24,2.3-.3,3.14-1.21,4.68-5.03,10.86-5.86,17.25-6.96,4.32-.75,8.53-1.69,12.96-1.99,2.33-.16,4.87-1.66,5.31-4.95.21-1.62.7-3.21.7-4.89-.06-38.27-.1-76.53-.21-114.8,0-1.26-.29-2.5,1.22-2.71,1.97-.27,2.01,1.32,1.96,2.67-.52,15.6,1.16,31.24-.94,46.8-.48,3.57,1.19,6.88.93,10.36-1.66,21.74-.74,43.52-.92,65.27-.03,3.17-1.15,4.59-4.39,4.49-2.04-.06-4.49-.73-5.55,2.06-.19.17-.37.34-.56.51-5.58.71-11.1,1.71-16.47,3.43-.39.27-.81.49-1.25.67-3.33.23-6.07,1.7-8.38,4.07-3.11,1.93-6.27,3.7-10.13,3.33Z"/>
      <path class="cls-15" d="m205.53,416.66c-5.59.44-11.25-.43-16.8.87-2.48.92-5.06.23-7.58.43-3.3-1.32-6.42-1.37-9.86.11-3.32,1.43-7.02,1.1-10.57.27-.51-.22-.9-.58-1.16-1.07,3.73-3.68,8.93-2.11,13.24-3.71,0,0,.02.04.03.04,12.9-.08,11.89,0,11.88-11.55-.03-36.59.08-73.18.2-109.77,0-1.7-.89-3.65.76-5.15,1.84,5.57.28,11.18.26,16.77-.14,34.19-.17,68.38-.21,102.57,0,2.82.27,5.64-2.41,9.32,10.85,0,20.49,0,30.13,0-2.5,1.57-5.31.18-7.9.87Z"/>
      <path class="cls-125" d="m159.87,417.61c4.64-.43,9.32.48,13.91-1.82,1.68-.84,5.17-1.9,6.99,1.25-2.54,2.49-6.1,2.14-9.1,2.73-8.62,1.7-17.07,3.93-25.15,7.22-5.61,2.28-11.3,4.57-16.48,7.86-1.92,1.22-3.82,2.6-6.23,2.76-3.92-1.26-.05-2.75-.12-4.12,3.63-2.16,6.98-4.83,11.09-6.11,8.33-3.35,16.42-7.32,25.1-9.77Z"/>
      <path class="cls-15" d="m159.87,417.61c-7.84,4.61-16.13,8.06-25.1,9.77.42-.6.85-1.2,1.27-1.79,3.1-1.7,6.85-1.86,9.75-4.05,2.7-2,5.89-2.91,9-3.99l.07-.03c1.54-1.27,3.14-1.28,4.79-.23l.22.31Z"/>
      <path class="cls-21" d="m413.28,177.83c.74-3.53,3.88-5.1,6.1-7.4,4.2-4.36,8.57-8.56,12.87-12.82.34.1.67.21,1.01.31-2.87,5.65-8.66,8.75-12.15,13.86-2.94,1.58-4.13,5.44-7.83,6.05Z"/>
      <path class="cls-60" d="m146.77,109.9c-.11,1.9-.14,3.8-.35,5.69-.25,2.28.91,1.93,2.27,1.35,0,1,0,2,0,3-4.06.5-8.14,1.45-11.84-1.42-1.18-.91-2.54-.62-3.52.62-.31.39-.43,1.03-.81,1.23-4.63,2.53-8.82,4.4.56,6.32,2.97.61,2.88,5.93,3.68,9.28-2.26-8.03-8.72-6.22-14.42-6.16-2.81.03-5.61.15-8.42.22,1.19-3,3.85-2.18,6-2.07,3.08.16,4.32-1.02,3.91-4.03,2.95-1.1,3.95-3.39,3.38-6.26-.65-3.27,1.22-4.06,3.63-3.59,2.95.58,6.22.07,8.79,1.15,4.83,2.03,5.83-.27,6.34-4.13.06-.43.52-.81.8-1.22Z"/>
      <path class="cls-60" d="m105.66,193.14c-1.23,4.09-3.77,7.88-6.36,11.61-.82,1.18-2.29,1.38-3.46.24-1.22-1.2-1.48-3.09-.27-3.97,3.31-2.42,4.42-6.36,6.98-9.24.61-.69,1.17-1.79,2.37-1.13.79.43.95,1.28.74,2.5Z"/>
      <path class="cls-60" d="m101.09,184.52c-.1-2.77-.88-4.95.46-6.81.35-.49,1.67.15,1.97.97.81,2.24.39,4.14-2.43,5.84Z"/>
      <path class="cls-60" d="m96.03,177.8c.74-2.65,3.13-5.35-.21-7.89,1.6-.09,2.91.05,3.08,2.16.21,2.56-.55,4.5-2.87,5.73Z"/>
      <path class="cls-60" d="m95.88,169.93c-4.45-.43-9.04,1.04-13.39-.95,4.46.29,9.06-1.28,13.39.95Z"/>
      <path class="cls-119" d="m252.57,105.76c-.09-2.21-.03-5.22,4.52-4.79,3.28.3,6.45.65,6.45,5.06,0,3.63-3.32,6.21-7.45,6.22-4.3,0-3.5-2.95-3.53-6.48Z"/>
      <path class="cls-93" d="m299.17,144.88c-1.1-3.95.5-5.78,4.73-5.54,3.83.22,6.3,2.05,6.66,5.89.3,3.29-4.13,6.57-8.07,6.27-4.52-.34-4.11-3.33-3.32-6.62Z"/>
      <path class="cls-89" d="m284.22,662.41c.06,3.39.51,7.37-4.58,6.89-3.31-.31-6.51-1.89-6.76-5.97-.17-2.82,4.78-7.3,7.84-7.18,4.42.17,3.4,3.58,3.5,6.27Z"/>
      <path class="cls-83" d="m400.39,526.85c-.19-10.43-.57-20.85-.54-31.28.08-33.34.32-66.69.49-100.03,2.95-4.69,8.32-3.67,12.55-5.33,2.42-.15,4.97.47,7.12-1.22,1.12-.52,2.32-.66,3.54-.69,2-.02,4.06.26,5.84-1.04.39-.22.8-.39,1.22-.53,1.63-.48,3.49-.15,4.91-1.38.54-.38,1.22-.42,1.8-.72,7.99-4.22,17.26-5.89,24.24-12.2.71-.64,2.15-.47,3.25-.67.35,7.88,1.28,15.78.95,23.64-.96,23.27-.21,46.53-.43,69.8-.17,18.12-.16,36.24-.07,54.36.02,4.05-1.54,5.66-5.59,5.66-17.78-.03-35.56.1-53.34.16-2.12,0-4.3-.35-5.95,1.49Z"/>
      <path class="cls-57" d="m437.34,384.62c-.36.33-.72.67-1.08,1-1.69,1.66-4.39.08-6.03,1.88h-.03c-1.72,1.62-4.34.34-6.07,1.91-1.23.07-2.45.14-3.68.21-2.13,1.79-5.21-.09-7.28,1.89-4.31,1.21-8.91,1.53-12.82,4.02-1.16-.23-1.59-1.25-2.24-2.04-1.97-1.95-4.45-1-6.62-.92-12.4.46-24.39-1.73-36.33-4.79-2.5-.64-5.29-.16-7.95-.2-.25.01-.49-.02-.73-.09-1.06-3.41-3.99-1.4-5.99-2.06-.15-2.52-3.7-1.57-4.01-3.94,6.9,1.67,13.76,3.52,20.7,4.98,14.11,2.98,28.27,4.81,42.79,2.74,9.8-1.4,19.27-4.28,29.03-5.73,2.79.25,5.72-.45,8.34,1.13Z"/>
      <path class="cls-83" d="m399.8,575.97c-.47-15.97-.89-31.94.26-47.89-.09,15.97-.17,31.93-.26,47.89Z"/>
      <path class="cls-9" d="m210.57,106.46c0,3.32-.13,6.65.04,9.97.19,3.68-1.59,4.48-5,5.1-9.01,1.63-11.7-5.73-16.19-10.56-1.16-1.25-1.56-3.83-3.97-2.54-2,1.07-1.06,3.09-.9,4.92.24,2.6,2.56,5.9-.82,7.69-3.11,1.65-6.78,1.2-10.11.05-1.27-.44-2.9-1.3-2.54-3.24,1.39-7.41-.12-14.86.39-22.29.26-3.75,1.89-4.31,5.28-4.79,8.6-1.22,12.86,3.37,15.79,10.35.61,1.45,1.27,2.99,3.13,2.44,1.69-.49,1.77-2.2,1.84-3.72,0-.17,0-.34-.02-.5-.53-2.55-2.09-5.68.25-7.48,2.84-2.18,6.73-.94,10.14-.89,2.26.03,2.76,2.01,2.75,4.01-.02,3.82,0,7.64,0,11.46-.02,0-.03,0-.05,0Z"/>
      <path class="cls-6" d="m164.69,106.25c0,3.81-.06,7.62.02,11.43.07,2.92-1.11,4.35-4.14,4.11-1.48-.12-2.98-.03-4.47-.05-5.67-.06-6.05-.84-5.69-6.41.4-6.27.32-12.59.08-18.87-.16-4.13,1.36-5.57,5.46-5.48,8.87.21,9.07-1.47,8.71,8.8-.07,2.15-.01,4.31-.01,6.46.01,0,.02,0,.04,0Z"/>
      <path class="cls-44" d="m534,753.05c-6.08,3.44-10.77,8.53-15.24,13.69-2.31,2.67-3.66,2.97-5.71.22-.79-1.06-1.7-2.02-2.57-3.02-1.98-2.3-2.09-4.05.71-6.12,4.11-3.04,7.67-6.77,10.84-10.81h.01c4.2-2.22,7.85-5.14,10.23-9.27,1.62-2.81,3.31-2.88,5.4-.87,1.53,1.47,2.92,3.09,4.3,4.69,1.54,1.78,1.18,3.28-.83,4.42-1.3.73-2.6,1.45-3.06,3.02-.82,1.89-1.5,3.93-4.08,4.04Z"/>
      <path class="cls-86" d="m522.04,747.01c-3.83.94-5.5,4.54-8.29,6.76-1.25.99-2.21,2.84-4.16,1.84-2.03-1.05-1.83-3.31-1.33-4.88,1.78-5.57,4.43-10.81,9.94-13.51,2.52-1.24,4.48-4.18,7.98-3.2,1.64.46,3.23.84,4.04,2.51.94,1.95-.94,2.57-1.83,3.59-2.04,2.36-4.82,4.04-6.35,6.88,0,0-.01.01-.01.01Z"/>
      <path class="cls-43" d="m534,753.05c1.36-1.35,2.72-2.7,4.08-4.04,4.15-1,6.56,1.49,5.43,5.62-1.92,6.98-12.02,14.67-18.96,14.4-1.25-.05-2.83.41-3.37-1.29-.54-1.68.46-2.69,1.72-3.71,4.05-3.29,7.94-6.76,11.1-10.97Z"/>
      <path class="cls-84" d="m59.02,66.06c-2.62,1.47-4.92,3.41-6.49,5.92-1.87,3-3.62,2.32-5.51.28-1.12-1.21-2.06-2.6-3.1-3.89-1.3-1.61-1.17-2.85.58-4.16,7.47-5.61,13.4-12.85,19.97-19.41,4.86-4.86,4.87-5.06,9.6.51,2.17,2.55,1.53,3.95-.67,5.64-1.8,1.38-4.17,2.28-4.49,5.01.11,2.42-1.56,3.66-3.23,4.91-2.39,1.21-3.91,3.47-6.01,5.03-.21.06-.43.11-.64.16Z"/>
      <path class="cls-61" d="m65.06,60.1c1.28-1.38,2.56-2.77,3.85-4.15,1.57.25,2.3-1.05,3.34-1.8.87-.62,1.49-2.08,2.88-1.29,1.4.79,1.85,2.13,1.89,3.77.2,8.83-10.45,18.99-19.19,18.25-1.05-.09-1.95-.41-2.48-1.36-.69-1.23-.06-2.17.73-3.11,1.13-1.35,2.98-2.23,2.96-4.37,0,0,0,0,0,0,2.27-1.72,4.19-3.78,6.02-5.95Z"/>
      <path class="cls-120" d="m59.42,40.15c1.45.05,3.19-.44,4,1.25.74,1.53-.75,2.34-1.51,3.37-4.38,5.91-10.17,10.47-15.11,15.84-.81.88-1.87,1.77-3.02,1.02-.71-.47-1.34-1.64-1.36-2.51-.23-10.91,5.89-17.73,17-18.97Z"/>
      <path class="cls-87" d="m235.88,606.27c4.48,0,8.97.13,13.45-.05,2.9-.11,4.36.77,4.29,3.89-.19,7.81-.25,15.61-.33,23.42-.03,2.56-1.38,3.61-3.8,3.43-8.96-.66-17.92-.54-26.88-.25-3.37.11-3.65-1.97-3.68-4.56-.03-2.58.64-4.14,3.61-4.05,4.31.14,8.63.11,12.95.1,1.52,0,3.22-.05,3.27-2.14.06-1.98-1.13-3.09-3.12-3.06-3.98.04-7.97.08-11.95.3-2.5.14-4.54-.29-4.29-3.28.23-2.77,2.2-2.57,4.44-2.3,3.61.43,7.28.37,10.93.51,1.95.07,3.96-.15,3.92-2.64-.04-2.27-2.01-2.29-3.71-2.26-3.98.06-7.98-.04-11.94.31-3.26.29-4.13-1.22-4.09-4.04.04-2.69,1.07-3.79,3.99-3.58,4.29.31,8.62.08,12.93.08,0,.05,0,.1,0,.16Z"/>
      <path class="cls-60" d="m223.24,626.11c3.51-1.58,7.27-.28,10.73-1.68.75-.3,1.62.21,2.04,1.04.39.79-.07,1.45-.73,1.45-4.03.03-8.14.71-12.04-.82Z"/>
      <path class="cls-105" d="m246.47,159.8c-4.49,0-8.98.09-13.46-.03-2.39-.06-4.21-.99-3.85-3.95.86-7.12.51-14.27.43-21.41-.04-3.3,1.21-4.46,4.39-4.4,8.59.16,17.18.13,25.77.23,2.72.03,3.72,1.77,3.83,4.24.12,2.44-.82,3.69-3.47,3.63-4.13-.1-8.27.21-12.38-.03-2.34-.14-3.67.66-3.73,2.81-.07,2.23,1.43,3.1,3.64,3.05,3.99-.09,7.98-.03,11.97-.06,1.8-.02,3.67.3,3.73,2.38.07,2.25-2.11,2.38-3.69,2.36-3.98-.04-7.96-.31-11.93-.55-2.48-.15-3.83,1.04-3.92,3.42-.11,2.76,2.03,2.56,3.86,2.56,3.82,0,7.65-.06,11.47-.08,2.06-.02,4.32-.05,4.4,2.76.09,3.09-2.3,3.18-4.56,3.19-4.16,0-8.31,0-12.47,0v-.12Z"/>
      <path class="cls-98" d="m162.69,145.95c0,2.99.06,5.99-.01,8.98-.08,3.07-.83,4.78-4.81,4.23-7.54-1.04-7.63-.71-6.71-8.67.14-1.19.48-2.36-.27-3.33-.79-1.03-1.68-2.4-2.78-2.69-1.64-.43-1.82,1.54-2.45,2.6-1.3,2.18-1.66,4.59-1.99,7.1-.35,2.62-1.43,5.46-4.7,5.59-3.15.12-3.85-2.41-4.4-5.04-.57-2.75-1.23-5.53-2.82-7.93-.65-.99-.7-2.96-2.59-2.33-1.29.43-2.17,1.63-2.22,3.07-.09,2.99.18,6-.1,8.97-.56,6.04-5.34,2.54-8.16,3.25-2.71.69-4.16-1.22-3.62-3.84,1.36-6.61.65-13.26.65-19.88,0-3.3,1.11-4.61,4.33-4.21.49.06,1,.01,1.49.01,10.86-.01,10.89-.02,14.33,10.33.46,1.39.93,2.48,2.5,2.67,2,.23,3.59-.91,3.69-2.6.52-9.53,6.12-10.77,14.37-10.84,5.2-.04,6.09,1.62,6.25,5.58.11,2.99.02,5.99.03,8.98Z"/>
      <path class="cls-58" d="m110.87,106.21c0-3.65-.06-7.31.02-10.96.06-2.86.67-4.32,4.47-3.88,7.88.91,15.88.79,23.82-.03,1.77-.18,3.91-1.09,4.99.88,1.15,2.11.74,4.55-.23,6.74-1,2.26-2.92,1.51-4.73,1.41-3.48-.19-6.96-.19-10.45-.19-1.83,0-3.49.75-3.47,2.75.02,1.91,1.59,2.86,3.44,2.85,3.97-.03,7.98.05,11.91-.42,2.54-.3,3.89.2,4.11,2.79.22,2.57-.17,4.76-3.5,4.73-3.82-.03-7.64,0-11.45-.13-3.24-.12-5.17.92-4.79,4.54.37,3.53-1.33,4.56-4.71,4.55-9.42-.04-9.42.08-9.38-9.16,0-2.16,0-4.32,0-6.48-.01,0-.03,0-.04,0Z"/>
      <path class="cls-60" d="m145.77,89.97c1.64,3.31,1.53,6.63.07,9.96-.02-3.32-.04-6.64-.07-9.96Z"/>
      <path class="cls-137" d="m234.93,677.24c-4.32,0-8.65-.03-12.97.01-2.12.02-3.45-.56-3.55-3.05-.1-2.57,1.06-3.76,3.45-3.8,3.99-.08,7.98.02,11.97-.02,2.17-.03,4.77.07,4.83-2.96.06-3.25-2.47-4.09-5.16-4.06-3.48.04-6.96.4-10.44.51-1.46.05-3.45.09-3.13-2.08.25-1.71,1.93-1.18,3.29-1.09,3.48.22,6.97.19,10.46.3,2.72.09,4.77-1.05,4.83-3.82.06-2.94-2.42-3.16-4.69-3.12-3.49.06-6.98.22-10.47.26-2.26.03-4.64-.13-4.53-3.22.11-2.85,2.51-2.11,4.18-2.1,8.47.04,16.94.67,25.39-.45,1.98-.26,3.27.49,3.28,2.67.03,7.82.02,15.63.06,23.45.01,2.38-1.52,2.61-3.33,2.6-4.49-.02-8.98,0-13.47,0,0,0,0-.02,0-.02Z"/>
      <path class="cls-33" d="m342.56,648.16c4.32,0,8.64.07,12.96-.03,2.74-.06,3.96,1.12,3.95,3.84-.03,7.32-.05,14.63.03,21.95.03,2.66-1.28,3.43-3.7,3.4-8.81-.11-17.61-.14-26.42-.16-2.36,0-3.77-.78-3.83-3.42-.06-2.83,1.35-3.85,3.98-3.81,4.15.07,8.31.16,12.46.07,1.99-.04,4.31-.26,4.22-3.05-.07-2.4-2.18-2.76-4-2.84-3.98-.17-7.99.08-11.95-.23-1.72-.13-4.62.26-4.43-2.68.16-2.46,2.61-2.1,4.38-2.11,3.82-.02,7.64.11,11.47.11,1.98,0,4.53.2,4.49-2.6-.04-2.63-2.28-3.37-4.66-3.38-3.82-.02-7.64,0-11.47-.08-1.8-.03-4.1.19-4.23-2.33-.15-2.89,2.27-2.78,4.28-2.8,4.15-.03,8.31,0,12.46,0,0,.05,0,.1,0,.14Z"/>
      <path class="cls-107" d="m336.76,605.83c3.48,0,6.97-.05,10.45.01,3.73.07,3.72,2.76,3.29,5.31-.48,2.83-2.39,2.01-4.2,1.28-3.5-1.41-7.21-.84-10.83-.95-1.77-.05-3.25.9-3.25,3.01,0,2.31,1.71,2.57,3.45,2.62,1.82.05,3.65,0,5.48,0,6.3.05,10.4,2.94,10.98,7.72.57,4.72-3.29,9.99-8.89,10.98-7.55,1.34-15.23.58-22.85.28-2.96-.12-3.09-2.59-2.77-4.86.36-2.57,2.33-2.63,4.17-2.1,3.44.99,6.9.89,10.36.55,1.78-.18,3.98-.43,3.97-2.87,0-2.67-2.28-2.36-4.06-2.44-2.16-.09-4.33.09-6.47-.14-6.12-.68-9.14-3.52-9.14-8.36,0-4.92,4.05-9.36,9.36-9.92,3.62-.38,7.29-.39,10.93-.57,0,.14,0,.29,0,.43Z"/>
      <path class="cls-59" d="m74.72,201.33c.47-.06-.02.02-.51.06-9.3.81-10.05.03-12.3-9.13-1.26-5.11-3.32-10.02-5.11-14.98-1.62-4.51-.93-5.42,3.84-4.8.16.02.33.04.49.06,2.54.38,5.89-1.91,7.49.66,1.97,3.14,3.45,6.78,3.85,10.67.29,2.85-.43,7.27,3.33,7.28,4.15.02,2.54-4.55,3.03-7.23.59-3.26,2.46-6.1,2.69-9.52.12-1.86,1.93-2.44,3.81-2.37,2.13.07,4.2.72,6.42.21,2.9-.67,3.68,1.28,3.02,3.53-2.33,7.92-4.78,15.8-8.08,23.39-.85,1.96-2.49,2.38-4.53,2.21-2.14-.18-4.3-.04-7.43-.04Z"/>
      <path class="cls-32" d="m461.68,716.95c-3.98,0-7.97-.09-11.95.03-2.95.09-4.69-.67-4.77-4.1-.08-3.49,1.56-4.21,4.59-4.05,3.47.19,6.97.08,10.45.05,2.28-.02,4.07-1.03,4.01-3.43-.06-2.44-2.2-2.54-4.08-2.55-3.32-.02-6.64-.06-9.95.02-2.84.06-5.88-.06-5.41-3.86.37-2.98,2.54-4.2,5.89-3.5,2.88.6,5.93.41,8.91.47,3,.07,4.8-1.34,4.66-4.47-.16-3.58,1.59-4.7,4.9-4.42,1.81.15,3.65,0,5.47-.05,2.49-.06,3.61,1.13,3.6,3.63-.04,7.47-.05,14.94.03,22.41.03,2.77-1.18,3.9-3.9,3.84-4.15-.08-8.3-.02-12.44-.02Z"/>
      <path class="cls-41" d="m383.18,606.39c4.16,0,8.32.1,12.47-.04,2.41-.08,3.76.47,3.72,3.24-.11,7.65-.1,15.31-.05,22.96.01,2.26-.76,3.43-3.17,3.34-8.96-.35-17.93-.8-26.9-.11-2.82.22-3.67-1.61-3.76-4.14-.1-2.9,1.67-3.19,3.89-3.16,2.99.05,6.02.28,8.97-.07,2.87-.35,7.82,2.03,7.71-3.34-.1-4.78-4.71-2.83-7.55-3.06-2.64-.22-5.32.03-7.98-.03-1.73-.04-4.16.47-4.05-2.31.11-2.72,2.56-2.11,4.25-2.1,3.82.02,7.64.28,11.46.32,2.06.02,4.25-.22,4.2-3.04-.05-2.7-1.77-3.73-4.32-3.69-3.99.05-7.98.08-11.97.09-1.64,0-3.59.34-3.68-2.16-.09-2.67,1.85-2.7,3.78-2.68,4.32.03,8.65,0,12.97,0Z"/>
      <path class="cls-64" d="m123.8,437.61c10.74-6.27,21.63-12.28,33.75-15.45,7.66-2.01,15.47-3.43,23.22-5.11,2.66.16,5.31.32,7.96.48-6.31,1.83-12.94,1.86-19.27,3.73-9.46,2.8-18.99,4.99-28.04,9.41-6.33,3.09-12.92,5.45-18.49,9.97-1.7,1.38-3.46,3.25-6.13,2.8,1.63-2.78,5.32-3.09,7-5.82Z"/>
      <path class="cls-55" d="m85.98,473.44c-2,4.44-4.41,8.62-7.98,12.02,1.49-4.78,4.07-8.84,7.98-12.02Z"/>
      <path class="cls-129" d="m508.09,606.33c.17,0,.33,0,.5,0,9.85-.02,10.37.65,12.58,10.63,1.05,4.76,2.44,9.52,4.71,13.92.54,1.04,1.24,2.12.46,3.26-.86,1.25-2.06.58-3.18.32-.64-.15-1.32-.16-1.98-.14-6.86.21-7.95-.75-9.49-7.73-.71-3.2-.06-6.72-2.2-9.61-.77-1.03-1.14-2.66-2.82-2.34-1.51.29-2.19,1.77-2.18,3.04.06,4.44-2.37,8.27-2.82,12.58-.36,3.43-1.89,5.75-5.96,4.31-.46-.16-.97-.19-1.47-.24-1.91-.19-4.61,1.99-5.48-.03-.76-1.76.38-4.5,1.08-6.68,1.59-5.01,3.74-9.86,5.06-14.93,1.25-4.78,3.44-7.37,8.7-6.4,1.45.27,2.99.04,4.48.04v-.02Z"/>
      <path class="cls-106" d="m200.65,150.01c0-1.66-.03-3.32,0-4.97.07-3.66-1.33-5.78-5.34-5.11-4.48.75-4.81-1.89-4.63-5.3.22-4.11,2.5-3.54,5.51-3.17,6.4.8,12.91.93,19.28-.11,3.75-.61,5.92-.45,6.58,4,.66,4.41-1.65,4.64-4.85,4.6-3.07-.04-4.49,1.73-4.5,4.71-.01,3.48-.13,6.97.04,10.44.13,2.79-.94,3.7-3.72,3.81-8.24.32-8.23.44-8.38-8.91Z"/>
      <path class="cls-40" d="m318.42,689.05c8.73-1.99,17.59-1.94,26.47-2.01,4.45-.03,5.84,1.58,5.64,5.84-.28,5.96-.25,11.94-.06,17.9.12,3.72-.95,5.5-5.03,5.35-6.95-.26-13.92-.02-20.87-.16-6.68-.14-11.62-3.01-12.96-7.28-1.99-6.3.03-13.32,4.93-17.4.74-.61,1.26-1.49,1.88-2.24,0,0,0,0,0,0Z"/>
      <path class="cls-45" d="m399.24,667.2q.32,10.01-9.73,10.04c-6.3.02-12.61-.11-18.91.13-3.76.14-4.51-1.63-4.28-4.85.2-2.76-.66-6.03,4.03-5.4,3.98.54,5.37-1.47,5.15-5.24-.16-2.65,0-5.31-.02-7.97-.04-4.08,1.63-5.92,6.02-5.82,7.92.18,7.92-.04,7.83,7.94,0,.33-.02.66-.02,1q-.18,10.05,9.89,10.14s.03.03.03.03Z"/>
      <path class="cls-37" d="m482.14,667.3c-.26-4.48.75-9.25-.05-14.04-.54-3.26,1-4.59,4.25-4.27,1.65.16,3.32.09,4.98.03,2.68-.1,3.94,1.78,3.52,3.78-1.23,5.84.67,11.54.21,17.33-.51,6.33-5.68,9.57-11.44,6.75-2.62-1.28-1.12-3.83-1.44-5.8-.18-1.14-.03-2.32-.03-3.79Z"/>
      <path class="cls-47" d="m183.7,129.94c.33,8.42,1.19,16.82,1,25.27-.09,3.98-1.53,5.65-5.59,5.71-9.42.14-9.41.27-9.36-8.88.03-5.63.18-11.27-.04-16.9-.14-3.75.94-5.62,5.03-5.25,2.95.27,5.95.04,8.93.03,0,0,.01.01.01.01Z"/>
      <path class="cls-25" d="m353.37,391.68c1-.06,2-.11,3-.17,2.74.41,5.68.05,8.06,1.94-3.67-.71-7.88,2-11.06-1.77Z"/>
      <path class="cls-49" d="m248.55,279.59c.02-1.97.03-3.94.05-5.9,4.05,1.18,7.09,5.64,5.77,10.19-1.3,4.46.65,7.62,2.79,10.69,1.85,2.65,1.25,5.29,1.24,8.01,0,.08-1.13.15-1.73.22-4.14-7.23-5.2-15.54-8.12-23.2Z"/>
      <path class="cls-115" d="m312.38,369.59c6.15,2.66,12.19,5.54,17.89,9.09-2.17.82-4.21.8-5.98-.94-3.89-2.83-9.05-3.8-11.91-8.14Z"/>
      <path class="cls-116" d="m324.29,377.73c1.99.31,3.99.63,5.98.94,0,0,.08,0,.08,0,1.12.56,2.09,1.19,1.25,2.66-.13.14-.26.29-.39.44-2.68-.4-4.68-2.92-7.63-2.5.24-.52.48-1.04.72-1.55Z"/>
      <path class="cls-115" d="m331.6,381.34c-.42-.89-.83-1.78-1.25-2.66,2.21.58,4.72.52,6.14,2.82-1.63-.05-3.26-.1-4.89-.16Z"/>
      <path class="cls-76" d="m522.14,221.63c-.77,12.28,3.02,24.32,1.89,36.61-.22,2.41.58,5.07-1.74,6.91-.23.18-1.12-.03-1.32-.32-1.58-2.27-.69-4.7-.48-7.16.49-5.82,1.53-11.54-1.07-17.43-1.52-3.44-1.01-7.79-1.36-11.73-.3-3.37.72-6.84-1.66-10.04-.84-1.12-1.28-3.87,1.27-4.5,2.53-.62,2,1.93,2.72,3.24.78,1.44.06,3.44,1.76,4.47,0,0,0-.07,0-.07Z"/>
      <path class="cls-21" d="m374.22,214.78c12.58-11.48,24.33-23.8,36.39-35.8.74-.73,1.57-1.2,2.64-1.13-2.19,4.59-6.42,7.37-9.71,10.97-3.84,4.58-8.99,7.91-12.37,12.94-6.67,5.61-12.94,11.63-18.83,18.04-5.87,4.02-9.44,10.7-16.04,13.88,1.1-4.06,5.26-5.24,7.67-8.12,3.18-3.79,7.35-6.69,10.25-10.79Z"/>
      <path class="cls-112" d="m346.32,153.11c4.45,1.9,9.11.49,13.67.85,2.13.17,4.9-.28,4.83,2.79-.07,2.86-2.73,2.99-4.91,2.79-8.29-.74-16.58-.11-24.86.03-2.62.04-4.07-.49-3.98-3.5.26-8.62.36-17.24.52-25.85,9.96-.03,19.93-.06,29.89-.07,2.45,0,3.76,1.34,3.65,3.74-.11,2.44-1.31,4.13-4.03,4.07-3.65-.08-7.3-.24-10.95-.38-2.3-.09-4.73.16-4.85,2.99-.14,3.18,2.68,2.88,4.74,2.92,3.49.06,6.98-.15,10.47-.2,1.69-.02,3.66,0,3.77,2.25.14,2.72-2.11,2.52-3.91,2.53-3.82.03-7.66-.22-11.47,0-3.37.18-5.12,1.63-2.58,5.05Z"/>
      <path class="cls-96" d="m159.65,417.3c-1.6.08-3.2.15-4.79.23,3.17-3.31,7.69-2.78,11.6-3.94,1.95-.58,4.22-.06,6.35-.04-3.99,2.63-8.96,1.85-13.16,3.75Z"/>
      <path class="cls-96" d="m154.79,417.55c-2.54,2.36-5.65,3.44-9,3.99,2.1-3.37,5.11-4.68,9-3.99Z"/>
      <path class="cls-18" d="m413.16,391.52c1.68-3.51,4.79-1.52,7.28-1.89-1.72,3.35-4.8,1.47-7.28,1.89Z"/>
      <path class="cls-20" d="m430.22,387.5c1.11-3.53,3.99-1.35,6.03-1.88-1.21,3.21-3.96,1.44-6.03,1.88Z"/>
      <path class="cls-20" d="m424.13,389.41c1.25-3.12,3.98-1.48,6.07-1.9-1.35,2.78-3.85,1.91-6.07,1.9Z"/>
      <path class="cls-78" d="m71.55,47.68c-.39.45-.88,1.11-1.46,1.69-6.14,6.16-12.28,12.33-18.48,18.43-.81.8-1.63,2.7-3.1,1.39-1.08-.96-.36-2.39.41-3.59,3.86-6.06,9.29-10.61,14.61-15.25,1.49-1.3,3.18-2.35,4.3-4.02.82-1.22,1.76-.4,2.64-.26.7.12,1.18.53,1.09,1.6Z"/>
      <path class="cls-121" d="m65.06,60.1c-1.18,2.82-2.95,5.04-6.02,5.95,1.38-2.62,3.24-4.75,6.02-5.95Z"/>
      <path class="cls-12" d="m337.39,701c-.86,2.61.52,6.88-4.56,7.07-4.05.15-8.12-2.8-8.07-5.7.05-3.4,4.82-7.55,8.5-7.54,4.27.02,3.86,3.14,4.14,6.17Z"/>
      <path class="cls-75" d="m170.8,145.29c0-3.65-.01-7.3,0-10.94.01-2.53,1.11-3.75,3.75-2.98.48.14,1,.2,1.42.43,2.14,1.21,5.25-2.24,6.55.84.89,2.12.23,4.9.29,7.38.12,5.29.14,10.59.44,15.87.13,2.31-.91,2.95-2.86,3-2.31.06-4.6-.07-6.92.44-2.36.52-2.68-1.32-2.7-3.1-.03-3.65,0-7.3,0-10.94h.02Z"/>
      <path class="cls-126" d="m329.91,704.92c-.19-.03-2.67.65-2.37-2.21.34-3.19,2.3-5.69,5.49-6.16,2.7-.4,2.21,2.18,2.31,3.88.17,2.8-.4,5.01-5.43,4.49Z"/>
    </g>
  </g>
</svg>